<?xml version="1.0" standalone="no"?>
<!DOCTYPE svg PUBLIC "-//W3C//DTD SVG 1.1//EN" "http://www.w3.org/Graphics/SVG/1.1/DTD/svg11.dtd" >
<svg xmlns="http://www.w3.org/2000/svg" xmlns:xlink="http://www.w3.org/1999/xlink" version="1.1">
<metadata>
Created by FontForge 20170731 at Fri May  5 01:28:35 2017
 By Aleksey,,,
Copyright (c) 2016-2017 Apple Inc. All rights reserved.
</metadata>
<defs>
<font id="SFMono-Regular" horiz-adv-x="1266" >
  <font-face 
    font-family="SF Mono"
    font-weight="400"
    font-stretch="normal"
    units-per-em="2048"
    panose-1="2 11 0 9 0 0 2 0 0 0"
    ascent="1638"
    descent="-410"
    x-height="1085"
    cap-height="1443"
    bbox="-154 -840 1420 2301"
    underline-thickness="100"
    underline-position="-400"
    unicode-range="U+0020-FB02"
  />
<missing-glyph 
 />
    <glyph glyph-name=".notdef" 
 />
    <glyph glyph-name="glyph1" 
 />
    <glyph glyph-name="nonmarkingreturn" horiz-adv-x="0" 
 />
    <glyph glyph-name="space" unicode=" " 
 />
    <glyph glyph-name="exclam" unicode="!" 
d="M534 1443h199l-17 -994h-166zM633 -19q-57 0 -97 41.5t-40 100.5t40 100.5t97 41.5t97 -41.5t40 -100.5t-40 -100.5t-97 -41.5z" />
    <glyph glyph-name="quotedbl" unicode="&#x22;" 
d="M528 811h-178v632h178v-632zM919 811h-180v632h180v-632z" />
    <glyph glyph-name="numbersign" unicode="#" 
d="M1165 899h-210l-67 -339h210l-29 -149h-210l-82 -411h-143l82 411h-296l-81 -411h-143l82 411h-210l31 149h210l66 339h-210l29 147h210l79 397h143l-79 -397h295l80 397h143l-80 -397h210zM515 902l-67 -346h299l68 346h-300z" />
    <glyph glyph-name="dollar" unicode="$" 
d="M708 638v-518q125 15 199.5 85.5t74.5 176.5q0 98 -64.5 158t-209.5 98zM589 835v489q-118 -14 -185 -79t-67 -167q0 -93 58.5 -149.5t193.5 -93.5zM708 804l33 -9q215 -53 309.5 -148t94.5 -257q0 -178 -118 -291t-319 -129v-111h-119v111q-199 15 -320 124.5
t-132 286.5h160q12 -108 90.5 -177.5t201.5 -83.5v548l-21 5q-204 50 -299.5 147t-95.5 253q0 169 112.5 276.5t303.5 123.5v111h119v-112q179 -16 291 -122t121 -270h-158q-13 100 -80 164.5t-174 78.5v-519z" />
    <glyph glyph-name="percent" unicode="%" 
d="M275 747q-127 0 -201 83t-74 224v103q0 140 74.5 222.5t200.5 82.5q127 0 201 -82.5t74 -222.5v-103q0 -141 -74 -224t-201 -83zM275 873q144 0 144 200v63q0 200 -144 200q-71 0 -107.5 -51t-36.5 -149v-63q0 -98 36.5 -149t107.5 -51zM991 -19q-127 0 -201 83t-74 224
v103q0 140 74 222.5t201 82.5q126 0 200.5 -82.5t74.5 -222.5v-103q0 -141 -74 -224t-201 -83zM991 106q70 0 107 51.5t37 149.5v63q0 98 -36.5 149t-107.5 51q-144 0 -144 -200v-63q0 -201 144 -201zM1266 1443v-155l-1266 -1288v155z" />
    <glyph glyph-name="ampersand" unicode="&#x26;" 
d="M1021 0l-115 148q-172 -174 -406 -174q-190 0 -310 112t-120 288q0 236 262 407l46 31q-162 197 -162 352q0 137 90 223t233 86q141 0 230 -86t89 -223q0 -109 -60.5 -195t-208.5 -183l311 -391q54 127 60 324v9h145v-15q-9 -267 -109 -442l223 -271h-198zM423 676
q-193 -120 -193 -294q0 -116 76 -187.5t200 -71.5q201 0 313 134l-356 445zM538 1333q-74 0 -123 -49t-49 -122q0 -61 31.5 -124.5t106.5 -153.5q117 77 161.5 137.5t44.5 140.5q0 73 -49 122t-123 49z" />
    <glyph glyph-name="quotesingle" unicode="'" 
d="M723 811h-179v632h179v-632z" />
    <glyph glyph-name="parenleft" unicode="(" 
d="M415 722q0 518 301 860h169q-155 -218 -224.5 -421t-69.5 -439t69.5 -439t224.5 -421h-169q-301 342 -301 860z" />
    <glyph glyph-name="parenright" unicode=")" 
d="M381 1582h169q301 -342 301 -860t-301 -860h-169q155 218 224.5 421t69.5 439t-69.5 439t-224.5 421z" />
    <glyph glyph-name="asterisk" unicode="*" 
d="M1172 867l-417 -227l417 -227l-71 -129l-409 251l12 -478h-142l12 479l-409 -252l-71 129l417 227l-417 227l71 129l409 -252l-12 478h142l-12 -478l409 252z" />
    <glyph glyph-name="plus" unicode="+" 
d="M711 561v-452h-156v452h-455v158h455v453h156v-453h455v-158h-455z" />
    <glyph glyph-name="comma" unicode="," 
d="M581 -335h-179l130 714h230z" />
    <glyph glyph-name="hyphen" unicode="-" 
d="M1162 561h-1058v158h1058v-158z" />
    <glyph glyph-name="hyphen" unicode="&#x2011;" 
d="M1162 561h-1058v158h1058v-158z" />
    <glyph glyph-name="period" unicode="." 
d="M633 -6q-74 0 -127.5 54.5t-53.5 130.5t53.5 130t127.5 54t127.5 -54t53.5 -130t-53.5 -130.5t-127.5 -54.5z" />
    <glyph glyph-name="slash" unicode="/" 
d="M364 -137h-166l703 1717h167z" />
    <glyph glyph-name="zero" unicode="0" 
d="M938 882l-580 -490q71 -269 276 -269q153 0 232 152.5t79 445.5q0 91 -7 161zM329 562l581 485q-70 272 -276 272q-153 0 -232.5 -152t-79.5 -446q0 -90 7 -159zM634 1475q235 0 361 -195t126 -559t-126 -559t-361 -195t-361 194.5t-126 559.5t126 559.5t361 194.5z" />
    <glyph glyph-name="one" unicode="1" 
d="M772 155h406v-155h-1006v155h426v1088h-16l-413 -267v188l430 279h173v-1288z" />
    <glyph glyph-name="two" unicode="2" 
d="M173 1037q0 191 127 313.5t324 122.5q199 0 323 -112t124 -293q0 -113 -63 -223t-235 -298l-340 -370v-17h661v-160h-913v122l488 543q137 154 182 232t45 164q0 116 -75.5 186.5t-201.5 70.5q-125 0 -200.5 -77t-75.5 -204v-6h-170v6z" />
    <glyph glyph-name="three" unicode="3" 
d="M457 669v148h157q121 0 198 72t77 185q0 110 -74.5 177t-196.5 67t-198 -67t-86 -183h-169q13 188 136.5 296.5t323.5 108.5q194 0 318 -105t124 -269q0 -130 -65 -218.5t-181 -117.5v-16q144 -19 225 -114t81 -243q0 -184 -139 -302t-355 -118q-214 0 -350 113t-146 300
h167q12 -115 100.5 -184.5t223.5 -69.5q148 0 234.5 71.5t86.5 193.5q0 126 -88.5 200.5t-238.5 74.5h-165z" />
    <glyph glyph-name="four" unicode="4" 
d="M802 0v305h-658v143l490 995h180l-483 -972v-13h473v412h160v-410h220v-155h-221v-305h-161z" />
    <glyph glyph-name="five" unicode="5" 
d="M621 -29q-202 0 -332.5 114t-141.5 300h170q12 -113 99.5 -184t214.5 -71q139 0 224.5 90t85.5 237q0 149 -85.5 240.5t-224.5 91.5q-97 0 -173.5 -42t-119.5 -119h-167l73 815h789v-159h-650l-40 -471h16q108 131 301 131q200 0 326.5 -135t126.5 -348
q0 -219 -136 -354.5t-356 -135.5z" />
    <glyph glyph-name="six" unicode="6" 
d="M1128 463q0 -215 -139 -354t-353 -139q-213 0 -351 139t-138 354q0 127 46 249.5t149 273.5q8 13 165 234t158 223h203l-394 -541q-38 -54 -47 -74l15 -8q32 43 101 72t138 29q193 0 320 -130.5t127 -327.5zM637 127q136 0 228 94t92 233q0 140 -92 234t-228 94
t-227.5 -94t-91.5 -234q0 -139 91.5 -233t227.5 -94z" />
    <glyph glyph-name="seven" unicode="7" 
d="M287 0l655 1272v13h-783v158h963v-163l-647 -1280h-188z" />
    <glyph glyph-name="eight" unicode="8" 
d="M638 830q125 0 201 67.5t76 178.5q0 110 -76 177.5t-201 67.5t-201.5 -67.5t-76.5 -177.5q0 -111 76.5 -178.5t201.5 -67.5zM638 121q147 0 239 77.5t92 201.5t-92 201.5t-239 77.5t-239 -77.5t-92 -201.5t92 -201.5t239 -77.5zM638 -32q-225 0 -367 116.5t-142 301.5
q0 134 80.5 235t213.5 133v16q-109 30 -172.5 116.5t-63.5 204.5q0 169 127 276.5t324 107.5t323.5 -107.5t126.5 -276.5q0 -118 -63 -204t-173 -117v-16q131 -28 212.5 -129.5t81.5 -238.5q0 -185 -141.5 -301.5t-366.5 -116.5z" />
    <glyph glyph-name="nine" unicode="9" 
d="M140 980q0 215 138.5 354t352.5 139t352 -138.5t138 -354.5q0 -123 -47 -246t-153 -277q-8 -14 -157 -224t-166 -233h-202l393 541q32 43 49 74l-15 8q-32 -43 -99.5 -72t-136.5 -29q-193 0 -320 130t-127 328zM630 1316q-136 0 -227.5 -94t-91.5 -233q0 -140 91.5 -234
t227.5 -94t228 94t92 234q0 139 -92 233t-228 94z" />
    <glyph glyph-name="colon" unicode=":" 
d="M633 -6q-74 0 -127.5 54.5t-53.5 130.5t53.5 130t127.5 54t127.5 -54t53.5 -130t-53.5 -130.5t-127.5 -54.5zM633 762q-74 0 -127.5 54.5t-53.5 130.5t53.5 130.5t127.5 54.5t127.5 -54.5t53.5 -130.5t-53.5 -130.5t-127.5 -54.5z" />
    <glyph glyph-name="semicolon" unicode=";" 
d="M633 762q-74 0 -127.5 54.5t-53.5 130.5t53.5 130.5t127.5 54.5t127.5 -54.5t53.5 -130.5t-53.5 -130.5t-127.5 -54.5zM581 -332h-179l130 711h230z" />
    <glyph glyph-name="less" unicode="&#x3c;" 
d="M1063 1030l-688 -381v-18l688 -381v-191l-860 507v148l860 507v-191z" />
    <glyph glyph-name="equal" unicode="=" 
d="M1162 329h-1058v165h1058v-165zM1162 785h-1058v165h1058v-165z" />
    <glyph glyph-name="greater" unicode="&#x3e;" 
d="M890 649l-687 381v191l860 -507v-148l-860 -507v191l687 381v18z" />
    <glyph glyph-name="question" unicode="?" 
d="M213 1067q9 181 123.5 285.5t302.5 104.5q182 0 298.5 -102t116.5 -261q0 -220 -204 -344q-91 -56 -125 -106t-34 -130v-65h-174v91q-1 98 45 170t149 135q87 54 122 107.5t35 132.5q0 94 -65.5 153t-170.5 59q-108 0 -174.5 -61t-75.5 -169h-169zM611 -19
q-57 0 -97 41.5t-40 100.5t40 100.5t97 41.5t97 -41.5t40 -100.5t-40 -100.5t-97 -41.5z" />
    <glyph glyph-name="at" unicode="@" 
d="M663 -198q-270 0 -409.5 188t-139.5 553v187q0 365 136 555t398 190q249 0 384 -159t135 -455v-299q0 -121 -60 -188.5t-168 -67.5h-255q-56 0 -89 32.5t-33 88.5v409q0 56 26.5 89t70.5 33t70 -33t26 -89v-415h164q69 0 97.5 31t28.5 106v281q0 255 -100.5 385
t-297.5 130q-210 0 -309.5 -153.5t-99.5 -479.5v-155q0 -332 107.5 -487.5t335.5 -155.5q68 0 132 10t95 26v-118q-81 -39 -245 -39z" />
    <glyph glyph-name="A" unicode="A" 
d="M425 565h410l-202 666h-5zM1006 0l-125 414h-502l-126 -414h-179l465 1443h188l465 -1443h-186z" />
    <glyph glyph-name="B" unicode="B" 
d="M660 0h-472v1443h467q200 0 313 -94.5t113 -262.5q0 -119 -69.5 -207.5t-178.5 -107.5v-15q145 -14 233 -111t88 -242q0 -190 -130.5 -296.5t-363.5 -106.5zM363 1291v-471h225q154 0 234.5 60.5t80.5 174.5q0 113 -75 174.5t-213 61.5h-252zM363 153h259
q172 0 260.5 66.5t88.5 195.5q0 128 -90 193t-265 65h-253v-520z" />
    <glyph glyph-name="C" unicode="C" 
d="M666 137q144 0 229.5 81t89.5 220h178q0 -209 -138 -338.5t-359 -129.5q-254 0 -395 163.5t-141 459.5v257q0 296 141 459.5t395 163.5q228 0 361 -131t137 -362h-179q-4 146 -92.5 236t-227.5 90q-175 0 -265 -116t-90 -340v-257q0 -224 90.5 -340t265.5 -116z" />
    <glyph glyph-name="D" unicode="D" 
d="M160 1443h404q615 0 615 -719q0 -724 -615 -724h-404v1443zM337 1281v-1119h211q230 0 340.5 137.5t110.5 423.5q0 283 -111 420.5t-340 137.5h-211z" />
    <glyph glyph-name="E" unicode="E" 
d="M1082 162v-162h-852v1443h852v-162h-675v-468h638v-155h-638v-496h675z" />
    <glyph glyph-name="F" unicode="F" 
d="M431 0h-177v1443h851v-162h-674v-495h616v-157h-616v-629z" />
    <glyph glyph-name="G" unicode="G" 
d="M976 442v141h-333v151h511v-307q0 -203 -138 -330t-357 -127q-254 0 -394.5 163.5t-140.5 459.5v257q0 296 140.5 459.5t394.5 163.5q225 0 357.5 -129t137.5 -353h-178q-6 141 -94 228t-226 87q-175 0 -264.5 -116t-89.5 -340v-257q0 -224 90 -340t265 -116
q148 0 233.5 81.5t85.5 223.5z" />
    <glyph glyph-name="H" unicode="H" 
d="M1113 0h-175v656h-610v-656h-175v1443h175v-625h610v625h175v-1443z" />
    <glyph glyph-name="I" unicode="I" 
d="M1013 0h-760v157h292v1129h-292v157h760v-157h-292v-1129h292v-157z" />
    <glyph glyph-name="J" unicode="J" 
d="M591 -30q-188 0 -305.5 108t-118.5 283h173q4 -100 73 -161.5t176 -61.5q122 0 188.5 72.5t66.5 205.5v870h-496v157h673v-1032q0 -206 -115 -323.5t-315 -117.5z" />
    <glyph glyph-name="K" unicode="K" 
d="M389 0h-173v1443h173v-718h13l584 718h206l-534 -638l586 -805h-219l-486 669l-150 -178v-491z" />
    <glyph glyph-name="L" unicode="L" 
d="M1122 164v-164h-859v1443h175v-1279h684z" />
    <glyph glyph-name="M" unicode="M" 
d="M257 553v-553h-158v1443h195l333 -893h13l332 893h195v-1443h-158v553l10 585h-13l-304 -799h-138l-304 799h-13z" />
    <glyph glyph-name="N" unicode="N" 
d="M312 0h-159v1443h169l618 -1123h14v1123h159v-1443h-167l-620 1126h-14v-1126z" />
    <glyph glyph-name="O" unicode="O" 
d="M1162 605q0 -298 -141 -466.5t-388 -168.5t-388 168.5t-141 466.5v233q0 298 141 466.5t388 168.5t388 -168.5t141 -466.5v-233zM633 137q165 0 258 122.5t93 346.5v231q0 224 -93 346.5t-258 122.5t-258 -122.5t-93 -346.5v-231q0 -224 93 -346.5t258 -122.5z" />
    <glyph glyph-name="P" unicode="P" 
d="M198 1443h480q210 0 336.5 -126.5t126.5 -336.5q0 -209 -127.5 -335.5t-339.5 -126.5h-299v-518h-177v1443zM375 1286v-611h259q158 0 243 79t85 226q0 148 -85 227t-243 79h-259z" />
    <glyph glyph-name="Q" unicode="Q" 
d="M280 833v-229q0 -226 93.5 -349t259.5 -123q77 0 138 27l-195 302h188l131 -203q91 123 91 346v229q0 226 -93.5 349.5t-259.5 123.5t-259.5 -123.5t-93.5 -349.5zM1167 -165h-188l-117 182q-102 -47 -229 -47q-247 0 -388 168.5t-141 466.5v233q0 298 141 466.5
t388 168.5t388 -168.5t141 -466.5v-233q0 -328 -170 -498z" />
    <glyph glyph-name="R" unicode="R" 
d="M356 1286v-562h286q149 0 230 73t81 208q0 134 -79 207.5t-224 73.5h-294zM688 575h-332v-575h-174v1443h484q215 0 340 -116.5t125 -317.5q0 -142 -73 -249.5t-196 -148.5l294 -611h-199z" />
    <glyph glyph-name="S" unicode="S" 
d="M139 384h172q14 -119 103.5 -186.5t233.5 -67.5t231 69.5t87 185.5q0 94 -66.5 153t-212.5 95l-124 31q-201 51 -295 149t-94 255q0 185 128.5 295t344.5 110q204 0 333 -108.5t138 -288.5h-172q-14 112 -92.5 174.5t-205.5 62.5q-139 0 -217.5 -62.5t-78.5 -172.5
q0 -94 63.5 -151.5t204.5 -92.5l126 -32q210 -52 304 -148.5t94 -259.5q0 -194 -135 -309t-362 -115q-224 0 -360.5 111t-147.5 303z" />
    <glyph glyph-name="T" unicode="T" 
d="M721 0h-176v1281h-436v162h1048v-162h-436v-1281z" />
    <glyph glyph-name="U" unicode="U" 
d="M633 137q157 0 244.5 98.5t87.5 276.5v931h176v-942q0 -249 -135 -390t-373 -141t-373 141t-135 390v942h176v-931q0 -178 87.5 -276.5t244.5 -98.5z" />
    <glyph glyph-name="V" unicode="V" 
d="M638 212l376 1231h178l-465 -1443h-188l-465 1443h185l374 -1231h5z" />
    <glyph glyph-name="W" unicode="W" 
d="M639 895h-12l-213 -895h-166l-248 1443h167l87 -578l87 -601h11l202 849h158l202 -849h11l87 601l87 578h167l-248 -1443h-166z" />
    <glyph glyph-name="X" unicode="X" 
d="M71 0l458 725l-455 718h200l362 -580h8l365 580h186l-464 -723l457 -720h-196l-364 573h-7l-367 -573h-183z" />
    <glyph glyph-name="Y" unicode="Y" 
d="M721 0h-176v595l-481 848h197l365 -660h14l365 660h197l-481 -848v-595z" />
    <glyph glyph-name="Z" unicode="Z" 
d="M137 0v129l757 1138v14h-732v162h956v-130l-755 -1137v-14h768v-162h-994z" />
    <glyph glyph-name="bracketleft" unicode="[" 
d="M373 1580h527v-137h-362v-1443h364v-137h-529v1717z" />
    <glyph glyph-name="backslash" unicode="\" 
d="M1068 -137h-166l-704 1717h167z" />
    <glyph glyph-name="bracketright" unicode="]" 
d="M375 1580h527v-1717h-529v137h363v1443h-361v137z" />
    <glyph glyph-name="asciicircum" unicode="^" 
d="M624 1275l-228 -570h-168l311 738h188l310 -738h-167l-229 570h-17z" />
    <glyph glyph-name="underscore" unicode="_" 
d="M1152 -312h-1038v147h1038v-147z" />
    <glyph glyph-name="grave" unicode="`" 
d="M856 1296h-181l-265 339h207z" />
    <glyph glyph-name="a" unicode="a" 
d="M523 -19q-155 0 -250 89.5t-95 237.5q0 144 100 226.5t285 92.5l298 15v98q0 102 -60.5 156.5t-173.5 54.5q-94 0 -157 -38t-84 -108h-167q15 130 129 211.5t281 81.5q191 0 296 -93t105 -263v-743h-162v163h-17q-39 -87 -124 -134t-204 -47zM572 130q123 0 206 72.5
t83 181.5v128l-279 -13q-114 -5 -173 -52.5t-59 -132.5t59.5 -134.5t162.5 -49.5z" />
    <glyph glyph-name="b" unicode="b" 
d="M701 -18q-116 0 -199.5 47t-125.5 137h-19v-166h-167v1511h173v-594h18q36 89 119 137.5t201 48.5q188 0 301.5 -125.5t113.5 -333.5v-202q0 -209 -113.5 -334.5t-301.5 -125.5zM651 137q135 0 214.5 89.5t79.5 239.5v156q0 150 -79.5 239t-214.5 89q-134 0 -213 -89
t-79 -239v-156q0 -151 79 -240t213 -89z" />
    <glyph glyph-name="c" unicode="c" 
d="M1085 747h-168q-16 95 -88.5 151t-178.5 56q-142 0 -218 -93.5t-76 -268.5v-98q0 -175 76 -268t218 -93q105 0 178 55t89 148h168q-20 -166 -136 -261t-296 -95q-221 0 -344 129.5t-123 362.5v142q0 233 123 362.5t344 129.5q180 0 295.5 -96t136.5 -263z" />
    <glyph glyph-name="d" unicode="d" 
d="M321 622v-156q0 -150 80 -239.5t214 -89.5t213.5 89t79.5 240v156q0 150 -79.5 239t-213.5 89t-214 -89t-80 -239zM909 166h-19q-42 -90 -125.5 -137t-199.5 -47q-188 0 -301.5 125.5t-113.5 334.5v202q0 208 113.5 333.5t301.5 125.5q118 0 201.5 -48.5t118.5 -137.5h18
v594h173v-1511h-167v166z" />
    <glyph glyph-name="e" unicode="e" 
d="M645 959q-136 0 -213 -88t-77 -244h571q0 155 -75 243.5t-206 88.5zM926 280h165q-25 -135 -143.5 -217.5t-289.5 -82.5q-224 0 -347.5 128t-123.5 360v163q0 214 126 344t333 130q211 0 329.5 -132.5t118.5 -368.5v-106h-739v-44q0 -149 82 -238t221 -89q103 0 174 41
t94 112z" />
    <glyph glyph-name="f" unicode="f" 
d="M473 0v937h-291v145h291v109q0 157 98 232.5t299 75.5q178 0 250 -10v-139q-85 9 -248 9q-231 0 -231 -165v-112h479v-145h-477v-937h-170z" />
    <glyph glyph-name="g" unicode="g" 
d="M310 473q0 -149 80.5 -239t215.5 -90q134 0 214 89.5t80 239.5v149q0 150 -80 239t-214 89q-135 0 -215.5 -89.5t-80.5 -238.5v-149zM601 -407q-188 0 -306.5 77.5t-134.5 212.5h168q17 -68 92 -108.5t184 -40.5q143 0 219 70t76 200v169h-18q-36 -86 -122 -134.5
t-204 -48.5q-188 0 -302 125.5t-114 333.5v195q0 209 114.5 334t305.5 125q118 0 203 -49t120 -137h19v168h168v-1085q0 -191 -124 -299t-344 -108z" />
    <glyph glyph-name="h" unicode="h" 
d="M188 0v1511h164v-618h14q43 101 133.5 156t214.5 55q177 0 270.5 -103.5t93.5 -297.5v-703h-170v660q0 146 -61.5 217t-188.5 71q-134 0 -217 -85.5t-83 -224.5v-638h-170z" />
    <glyph glyph-name="i" unicode="i" 
d="M652 1351q-60 0 -100.5 40t-40.5 100q0 59 40.5 99t100.5 40t100.5 -40t40.5 -99q0 -60 -40.5 -100t-100.5 -40zM1107 0h-899v141h372v803h-369v141h537v-944h359v-141z" />
    <glyph glyph-name="j" unicode="j" 
d="M874 1085v-1079q0 -180 -99 -257.5t-326 -77.5q-167 0 -263 8v152q83 -8 258 -8q151 0 207 43.5t56 159.5v918h-496v141h663zM776 1351q-60 0 -100.5 40t-40.5 100q0 59 40.5 99t100.5 40t100.5 -40t40.5 -99q0 -60 -40.5 -100t-100.5 -40z" />
    <glyph glyph-name="k" unicode="k" 
d="M1161 0h-202l-371 539l-149 -144v-395h-170v1511h170v-913h13l473 487h206l-421 -429z" />
    <glyph glyph-name="l" unicode="l" 
d="M1107 0h-899v141h371v1229h-368v141h538v-1370h358v-141z" />
    <glyph glyph-name="m" unicode="m" 
d="M1156 799v-799h-153v749q0 201 -139 201q-71 0 -112 -58.5t-41 -159.5v-732h-152v750q0 200 -140 200q-72 0 -114 -58.5t-42 -159.5v-732h-153v1085h152v-153h18q20 81 75 127t132 46q76 0 128 -45t69 -125h18q21 78 81.5 124t142.5 46q113 0 171.5 -77.5t58.5 -228.5z
" />
    <glyph glyph-name="n" unicode="n" 
d="M189 0v1085h163v-191h14q44 101 133.5 156t213.5 55q177 0 270.5 -103t93.5 -298v-704h-170v661q0 147 -61 217.5t-188 70.5q-134 0 -216.5 -85.5t-82.5 -224.5v-639h-170z" />
    <glyph glyph-name="o" unicode="o" 
d="M633 -20q-215 0 -342.5 130t-127.5 350v164q0 220 127.5 350t342.5 130t342.5 -130t127.5 -350v-164q0 -220 -127.5 -350t-342.5 -130zM633 954q-140 0 -221 -92.5t-81 -252.5v-133q0 -160 81 -252.5t221 -92.5t221 92.5t81 252.5v133q0 160 -81 252.5t-221 92.5z" />
    <glyph glyph-name="p" unicode="p" 
d="M701 1103q188 0 301.5 -125.5t113.5 -334.5v-202q0 -208 -113.5 -333.5t-301.5 -125.5q-118 0 -201 48.5t-118 137.5h-19v-534h-173v1451h168v-166h18q43 90 126 137t199 47zM652 947q-134 0 -213.5 -89t-79.5 -239v-156q0 -151 79.5 -240t213.5 -89t213.5 89.5
t79.5 239.5v156q0 150 -79.5 239t-213.5 89z" />
    <glyph glyph-name="q" unicode="q" 
d="M907 463v156q0 150 -79.5 239t-213.5 89t-213.5 -89t-79.5 -239v-156q0 -150 79.5 -239.5t213.5 -89.5t213.5 89t79.5 240zM150 441v202q0 209 113.5 334.5t301.5 125.5q116 0 199 -47t126 -137h18v166h168v-1451h-173v534h-19q-35 -89 -118 -137.5t-201 -48.5
q-188 0 -301.5 125.5t-113.5 333.5z" />
    <glyph glyph-name="r" unicode="r" 
d="M588 808h22q30 150 128 227.5t256 77.5q99 0 157 -24v-191q-83 30 -179 30q-180 0 -281 -117.5t-101 -324.5v-350h336v-136h-721v136h219v813h-241v136h405v-277z" />
    <glyph glyph-name="s" unicode="s" 
d="M238 792q0 141 110 227.5t289 86.5q169 0 276.5 -79t122.5 -215h-164q-15 71 -79 112t-159 41q-103 0 -165 -44.5t-62 -118.5q0 -62 45 -100t147 -60l153 -35q158 -36 232.5 -107.5t74.5 -189.5q0 -150 -115.5 -240t-308.5 -90q-184 0 -299 80.5t-129 220.5h173
q19 -75 87.5 -116.5t173.5 -41.5q111 0 176.5 46.5t65.5 124.5q0 65 -44 102.5t-147 60.5l-161 37q-293 67 -293 298z" />
    <glyph glyph-name="t" unicode="t" 
d="M448 1376h168v-294h440v-145h-438v-612q0 -88 60.5 -135t175.5 -47q141 0 199 6v-144q-54 -10 -211 -10q-202 0 -298 79.5t-96 248.5v614h-289v145h289v294z" />
    <glyph glyph-name="u" unicode="u" 
d="M1077 1085v-1085h-163v191h-14q-44 -101 -133.5 -156t-213.5 -55q-177 0 -270.5 103t-93.5 298v704h170v-661q0 -147 61 -217.5t188 -70.5q134 0 216.5 85.5t82.5 224.5v639h170z" />
    <glyph glyph-name="v" unicode="v" 
d="M143 1085h182l303 -903h13l301 903h181l-396 -1085h-187z" />
    <glyph glyph-name="w" unicode="w" 
d="M1219 1085l-233 -1085h-163l-184 846h-12l-184 -846h-163l-233 1085h166l147 -870h18l175 869h160l175 -869h18l147 870h166z" />
    <glyph glyph-name="x" unicode="x" 
d="M637 418h-13l-274 -418h-188l372 543l-375 542h201l270 -411h14l269 411h191l-371 -535l374 -550h-197z" />
    <glyph glyph-name="y" unicode="y" 
d="M329 -386q-51 0 -73 3v149q17 -4 60 -4q77 0 123 39t80 133l19 59l-399 1092h185l304 -908h13l303 908h181l-409 -1125q-71 -200 -153.5 -273t-233.5 -73z" />
    <glyph glyph-name="z" unicode="z" 
d="M211 0v120l637 806v13h-634v146h837v-127l-627 -799v-13h631v-146h-844z" />
    <glyph glyph-name="braceleft" unicode="{" 
d="M1023 -137h-136q-182 0 -251 69.5t-69 254.5v224q0 253 -324 220v181q324 -33 324 220v224q0 185 69 254.5t251 69.5h136v-137h-109q-112 0 -145.5 -39t-33.5 -170v-267q0 -107 -79.5 -170.5t-228.5 -67.5v-16q149 -3 228.5 -66.5t79.5 -170.5v-267q0 -131 33.5 -170
t145.5 -39h109v-137z" />
    <glyph glyph-name="bar" unicode="|" 
d="M711 -483h-156v2063h156v-2063z" />
    <glyph glyph-name="braceright" unicode="}" 
d="M379 -137h-136v137h109q112 0 145.5 39t33.5 170v267q0 107 79.5 170.5t228.5 66.5v16q-149 4 -228.5 67.5t-79.5 170.5v267q0 131 -33.5 170t-145.5 39h-109v137h136q182 0 251 -69.5t69 -254.5v-224q0 -253 324 -220v-181q-324 33 -324 -220v-224q0 -185 -69 -254.5
t-251 -69.5z" />
    <glyph glyph-name="asciitilde" unicode="~" 
d="M299 556h-159q0 2 -0.5 11t-0.5 12q0 147 77.5 236.5t204.5 89.5q73 0 132 -29t125 -96q52 -55 88 -77t73 -22q58 0 91.5 46t38.5 133h157v-22q0 -148 -76.5 -237t-202.5 -89q-73 0 -132.5 28.5t-124.5 95.5q-52 55 -86.5 77t-68.5 22q-125 0 -136 -179z" />
    <glyph glyph-name="exclamdown" unicode="&#xa1;" 
d="M633 1112q57 0 97 -41.5t40 -100.5t-40 -100.5t-97 -41.5t-97 41.5t-40 100.5t40 100.5t97 41.5zM733 -350h-199l16 994h166z" />
    <glyph glyph-name="cent" unicode="&#xa2;" 
d="M898 479h170q-4 -117 -98 -201.5t-235 -106.5v-173h-170v172q-171 24 -268 143t-97 319v185q0 195 98.5 314t266.5 145v169h170v-169q140 -22 228 -109.5t96 -212.5h-168q-12 74 -78 123.5t-160 49.5q-130 0 -205 -85t-75 -233v-171q0 -148 73.5 -231t206.5 -83
q97 0 165 45t80 110z" />
    <glyph glyph-name="sterling" unicode="&#xa3;" 
d="M1152 163v-163h-1008v157q126 29 207 126t82 221q0 82 -23 152h-269v148h222q-61 166 -61 280q0 185 128.5 289t357.5 104q86 0 141.5 -8t133.5 -34v-164q-128 43 -264 43q-152 0 -232.5 -65t-80.5 -187q0 -60 11 -109t46 -149h438v-148h-394q23 -78 23 -145
q1 -101 -46 -189t-132 -142v-17h720z" />
    <glyph glyph-name="currency" unicode="&#xa4;" 
d="M1132 1047l-165 -170q65 -97 65 -221q0 -126 -66 -222l166 -171l-105 -110l-168 174q-93 -67 -215 -67q-120 0 -216 67l-166 -174l-107 110l169 172q-66 96 -66 221q0 126 66 219l-169 172l107 111l167 -174q94 68 215 68q123 0 216 -67l167 173zM645 397q110 0 182 73.5
t72 185.5q0 113 -72 186.5t-182 73.5q-111 0 -183 -73.5t-72 -186.5q0 -112 72 -185.5t183 -73.5z" />
    <glyph glyph-name="yen" unicode="&#xa5;" 
d="M1202 1443l-418 -737h209v-138h-272v-164h272v-138h-272v-266h-176v266h-271v138h271v164h-271v138h208l-418 737h197l365 -660h14l365 660h197z" />
    <glyph glyph-name="brokenbar" unicode="&#xa6;" 
d="M711 782h-156v798h156v-798zM711 -483h-156v798h156v-798z" />
    <glyph glyph-name="section" unicode="&#xa7;" 
d="M569 406l83 -22q94 2 153 52t59 129q0 126 -165 167l-84 25q-91 -2 -151 -53t-60 -128q0 -64 43.5 -109t121.5 -61zM638 -259q-169 0 -279.5 84t-119.5 218h174q10 -69 74.5 -110.5t159.5 -41.5q98 0 159 43t61 113q0 58 -46.5 96.5t-144.5 61.5l-142 40
q-304 80 -304 296q0 94 55.5 159.5t161.5 94.5v17q-213 85 -213 273q0 141 108.5 227.5t283.5 86.5q163 0 268 -78.5t121 -212.5h-172q-10 65 -70 103.5t-151 38.5q-97 0 -156.5 -43t-59.5 -113q0 -60 46 -98.5t142 -60.5l144 -38q299 -76 299 -290q0 -100 -67.5 -175.5
t-178.5 -98.5v-17q245 -59 245 -257q0 -140 -111.5 -229t-286.5 -89z" />
    <glyph glyph-name="dieresis" unicode="&#xa8;" 
d="M431 1320q-47 0 -82 36t-35 85t35 85.5t82 36.5t82 -36.5t35 -85.5t-35 -85t-82 -36zM835 1320q-47 0 -82 36t-35 85t35 85.5t82 36.5t82 -36.5t35 -85.5t-35 -85t-82 -36z" />
    <glyph glyph-name="copyright" unicode="&#xa9;" 
d="M879 813h-119q-26 88 -115 88q-67 0 -104 -47.5t-37 -131.5t37 -131.5t104 -47.5q45 0 75.5 22t39.5 60h119q-12 -86 -76.5 -139.5t-157.5 -53.5q-122 0 -192 77t-70 213t70 213t192 77q93 0 156.5 -54.5t77.5 -144.5zM633 172q-149 0 -273.5 72t-196.5 198.5t-72 278.5
t72 278.5t196.5 198.5t273.5 72t273.5 -72t196.5 -198.5t72 -278.5t-72 -278.5t-196.5 -198.5t-273.5 -72zM633 270q184 0 310 131t126 320t-126 320t-310 131t-310 -131t-126 -320t126 -320t310 -131z" />
    <glyph glyph-name="ordfeminine" unicode="&#xaa;" 
d="M608 652q100 0 166.5 62t66.5 155v96l-220 -17q-186 -11 -186 -148q0 -67 47 -107.5t126 -40.5zM560 515q-131 0 -211.5 77t-80.5 202q0 122 85.5 193t245.5 82l238 15v69q0 80 -49 123.5t-139 43.5q-74 0 -123 -30t-59 -81h-165q11 115 107.5 184.5t245.5 69.5
q165 0 254 -79.5t89 -225.5v-619h-155v118h-15q-39 -68 -109 -105t-159 -37z" />
    <glyph glyph-name="guillemotleft" unicode="&#xab;" 
d="M311 641v-4l350 -420h-176l-349 420v4l349 420h176zM777 641v-4l349 -420h-175l-350 420v4l350 420h175z" />
    <glyph glyph-name="logicalnot" unicode="&#xac;" 
d="M1162 719v-538h-157v380h-901v158h1058z" />
    <glyph glyph-name="registered" unicode="&#xae;" 
d="M527 724h-108v540h257q86 0 136 -45t50 -124q0 -58 -30.5 -100t-85.5 -62l143 -209h-132l-132 195h-98v-195zM527 1163v-153h126q44 0 67.5 20.5t23.5 58.5q0 36 -23.5 55t-67.5 19h-126zM633 442q-150 0 -274.5 72.5t-196 198.5t-71.5 278t71.5 278t196 198.5
t274.5 72.5t274.5 -72.5t196 -198.5t71.5 -278t-71.5 -278t-196 -198.5t-274.5 -72.5zM633 540q183 0 309.5 130.5t126.5 320.5t-126.5 320.5t-309.5 130.5t-309.5 -130.5t-126.5 -320.5t126.5 -320.5t309.5 -130.5z" />
    <glyph glyph-name="macron" unicode="&#xaf;" 
d="M963 1370h-660v139h660v-139z" />
    <glyph glyph-name="degree" unicode="&#xb0;" 
d="M634 838q-136 0 -227 91t-91 227t91 227t227 91t227 -91t91 -227t-91 -227t-227 -91zM634 960q84 0 139 55.5t55 140.5t-55 140.5t-139 55.5t-139 -55.5t-55 -140.5t55 -140.5t139 -55.5z" />
    <glyph glyph-name="plusminus" unicode="&#xb1;" 
d="M1133 110h-1000v148h1000v-148zM707 662v-288h-148v288h-426v140h426v288h148v-288h426v-140h-426z" />
    <glyph glyph-name="acute" unicode="&#xb4;" 
d="M591 1296h-181l239 339h207z" />
    <glyph glyph-name="mugreek" unicode="&#xb5;" 
d="M348 -366h-167v1451h168v-662q0 -139 63.5 -212.5t182.5 -73.5q127 0 208 83.5t81 220.5v644h168v-820q0 -68 23.5 -97.5t78.5 -29.5q22 0 55 7v-143q-39 -12 -93 -12q-106 0 -158 43t-58 136l-2 26h-14q-74 -215 -286 -215q-87 0 -148 35.5t-88 100.5h-14v-482z" />
    <glyph glyph-name="mugreek" unicode="&#x3bc;" 
d="M348 -366h-167v1451h168v-662q0 -139 63.5 -212.5t182.5 -73.5q127 0 208 83.5t81 220.5v644h168v-820q0 -68 23.5 -97.5t78.5 -29.5q22 0 55 7v-143q-39 -12 -93 -12q-106 0 -158 43t-58 136l-2 26h-14q-74 -215 -286 -215q-87 0 -148 35.5t-88 100.5h-14v-482z" />
    <glyph glyph-name="paragraph" unicode="&#xb6;" 
d="M801 -137h-166v706h-16q-197 0 -330.5 121.5t-133.5 308.5q0 194 134 319t331 125h181v-1580zM962 -137v1580h166v-1580h-166z" />
    <glyph glyph-name="periodcentered" unicode="&#xb7;" 
d="M634 589q-62 0 -105 44t-43 106q0 64 42.5 107t105.5 43q62 0 104.5 -43t42.5 -107q0 -63 -42.5 -106.5t-104.5 -43.5z" />
    <glyph glyph-name="cedilla" unicode="&#xb8;" 
d="M475 -236v86l61 150h132l-53 -132q97 -1 148 -43.5t51 -121.5q0 -87 -65 -138t-174 -51q-65 0 -132 17v110q46 -14 119 -14q115 0 115 72q0 35 -33.5 50t-110.5 15h-58z" />
    <glyph glyph-name="ordmasculine" unicode="&#xba;" 
d="M633 661q117 0 181 85.5t64 243.5q0 157 -64 243t-181 86t-181 -86t-64 -243q0 -158 64 -243.5t181 -85.5zM633 515q-193 0 -304 127t-111 348q0 220 111 347t304 127t304 -127t111 -347q0 -221 -111 -348t-304 -127z" />
    <glyph glyph-name="guillemotright" unicode="&#xbb;" 
d="M485 637v4l-349 420h175l350 -420v-4l-350 -420h-175zM950 637v4l-349 420h176l349 -420v-4l-349 -420h-176z" />
    <glyph glyph-name="onequarter" unicode="&#xbc;" 
d="M1029 0v128h-346v131q3 9 136 212t140 216h213v-441h94v-109h-94v-137h-143zM820 246v-3h213v330h-2q-5 -12 -106.5 -164t-104.5 -163zM176 758v542h-3l-173 -127v144l174 126h154v-685h-152zM1266 1443v-155l-1266 -1288v155z" />
    <glyph glyph-name="onehalf" unicode="&#xbd;" 
d="M756 476q0 101 71 163.5t186 62.5q110 0 178 -55.5t68 -145.5q0 -54 -27.5 -101.5t-96.5 -114.5l-159 -153v-3h290v-129h-500v111l258 247q44 43 62 73t18 59q0 39 -27.5 63t-71.5 24q-43 0 -71.5 -28.5t-28.5 -72.5v-3h-149v3zM176 758v542h-3l-173 -127v144l174 126
h154v-685h-152zM1266 1443v-155l-1266 -1288v155z" />
    <glyph glyph-name="threequarters" unicode="&#xbe;" 
d="M143 1051v115h82q45 0 71 23.5t26 63.5q0 38 -26.5 60t-72.5 22q-44 0 -72.5 -25t-31.5 -66h-142q2 100 71 158t184 58q108 0 174 -51t66 -134q0 -61 -37.5 -104t-101.5 -54v-7q75 -4 119.5 -48t44.5 -113q0 -92 -75 -150t-194 -58t-189.5 58.5t-74.5 159.5h151
q2 -40 32.5 -64t79.5 -24q48 0 78 25t30 64q0 43 -29.5 67t-79.5 24h-83zM1018 0v128h-346v131q7 17 138.5 217t137.5 211h213v-441h94v-109h-94v-137h-143zM809 246v-3h213v330h-2q-4 -10 -106 -164t-105 -163zM1266 1443v-155l-1266 -1288v155z" />
    <glyph glyph-name="questiondown" unicode="&#xbf;" 
d="M1054 24q-9 -181 -123.5 -285.5t-302.5 -104.5q-182 0 -298.5 102t-116.5 261q0 219 204 344q91 56 124.5 106.5t33.5 129.5v65h174l1 -91q1 -98 -45.5 -170t-149.5 -135q-86 -54 -121 -107.5t-35 -132.5q0 -94 65.5 -153t170.5 -59q108 0 174.5 61.5t74.5 168.5h170z
M655 1110q57 0 97 -41.5t40 -100.5t-40 -100.5t-97 -41.5t-97 41.5t-40 100.5t40 100.5t97 41.5z" />
    <glyph glyph-name="Agrave" unicode="&#xc0;" 
d="M747 1612h-186l-322 304h207zM425 565h410l-202 666h-5zM1006 0l-125 414h-502l-126 -414h-179l465 1443h188l465 -1443h-186z" />
    <glyph glyph-name="Aacute" unicode="&#xc1;" 
d="M1025 1916l-323 -304h-185l301 304h207zM425 565h410l-202 666h-5zM1006 0l-125 414h-502l-126 -414h-179l465 1443h188l465 -1443h-186z" />
    <glyph glyph-name="Acircumflex" unicode="&#xc2;" 
d="M626 1812l-180 -200h-179l286 309h160l286 -309h-179l-180 200h-14zM425 565h410l-202 666h-5zM1006 0l-125 414h-502l-126 -414h-179l465 1443h188l465 -1443h-186z" />
    <glyph glyph-name="Atilde" unicode="&#xc3;" 
d="M872 1888h123q0 -122 -59 -195t-155 -73q-43 0 -79 16t-60.5 39t-46.5 46t-48 39t-54 16q-94 0 -98 -146h-124q0 125 58 197.5t156 72.5q45 0 83 -16t63 -39t47 -46.5t46 -39.5t49 -16q44 0 70 37.5t29 107.5zM425 565h410l-202 666h-5zM1006 0l-125 414h-502l-126 -414
h-179l465 1443h188l465 -1443h-186z" />
    <glyph glyph-name="Adieresis" unicode="&#xc4;" 
d="M835 1651q-47 0 -82 36t-35 85t35 85t82 36t82 -36t35 -85t-35 -85t-82 -36zM431 1651q-47 0 -82 36t-35 85t35 85t82 36t82 -36t35 -85t-35 -85t-82 -36zM425 565h410l-202 666h-5zM1006 0l-125 414h-502l-126 -414h-179l465 1443h188l465 -1443h-186z" />
    <glyph glyph-name="Aring" unicode="&#xc5;" 
d="M633 1852q-44 0 -73 -28.5t-29 -72.5t29 -72.5t73 -28.5t73 28.5t29 72.5t-29 72.5t-73 28.5zM633 1559q-81 0 -137 56t-56 136q0 81 55.5 136.5t137.5 55.5t137.5 -55.5t55.5 -136.5t-56 -136.5t-137 -55.5zM425 565h410l-202 666h-5zM1006 0l-125 414h-502l-126 -414
h-179l465 1443h188l465 -1443h-186z" />
    <glyph glyph-name="AE" unicode="&#xc6;" 
d="M353 589h289v687h-92zM1233 1282h-430v-476h394v-157h-394v-487h430v-162h-591v435h-333l-124 -435h-181l432 1443h797v-161z" />
    <glyph glyph-name="Ccedilla" unicode="&#xc7;" 
d="M310 850v-257q0 -224 90.5 -340t265.5 -116q144 0 229.5 81t89.5 220h178q0 -194 -119.5 -320.5t-316.5 -144.5l-42 -105q96 -1 147 -43.5t51 -121.5q0 -87 -65 -138t-173 -51q-67 0 -132 17v110q46 -14 119 -14q114 0 114 72q0 35 -33.5 50t-110.5 15h-57v86l50 124
q-222 23 -343.5 184t-121.5 435v257q0 296 141 459.5t395 163.5q228 0 361 -131t137 -362h-179q-4 146 -92.5 236t-227.5 90q-175 0 -265 -116t-90 -340z" />
    <glyph glyph-name="Egrave" unicode="&#xc8;" 
d="M469 1916l301 -304h-186l-322 304h207zM1082 162v-162h-852v1443h852v-162h-675v-468h638v-155h-638v-496h675z" />
    <glyph glyph-name="Eacute" unicode="&#xc9;" 
d="M1082 162v-162h-852v1443h852v-162h-675v-468h638v-155h-638v-496h675zM536 1612l301 304h207l-322 -304h-186z" />
    <glyph glyph-name="Ecircumflex" unicode="&#xca;" 
d="M1082 162v-162h-852v1443h852v-162h-675v-468h638v-155h-638v-496h675zM736 1921l286 -309h-179l-180 200h-14l-180 -200h-180l287 309h160z" />
    <glyph glyph-name="Edieresis" unicode="&#xcb;" 
d="M1082 162v-162h-852v1443h852v-162h-675v-468h638v-155h-638v-496h675zM454 1651q-47 0 -82 36t-35 85t35 85t82 36t82 -36t35 -85t-35 -85t-82 -36zM858 1651q-47 0 -82 36t-35 85t35 85t82 36t82 -36t35 -85t-35 -85t-82 -36z" />
    <glyph glyph-name="Igrave" unicode="&#xcc;" 
d="M446 1916l301 -304h-186l-322 304h207zM1013 0h-760v157h292v1129h-292v157h760v-157h-292v-1129h292v-157z" />
    <glyph glyph-name="Iacute" unicode="&#xcd;" 
d="M1013 0h-760v157h292v1129h-292v157h760v-157h-292v-1129h292v-157zM517 1612l301 304h207l-323 -304h-185z" />
    <glyph glyph-name="Icircumflex" unicode="&#xce;" 
d="M1013 0h-760v157h292v1129h-292v157h760v-157h-292v-1129h292v-157zM713 1921l286 -309h-179l-180 200h-14l-180 -200h-179l286 309h160z" />
    <glyph glyph-name="Idieresis" unicode="&#xcf;" 
d="M1013 0h-760v157h292v1129h-292v157h760v-157h-292v-1129h292v-157zM431 1651q-47 0 -82 36t-35 85t35 85t82 36t82 -36t35 -85t-35 -85t-82 -36zM835 1651q-47 0 -82 36t-35 85t35 85t82 36t82 -36t35 -85t-35 -85t-82 -36z" />
    <glyph glyph-name="Eth" unicode="&#xd0;" 
d="M337 162h211q230 0 340.5 137.5t110.5 423.5q0 283 -111 420.5t-340 137.5h-211v-466h261v-157h-261v-496zM160 1443h404q615 0 615 -719q0 -724 -615 -724h-404v658h-135v157h135v628z" />
    <glyph glyph-name="Ntilde" unicode="&#xd1;" 
d="M312 0h-159v1443h169l618 -1123h14v1123h159v-1443h-167l-620 1126h-14v-1126zM778 1620q-43 0 -79 16t-60.5 39t-46.5 46t-48 39t-54 16q-94 0 -98 -146h-124q0 125 58 197.5t155 72.5q45 0 83.5 -16t63.5 -39t47 -46.5t46 -39.5t49 -16q44 0 69.5 37t28.5 108h123
q0 -122 -58.5 -195t-154.5 -73z" />
    <glyph glyph-name="Ograve" unicode="&#xd2;" 
d="M446 1916l301 -304h-186l-322 304h207zM282 837v-231q0 -224 93 -346.5t258 -122.5t258 122.5t93 346.5v231q0 224 -93 346.5t-258 122.5t-258 -122.5t-93 -346.5zM1162 838v-233q0 -298 -141 -466.5t-388 -168.5t-388 168.5t-141 466.5v233q0 298 141 466.5t388 168.5
t388 -168.5t141 -466.5z" />
    <glyph glyph-name="Oacute" unicode="&#xd3;" 
d="M1162 605q0 -298 -141 -466.5t-388 -168.5t-388 168.5t-141 466.5v233q0 298 141 466.5t388 168.5t388 -168.5t141 -466.5v-233zM633 137q165 0 258 122.5t93 346.5v231q0 224 -93 346.5t-258 122.5t-258 -122.5t-93 -346.5v-231q0 -224 93 -346.5t258 -122.5zM517 1612
l301 304h207l-323 -304h-185z" />
    <glyph glyph-name="Ocircumflex" unicode="&#xd4;" 
d="M1162 605q0 -298 -141 -466.5t-388 -168.5t-388 168.5t-141 466.5v233q0 298 141 466.5t388 168.5t388 -168.5t141 -466.5v-233zM633 137q165 0 258 122.5t93 346.5v231q0 224 -93 346.5t-258 122.5t-258 -122.5t-93 -346.5v-231q0 -224 93 -346.5t258 -122.5zM713 1921
l286 -309h-179l-180 200h-14l-180 -200h-179l286 309h160z" />
    <glyph glyph-name="Otilde" unicode="&#xd5;" 
d="M1162 605q0 -298 -141 -466.5t-388 -168.5t-388 168.5t-141 466.5v233q0 298 141 466.5t388 168.5t388 -168.5t141 -466.5v-233zM633 137q165 0 258 122.5t93 346.5v231q0 224 -93 346.5t-258 122.5t-258 -122.5t-93 -346.5v-231q0 -224 93 -346.5t258 -122.5zM781 1620
q-43 0 -79 16t-60.5 39t-46.5 46t-48 39t-54 16q-94 0 -98 -146h-124q0 125 58 197.5t156 72.5q45 0 83 -16t63 -39t47 -46.5t46 -39.5t49 -16q44 0 70 37.5t29 107.5h123q0 -122 -59 -195t-155 -73z" />
    <glyph glyph-name="Odieresis" unicode="&#xd6;" 
d="M1162 605q0 -298 -141 -466.5t-388 -168.5t-388 168.5t-141 466.5v233q0 298 141 466.5t388 168.5t388 -168.5t141 -466.5v-233zM633 137q165 0 258 122.5t93 346.5v231q0 224 -93 346.5t-258 122.5t-258 -122.5t-93 -346.5v-231q0 -224 93 -346.5t258 -122.5zM431 1651
q-47 0 -82 36t-35 85t35 85t82 36t82 -36t35 -85t-35 -85t-82 -36zM835 1651q-47 0 -82 36t-35 85t35 85t82 36t82 -36t35 -85t-35 -85t-82 -36z" />
    <glyph glyph-name="multiply" unicode="&#xd7;" 
d="M634 758l325 325l108 -117l-326 -326l325 -324l-109 -118l-325 324l-325 -325l-107 117l325 325l-326 325l109 119z" />
    <glyph glyph-name="Oslash" unicode="&#xd8;" 
d="M984 606v231q0 148 -42 255l-556 -846q91 -109 247 -109q165 0 258 122.5t93 346.5zM282 837v-231q0 -148 41 -253l556 846q-92 107 -246 107q-165 0 -258 -122.5t-93 -346.5zM1172 1443l-119 -181q109 -163 109 -424v-233q0 -298 -141 -466.5t-388 -168.5
q-210 0 -347 125l-62 -95h-132l120 183q-108 164 -108 422v233q0 298 141 466.5t388 168.5q210 0 345 -123l61 93h133z" />
    <glyph glyph-name="Ugrave" unicode="&#xd9;" 
d="M443 1916l301 -304h-185l-322 304h206zM301 1443v-931q0 -178 87.5 -276.5t244.5 -98.5t244.5 98.5t87.5 276.5v931h176v-942q0 -249 -135 -390t-373 -141t-373 141t-135 390v942h176z" />
    <glyph glyph-name="Uacute" unicode="&#xda;" 
d="M633 137q157 0 244.5 98.5t87.5 276.5v931h176v-942q0 -249 -135 -390t-373 -141t-373 141t-135 390v942h176v-931q0 -178 87.5 -276.5t244.5 -98.5zM514 1612l301 304h207l-322 -304h-186z" />
    <glyph glyph-name="Ucircumflex" unicode="&#xdb;" 
d="M633 137q157 0 244.5 98.5t87.5 276.5v931h176v-942q0 -249 -135 -390t-373 -141t-373 141t-135 390v942h176v-931q0 -178 87.5 -276.5t244.5 -98.5zM710 1921l287 -309h-180l-180 200h-13l-180 -200h-180l287 309h159z" />
    <glyph glyph-name="Udieresis" unicode="&#xdc;" 
d="M633 137q157 0 244.5 98.5t87.5 276.5v931h176v-942q0 -249 -135 -390t-373 -141t-373 141t-135 390v942h176v-931q0 -178 87.5 -276.5t244.5 -98.5zM429 1651q-47 0 -82 36t-35 85t35 85t82 36t82 -36t35 -85t-35 -85t-82 -36zM832 1651q-47 0 -82 36t-35 85t35 85
t82 36t82 -36t35 -85t-35 -85t-82 -36z" />
    <glyph glyph-name="Yacute" unicode="&#xdd;" 
d="M721 0h-176v595l-481 848h197l365 -660h14l365 660h197l-481 -848v-595zM515 1612l301 304h207l-322 -304h-186z" />
    <glyph glyph-name="Thorn" unicode="&#xde;" 
d="M188 1443h180v-264h349q188 0 301 -115t113 -302t-114 -303.5t-303 -116.5h-345v-342h-181v1443zM369 1014v-508h296q280 0 280 256q0 252 -280 252h-296z" />
    <glyph glyph-name="germandbls" unicode="&#xdf;" 
d="M395 0h-172v1114q0 179 108.5 280.5t299.5 101.5q193 0 304 -101t111 -277q0 -115 -63.5 -206.5t-167.5 -126.5v-18q159 -19 247.5 -115.5t88.5 -250.5q0 -188 -123 -301.5t-325 -113.5q-79 0 -144 13v158q55 -15 134 -15q137 0 207.5 67t70.5 197q0 128 -86 198.5
t-243 70.5h-56v174h46q113 0 175 67t62 190q0 104 -66.5 168.5t-172.5 64.5q-114 0 -174.5 -59.5t-60.5 -171.5v-1108z" />
    <glyph glyph-name="agrave" unicode="&#xe0;" 
d="M523 -19q-155 0 -250 89.5t-95 237.5q0 144 100 226.5t285 92.5l298 15v98q0 102 -60.5 156.5t-173.5 54.5q-94 0 -157 -38t-84 -108h-167q15 130 129 211.5t281 81.5q191 0 296 -93t105 -263v-743h-162v163h-17q-39 -87 -124 -134t-204 -47zM572 130q123 0 206 72.5
t83 181.5v128l-279 -13q-114 -5 -173 -52.5t-59 -132.5t59.5 -134.5t162.5 -49.5zM776 1296h-181l-265 339h207z" />
    <glyph glyph-name="aacute" unicode="&#xe1;" 
d="M714 1296h-181l239 339h207zM861 512l-279 -13q-114 -5 -173 -52.5t-59 -132.5t59.5 -134.5t162.5 -49.5q123 0 206 72.5t83 181.5v128zM868 162h-17q-39 -87 -124 -134t-204 -47q-155 0 -250 89.5t-95 237.5q0 144 100 226.5t285 92.5l298 15v98q0 102 -60.5 156.5
t-173.5 54.5q-94 0 -157 -38t-84 -108h-167q15 130 129 211.5t281 81.5q191 0 296 -93t105 -263v-743h-162v163z" />
    <glyph glyph-name="acircumflex" unicode="&#xe2;" 
d="M523 -19q-155 0 -250 89.5t-95 237.5q0 144 100 226.5t285 92.5l298 15v98q0 102 -60.5 156.5t-173.5 54.5q-94 0 -157 -38t-84 -108h-167q15 130 129 211.5t281 81.5q191 0 296 -93t105 -263v-743h-162v163h-17q-39 -87 -124 -134t-204 -47zM572 130q123 0 206 72.5
t83 181.5v128l-279 -13q-114 -5 -173 -52.5t-59 -132.5t59.5 -134.5t162.5 -49.5zM528 1623h200l274 -341h-194l-172 226h-15l-173 -226h-194z" />
    <glyph glyph-name="atilde" unicode="&#xe3;" 
d="M523 -19q-155 0 -250 89.5t-95 237.5q0 144 100 226.5t285 92.5l298 15v98q0 102 -60.5 156.5t-173.5 54.5q-94 0 -157 -38t-84 -108h-167q15 130 129 211.5t281 81.5q191 0 296 -93t105 -263v-743h-162v163h-17q-39 -87 -124 -134t-204 -47zM572 130q123 0 206 72.5
t83 181.5v128l-279 -13q-114 -5 -173 -52.5t-59 -132.5t59.5 -134.5t162.5 -49.5zM486 1423q-46 0 -66.5 -37t-20.5 -120h-140q0 137 60.5 215t166.5 78q43 0 80.5 -16t63 -38.5t48 -45.5t46 -39t46.5 -16q46 0 66.5 36.5t20.5 118.5h140q0 -136 -60.5 -214.5t-166.5 -78.5
q-43 0 -80.5 16t-63 39t-47.5 46.5t-46 39.5t-47 16z" />
    <glyph glyph-name="adieresis" unicode="&#xe4;" 
d="M523 -19q-155 0 -250 89.5t-95 237.5q0 144 100 226.5t285 92.5l298 15v98q0 102 -60.5 156.5t-173.5 54.5q-94 0 -157 -38t-84 -108h-167q15 130 129 211.5t281 81.5q191 0 296 -93t105 -263v-743h-162v163h-17q-39 -87 -124 -134t-204 -47zM572 130q123 0 206 72.5
t83 181.5v128l-279 -13q-114 -5 -173 -52.5t-59 -132.5t59.5 -134.5t162.5 -49.5zM430 1300q-47 0 -82 36t-35 85t35 85t82 36t82 -36t35 -85t-35 -85t-82 -36zM834 1300q-47 0 -82 36t-35 85t35 85t82 36t82 -36t35 -85t-35 -85t-82 -36z" />
    <glyph glyph-name="aring" unicode="&#xe5;" 
d="M523 -19q-155 0 -250 89.5t-95 237.5q0 144 100 226.5t285 92.5l298 15v98q0 102 -60.5 156.5t-173.5 54.5q-94 0 -157 -38t-84 -108h-167q15 130 129 211.5t281 81.5q191 0 296 -93t105 -263v-743h-162v163h-17q-39 -87 -124 -134t-204 -47zM572 130q123 0 206 72.5
t83 181.5v128l-279 -13q-114 -5 -173 -52.5t-59 -132.5t59.5 -134.5t162.5 -49.5zM628 1360q50 0 84 35t34 87t-34 87t-84 35t-84 -35t-34 -87t34 -87t84 -35zM628 1251q-93 0 -159.5 68t-66.5 163t66.5 163t159.5 68q94 0 160 -68t66 -163t-66 -163t-160 -68z" />
    <glyph glyph-name="ae" unicode="&#xe6;" 
d="M1210 289q-61 -308 -314 -308q-89 0 -160 60.5t-106 166.5h-4q-39 -107 -116 -167t-177 -60q-121 0 -197.5 87.5t-76.5 226.5q0 290 302 320l191 18v97q0 105 -45.5 163t-125.5 58q-60 0 -102 -40.5t-49 -107.5h-143q13 132 97 214t208 82q86 0 152 -47.5t97 -132.5h5
q84 180 249 180q155 0 239 -139.5t84 -396.5v-65h-516v-18q0 -165 51 -256t144 -91q67 0 109.5 37t70.5 119h133zM1063 634q-3 317 -175 317q-80 0 -127 -82t-55 -235h357zM358 133q86 0 141 70t55 179v116l-171 -15q-83 -7 -128 -54t-45 -126q0 -170 148 -170z" />
    <glyph glyph-name="ccedilla" unicode="&#xe7;" 
d="M356 592v-98q0 -175 76 -268t218 -93q105 0 178 55t89 148h168q-19 -154 -121.5 -248t-263.5 -106l-45 -114q96 -1 147 -43.5t51 -121.5q0 -87 -65 -138t-174 -51q-66 0 -131 17v110q46 -14 119 -14q114 0 114 72q0 35 -33.5 50t-110.5 15h-57v86l55 135
q-184 24 -284 150.5t-100 336.5v142q0 233 123 362.5t344 129.5q180 0 295.5 -96t136.5 -263h-168q-16 95 -88.5 151t-178.5 56q-142 0 -218 -93.5t-76 -268.5z" />
    <glyph glyph-name="egrave" unicode="&#xe8;" 
d="M645 959q-136 0 -213 -88t-77 -244h571q0 155 -75 243.5t-206 88.5zM926 280h165q-25 -135 -143.5 -217.5t-289.5 -82.5q-224 0 -347.5 128t-123.5 360v163q0 214 126 344t333 130q211 0 329.5 -132.5t118.5 -368.5v-106h-739v-44q0 -149 82 -238t221 -89q103 0 174 41
t94 112zM761 1296h-181l-265 339h207z" />
    <glyph glyph-name="eacute" unicode="&#xe9;" 
d="M727 1296h-181l239 339h207zM926 280h165q-25 -135 -143.5 -217.5t-289.5 -82.5q-224 0 -347.5 128t-123.5 360v163q0 214 126 344t333 130q211 0 329.5 -132.5t118.5 -368.5v-106h-739v-44q0 -149 82 -238t221 -89q103 0 174 41t94 112zM355 627h571q0 155 -75 243.5
t-206 88.5q-136 0 -213 -88t-77 -244z" />
    <glyph glyph-name="ecircumflex" unicode="&#xea;" 
d="M645 959q-136 0 -213 -88t-77 -244h571q0 155 -75 243.5t-206 88.5zM926 280h165q-25 -135 -143.5 -217.5t-289.5 -82.5q-224 0 -347.5 128t-123.5 360v163q0 214 126 344t333 130q211 0 329.5 -132.5t118.5 -368.5v-106h-739v-44q0 -149 82 -238t221 -89q103 0 174 41
t94 112zM541 1623h200l274 -341h-194l-172 226h-16l-172 -226h-194z" />
    <glyph glyph-name="edieresis" unicode="&#xeb;" 
d="M645 959q-136 0 -213 -88t-77 -244h571q0 155 -75 243.5t-206 88.5zM926 280h165q-25 -135 -143.5 -217.5t-289.5 -82.5q-224 0 -347.5 128t-123.5 360v163q0 214 126 344t333 130q211 0 329.5 -132.5t118.5 -368.5v-106h-739v-44q0 -149 82 -238t221 -89q103 0 174 41
t94 112zM439 1320q-47 0 -82.5 36t-35.5 85t35.5 85.5t82.5 36.5t82 -36.5t35 -85.5t-35 -85t-82 -36zM842 1320q-47 0 -82 36t-35 85t35 85.5t82 36.5t82 -36.5t35 -85.5t-35 -85t-82 -36z" />
    <glyph glyph-name="igrave" unicode="&#xec;" 
d="M1107 0h-899v141h372v803h-369v141h537v-944h359v-141zM775 1288h-181l-265 339h207z" />
    <glyph glyph-name="iacute" unicode="&#xed;" 
d="M741 1288h-181l239 339h207zM1107 0h-899v141h372v803h-369v141h537v-944h359v-141z" />
    <glyph glyph-name="icircumflex" unicode="&#xee;" 
d="M1107 0h-899v141h372v803h-369v141h537v-944h359v-141zM555 1616h200l274 -342h-194l-172 227h-16l-172 -227h-194z" />
    <glyph glyph-name="idieresis" unicode="&#xef;" 
d="M1107 0h-899v141h372v803h-369v141h537v-944h359v-141zM453 1313q-47 0 -82.5 36t-35.5 85t35.5 85t82.5 36t82 -36t35 -85t-35 -85t-82 -36zM856 1313q-47 0 -82 36t-35 85t35 85t82 36t82 -36t35 -85t-35 -85t-82 -36z" />
    <glyph glyph-name="eth" unicode="&#xf0;" 
d="M875 475v61q0 165 -74.5 254t-212.5 89t-212 -89t-74 -254v-61q0 -167 74.5 -258t211.5 -91q138 0 212.5 91t74.5 258zM1067 1477v-122l-237 -87q106 -150 163 -324.5t57 -355.5v-109q0 -238 -120.5 -367.5t-341.5 -129.5q-220 0 -340.5 128.5t-120.5 364.5v58
q0 222 115.5 353.5t309.5 131.5q182 0 273 -129h11q-44 166 -160 323l-287 -105v123l210 77q-106 119 -242 216h231q90 -71 167 -160z" />
    <glyph glyph-name="ntilde" unicode="&#xf1;" 
d="M189 0v1085h163v-191h14q44 101 133.5 156t213.5 55q177 0 270.5 -103t93.5 -298v-704h-170v661q0 147 -61 217.5t-188 70.5q-134 0 -216.5 -85.5t-82.5 -224.5v-639h-170zM491 1428q-46 0 -66.5 -37t-20.5 -120h-140q0 137 60.5 215t166.5 78q53 0 98 -24.5t70.5 -53.5
t56.5 -53.5t59 -24.5q46 0 66.5 37t20.5 118h140q0 -136 -60.5 -214t-166.5 -78q-43 0 -80.5 16t-63 39.5t-48 46.5t-46 39t-46.5 16z" />
    <glyph glyph-name="ograve" unicode="&#xf2;" 
d="M633 -20q-215 0 -342.5 130t-127.5 350v164q0 220 127.5 350t342.5 130t342.5 -130t127.5 -350v-164q0 -220 -127.5 -350t-342.5 -130zM633 954q-140 0 -221 -92.5t-81 -252.5v-133q0 -160 81 -252.5t221 -92.5t221 92.5t81 252.5v133q0 160 -81 252.5t-221 92.5z
M736 1296h-181l-265 339h207z" />
    <glyph glyph-name="oacute" unicode="&#xf3;" 
d="M719 1296h-181l239 339h206zM935 476v133q0 160 -81 252.5t-221 92.5t-221 -92.5t-81 -252.5v-133q0 -160 81 -252.5t221 -92.5t221 92.5t81 252.5zM1103 624v-164q0 -220 -127.5 -350t-342.5 -130t-342.5 130t-127.5 350v164q0 220 127.5 350t342.5 130t342.5 -130
t127.5 -350z" />
    <glyph glyph-name="ocircumflex" unicode="&#xf4;" 
d="M633 -20q-215 0 -342.5 130t-127.5 350v164q0 220 127.5 350t342.5 130t342.5 -130t127.5 -350v-164q0 -220 -127.5 -350t-342.5 -130zM633 954q-140 0 -221 -92.5t-81 -252.5v-133q0 -160 81 -252.5t221 -92.5t221 92.5t81 252.5v133q0 160 -81 252.5t-221 92.5z
M533 1623h200l274 -341h-194l-172 226h-16l-172 -226h-194z" />
    <glyph glyph-name="otilde" unicode="&#xf5;" 
d="M633 -20q-215 0 -342.5 130t-127.5 350v164q0 220 127.5 350t342.5 130t342.5 -130t127.5 -350v-164q0 -220 -127.5 -350t-342.5 -130zM633 954q-140 0 -221 -92.5t-81 -252.5v-133q0 -160 81 -252.5t221 -92.5t221 92.5t81 252.5v133q0 160 -81 252.5t-221 92.5z
M491 1428q-46 0 -66.5 -37t-20.5 -120h-140q0 137 60.5 215t166.5 78q53 0 98 -24.5t70.5 -53.5t56.5 -53.5t59 -24.5q46 0 66.5 37t20.5 118h140q0 -136 -60.5 -214t-166.5 -78q-43 0 -80.5 16t-63 39.5t-48 46.5t-46 39t-46.5 16z" />
    <glyph glyph-name="odieresis" unicode="&#xf6;" 
d="M633 -20q-215 0 -342.5 130t-127.5 350v164q0 220 127.5 350t342.5 130t342.5 -130t127.5 -350v-164q0 -220 -127.5 -350t-342.5 -130zM633 954q-140 0 -221 -92.5t-81 -252.5v-133q0 -160 81 -252.5t221 -92.5t221 92.5t81 252.5v133q0 160 -81 252.5t-221 92.5z
M430 1320q-47 0 -82 36t-35 85t35 85.5t82 36.5t82.5 -36.5t35.5 -85.5t-35.5 -85t-82.5 -36zM834 1320q-47 0 -82 36t-35 85t35 85.5t82 36.5t82 -36.5t35 -85.5t-35 -85t-82 -36z" />
    <glyph glyph-name="divide" unicode="&#xf7;" 
d="M1130 564h-994v152h994v-152zM634 872q-53 0 -88.5 36t-35.5 91t35.5 91t88.5 36t88 -36t35 -91t-35 -91t-88 -36zM634 155q-53 0 -88.5 35.5t-35.5 90.5t35.5 91t88.5 36t88 -36t35 -91t-35 -90.5t-88 -35.5z" />
    <glyph glyph-name="oslash" unicode="&#xf8;" 
d="M935 476v133q0 109 -40 191l-460 -600q77 -69 198 -69q140 0 221 92.5t81 252.5zM331 609v-133q0 -111 40 -191l459 600q-77 69 -197 69q-140 0 -221 -92.5t-81 -252.5zM1114 1085l-110 -143q99 -125 99 -318v-164q0 -220 -127.5 -350t-342.5 -130q-178 0 -298 91
l-54 -71h-128l109 142q-99 125 -99 318v164q0 220 127.5 350t342.5 130q176 0 296 -89l54 70h131z" />
    <glyph glyph-name="ugrave" unicode="&#xf9;" 
d="M1077 1085v-1085h-163v191h-14q-44 -101 -133.5 -156t-213.5 -55q-177 0 -270.5 103t-93.5 298v704h170v-661q0 -147 61 -217.5t188 -70.5q134 0 216.5 85.5t82.5 224.5v639h170zM753 1296h-181l-265 339h207z" />
    <glyph glyph-name="uacute" unicode="&#xfa;" 
d="M719 1296h-181l239 339h206zM1077 1085v-1085h-163v191h-14q-44 -101 -133.5 -156t-213.5 -55q-177 0 -270.5 103t-93.5 298v704h170v-661q0 -147 61 -217.5t188 -70.5q134 0 216.5 85.5t82.5 224.5v639h170z" />
    <glyph glyph-name="ucircumflex" unicode="&#xfb;" 
d="M1077 1085v-1085h-163v191h-14q-44 -101 -133.5 -156t-213.5 -55q-177 0 -270.5 103t-93.5 298v704h170v-661q0 -147 61 -217.5t188 -70.5q134 0 216.5 85.5t82.5 224.5v639h170zM533 1623h200l274 -341h-194l-173 226h-15l-172 -226h-194z" />
    <glyph glyph-name="udieresis" unicode="&#xfc;" 
d="M1077 1085v-1085h-163v191h-14q-44 -101 -133.5 -156t-213.5 -55q-177 0 -270.5 103t-93.5 298v704h170v-661q0 -147 61 -217.5t188 -70.5q134 0 216.5 85.5t82.5 224.5v639h170zM430 1320q-47 0 -82 36t-35 85t35 85.5t82 36.5t82.5 -36.5t35.5 -85.5t-35.5 -85
t-82.5 -36zM834 1320q-47 0 -82 36t-35 85t35 85.5t82 36.5t82 -36.5t35 -85.5t-35 -85t-82 -36z" />
    <glyph glyph-name="yacute" unicode="&#xfd;" 
d="M718 1296h-181l239 339h207zM1125 1085l-409 -1125q-71 -200 -153.5 -273t-233.5 -73q-51 0 -73 3v149q17 -4 60 -4q77 0 123 39t80 133l19 59l-399 1092h185l304 -908h13l303 908h181z" />
    <glyph glyph-name="thorn" unicode="&#xfe;" 
d="M697 -19q-225 0 -312 175h-19v-501h-174v1807h174v-548h19q37 88 118.5 136.5t194.5 48.5q188 0 301 -125.5t113 -333.5v-200q0 -209 -113.5 -334t-301.5 -125zM653 135q132 0 208.5 88.5t76.5 241.5v148q0 153 -76.5 241t-207.5 88q-134 0 -211 -87.5t-77 -240.5v-149
q0 -154 76.5 -242t210.5 -88z" />
    <glyph glyph-name="ydieresis" unicode="&#xff;" 
d="M329 -386q-51 0 -73 3v149q17 -4 60 -4q77 0 123 39t80 133l19 59l-399 1092h185l304 -908h13l303 908h181l-409 -1125q-71 -200 -153.5 -273t-233.5 -73zM430 1320q-47 0 -82.5 36t-35.5 85t35.5 85.5t82.5 36.5t82 -36.5t35 -85.5t-35 -85t-82 -36zM833 1320
q-47 0 -82 36t-35 85t35 85.5t82 36.5t82 -36.5t35 -85.5t-35 -85t-82 -36z" />
    <glyph glyph-name="Amacron" unicode="&#x100;" 
d="M963 1835v-139h-660v139h660zM425 565h410l-202 666h-5zM1006 0l-125 414h-502l-126 -414h-179l465 1443h188l465 -1443h-186z" />
    <glyph glyph-name="amacron" unicode="&#x101;" 
d="M523 -19q-155 0 -250 89.5t-95 237.5q0 144 100 226.5t285 92.5l298 15v98q0 102 -60.5 156.5t-173.5 54.5q-94 0 -157 -38t-84 -108h-167q15 130 129 211.5t281 81.5q191 0 296 -93t105 -263v-743h-162v163h-17q-39 -87 -124 -134t-204 -47zM572 130q123 0 206 72.5
t83 181.5v128l-279 -13q-114 -5 -173 -52.5t-59 -132.5t59.5 -134.5t162.5 -49.5zM958 1370h-660v139h660v-139z" />
    <glyph glyph-name="Abreve" unicode="&#x102;" 
d="M840 1918h138q0 -137 -96 -223t-249 -86t-249 86t-96 223h138q1 -84 59 -137.5t148 -53.5t148 53.5t59 137.5zM425 565h410l-202 666h-5zM1006 0l-125 414h-502l-126 -414h-179l465 1443h188l465 -1443h-186z" />
    <glyph glyph-name="abreve" unicode="&#x103;" 
d="M523 -19q-155 0 -250 89.5t-95 237.5q0 144 100 226.5t285 92.5l298 15v98q0 102 -60.5 156.5t-173.5 54.5q-94 0 -157 -38t-84 -108h-167q15 130 129 211.5t281 81.5q191 0 296 -93t105 -263v-743h-162v163h-17q-39 -87 -124 -134t-204 -47zM572 130q123 0 206 72.5
t83 181.5v128l-279 -13q-114 -5 -173 -52.5t-59 -132.5t59.5 -134.5t162.5 -49.5zM623 1389q97 0 151 55.5t53 144.5h152q0 -146 -96.5 -238.5t-259.5 -92.5t-259.5 92.5t-96.5 238.5h152q0 -89 54 -144.5t150 -55.5z" />
    <glyph glyph-name="Aogonek" unicode="&#x104;" 
d="M425 565h410l-202 666h-5zM1192 0l-10 -4q-98 -35 -144.5 -81t-46.5 -108q0 -48 35 -78t91 -30q38 0 72 8v-121q-46 -16 -114 -16q-106 0 -171.5 57t-65.5 149q0 75 38.5 130.5t125.5 105.5l-121 402h-502l-126 -414h-179l465 1443h188z" />
    <glyph glyph-name="aogonek" unicode="&#x105;" 
d="M572 131q123 0 206 72.5t83 181.5v128l-279 -13q-114 -6 -173 -53.5t-59 -132.5t59.5 -134t162.5 -49zM868 0v163h-17q-39 -87 -124 -134t-204 -47q-155 0 -250 89.5t-95 236.5q0 144 100 227t285 93l298 15v97q0 103 -60.5 157.5t-173.5 54.5q-94 0 -157 -38t-84 -108
h-167q15 130 129 211.5t281 81.5q191 0 296 -93.5t105 -262.5v-743l-7 -2q-77 -35 -123 -89t-46 -109q0 -45 29.5 -70.5t81.5 -25.5q45 0 65 9v-126q-38 -19 -109 -19q-98 0 -159 54t-61 141q0 141 167 237z" />
    <glyph glyph-name="Cacute" unicode="&#x106;" 
d="M666 137q144 0 229.5 81t89.5 220h178q0 -209 -138 -338.5t-359 -129.5q-254 0 -395 163.5t-141 459.5v257q0 296 141 459.5t395 163.5q228 0 361 -131t137 -362h-179q-4 146 -92.5 236t-227.5 90q-175 0 -265 -116t-90 -340v-257q0 -224 90.5 -340t265.5 -116zM544 1612
l301 304h207l-322 -304h-186z" />
    <glyph glyph-name="cacute" unicode="&#x107;" 
d="M723 1296h-181l239 339h207zM1085 747h-168q-16 95 -88.5 151t-178.5 56q-142 0 -218 -93.5t-76 -268.5v-98q0 -175 76 -268t218 -93q105 0 178 55t89 148h168q-20 -166 -136 -261t-296 -95q-221 0 -344 129.5t-123 362.5v142q0 233 123 362.5t344 129.5q180 0 295.5 -96
t136.5 -263z" />
    <glyph glyph-name="Ccircumflex" unicode="&#x108;" 
d="M666 137q144 0 229.5 81t89.5 220h178q0 -209 -138 -338.5t-359 -129.5q-254 0 -395 163.5t-141 459.5v257q0 296 141 459.5t395 163.5q228 0 361 -131t137 -362h-179q-4 146 -92.5 236t-227.5 90q-175 0 -265 -116t-90 -340v-257q0 -224 90.5 -340t265.5 -116zM740 1921
l287 -309h-180l-180 200h-13l-180 -200h-180l286 309h160z" />
    <glyph glyph-name="ccircumflex" unicode="&#x109;" 
d="M1085 747h-168q-16 95 -88.5 151t-178.5 56q-142 0 -218 -93.5t-76 -268.5v-98q0 -175 76 -268t218 -93q105 0 178 55t89 148h168q-20 -166 -136 -261t-296 -95q-221 0 -344 129.5t-123 362.5v142q0 233 123 362.5t344 129.5q180 0 295.5 -96t136.5 -263zM537 1623h201
l273 -341h-194l-172 226h-15l-172 -226h-194z" />
    <glyph glyph-name="Cdotaccent" unicode="&#x10a;" 
d="M666 137q144 0 229.5 81t89.5 220h178q0 -209 -138 -338.5t-359 -129.5q-254 0 -395 163.5t-141 459.5v257q0 296 141 459.5t395 163.5q228 0 361 -131t137 -362h-179q-4 146 -92.5 236t-227.5 90q-175 0 -265 -116t-90 -340v-257q0 -224 90.5 -340t265.5 -116zM660 1640
q-51 0 -88.5 38.5t-37.5 90.5t37.5 90t88.5 38t88.5 -38t37.5 -90t-37.5 -90.5t-88.5 -38.5z" />
    <glyph glyph-name="cdotaccent" unicode="&#x10b;" 
d="M1085 747h-168q-16 95 -88.5 151t-178.5 56q-142 0 -218 -93.5t-76 -268.5v-98q0 -175 76 -268t218 -93q105 0 178 55t89 148h168q-20 -166 -136 -261t-296 -95q-221 0 -344 129.5t-123 362.5v142q0 233 123 362.5t344 129.5q180 0 295.5 -96t136.5 -263zM638 1307
q-51 0 -88.5 38.5t-37.5 90.5t37.5 90t88.5 38t88.5 -38t37.5 -90t-37.5 -90.5t-88.5 -38.5z" />
    <glyph glyph-name="Ccaron" unicode="&#x10c;" 
d="M1027 1919l-287 -309h-160l-286 309h180l180 -200h13l180 200h180zM310 850v-257q0 -224 90.5 -340t265.5 -116q144 0 229.5 81t89.5 220h178q0 -209 -138 -338.5t-359 -129.5q-254 0 -395 163.5t-141 459.5v257q0 296 141 459.5t395 163.5q228 0 361 -131t137 -362h-179
q-4 146 -92.5 236t-227.5 90q-175 0 -265 -116t-90 -340z" />
    <glyph glyph-name="ccaron" unicode="&#x10d;" 
d="M738 1296h-201l-273 342h194l172 -227h15l172 227h194zM1085 747h-168q-16 95 -88.5 151t-178.5 56q-142 0 -218 -93.5t-76 -268.5v-98q0 -175 76 -268t218 -93q105 0 178 55t89 148h168q-20 -166 -136 -261t-296 -95q-221 0 -344 129.5t-123 362.5v142q0 233 123 362.5
t344 129.5q180 0 295.5 -96t136.5 -263z" />
    <glyph glyph-name="Dcaron" unicode="&#x10e;" 
d="M951 1919l-287 -309h-160l-286 309h180l180 -200h13l180 200h180zM337 1281v-1119h211q230 0 340.5 137.5t110.5 423.5q0 283 -111 420.5t-340 137.5h-211zM160 1443h404q615 0 615 -719q0 -724 -615 -724h-404v1443z" />
    <glyph glyph-name="dcaron" unicode="&#x10f;" 
d="M252 619v-151q0 -161 67 -246t195 -85q126 0 193.5 85t67.5 246v151q0 161 -67.5 246t-193.5 85q-128 0 -195 -85t-67 -246zM785 166h-19q-46 -95 -117.5 -139.5t-178.5 -44.5q-180 0 -279.5 120.5t-99.5 339.5v202q0 219 99.5 339t279.5 120q217 0 291 -186h18v594h159
v-1511h-153v166zM1078 1511h152l-37 -458h-115v458z" />
    <glyph glyph-name="Dcroat" unicode="&#x110;" 
d="M343 157h209q231 0 340.5 137.5t109.5 428.5q0 287 -111 425t-341 138h-207v-471h279v-152h-279v-506zM173 1443h391q615 0 615 -719q0 -724 -615 -724h-391v663h-149v152h149v628z" />
    <glyph glyph-name="dcroat" unicode="&#x111;" 
d="M906 466v156q0 150 -79.5 239t-213.5 89t-213.5 -89t-79.5 -239v-156q0 -150 79.5 -239.5t213.5 -89.5t213.5 89t79.5 240zM1233 1384v-112h-158v-1272h-168v166h-18q-43 -90 -126 -137t-199 -47q-188 0 -302 125.5t-114 334.5v202q0 208 114 333.5t302 125.5
q117 0 200.5 -48.5t118.5 -137.5h19v355h-229v112h229v127h173v-127h158z" />
    <glyph glyph-name="Emacron" unicode="&#x112;" 
d="M1082 162v-162h-852v1443h852v-162h-675v-468h638v-155h-638v-496h675zM986 1696h-660v139h660v-139z" />
    <glyph glyph-name="emacron" unicode="&#x113;" 
d="M645 959q-136 0 -213 -88t-77 -244h571q0 155 -75 243.5t-206 88.5zM926 280h165q-25 -135 -143.5 -217.5t-289.5 -82.5q-224 0 -347.5 128t-123.5 360v163q0 214 126 344t333 130q211 0 329.5 -132.5t118.5 -368.5v-106h-739v-44q0 -149 82 -238t221 -89q103 0 174 41
t94 112zM971 1370h-660v139h660v-139z" />
    <glyph glyph-name="Ebreve" unicode="&#x114;" 
d="M1082 162v-162h-852v1443h852v-162h-675v-468h638v-155h-638v-496h675zM311 1918h138q1 -84 59 -137.5t148 -53.5t148 53.5t59 137.5h138q0 -137 -96 -223t-249 -86t-249 86t-96 223z" />
    <glyph glyph-name="ebreve" unicode="&#x115;" 
d="M645 959q-136 0 -213 -88t-77 -244h571q0 155 -75 243.5t-206 88.5zM926 280h165q-25 -135 -143.5 -217.5t-289.5 -82.5q-224 0 -347.5 128t-123.5 360v163q0 214 126 344t333 130q211 0 329.5 -132.5t118.5 -368.5v-106h-739v-44q0 -149 82 -238t221 -89q103 0 174 41
t94 112zM641 1397q96 0 150.5 55.5t54.5 143.5h151q0 -146 -96.5 -238t-259.5 -92t-259.5 92t-96.5 238h153q-1 -88 53 -143.5t150 -55.5z" />
    <glyph glyph-name="Edotaccent" unicode="&#x116;" 
d="M1082 162v-162h-852v1443h852v-162h-675v-468h638v-155h-638v-496h675zM658 1640q-51 0 -88.5 38.5t-37.5 90.5t37.5 90t88.5 38t88.5 -38t37.5 -90t-37.5 -90.5t-88.5 -38.5z" />
    <glyph glyph-name="edotaccent" unicode="&#x117;" 
d="M645 959q-136 0 -213 -88t-77 -244h571q0 155 -75 243.5t-206 88.5zM926 280h165q-25 -135 -143.5 -217.5t-289.5 -82.5q-224 0 -347.5 128t-123.5 360v163q0 214 126 344t333 130q211 0 329.5 -132.5t118.5 -368.5v-106h-739v-44q0 -149 82 -238t221 -89q103 0 174 41
t94 112zM641 1307q-51 0 -88.5 38.5t-37.5 90.5t37.5 90t88.5 38t88.5 -38t37.5 -90t-37.5 -90.5t-88.5 -38.5z" />
    <glyph glyph-name="Eogonek" unicode="&#x118;" 
d="M891 0h-661v1443h852v-162h-675v-468h638v-155h-638v-496h675v-154l-15 -6q-168 -70 -168 -193q0 -47 35 -78.5t88 -31.5q34 0 68 8v-120q-45 -17 -107 -17q-103 0 -169 56t-66 145q0 129 143 215v14z" />
    <glyph glyph-name="eogonek" unicode="&#x119;" 
d="M841 -430q-104 0 -170.5 56.5t-66.5 144.5q0 61 35 116t100 95v14q-39 -16 -96 -16q-215 0 -335.5 129t-120.5 359v163q0 214 126 344t333 130q211 0 329.5 -132.5t118.5 -368.5v-106h-739v-44q0 -149 82 -238t221 -89q103 0 174 41t94 112h165q-23 -122 -159 -237
q-100 -82 -138.5 -133.5t-38.5 -103.5q0 -48 34 -77.5t89 -29.5q45 0 67 8v-121q-46 -16 -104 -16zM645 959q-136 0 -213 -88t-77 -244h571q0 155 -75 243.5t-206 88.5z" />
    <glyph glyph-name="Ecaron" unicode="&#x11a;" 
d="M1022 1919l-286 -309h-160l-287 309h180l180 -200h14l180 200h179zM1082 162v-162h-852v1443h852v-162h-675v-468h638v-155h-638v-496h675z" />
    <glyph glyph-name="ecaron" unicode="&#x11b;" 
d="M741 1296h-200l-274 342h194l172 -227h15l173 227h194zM926 280h165q-25 -135 -143.5 -217.5t-289.5 -82.5q-224 0 -347.5 128t-123.5 360v163q0 214 126 344t333 130q211 0 329.5 -132.5t118.5 -368.5v-106h-739v-44q0 -149 82 -238t221 -89q103 0 174 41t94 112z
M355 627h571q0 155 -75 243.5t-206 88.5q-136 0 -213 -88t-77 -244z" />
    <glyph glyph-name="Gcircumflex" unicode="&#x11c;" 
d="M976 442v141h-333v151h511v-307q0 -203 -138 -330t-357 -127q-254 0 -394.5 163.5t-140.5 459.5v257q0 296 140.5 459.5t394.5 163.5q225 0 357.5 -129t137.5 -353h-178q-6 141 -94 228t-226 87q-175 0 -264.5 -116t-89.5 -340v-257q0 -224 90 -340t265 -116
q148 0 233.5 81.5t85.5 223.5zM727 1921l286 -309h-180l-180 200h-13l-180 -200h-180l287 309h160z" />
    <glyph glyph-name="gcircumflex" unicode="&#x11d;" 
d="M310 473q0 -149 80.5 -239t215.5 -90q134 0 214 89.5t80 239.5v149q0 150 -80 239t-214 89q-135 0 -215.5 -89.5t-80.5 -238.5v-149zM601 -407q-188 0 -306.5 77.5t-134.5 212.5h168q17 -68 92 -108.5t184 -40.5q143 0 219 70t76 200v169h-18q-36 -86 -122 -134.5
t-204 -48.5q-188 0 -302 125.5t-114 333.5v195q0 209 114.5 334t305.5 125q118 0 203 -49t120 -137h19v168h168v-1085q0 -191 -124 -299t-344 -108zM504 1623h200l274 -341h-194l-173 226h-15l-172 -226h-194z" />
    <glyph glyph-name="Gbreve" unicode="&#x11e;" 
d="M976 442v141h-333v151h511v-307q0 -203 -138 -330t-357 -127q-254 0 -394.5 163.5t-140.5 459.5v257q0 296 140.5 459.5t394.5 163.5q225 0 357.5 -129t137.5 -353h-178q-6 141 -94 228t-226 87q-175 0 -264.5 -116t-89.5 -340v-257q0 -224 90 -340t265 -116
q148 0 233.5 81.5t85.5 223.5zM301 1918h139q0 -83 58 -137t149 -54q90 0 148 54t58 137h139q0 -137 -96 -223t-249 -86q-154 0 -250 86t-96 223z" />
    <glyph glyph-name="gbreve" unicode="&#x11f;" 
d="M310 473q0 -149 80.5 -239t215.5 -90q134 0 214 89.5t80 239.5v149q0 150 -80 239t-214 89q-135 0 -215.5 -89.5t-80.5 -238.5v-149zM601 -407q-188 0 -306.5 77.5t-134.5 212.5h168q17 -68 92 -108.5t184 -40.5q143 0 219 70t76 200v169h-18q-36 -86 -122 -134.5
t-204 -48.5q-188 0 -302 125.5t-114 333.5v195q0 209 114.5 334t305.5 125q118 0 203 -49t120 -137h19v168h168v-1085q0 -191 -124 -299t-344 -108zM604 1397q97 0 151 55.5t53 143.5h152q0 -146 -96.5 -238t-259.5 -92t-259.5 92t-96.5 238h153q-1 -88 53 -143.5t150 -55.5
z" />
    <glyph glyph-name="Gdotaccent" unicode="&#x120;" 
d="M976 442v141h-333v151h511v-307q0 -203 -138 -330t-357 -127q-254 0 -394.5 163.5t-140.5 459.5v257q0 296 140.5 459.5t394.5 163.5q225 0 357.5 -129t137.5 -353h-178q-6 141 -94 228t-226 87q-175 0 -264.5 -116t-89.5 -340v-257q0 -224 90 -340t265 -116
q148 0 233.5 81.5t85.5 223.5zM647 1640q-51 0 -88.5 38.5t-37.5 90.5t37.5 90t88.5 38t88.5 -38t37.5 -90t-37.5 -90.5t-88.5 -38.5z" />
    <glyph glyph-name="gdotaccent" unicode="&#x121;" 
d="M310 473q0 -149 80.5 -239t215.5 -90q134 0 214 89.5t80 239.5v149q0 150 -80 239t-214 89q-135 0 -215.5 -89.5t-80.5 -238.5v-149zM601 -407q-188 0 -306.5 77.5t-134.5 212.5h168q17 -68 92 -108.5t184 -40.5q143 0 219 70t76 200v169h-18q-36 -86 -122 -134.5
t-204 -48.5q-188 0 -302 125.5t-114 333.5v195q0 209 114.5 334t305.5 125q118 0 203 -49t120 -137h19v168h168v-1085q0 -191 -124 -299t-344 -108zM604 1307q-51 0 -88.5 38.5t-37.5 90.5t37.5 90t88.5 38t88.5 -38t37.5 -90t-37.5 -90.5t-88.5 -38.5z" />
    <glyph glyph-name="Gcommaaccent" unicode="&#x122;" 
d="M976 442v141h-333v151h511v-307q0 -203 -138 -330t-357 -127q-254 0 -394.5 163.5t-140.5 459.5v257q0 296 140.5 459.5t394.5 163.5q225 0 357.5 -129t137.5 -353h-178q-6 141 -94 228t-226 87q-175 0 -264.5 -116t-89.5 -340v-257q0 -224 90 -340t265 -116
q148 0 233.5 81.5t85.5 223.5zM623 -503h-157l110 361h176z" />
    <glyph glyph-name="gcommaaccent" unicode="&#x123;" 
d="M310 473q0 -149 80.5 -239t215.5 -90q134 0 214 89.5t80 239.5v149q0 150 -80 239t-214 89q-135 0 -215.5 -89.5t-80.5 -238.5v-149zM601 -407q-188 0 -306.5 77.5t-134.5 212.5h168q17 -68 92 -108.5t184 -40.5q143 0 219 70t76 200v169h-18q-36 -86 -122 -134.5
t-204 -48.5q-188 0 -302 125.5t-114 333.5v195q0 209 114.5 334t305.5 125q118 0 203 -49t120 -137h19v168h168v-1085q0 -191 -124 -299t-344 -108zM646 1659h157l-110 -361h-176z" />
    <glyph glyph-name="Hcircumflex" unicode="&#x124;" 
d="M1113 0h-175v656h-610v-656h-175v1443h175v-625h610v625h175v-1443zM713 1921l286 -309h-179l-180 200h-14l-180 -200h-179l286 309h160z" />
    <glyph glyph-name="hcircumflex" unicode="&#x125;" 
d="M188 0v1511h164v-618h14q43 101 133.5 156t214.5 55q177 0 270.5 -103.5t93.5 -297.5v-703h-170v660q0 146 -61.5 217t-188.5 71q-134 0 -217 -85.5t-83 -224.5v-638h-170zM184 1965h200l274 -342h-195l-172 227h-15l-172 -227h-194z" />
    <glyph glyph-name="Hbar" unicode="&#x126;" 
d="M335 816h595v270h-595v-270zM337 656v-656h-177v1084h-119v138h119v221h177v-221h591v221h177v-221h120v-138h-120v-1084h-177v656h-591z" />
    <glyph glyph-name="hbar" unicode="&#x127;" 
d="M352 893h14q43 101 133.5 156t214.5 55q177 0 270.5 -103.5t93.5 -297.5v-703h-170v660q0 146 -61.5 217t-188.5 71q-134 0 -217 -85.5t-83 -224.5v-638h-170v1272h-163v112h163v127h164v-127h252v-112h-252v-379z" />
    <glyph glyph-name="Itilde" unicode="&#x128;" 
d="M1013 0h-760v157h292v1129h-292v157h760v-157h-292v-1129h292v-157zM781 1620q-43 0 -79 16t-60.5 39t-46.5 46t-48 39t-54 16q-94 0 -98 -146h-124q0 125 58 197.5t156 72.5q45 0 83 -16t63 -39t47 -46.5t46 -39.5t49 -16q44 0 70 37.5t29 107.5h123q0 -122 -59 -195
t-155 -73z" />
    <glyph glyph-name="itilde" unicode="&#x129;" 
d="M1107 0h-899v141h372v803h-369v141h537v-944h359v-141zM513 1421q-46 0 -66.5 -37.5t-20.5 -120.5h-140q0 137 60.5 215.5t166.5 78.5q53 0 98 -24.5t71 -53.5t56.5 -53.5t58.5 -24.5q46 0 66.5 36.5t20.5 118.5h140q0 -136 -60.5 -214.5t-166.5 -78.5q-43 0 -80.5 16.5
t-63 39.5t-47.5 46t-46 39.5t-47 16.5z" />
    <glyph glyph-name="Imacron" unicode="&#x12a;" 
d="M1013 0h-760v157h292v1129h-292v157h760v-157h-292v-1129h292v-157zM963 1696h-660v139h660v-139z" />
    <glyph glyph-name="imacron" unicode="&#x12b;" 
d="M1107 0h-899v141h372v803h-369v141h537v-944h359v-141zM985 1363h-660v139h660v-139z" />
    <glyph glyph-name="Ibreve" unicode="&#x12c;" 
d="M1013 0h-760v157h292v1129h-292v157h760v-157h-292v-1129h292v-157zM288 1918h138q1 -84 59 -137.5t148 -53.5t148 53.5t59 137.5h138q0 -137 -96 -223t-249 -86t-249 86t-96 223z" />
    <glyph glyph-name="ibreve" unicode="&#x12d;" 
d="M1107 0h-899v141h372v803h-369v141h537v-944h359v-141zM657 1379q97 0 151 55.5t53 144.5h152q0 -146 -96.5 -238.5t-259.5 -92.5t-259.5 92.5t-96.5 238.5h152q0 -89 54 -144.5t150 -55.5z" />
    <glyph glyph-name="Iogonek" unicode="&#x12e;" 
d="M1013 1286h-292v-1129h292v-157l-4 -2q-164 -92 -164 -200q0 -44 29 -70t78 -26q37 0 61 8v-123q-46 -17 -107 -17q-93 0 -151 52t-58 136q0 73 40 136t113 106h-597v157h292v1129h-292v157h760v-157z" />
    <glyph glyph-name="iogonek" unicode="&#x12f;" 
d="M652 1351q-60 0 -100.5 40t-40.5 100q0 59 40.5 99t100.5 40t100.5 -40t40.5 -99q0 -60 -40.5 -100t-100.5 -40zM1107 141v-141q-85 -39 -132.5 -93t-47.5 -111q0 -92 108 -92q45 0 72 9v-126q-32 -19 -124 -19t-147 48.5t-55 129.5q0 154 184 254h-757v141h372v803h-369
v141h537v-944h359z" />
    <glyph glyph-name="Idotaccent" unicode="&#x130;" 
d="M1013 0h-760v157h292v1129h-292v157h760v-157h-292v-1129h292v-157zM633 1640q-51 0 -88.5 38.5t-37.5 90.5t37.5 90t88.5 38t88.5 -38t37.5 -90t-37.5 -90.5t-88.5 -38.5z" />
    <glyph glyph-name="dotlessi" unicode="&#x131;" 
d="M1107 0h-899v141h372v803h-369v141h537v-944h359v-141z" />
    <glyph glyph-name="IJ" unicode="&#x132;" 
d="M384 0h-171v1443h171v-1443zM861 -32q-157 0 -246.5 103t-90.5 288h165q4 -107 48 -165t121 -58q84 0 124.5 65t40.5 201v881h-373v160h540v-1052q0 -205 -84.5 -314t-244.5 -109z" />
    <glyph glyph-name="ij" unicode="&#x133;" 
d="M438 0h-165v1085h165v-1085zM999 1085v-1079q0 -180 -99 -257.5t-326 -77.5q-176 0 -260 8v150q72 -8 258 -8q150 0 206 43.5t56 159.5v1061h165zM903 1351q-60 0 -100.5 40t-40.5 100q0 59 40.5 99t100.5 40t101 -40t41 -99q0 -60 -41 -100t-101 -40zM354 1351
q-60 0 -100.5 40t-40.5 100q0 59 40.5 99t100.5 40t100.5 -40t40.5 -99q0 -60 -40.5 -100t-100.5 -40z" />
    <glyph glyph-name="Jcircumflex" unicode="&#x134;" 
d="M591 -30q-188 0 -305.5 108t-118.5 283h173q4 -100 73 -161.5t176 -61.5q122 0 188.5 72.5t66.5 205.5v870h-496v157h673v-1032q0 -206 -115 -323.5t-315 -117.5zM762 1921l286 -309h-180l-180 200h-13l-180 -200h-180l287 309h160z" />
    <glyph glyph-name="jcircumflex" unicode="&#x135;" 
d="M874 1085v-1079q0 -180 -99 -257.5t-326 -77.5q-167 0 -263 8v152q83 -8 258 -8q151 0 207 43.5t56 159.5v918h-496v141h663zM690 1623h201l273 -341h-194l-172 226h-15l-172 -226h-194z" />
    <glyph glyph-name="Kcommaaccent" unicode="&#x136;" 
d="M389 0h-173v1443h173v-718h13l584 718h206l-534 -638l586 -805h-219l-486 669l-150 -178v-491zM646 -503h-157l110 361h176z" />
    <glyph glyph-name="kcommaaccent" unicode="&#x137;" 
d="M485 -494l110 361h176l-129 -361h-157zM710 656l451 -656h-202l-371 539l-149 -144v-395h-170v1511h170v-913h13l473 487h206z" />
    <glyph glyph-name="Lacute" unicode="&#x139;" 
d="M1122 164v-164h-859v1443h175v-1279h684zM235 1612l301 304h207l-322 -304h-186z" />
    <glyph glyph-name="lacute" unicode="&#x13a;" 
d="M722 1713h-181l238 339h207zM1107 0h-899v141h371v1229h-368v141h538v-1370h358v-141z" />
    <glyph glyph-name="Lcommaaccent" unicode="&#x13b;" 
d="M1122 164v-164h-859v1443h175v-1279h684zM662 -503h-157l110 361h176z" />
    <glyph glyph-name="lcommaaccent" unicode="&#x13c;" 
d="M1107 0h-899v141h371v1229h-368v141h538v-1370h358v-141zM618 -494h-157l110 361h177z" />
    <glyph glyph-name="Lcaron" unicode="&#x13d;" 
d="M780 1443h157l-38 -481h-119v481zM1122 164v-164h-859v1443h175v-1279h684z" />
    <glyph glyph-name="lcaron" unicode="&#x13e;" 
d="M994 1511h159l-39 -458h-120v458zM1107 0h-899v141h371v1229h-368v141h538v-1370h358v-141z" />
    <glyph glyph-name="Ldot" unicode="&#x13f;" 
d="M1122 164v-164h-859v1443h175v-1279h684zM970 862q-51 0 -88.5 38t-37.5 90t37.5 90.5t88.5 38.5t88.5 -38.5t37.5 -90.5t-37.5 -90t-88.5 -38z" />
    <glyph glyph-name="ldot" unicode="&#x140;" 
d="M1107 0h-899v141h371v1229h-368v141h538v-1370h358v-141zM1123 727q-51 0 -88.5 38.5t-37.5 90.5t37.5 90.5t88.5 38.5t88.5 -38.5t37.5 -90.5t-37.5 -90.5t-88.5 -38.5z" />
    <glyph glyph-name="Lslash" unicode="&#x141;" 
d="M438 164h684v-164h-859v573l-177 -100v154l177 102v714h175v-613l498 286v-162l-498 -282v-508z" />
    <glyph glyph-name="lslash" unicode="&#x142;" 
d="M749 141h358v-141h-899v141h371v532l-354 -200v154l354 204v539h-368v141h538v-583l326 188v-162l-326 -184v-629z" />
    <glyph glyph-name="Nacute" unicode="&#x143;" 
d="M312 0h-159v1443h169l618 -1123h14v1123h159v-1443h-167l-620 1126h-14v-1126zM514 1612l301 304h206l-322 -304h-185z" />
    <glyph glyph-name="nacute" unicode="&#x144;" 
d="M719 1296h-181l239 339h206zM189 0v1085h163v-191h14q44 101 133.5 156t213.5 55q177 0 270.5 -103t93.5 -298v-704h-170v661q0 147 -61 217.5t-188 70.5q-134 0 -216.5 -85.5t-82.5 -224.5v-639h-170z" />
    <glyph glyph-name="Ncommaaccent" unicode="&#x145;" 
d="M312 0h-159v1443h169l618 -1123h14v1123h159v-1443h-167l-620 1126h-14v-1126zM591 -503h-157l110 361h177z" />
    <glyph glyph-name="ncommaaccent" unicode="&#x146;" 
d="M189 0v1085h163v-191h14q44 101 133.5 156t213.5 55q177 0 270.5 -103t93.5 -298v-704h-170v661q0 147 -61 217.5t-188 70.5q-134 0 -216.5 -85.5t-82.5 -224.5v-639h-170zM601 -494h-157l110 361h177z" />
    <glyph glyph-name="Ncaron" unicode="&#x147;" 
d="M996 1919l-286 -309h-160l-287 309h180l180 -200h13l180 200h180zM312 0h-159v1443h169l618 -1123h14v1123h159v-1443h-167l-620 1126h-14v-1126z" />
    <glyph glyph-name="ncaron" unicode="&#x148;" 
d="M733 1296h-200l-274 342h194l172 -227h15l172 227h195zM189 0v1085h163v-191h14q44 101 133.5 156t213.5 55q177 0 270.5 -103t93.5 -298v-704h-170v661q0 147 -61 217.5t-188 70.5q-134 0 -216.5 -85.5t-82.5 -224.5v-639h-170z" />
    <glyph glyph-name="Omacron" unicode="&#x14c;" 
d="M1162 605q0 -298 -141 -466.5t-388 -168.5t-388 168.5t-141 466.5v233q0 298 141 466.5t388 168.5t388 -168.5t141 -466.5v-233zM633 137q165 0 258 122.5t93 346.5v231q0 224 -93 346.5t-258 122.5t-258 -122.5t-93 -346.5v-231q0 -224 93 -346.5t258 -122.5zM963 1696
h-660v139h660v-139z" />
    <glyph glyph-name="omacron" unicode="&#x14d;" 
d="M633 -20q-215 0 -342.5 130t-127.5 350v164q0 220 127.5 350t342.5 130t342.5 -130t127.5 -350v-164q0 -220 -127.5 -350t-342.5 -130zM633 954q-140 0 -221 -92.5t-81 -252.5v-133q0 -160 81 -252.5t221 -92.5t221 92.5t81 252.5v133q0 160 -81 252.5t-221 92.5z
M963 1370h-660v139h660v-139z" />
    <glyph glyph-name="Obreve" unicode="&#x14e;" 
d="M1162 605q0 -298 -141 -466.5t-388 -168.5t-388 168.5t-141 466.5v233q0 298 141 466.5t388 168.5t388 -168.5t141 -466.5v-233zM633 137q165 0 258 122.5t93 346.5v231q0 224 -93 346.5t-258 122.5t-258 -122.5t-93 -346.5v-231q0 -224 93 -346.5t258 -122.5zM288 1918
h138q1 -84 59 -137.5t148 -53.5t148 53.5t59 137.5h138q0 -137 -96 -223t-249 -86t-249 86t-96 223z" />
    <glyph glyph-name="obreve" unicode="&#x14f;" 
d="M633 -20q-215 0 -342.5 130t-127.5 350v164q0 220 127.5 350t342.5 130t342.5 -130t127.5 -350v-164q0 -220 -127.5 -350t-342.5 -130zM633 954q-140 0 -221 -92.5t-81 -252.5v-133q0 -160 81 -252.5t221 -92.5t221 92.5t81 252.5v133q0 160 -81 252.5t-221 92.5z
M633 1397q97 0 151 55.5t53 143.5h152q0 -146 -96.5 -238t-259.5 -92t-259.5 92t-96.5 238h152q0 -88 54 -143.5t150 -55.5z" />
    <glyph glyph-name="Ohungarumlaut" unicode="&#x150;" 
d="M1162 605q0 -298 -141 -466.5t-388 -168.5t-388 168.5t-141 466.5v233q0 298 141 466.5t388 168.5t388 -168.5t141 -466.5v-233zM633 137q165 0 258 122.5t93 346.5v231q0 224 -93 346.5t-258 122.5t-258 -122.5t-93 -346.5v-231q0 -224 93 -346.5t258 -122.5zM672 1612
l294 304h195l-313 -304h-176zM293 1612l294 304h195l-313 -304h-176z" />
    <glyph glyph-name="ohungarumlaut" unicode="&#x151;" 
d="M633 -20q-215 0 -342.5 130t-127.5 350v164q0 220 127.5 350t342.5 130t342.5 -130t127.5 -350v-164q0 -220 -127.5 -350t-342.5 -130zM633 954q-140 0 -221 -92.5t-81 -252.5v-133q0 -160 81 -252.5t221 -92.5t221 92.5t81 252.5v133q0 160 -81 252.5t-221 92.5z
M746 1296l227 339h193l-250 -339h-170zM357 1296l227 339h192l-249 -339h-170z" />
    <glyph glyph-name="OE" unicode="&#x152;" 
d="M194 822v-201q0 -257 54.5 -370.5t178.5 -113.5q122 0 179.5 123t57.5 385v153q0 263 -57.5 386t-179.5 123q-124 0 -178.5 -114t-54.5 -371zM674 205q-58 -238 -288 -238q-185 0 -275 158t-90 486v222q0 327 90 485.5t275 158.5q227 0 288 -241h15v207h568v-162h-423
v-465h388v-159h-388v-496h423v-161h-568v205h-15z" />
    <glyph glyph-name="oe" unicode="&#x153;" 
d="M1235 271q-20 -134 -104.5 -213t-206.5 -79q-93 0 -163 57.5t-101 157.5q-33 -97 -106 -156t-163 -59q-157 0 -243 123.5t-86 349.5v170q0 227 86 350.5t244 123.5q100 0 171 -58t99 -161q25 95 100 157t165 62q156 0 237 -136t81 -398v-74h-504v-46q0 -150 48 -228.5
t142 -78.5q64 0 108.5 35.5t63.5 100.5h132zM741 631h354q-8 164 -47.5 236.5t-121.5 72.5q-85 0 -133.5 -81t-51.5 -228zM393 941q-93 0 -136.5 -77t-43.5 -240v-172q0 -164 43 -240.5t137 -76.5q88 0 138.5 84t50.5 233v172q0 148 -50.5 232.5t-138.5 84.5z" />
    <glyph glyph-name="Racute" unicode="&#x154;" 
d="M356 1286v-562h286q149 0 230 73t81 208q0 134 -79 207.5t-224 73.5h-294zM688 575h-332v-575h-174v1443h484q215 0 340 -116.5t125 -317.5q0 -142 -73 -249.5t-196 -148.5l294 -611h-199zM486 1612l301 304h207l-322 -304h-186z" />
    <glyph glyph-name="racute" unicode="&#x155;" 
d="M1067 1635l-264 -339h-181l238 339h207zM588 808h22q30 150 128 227.5t256 77.5q99 0 157 -24v-191q-83 30 -179 30q-180 0 -281 -117.5t-101 -324.5v-350h336v-136h-721v136h219v813h-241v136h405v-277z" />
    <glyph glyph-name="Rcommaaccent" unicode="&#x156;" 
d="M356 1286v-562h286q149 0 230 73t81 208q0 134 -79 207.5t-224 73.5h-294zM688 575h-332v-575h-174v1443h484q215 0 340 -116.5t125 -317.5q0 -142 -73 -249.5t-196 -148.5l294 -611h-199zM610 -503h-158l110 361h177z" />
    <glyph glyph-name="rcommaaccent" unicode="&#x157;" 
d="M317 -503l110 361h176l-129 -361h-157zM588 808h22q30 150 128 227.5t256 77.5q99 0 157 -24v-191q-83 30 -179 30q-180 0 -281 -117.5t-101 -324.5v-350h336v-136h-721v136h219v813h-241v136h405v-277z" />
    <glyph glyph-name="Rcaron" unicode="&#x158;" 
d="M969 1919l-287 -309h-159l-287 309h180l180 -200h13l180 200h180zM688 575h-332v-575h-174v1443h484q215 0 340 -116.5t125 -317.5q0 -142 -73 -249.5t-196 -148.5l294 -611h-199zM356 1286v-562h286q149 0 230 73t81 208q0 134 -79 207.5t-224 73.5h-294z" />
    <glyph glyph-name="rcaron" unicode="&#x159;" 
d="M756 1296h-200l-274 342h194l172 -227h15l173 227h194zM588 808h22q30 150 128 227.5t256 77.5q99 0 157 -24v-191q-83 30 -179 30q-180 0 -281 -117.5t-101 -324.5v-350h336v-136h-721v136h219v813h-241v136h405v-277z" />
    <glyph glyph-name="Sacute" unicode="&#x15a;" 
d="M139 384h172q14 -119 103.5 -186.5t233.5 -67.5t231 69.5t87 185.5q0 94 -66.5 153t-212.5 95l-124 31q-201 51 -295 149t-94 255q0 185 128.5 295t344.5 110q204 0 333 -108.5t138 -288.5h-172q-14 112 -92.5 174.5t-205.5 62.5q-139 0 -217.5 -62.5t-78.5 -172.5
q0 -94 63.5 -151.5t204.5 -92.5l126 -32q210 -52 304 -148.5t94 -259.5q0 -194 -135 -309t-362 -115q-224 0 -360.5 111t-147.5 303zM531 1612l301 304h207l-323 -304h-185z" />
    <glyph glyph-name="sacute" unicode="&#x15b;" 
d="M719 1296h-181l239 339h206zM692 457l-161 37q-293 67 -293 298q0 141 110 227.5t289 86.5q169 0 276.5 -79t122.5 -215h-164q-15 71 -79 112t-159 41q-103 0 -165 -44.5t-62 -118.5q0 -62 45 -100t147 -60l153 -35q158 -36 232.5 -107.5t74.5 -189.5q0 -150 -115.5 -240
t-308.5 -90q-184 0 -299 80.5t-129 220.5h173q19 -75 87.5 -116.5t173.5 -41.5q111 0 176.5 46.5t65.5 124.5q0 65 -44 102.5t-147 60.5z" />
    <glyph glyph-name="Scircumflex" unicode="&#x15c;" 
d="M139 384h172q14 -119 103.5 -186.5t233.5 -67.5t231 69.5t87 185.5q0 94 -66.5 153t-212.5 95l-124 31q-201 51 -295 149t-94 255q0 185 128.5 295t344.5 110q204 0 333 -108.5t138 -288.5h-172q-14 112 -92.5 174.5t-205.5 62.5q-139 0 -217.5 -62.5t-78.5 -172.5
q0 -94 63.5 -151.5t204.5 -92.5l126 -32q210 -52 304 -148.5t94 -259.5q0 -194 -135 -309t-362 -115q-224 0 -360.5 111t-147.5 303zM727 1921l287 -309h-180l-180 200h-14l-180 -200h-179l286 309h160z" />
    <glyph glyph-name="scircumflex" unicode="&#x15d;" 
d="M238 792q0 141 110 227.5t289 86.5q169 0 276.5 -79t122.5 -215h-164q-15 71 -79 112t-159 41q-103 0 -165 -44.5t-62 -118.5q0 -62 45 -100t147 -60l153 -35q158 -36 232.5 -107.5t74.5 -189.5q0 -150 -115.5 -240t-308.5 -90q-184 0 -299 80.5t-129 220.5h173
q19 -75 87.5 -116.5t173.5 -41.5q111 0 176.5 46.5t65.5 124.5q0 65 -44 102.5t-147 60.5l-161 37q-293 67 -293 298zM533 1623h200l274 -341h-194l-173 226h-15l-172 -226h-194z" />
    <glyph glyph-name="Scedilla" unicode="&#x15e;" 
d="M620 834l126 -32q210 -52 304 -148.5t94 -259.5q0 -179 -116 -291.5t-315 -129.5l-41 -105q96 -1 147 -43.5t51 -121.5q0 -87 -65 -138t-174 -51q-66 0 -131 17v110q46 -14 119 -14q114 0 114 72q0 35 -33.5 50t-110.5 15h-57v86l50 123q-196 16 -314.5 125t-128.5 286
h172q14 -119 103.5 -186.5t233.5 -67.5t231 69.5t87 185.5q0 94 -66.5 153t-212.5 95l-124 31q-201 51 -295 149t-94 255q0 185 128.5 295t344.5 110q204 0 333 -108.5t138 -288.5h-172q-14 112 -92.5 174.5t-205.5 62.5q-139 0 -217.5 -62.5t-78.5 -172.5
q0 -94 63.5 -151.5t204.5 -92.5z" />
    <glyph glyph-name="scedilla" unicode="&#x15f;" 
d="M599 642l153 -35q158 -36 232.5 -107.5t74.5 -189.5q0 -137 -98 -225t-265 -102l-46 -115q96 -1 147 -43.5t51 -121.5q0 -87 -65 -138t-173 -51q-67 0 -132 17v110q46 -14 119 -14q114 0 114 72q0 35 -33.5 50t-110.5 15h-57v86l54 133q-155 16 -249.5 94.5t-107.5 203.5
h173q19 -75 87.5 -116.5t173.5 -41.5q111 0 176.5 46.5t65.5 124.5q0 65 -44 102.5t-147 60.5l-161 37q-293 67 -293 298q0 141 110 227.5t289 86.5q169 0 276.5 -79t122.5 -215h-164q-15 71 -79 112t-159 41q-103 0 -165 -44.5t-62 -118.5q0 -62 45 -100t147 -60z" />
    <glyph glyph-name="Scaron" unicode="&#x160;" 
d="M1014 1919l-287 -309h-160l-286 309h179l180 -200h14l180 200h180zM139 384h172q14 -119 103.5 -186.5t233.5 -67.5t231 69.5t87 185.5q0 94 -66.5 153t-212.5 95l-124 31q-201 51 -295 149t-94 255q0 185 128.5 295t344.5 110q204 0 333 -108.5t138 -288.5h-172
q-14 112 -92.5 174.5t-205.5 62.5q-139 0 -217.5 -62.5t-78.5 -172.5q0 -94 63.5 -151.5t204.5 -92.5l126 -32q210 -52 304 -148.5t94 -259.5q0 -194 -135 -309t-362 -115q-224 0 -360.5 111t-147.5 303z" />
    <glyph glyph-name="scaron" unicode="&#x161;" 
d="M733 1296h-200l-274 342h194l172 -227h15l172 227h195zM692 457l-161 37q-293 67 -293 298q0 141 110 227.5t289 86.5q169 0 276.5 -79t122.5 -215h-164q-15 71 -79 112t-159 41q-103 0 -165 -44.5t-62 -118.5q0 -62 45 -100t147 -60l153 -35q158 -36 232.5 -107.5
t74.5 -189.5q0 -150 -115.5 -240t-308.5 -90q-184 0 -299 80.5t-129 220.5h173q19 -75 87.5 -116.5t173.5 -41.5q111 0 176.5 46.5t65.5 124.5q0 65 -44 102.5t-147 60.5z" />
    <glyph glyph-name="Tcedilla" unicode="&#x162;" 
d="M721 0h-11l-52 -132q96 -1 147 -43.5t51 -121.5q0 -87 -65 -138t-174 -51q-66 0 -131 17v110q46 -14 119 -14q114 0 114 72q0 35 -33.5 50t-110.5 15h-57v86l61 150h-34v1281h-436v162h1048v-162h-436v-1281z" />
    <glyph glyph-name="tcedilla" unicode="&#x163;" 
d="M705 -486q-79 0 -142 18v107q46 -14 119 -14q116 0 116 73q0 35 -34 50.5t-112 15.5h-58v84l69 168q-110 30 -162.5 105t-52.5 202v614h-289v145h289v294h168v-294h440v-145h-438v-612q0 -88 60.5 -135t175.5 -47q141 0 199 6v-144q-54 -10 -200 -10q-41 0 -68 3
l-51 -132q99 -1 154 -44t55 -120q0 -86 -65 -137t-173 -51z" />
    <glyph glyph-name="Tcaron" unicode="&#x164;" 
d="M999 1919l-286 -309h-160l-286 309h179l180 -200h14l180 200h179zM721 0h-176v1281h-436v162h1048v-162h-436v-1281z" />
    <glyph glyph-name="tcaron" unicode="&#x165;" 
d="M906 1230h-119v459h159zM448 1376h168v-294h440v-145h-438v-612q0 -88 60.5 -135t175.5 -47q141 0 199 6v-144q-54 -10 -211 -10q-202 0 -298 79.5t-96 248.5v614h-289v145h289v294z" />
    <glyph glyph-name="Tbar" unicode="&#x166;" 
d="M1157 1281h-436v-489h298v-141h-298v-651h-176v651h-298v141h298v489h-436v162h1048v-162z" />
    <glyph glyph-name="tbar" unicode="&#x167;" 
d="M1056 937h-438v-261h437v-124h-437v-227q0 -88 60.5 -135t175.5 -47q141 0 199 6v-144q-54 -10 -211 -10q-202 0 -298 79.5t-96 248.5v229h-289v124h289v261h-289v145h289v294h168v-294h440v-145z" />
    <glyph glyph-name="Utilde" unicode="&#x168;" 
d="M633 137q157 0 244.5 98.5t87.5 276.5v931h176v-942q0 -249 -135 -390t-373 -141t-373 141t-135 390v942h176v-931q0 -178 87.5 -276.5t244.5 -98.5zM779 1620q-43 0 -79 16t-60.5 39t-46.5 46t-48 39t-54 16q-94 0 -98 -146h-124q0 125 58 197.5t155 72.5q45 0 83.5 -16
t63.5 -39t47 -46.5t45.5 -39.5t48.5 -16q45 0 70.5 37t28.5 108h123q0 -122 -58.5 -195t-154.5 -73z" />
    <glyph glyph-name="utilde" unicode="&#x169;" 
d="M1077 1085v-1085h-163v191h-14q-44 -101 -133.5 -156t-213.5 -55q-177 0 -270.5 103t-93.5 298v704h170v-661q0 -147 61 -217.5t188 -70.5q134 0 216.5 85.5t82.5 224.5v639h170zM491 1428q-46 0 -66.5 -37t-20.5 -120h-140q0 137 60.5 215t166.5 78q53 0 98 -24.5
t70.5 -53.5t56.5 -53.5t59 -24.5q46 0 66.5 37t20.5 118h140q0 -136 -60.5 -214t-166.5 -78q-43 0 -80.5 16t-63 39.5t-48 46.5t-46 39t-46.5 16z" />
    <glyph glyph-name="Umacron" unicode="&#x16a;" 
d="M633 137q157 0 244.5 98.5t87.5 276.5v931h176v-942q0 -249 -135 -390t-373 -141t-373 141t-135 390v942h176v-931q0 -178 87.5 -276.5t244.5 -98.5zM960 1696h-659v139h659v-139z" />
    <glyph glyph-name="umacron" unicode="&#x16b;" 
d="M1077 1085v-1085h-163v191h-14q-44 -101 -133.5 -156t-213.5 -55q-177 0 -270.5 103t-93.5 298v704h170v-661q0 -147 61 -217.5t188 -70.5q134 0 216.5 85.5t82.5 224.5v639h170zM963 1370h-660v139h660v-139z" />
    <glyph glyph-name="Ubreve" unicode="&#x16c;" 
d="M633 137q157 0 244.5 98.5t87.5 276.5v931h176v-942q0 -249 -135 -390t-373 -141t-373 141t-135 390v942h176v-931q0 -178 87.5 -276.5t244.5 -98.5zM285 1918h139q0 -83 58 -137t149 -54q90 0 148 54t58 137h139q0 -137 -96 -223t-249 -86q-154 0 -250 86t-96 223z" />
    <glyph glyph-name="ubreve" unicode="&#x16d;" 
d="M1077 1085v-1085h-163v191h-14q-44 -101 -133.5 -156t-213.5 -55q-177 0 -270.5 103t-93.5 298v704h170v-661q0 -147 61 -217.5t188 -70.5q134 0 216.5 85.5t82.5 224.5v639h170zM633 1397q97 0 151 55.5t53 143.5h152q0 -146 -96.5 -238t-259.5 -92t-259.5 92t-96.5 238
h152q0 -88 54 -143.5t150 -55.5z" />
    <glyph glyph-name="Uring" unicode="&#x16e;" 
d="M633 137q157 0 244.5 98.5t87.5 276.5v931h176v-942q0 -249 -135 -390t-373 -141t-373 141t-135 390v942h176v-931q0 -178 87.5 -276.5t244.5 -98.5zM631 1559q-82 0 -138 56t-56 136q0 81 56 136.5t138 55.5q81 0 137 -55.5t56 -136.5q0 -80 -56 -136t-137 -56z
M631 1650q44 0 73 28.5t29 72.5t-29 72.5t-73 28.5t-73.5 -28.5t-29.5 -72.5t29.5 -72.5t73.5 -28.5z" />
    <glyph glyph-name="uring" unicode="&#x16f;" 
d="M1077 1085v-1085h-163v191h-14q-44 -101 -133.5 -156t-213.5 -55q-177 0 -270.5 103t-93.5 298v704h170v-661q0 -147 61 -217.5t188 -70.5q134 0 216.5 85.5t82.5 224.5v639h170zM633 1368q50 0 84 35t34 87t-34 87t-84 35q-51 0 -84.5 -35t-33.5 -87t33.5 -87t84.5 -35z
M633 1259q-94 0 -160 67.5t-66 163.5q0 95 66 163t160 68q93 0 159.5 -68t66.5 -163q0 -96 -66.5 -163.5t-159.5 -67.5z" />
    <glyph glyph-name="Uhungarumlaut" unicode="&#x170;" 
d="M633 137q157 0 244.5 98.5t87.5 276.5v931h176v-942q0 -249 -135 -390t-373 -141t-373 141t-135 390v942h176v-931q0 -178 87.5 -276.5t244.5 -98.5zM669 1612l295 304h194l-312 -304h-177zM290 1612l295 304h194l-312 -304h-177z" />
    <glyph glyph-name="uhungarumlaut" unicode="&#x171;" 
d="M1077 1085v-1085h-163v191h-14q-44 -101 -133.5 -156t-213.5 -55q-177 0 -270.5 103t-93.5 298v704h170v-661q0 -147 61 -217.5t188 -70.5q134 0 216.5 85.5t82.5 224.5v639h170zM746 1296l227 339h193l-250 -339h-170zM357 1296l227 339h192l-249 -339h-170z" />
    <glyph glyph-name="Uogonek" unicode="&#x172;" 
d="M852 -428q-104 0 -171 56t-67 143q0 124 138 214v15q-55 -30 -134 -30q-228 0 -360.5 143t-132.5 388v942h176v-931q0 -178 87.5 -276.5t244.5 -98.5t244.5 98.5t87.5 276.5v931h176v-942q0 -162 -52.5 -275t-163.5 -193q-84 -59 -122 -110t-38 -105q0 -52 33.5 -84
t89.5 -32q41 0 68 7v-121q-45 -16 -104 -16z" />
    <glyph glyph-name="uogonek" unicode="&#x173;" 
d="M914 0v191h-14q-44 -101 -133.5 -156t-213.5 -55q-177 0 -270.5 103t-93.5 298v704h170v-661q0 -147 61 -217.5t188 -70.5q134 0 216.5 85.5t82.5 224.5v639h170v-1085q-81 -38 -127 -91t-46 -109q0 -45 29 -71t80 -26q44 0 64 10v-126q-36 -19 -106 -19
q-95 0 -153.5 53.5t-58.5 140.5q0 142 172 238h-17z" />
    <glyph glyph-name="Wcircumflex" unicode="&#x174;" 
d="M639 895h-12l-213 -895h-166l-248 1443h167l87 -578l87 -601h11l202 849h158l202 -849h11l87 601l87 578h167l-248 -1443h-166zM713 1921l287 -309h-180l-180 200h-14l-179 -200h-180l286 309h160z" />
    <glyph glyph-name="wcircumflex" unicode="&#x175;" 
d="M1219 1085l-233 -1085h-163l-184 846h-12l-184 -846h-163l-233 1085h166l147 -870h18l175 869h160l175 -869h18l147 870h166zM533 1623h200l274 -341h-194l-173 226h-15l-172 -226h-194z" />
    <glyph glyph-name="Ycircumflex" unicode="&#x176;" 
d="M721 0h-176v595l-481 848h197l365 -660h14l365 660h197l-481 -848v-595zM713 1921l286 -309h-179l-180 200h-14l-180 -200h-179l286 309h160z" />
    <glyph glyph-name="ycircumflex" unicode="&#x177;" 
d="M329 -386q-51 0 -73 3v149q17 -4 60 -4q77 0 123 39t80 133l19 59l-399 1092h185l304 -908h13l303 908h181l-409 -1125q-71 -200 -153.5 -273t-233.5 -73zM532 1623h200l274 -341h-194l-172 226h-16l-172 -226h-194z" />
    <glyph glyph-name="Ydieresis" unicode="&#x178;" 
d="M721 0h-176v595l-481 848h197l365 -660h14l365 660h197l-481 -848v-595zM431 1651q-47 0 -82 36t-35 85t35 85t82 36t82 -36t35 -85t-35 -85t-82 -36zM835 1651q-47 0 -82 36t-35 85t35 85t82 36t82 -36t35 -85t-35 -85t-82 -36z" />
    <glyph glyph-name="Zacute" unicode="&#x179;" 
d="M137 0v129l757 1138v14h-732v162h956v-130l-755 -1137v-14h768v-162h-994zM518 1612l301 304h207l-323 -304h-185z" />
    <glyph glyph-name="zacute" unicode="&#x17a;" 
d="M719 1296h-181l239 339h206zM211 0v120l637 806v13h-634v146h837v-127l-627 -799v-13h631v-146h-844z" />
    <glyph glyph-name="Zdotaccent" unicode="&#x17b;" 
d="M137 0v129l757 1138v14h-732v162h956v-130l-755 -1137v-14h768v-162h-994zM634 1640q-51 0 -88.5 38.5t-37.5 90.5t37.5 90t88.5 38t88.5 -38t37.5 -90t-37.5 -90.5t-88.5 -38.5z" />
    <glyph glyph-name="zdotaccent" unicode="&#x17c;" 
d="M211 0v120l637 806v13h-634v146h837v-127l-627 -799v-13h631v-146h-844zM633 1307q-51 0 -88.5 38.5t-37.5 90.5t37.5 90t88.5 38t88.5 -38t37.5 -90t-37.5 -90.5t-88.5 -38.5z" />
    <glyph glyph-name="Zcaron" unicode="&#x17d;" 
d="M1000 1919l-286 -309h-160l-286 309h179l180 -200h14l180 200h179zM137 0v129l757 1138v14h-732v162h956v-130l-755 -1137v-14h768v-162h-994z" />
    <glyph glyph-name="zcaron" unicode="&#x17e;" 
d="M733 1296h-200l-274 342h194l172 -227h15l172 227h195zM211 0v120l637 806v13h-634v146h837v-127l-627 -799v-13h631v-146h-844z" />
    <glyph glyph-name="florin" unicode="&#x192;" 
d="M277 -24q-108 0 -212 27v172q99 -36 196 -36q99 0 156.5 47t72.5 153l55 387h-327v148h348l31 225q25 178 127.5 273t271.5 95q127 0 206 -21v-162q-70 22 -184 22q-217 0 -250 -219l-29 -213h359v-148h-380l-56 -401q-25 -182 -120.5 -265.5t-264.5 -83.5z" />
    <glyph glyph-name="Ohorn" unicode="&#x1a0;" 
d="M633 -30q-247 0 -388 169t-141 466v233q0 297 141 466t388 169q64 0 171.5 -19.5t181.5 -19.5q75 0 105 23t30 80v139h147v-187q0 -88 -53 -135t-152 -47h-70v-11q80 -57 124.5 -177t44.5 -281v-233q0 -297 -141 -466t-388 -169zM633 137q167 0 259 123t92 346v231
q0 223 -92 346t-259 123t-259 -123t-92 -346v-231q0 -223 92 -346t259 -123z" />
    <glyph glyph-name="ohorn" unicode="&#x1a1;" 
d="M633 954q-139 0 -220.5 -93t-81.5 -252v-133q0 -160 81 -252.5t221 -92.5t221 92.5t81 252.5v133q0 159 -81.5 252t-220.5 93zM1103 460q0 -220 -127.5 -350t-342.5 -130t-342.5 130t-127.5 350v164q0 220 127.5 350t342.5 130q65 0 147 -13t136 -13q64 0 89 21t25 74
v135h148v-185q0 -78 -42.5 -121.5t-117.5 -43.5h-60v-8q69 -46 107 -132t38 -199v-159z" />
    <glyph glyph-name="Uhorn" unicode="&#x1af;" 
d="M630 -30q-238 0 -371 140.5t-133 390.5v942h176v-938q0 -175 86.5 -271.5t241.5 -96.5t241 96.5t86 271.5v938h179q98 0 98 89v166h148v-201q0 -86 -52 -134.5t-146 -48.5h-51v-813q0 -250 -133 -390.5t-370 -140.5z" />
    <glyph glyph-name="uhorn" unicode="&#x1b0;" 
d="M1149 1321h148v-182q0 -87 -53.5 -135t-144.5 -48h-31v-956h-163v191h-14q-43 -103 -131.5 -157t-210.5 -54q-176 0 -268 102.5t-92 298.5v704h169v-661q0 -146 61 -217t185 -71q133 0 213.5 85t80.5 224v640h156q95 0 95 89v147z" />
    <glyph glyph-name="uni01C4" unicode="&#x1c4;" 
d="M1028 1581h-158l-276 304h174l174 -201h14l174 201h174zM49 1443h171q157 0 249 -70.5t134 -226t42 -423.5q0 -270 -42 -426.5t-133.5 -226.5t-249.5 -70h-171v1443zM196 1303v-1164h23q105 0 164 55t85 180t26 349q0 221 -26.5 345.5t-85 179.5t-163.5 55h-23zM659 0
v129l403 1155v14h-378v145h537v-130l-399 -1154v-14h409v-145h-572z" />
    <glyph glyph-name="uni01C5" unicode="&#x1c5;" 
d="M1073 1296h-174l-210 342h158l131 -242h17l130 242h158zM49 1443h171q157 0 249 -70.5t134 -226t42 -423.5q0 -270 -42 -426.5t-133.5 -226.5t-249.5 -70h-171v1443zM198 1303v-1164h21q105 0 163 55t83.5 179.5t25.5 349.5q0 222 -25.5 346t-83.5 179t-163 55h-21z
M716 0v120l364 817v14h-353v134h510v-127l-357 -810v-14h361v-134h-525z" />
    <glyph glyph-name="uni01C6" unicode="&#x1c6;" 
d="M178 628v-171q0 -176 38 -252.5t126 -76.5t125.5 76.5t37.5 252.5v171q0 176 -37.5 252.5t-125.5 76.5t-126 -76.5t-38 -252.5zM511 166h-18q-31 -101 -74 -142.5t-117 -41.5q-144 0 -210 106.5t-66 340.5v228q0 234 65 340t208 106q79 0 125 -44.5t63 -141.5h19v594h148
v-1511h-143v166zM729 0v120l353 817v14h-345v134h501v-127l-351 -810v-14h354v-134h-512zM1079 1296h-175l-201 342h158l122 -242h17l121 242h158z" />
    <glyph glyph-name="uni01C7" unicode="&#x1c7;" 
d="M241 1443v-1289h328v-154h-494v1443h166zM1188 1443v-1062q0 -411 -303 -411q-146 0 -226 97t-81 276h159q6 -215 149 -215q77 0 110.5 60.5t33.5 206.5v894h-333v154h491z" />
    <glyph glyph-name="uni01C8" unicode="&#x1c8;" 
d="M1077 1085v-1079q0 -180 -99 -257.5t-326 -77.5q-173 0 -260 8v150q75 -8 257 -8q151 0 207 43.5t56 159.5v1061h165zM981 1351q-60 0 -100.5 40t-40.5 100q0 59 40.5 99t100.5 40t100.5 -40t40.5 -99q0 -60 -40.5 -100t-100.5 -40zM672 154v-154h-483v1443h162v-1289
h321z" />
    <glyph glyph-name="uni01C9" unicode="&#x1c9;" 
d="M506 0h-165v1362h-351v149h516v-1511zM1054 1085v-1079q0 -180 -99 -257.5t-326 -77.5q-165 0 -260 8v150q82 -8 257 -8q151 0 207 43.5t56 159.5v1061h165zM958 1351q-60 0 -100.5 40t-40.5 100q0 59 40.5 99t100.5 40t100.5 -40t40.5 -99q0 -60 -40.5 -100t-100.5 -40z
" />
    <glyph glyph-name="uni01CA" unicode="&#x1ca;" 
d="M942 -30q-122 0 -187.5 96.5t-65.5 276.5h144q4 -124 28.5 -173.5t78.5 -49.5q62 0 83 53t21 207v1063h144v-1062q0 -212 -59.5 -311.5t-186.5 -99.5zM202 0h-131v1443h153l258 -1090h14l-11 210v880h130v-1443h-151l-260 1092h-14l12 -204v-888z" />
    <glyph glyph-name="uni01CB" unicode="&#x1cb;" 
d="M217 0h-138v1443h173l305 -1090h18v1090h138v-1443h-171l-307 1092h-18v-1092zM1077 1085v-1079q0 -180 -98.5 -257.5t-324.5 -77.5q-173 0 -260 8v146q75 -8 262 -8q151 0 207 44.5t56 162.5v1061h158zM985 1357q-59 0 -99 39t-40 97t40 97.5t99 39.5t99 -39.5t40 -97.5
t-40 -97t-99 -39z" />
    <glyph glyph-name="uni01CC" unicode="&#x1cc;" 
d="M985 1351q-60 0 -100.5 40t-40.5 100q0 59 40.5 99t100.5 40t100.5 -40t40.5 -99q0 -60 -40.5 -100t-100.5 -40zM146 0v1085h154v-191h14q12 98 68.5 154.5t141.5 56.5q196 0 196 -277v-828h-161v757q0 192 -112 192q-140 0 -140 -287v-662h-161zM1078 1085v-1079
q0 -180 -98.5 -257.5t-326.5 -77.5q-191 0 -259 8v150q61 -8 261 -8q150 0 206 43.5t56 159.5v1061h161z" />
    <glyph glyph-name="Acaron" unicode="&#x1cd;" 
d="M713 1610h-160l-286 309h179l180 -200h14l180 200h179zM425 565h410l-202 666h-5zM1006 0l-125 414h-502l-126 -414h-179l465 1443h188l465 -1443h-186z" />
    <glyph glyph-name="acaron" unicode="&#x1ce;" 
d="M728 1296h-200l-274 342h194l173 -227h15l172 227h194zM861 512l-279 -13q-114 -5 -173 -52.5t-59 -132.5t59.5 -134.5t162.5 -49.5q123 0 206 72.5t83 181.5v128zM868 162h-17q-39 -87 -124 -134t-204 -47q-155 0 -250 89.5t-95 237.5q0 144 100 226.5t285 92.5l298 15
v98q0 102 -60.5 156.5t-173.5 54.5q-94 0 -157 -38t-84 -108h-167q15 130 129 211.5t281 81.5q191 0 296 -93t105 -263v-743h-162v163z" />
    <glyph glyph-name="Icaron" unicode="&#x1cf;" 
d="M999 1919l-286 -309h-160l-286 309h179l180 -200h14l180 200h179zM1013 0h-760v157h292v1129h-292v157h760v-157h-292v-1129h292v-157z" />
    <glyph glyph-name="icaron" unicode="&#x1d0;" 
d="M755 1288h-200l-274 342h194l173 -227h15l172 227h194zM1107 0h-899v141h372v803h-369v141h537v-944h359v-141z" />
    <glyph glyph-name="Ocaron" unicode="&#x1d1;" 
d="M999 1919l-286 -309h-160l-286 309h179l180 -200h14l180 200h179zM282 837v-231q0 -224 93 -346.5t258 -122.5t258 122.5t93 346.5v231q0 224 -93 346.5t-258 122.5t-258 -122.5t-93 -346.5zM1162 838v-233q0 -298 -141 -466.5t-388 -168.5t-388 168.5t-141 466.5v233
q0 298 141 466.5t388 168.5t388 -168.5t141 -466.5z" />
    <glyph glyph-name="ocaron" unicode="&#x1d2;" 
d="M733 1296h-200l-274 342h194l172 -227h16l172 227h194zM935 476v133q0 160 -81 252.5t-221 92.5t-221 -92.5t-81 -252.5v-133q0 -160 81 -252.5t221 -92.5t221 92.5t81 252.5zM1103 624v-164q0 -220 -127.5 -350t-342.5 -130t-342.5 130t-127.5 350v164q0 220 127.5 350
t342.5 130t342.5 -130t127.5 -350z" />
    <glyph glyph-name="Ucaron" unicode="&#x1d3;" 
d="M997 1919l-287 -309h-159l-287 309h180l180 -200h13l180 200h180zM301 1443v-931q0 -178 87.5 -276.5t244.5 -98.5t244.5 98.5t87.5 276.5v931h176v-942q0 -249 -135 -390t-373 -141t-373 141t-135 390v942h176z" />
    <glyph glyph-name="ucaron" unicode="&#x1d4;" 
d="M733 1296h-200l-274 342h194l172 -227h16l172 227h194zM1077 1085v-1085h-163v191h-14q-44 -101 -133.5 -156t-213.5 -55q-177 0 -270.5 103t-93.5 298v704h170v-661q0 -147 61 -217.5t188 -70.5q134 0 216.5 85.5t82.5 224.5v639h170z" />
    <glyph glyph-name="Udieresismacron" unicode="&#x1d5;" 
d="M826 1787q44 0 75 -32.5t31 -78.5t-31 -78t-75 -32t-75 32t-31 78t31 78.5t75 32.5zM299 1931v120h663v-120h-663zM437 1787q44 0 75.5 -32.5t31.5 -78.5t-31.5 -78t-75.5 -32t-75 32t-31 78t31 78.5t75 32.5zM301 1443v-931q0 -178 87.5 -276.5t244.5 -98.5t244.5 98.5
t87.5 276.5v931h176v-942q0 -249 -135 -390t-373 -141t-373 141t-135 390v942h176z" />
    <glyph glyph-name="udieresismacron" unicode="&#x1d6;" 
d="M835 1554q47 0 82 -36t35 -85t-35 -85.5t-82 -36.5t-82 36.5t-35 85.5t35 85t82 36zM431 1554q47 0 82 -36t35 -85t-35 -85.5t-82 -36.5t-82 36.5t-35 85.5t35 85t82 36zM963 1729h-660v139h660v-139zM1077 1085v-1085h-163v191h-14q-44 -101 -133.5 -156t-213.5 -55
q-177 0 -270.5 103t-93.5 298v704h170v-661q0 -147 61 -217.5t188 -70.5q134 0 216.5 85.5t82.5 224.5v639h170z" />
    <glyph glyph-name="Udieresisacute" unicode="&#x1d7;" 
d="M633 137q157 0 244.5 98.5t87.5 276.5v931h176v-942q0 -249 -135 -390t-373 -141t-373 141t-135 390v942h176v-931q0 -178 87.5 -276.5t244.5 -98.5zM505 1859l208 224h196l-233 -224h-171zM437 1566q-44 0 -75 32t-31 78t31 78.5t75 32.5t75 -32.5t31 -78.5t-31 -78
t-75 -32zM826 1566q-44 0 -75.5 32t-31.5 78t31.5 78.5t75.5 32.5t75 -32.5t31 -78.5t-31 -78t-75 -32z" />
    <glyph glyph-name="udieresisacute" unicode="&#x1d8;" 
d="M1077 1085v-1085h-163v191h-14q-44 -101 -133.5 -156t-213.5 -55q-177 0 -270.5 103t-93.5 298v704h170v-661q0 -147 61 -217.5t188 -70.5q134 0 216.5 85.5t82.5 224.5v639h170zM528 1662l210 308h192l-236 -308h-166zM431 1311q-47 0 -82 36.5t-35 85.5t35 85t82 36
t82 -36t35 -85t-35 -85.5t-82 -36.5zM835 1311q-47 0 -82 36.5t-35 85.5t35 85t82 36t82 -36t35 -85t-35 -85.5t-82 -36.5z" />
    <glyph glyph-name="Udieresiscaron" unicode="&#x1d9;" 
d="M633 137q157 0 244.5 98.5t87.5 276.5v931h176v-942q0 -249 -135 -390t-373 -141t-373 141t-135 390v942h176v-931q0 -178 87.5 -276.5t244.5 -98.5zM718 1854h-175l-282 246h192l171 -153h13l171 153h192zM437 1566q-44 0 -75 32t-31 78t31 78.5t75 32.5t75 -32.5
t31 -78.5t-31 -78t-75 -32zM826 1566q-44 0 -75.5 32t-31.5 78t31.5 78.5t75.5 32.5t75 -32.5t31 -78.5t-31 -78t-75 -32z" />
    <glyph glyph-name="udieresiscaron" unicode="&#x1da;" 
d="M1077 1085v-1085h-163v191h-14q-44 -101 -133.5 -156t-213.5 -55q-177 0 -270.5 103t-93.5 298v704h170v-661q0 -147 61 -217.5t188 -70.5q134 0 216.5 85.5t82.5 224.5v639h170zM724 1662h-182l-273 317h176l181 -215h14l181 215h176zM431 1311q-47 0 -82 36.5t-35 85.5
t35 85t82 36t82 -36t35 -85t-35 -85.5t-82 -36.5zM835 1311q-47 0 -82 36.5t-35 85.5t35 85t82 36t82 -36t35 -85t-35 -85.5t-82 -36.5z" />
    <glyph glyph-name="Udieresisgrave" unicode="&#x1db;" 
d="M437 1566q-44 0 -75 32t-31 78t31 78.5t75 32.5t75.5 -32.5t31.5 -78.5t-31.5 -78t-75.5 -32zM826 1566q-44 0 -75 32t-31 78t31 78.5t75 32.5t75 -32.5t31 -78.5t-31 -78t-75 -32zM550 2083l208 -224h-171l-233 224h196zM301 1443v-931q0 -178 87.5 -276.5t244.5 -98.5
t244.5 98.5t87.5 276.5v931h176v-942q0 -249 -135 -390t-373 -141t-373 141t-135 390v942h176z" />
    <glyph glyph-name="udieresisgrave" unicode="&#x1dc;" 
d="M431 1311q-47 0 -82 36.5t-35 85.5t35 85t82 36t82 -36t35 -85t-35 -85.5t-82 -36.5zM835 1311q-47 0 -82 36.5t-35 85.5t35 85t82 36t82 -36t35 -85t-35 -85.5t-82 -36.5zM528 1970l210 -308h-166l-236 308h192zM1077 1085v-1085h-163v191h-14q-44 -101 -133.5 -156
t-213.5 -55q-177 0 -270.5 103t-93.5 298v704h170v-661q0 -147 61 -217.5t188 -70.5q134 0 216.5 85.5t82.5 224.5v639h170z" />
    <glyph glyph-name="Adieresismacron" unicode="&#x1de;" 
d="M965 2051v-120h-663v120h663zM722 1676q0 47 31 79t76 32q44 0 75 -32.5t31 -78.5t-31 -78t-75 -32q-45 0 -76 32t-31 78zM333 1676q0 46 31.5 78.5t75.5 32.5t75 -32.5t31 -78.5t-31 -78t-75 -32t-75.5 32t-31.5 78zM425 565h410l-202 666h-5zM1006 0l-125 414h-502
l-126 -414h-179l465 1443h188l465 -1443h-186z" />
    <glyph glyph-name="adieresismacron" unicode="&#x1df;" 
d="M830 1554q47 0 82 -36t35 -85t-35 -85.5t-82 -36.5t-82 36.5t-35 85.5t35 85t82 36zM426 1554q47 0 82 -36t35 -85t-35 -85.5t-82 -36.5t-82 36.5t-35 85.5t35 85t82 36zM958 1729h-660v139h660v-139zM861 512l-279 -13q-114 -5 -173 -52.5t-59 -132.5t59.5 -134.5
t162.5 -49.5q123 0 206 72.5t83 181.5v128zM868 162h-17q-39 -87 -124 -134t-204 -47q-155 0 -250 89.5t-95 237.5q0 144 100 226.5t285 92.5l298 15v98q0 102 -60.5 156.5t-173.5 54.5q-94 0 -157 -38t-84 -108h-167q15 130 129 211.5t281 81.5q191 0 296 -93t105 -263
v-743h-162v163z" />
    <glyph glyph-name="Adotmacron" unicode="&#x1e0;" 
d="M965 2051v-120h-663v120h663zM518 1693q0 49 33.5 83.5t81.5 34.5t82 -34.5t34 -83.5t-34 -84t-82 -35t-81.5 34.5t-33.5 84.5zM425 565h410l-202 666h-5zM1006 0l-125 414h-502l-126 -414h-179l465 1443h188l465 -1443h-186z" />
    <glyph glyph-name="adotmacron" unicode="&#x1e1;" 
d="M523 -19q-155 0 -250 89.5t-95 237.5q0 144 100 226.5t285 92.5l298 15v98q0 102 -60.5 156.5t-173.5 54.5q-94 0 -157 -38t-84 -108h-167q15 130 129 211.5t281 81.5q191 0 296 -93t105 -263v-743h-162v163h-17q-39 -87 -124 -134t-204 -47zM572 130q123 0 206 72.5
t83 181.5v128l-279 -13q-114 -5 -173 -52.5t-59 -132.5t59.5 -134.5t162.5 -49.5zM958 1730h-660v139h660v-139zM628 1292q-51 0 -88.5 38t-37.5 90t37.5 90.5t88.5 38.5t88.5 -38.5t37.5 -90.5t-37.5 -90t-88.5 -38z" />
    <glyph glyph-name="AEmacron" unicode="&#x1e2;" 
d="M1163 1835v-139h-660v139h660zM353 589h289v687h-92zM1233 1282h-430v-476h394v-157h-394v-487h430v-162h-591v435h-333l-124 -435h-181l432 1443h797v-161z" />
    <glyph glyph-name="aemacron" unicode="&#x1e3;" 
d="M1210 289q-61 -308 -314 -308q-89 0 -160 60.5t-106 166.5h-4q-39 -107 -116 -167t-177 -60q-121 0 -197.5 87.5t-76.5 226.5q0 290 302 320l191 18v97q0 105 -45.5 163t-125.5 58q-60 0 -102 -40.5t-49 -107.5h-143q13 132 97 214t208 82q86 0 152 -47.5t97 -132.5h5
q84 180 249 180q155 0 239 -139.5t84 -396.5v-65h-516v-18q0 -165 51 -256t144 -91q67 0 109.5 37t70.5 119h133zM1063 634q-3 317 -175 317q-80 0 -127 -82t-55 -235h357zM358 133q86 0 141 70t55 179v116l-171 -15q-83 -7 -128 -54t-45 -126q0 -170 148 -170zM970 1370
h-660v139h660v-139z" />
    <glyph glyph-name="Gcaron" unicode="&#x1e6;" 
d="M1013 1919l-286 -309h-160l-287 309h180l180 -200h13l180 200h180zM976 442v141h-333v151h511v-307q0 -203 -138 -330t-357 -127q-254 0 -394.5 163.5t-140.5 459.5v257q0 296 140.5 459.5t394.5 163.5q225 0 357.5 -129t137.5 -353h-178q-6 141 -94 228t-226 87
q-175 0 -264.5 -116t-89.5 -340v-257q0 -224 90 -340t265 -116q148 0 233.5 81.5t85.5 223.5z" />
    <glyph glyph-name="gcaron" unicode="&#x1e7;" 
d="M704 1296h-200l-274 342h194l173 -227h15l172 227h194zM1069 1085v-1085q0 -191 -124 -299t-344 -108q-188 0 -306.5 77.5t-134.5 212.5h168q17 -68 92 -108.5t184 -40.5q143 0 219 70t76 200v169h-18q-36 -86 -122 -134.5t-204 -48.5q-188 0 -302 125.5t-114 333.5v195
q0 209 114.5 334t305.5 125q118 0 203 -49t120 -137h19v168h168zM310 622v-149q0 -149 80.5 -239t215.5 -90q134 0 214 89.5t80 239.5v149q0 150 -80 239t-214 89q-135 0 -215.5 -89.5t-80.5 -238.5z" />
    <glyph glyph-name="Kcaron" unicode="&#x1e8;" 
d="M1030 1919l-287 -309h-160l-286 309h180l180 -200h13l180 200h180zM389 0h-173v1443h173v-718h13l584 718h206l-534 -638l586 -805h-219l-486 669l-150 -178v-491z" />
    <glyph glyph-name="kcaron" unicode="&#x1e9;" 
d="M433 1678h-160l-287 309h180l180 -199h13l180 199h180zM1161 0h-202l-371 539l-149 -144v-395h-170v1511h170v-913h13l473 487h206l-421 -429z" />
    <glyph glyph-name="Oogonek" unicode="&#x1ea;" 
d="M633 137q167 0 259 123t92 346v231q0 223 -92 346t-259 123t-259 -123t-92 -346v-231q0 -223 92 -346t259 -123zM828 -428q-103 0 -168.5 55t-65.5 142q0 65 33.5 116.5t106.5 99.5v15q-47 -26 -130 -26q-229 0 -364.5 171t-135.5 460v233q0 297 140.5 466t388.5 169
t388.5 -169t140.5 -466v-233q0 -199 -54.5 -329t-179.5 -228q-109 -84 -146.5 -132.5t-37.5 -106.5q0 -48 34 -77.5t88 -29.5q47 0 69 7v-120q-46 -17 -107 -17z" />
    <glyph glyph-name="oogonek" unicode="&#x1eb;" 
d="M819 -430q-104 0 -170.5 56.5t-66.5 144.5q0 61 35.5 116t100.5 95v13q-38 -15 -99 -15q-207 0 -331.5 131t-124.5 349v164q0 220 127.5 350t342.5 130t342.5 -130t127.5 -350v-164q0 -271 -214 -436q-85 -65 -120.5 -114.5t-35.5 -103.5q0 -47 34 -77t89 -30q34 0 68 8
v-121q-46 -16 -105 -16zM633 954q-139 0 -220.5 -93t-81.5 -252v-133q0 -160 81 -252.5t221 -92.5t221 92.5t81 252.5v133q0 159 -81.5 252t-220.5 93z" />
    <glyph glyph-name="Oogonekmacron" unicode="&#x1ec;" 
d="M963 1696h-660v139h660v-139zM633 137q167 0 259 123t92 346v231q0 223 -92 346t-259 123t-259 -123t-92 -346v-231q0 -223 92 -346t259 -123zM828 -428q-103 0 -168.5 55t-65.5 142q0 65 33.5 116.5t106.5 99.5v15q-47 -26 -130 -26q-229 0 -364.5 171t-135.5 460v233
q0 297 140.5 466t388.5 169t388.5 -169t140.5 -466v-233q0 -199 -54.5 -329t-179.5 -228q-109 -84 -146.5 -132.5t-37.5 -106.5q0 -48 34 -77.5t88 -29.5q47 0 69 7v-120q-46 -17 -107 -17z" />
    <glyph glyph-name="oogonekmacron" unicode="&#x1ed;" 
d="M963 1370h-660v139h660v-139zM819 -430q-104 0 -170.5 56.5t-66.5 144.5q0 61 35.5 116t100.5 95v13q-38 -15 -99 -15q-207 0 -331.5 131t-124.5 349v164q0 220 127.5 350t342.5 130t342.5 -130t127.5 -350v-164q0 -271 -214 -436q-85 -65 -120.5 -114.5t-35.5 -103.5
q0 -47 34 -77t89 -30q34 0 68 8v-121q-46 -16 -105 -16zM633 954q-139 0 -220.5 -93t-81.5 -252v-133q0 -160 81 -252.5t221 -92.5t221 92.5t81 252.5v133q0 159 -81.5 252t-220.5 93z" />
    <glyph glyph-name="uni01F1" unicode="&#x1f1;" 
d="M49 1443h171q157 0 249 -70.5t134 -226t42 -423.5q0 -270 -42 -426.5t-133.5 -226.5t-249.5 -70h-171v1443zM196 1303v-1164h23q105 0 164 55t85 180t26 349q0 221 -26.5 345.5t-85 179.5t-163.5 55h-23zM659 0v129l403 1155v14h-378v145h537v-130l-399 -1154v-14h409
v-145h-572z" />
    <glyph glyph-name="uni01F2" unicode="&#x1f2;" 
d="M49 1443h171q157 0 249 -70.5t134 -226t42 -423.5q0 -270 -42 -426.5t-133.5 -226.5t-249.5 -70h-171v1443zM198 1303v-1164h21q105 0 163 55t83.5 179.5t25.5 349.5q0 222 -25.5 346t-83.5 179t-163 55h-21zM716 0v120l364 817v14h-353v134h510v-127l-357 -810v-14h361
v-134h-525z" />
    <glyph glyph-name="uni01F3" unicode="&#x1f3;" 
d="M178 628v-171q0 -176 38 -252.5t126 -76.5t125.5 76.5t37.5 252.5v171q0 176 -37.5 252.5t-125.5 76.5t-126 -76.5t-38 -252.5zM511 166h-18q-31 -101 -74 -142.5t-117 -41.5q-144 0 -210 106.5t-66 340.5v228q0 234 65 340t208 106q79 0 125 -44.5t63 -141.5h19v594h148
v-1511h-143v166zM729 0v120l353 817v14h-345v134h501v-127l-351 -810v-14h354v-134h-512z" />
    <glyph glyph-name="Gacute" unicode="&#x1f4;" 
d="M976 442v141h-333v151h511v-307q0 -203 -138 -330t-357 -127q-254 0 -394.5 163.5t-140.5 459.5v257q0 296 140.5 459.5t394.5 163.5q225 0 357.5 -129t137.5 -353h-178q-6 141 -94 228t-226 87q-175 0 -264.5 -116t-89.5 -340v-257q0 -224 90 -340t265 -116
q148 0 233.5 81.5t85.5 223.5zM539 1612l301 304h206l-322 -304h-185z" />
    <glyph glyph-name="gacute" unicode="&#x1f5;" 
d="M690 1296h-181l239 339h207zM1069 1085v-1085q0 -191 -124 -299t-344 -108q-188 0 -306.5 77.5t-134.5 212.5h168q17 -68 92 -108.5t184 -40.5q143 0 219 70t76 200v169h-18q-36 -86 -122 -134.5t-204 -48.5q-188 0 -302 125.5t-114 333.5v195q0 209 114.5 334t305.5 125
q118 0 203 -49t120 -137h19v168h168zM310 622v-149q0 -149 80.5 -239t215.5 -90q134 0 214 89.5t80 239.5v149q0 150 -80 239t-214 89q-135 0 -215.5 -89.5t-80.5 -238.5z" />
    <glyph glyph-name="Ngrave" unicode="&#x1f8;" 
d="M443 1916l301 -304h-186l-322 304h207zM312 0h-159v1443h169l618 -1123h14v1123h159v-1443h-167l-620 1126h-14v-1126z" />
    <glyph glyph-name="ngrave" unicode="&#x1f9;" 
d="M189 0v1085h163v-191h14q44 101 133.5 156t213.5 55q177 0 270.5 -103t93.5 -298v-704h-170v661q0 147 -61 217.5t-188 70.5q-134 0 -216.5 -85.5t-82.5 -224.5v-639h-170zM787 1296h-181l-264 339h206z" />
    <glyph glyph-name="Aringacute" unicode="&#x1fa;" 
d="M852 2158l-139 -175h-153l118 175h174zM633 1832q-44 0 -73 -29t-29 -73t29 -72.5t73 -28.5t73 28.5t29 72.5t-29 73t-73 29zM633 1538q-81 0 -137 56t-56 137q0 80 55.5 135.5t137.5 55.5t137.5 -55.5t55.5 -135.5q0 -81 -55.5 -137t-137.5 -56zM425 565h410l-202 666
h-5zM1006 0l-125 414h-502l-126 -414h-179l465 1443h188l465 -1443h-186z" />
    <glyph glyph-name="aringacute" unicode="&#x1fb;" 
d="M704 1723h-150l164 241h178zM628 1230q-84 0 -141.5 57t-57.5 140q0 84 57.5 141t141.5 57t142 -57t58 -141q0 -83 -58 -140t-142 -57zM628 1323q44 0 74 30t30 74q0 45 -30 75t-74 30t-74 -30t-30 -75q0 -44 30 -74t74 -30zM861 512l-279 -13q-114 -5 -173 -52.5
t-59 -132.5t59.5 -134.5t162.5 -49.5q123 0 206 72.5t83 181.5v128zM868 162h-17q-39 -87 -124 -134t-204 -47q-155 0 -250 89.5t-95 237.5q0 144 100 226.5t285 92.5l298 15v98q0 102 -60.5 156.5t-173.5 54.5q-94 0 -157 -38t-84 -108h-167q15 130 129 211.5t281 81.5
q191 0 296 -93t105 -263v-743h-162v163z" />
    <glyph glyph-name="AEacute" unicode="&#x1fc;" 
d="M1225 1916l-323 -304h-185l301 304h207zM353 589h289v687h-92zM1233 1282h-430v-476h394v-157h-394v-487h430v-162h-591v435h-333l-124 -435h-181l432 1443h797v-161z" />
    <glyph glyph-name="aeacute" unicode="&#x1fd;" 
d="M726 1296h-182l239 339h207zM554 498l-171 -15q-83 -7 -128 -54t-45 -126q0 -170 148 -170q86 0 141 70t55 179v116zM706 634h357q-3 317 -175 317q-80 0 -127 -82t-55 -235zM1077 289h133q-61 -308 -314 -308q-89 0 -160 60.5t-106 166.5h-4q-39 -107 -116 -167
t-177 -60q-121 0 -197.5 87.5t-76.5 226.5q0 290 302 320l191 18v97q0 105 -45.5 163t-125.5 58q-60 0 -102 -40.5t-49 -107.5h-143q13 132 97 214t208 82q86 0 152 -47.5t97 -132.5h5q84 180 249 180q155 0 239 -139.5t84 -396.5v-65h-516v-18q0 -165 51 -256t144 -91
q67 0 109.5 37t70.5 119z" />
    <glyph glyph-name="Oslashacute" unicode="&#x1fe;" 
d="M1019 1916l-322 -304h-186l301 304h207zM984 606v231q0 148 -42 255l-556 -846q91 -109 247 -109q165 0 258 122.5t93 346.5zM282 837v-231q0 -148 41 -253l556 846q-92 107 -246 107q-165 0 -258 -122.5t-93 -346.5zM1172 1443l-119 -181q109 -163 109 -424v-233
q0 -298 -141 -466.5t-388 -168.5q-210 0 -347 125l-62 -95h-132l120 183q-108 164 -108 422v233q0 298 141 466.5t388 168.5q210 0 345 -123l61 93h133z" />
    <glyph glyph-name="oslashacute" unicode="&#x1ff;" 
d="M983 1635l-265 -339h-181l239 339h207zM935 476v133q0 109 -40 191l-460 -600q77 -69 198 -69q140 0 221 92.5t81 252.5zM331 609v-133q0 -111 40 -191l459 600q-77 69 -197 69q-140 0 -221 -92.5t-81 -252.5zM1114 1085l-110 -143q99 -125 99 -318v-164
q0 -220 -127.5 -350t-342.5 -130q-178 0 -298 91l-54 -71h-128l109 142q-99 125 -99 318v164q0 220 127.5 350t342.5 130q176 0 296 -89l54 70h131z" />
    <glyph glyph-name="Adblgrave" unicode="&#x200;" 
d="M946 1612h-177l-312 304h195zM567 1612h-176l-313 304h195zM425 565h410l-202 666h-5zM1006 0l-125 414h-502l-126 -414h-179l465 1443h188l465 -1443h-186z" />
    <glyph glyph-name="adblgrave" unicode="&#x201;" 
d="M694 1635l227 -339h-170l-250 339h193zM304 1635l227 -339h-170l-249 339h192zM861 512l-279 -13q-114 -5 -173 -52.5t-59 -132.5t59.5 -134.5t162.5 -49.5q123 0 206 72.5t83 181.5v128zM868 162h-17q-39 -87 -124 -134t-204 -47q-155 0 -250 89.5t-95 237.5
q0 144 100 226.5t285 92.5l298 15v98q0 102 -60.5 156.5t-173.5 54.5q-94 0 -157 -38t-84 -108h-167q15 130 129 211.5t281 81.5q191 0 296 -93t105 -263v-743h-162v163z" />
    <glyph glyph-name="Ainvertedbreve" unicode="&#x202;" 
d="M978 1609h-138q-1 83 -58.5 136.5t-148.5 53.5t-148.5 -53.5t-58.5 -136.5h-138q0 137 96 223t249 86t249 -86t96 -223zM425 565h410l-202 666h-5zM1006 0l-125 414h-502l-126 -414h-179l465 1443h188l465 -1443h-186z" />
    <glyph glyph-name="ainvertedbreve" unicode="&#x203;" 
d="M984 1258h-151q0 89 -54 144.5t-151 55.5q-96 0 -150 -55.5t-53 -144.5h-153q0 146 96.5 238.5t259.5 92.5t259.5 -92.5t96.5 -238.5zM861 512l-279 -13q-114 -5 -173 -52.5t-59 -132.5t59.5 -134.5t162.5 -49.5q123 0 206 72.5t83 181.5v128zM868 162h-17
q-39 -87 -124 -134t-204 -47q-155 0 -250 89.5t-95 237.5q0 144 100 226.5t285 92.5l298 15v98q0 102 -60.5 156.5t-173.5 54.5q-94 0 -157 -38t-84 -108h-167q15 130 129 211.5t281 81.5q191 0 296 -93t105 -263v-743h-162v163z" />
    <glyph glyph-name="Edblgrave" unicode="&#x204;" 
d="M675 1916l294 -304h-177l-312 304h195zM296 1916l294 -304h-176l-313 304h195zM1082 162v-162h-852v1443h852v-162h-675v-468h638v-155h-638v-496h675z" />
    <glyph glyph-name="edblgrave" unicode="&#x205;" 
d="M707 1635l227 -339h-170l-250 339h193zM317 1635l227 -339h-170l-249 339h192zM926 280h165q-25 -135 -143.5 -217.5t-289.5 -82.5q-224 0 -347.5 128t-123.5 360v163q0 214 126 344t333 130q211 0 329.5 -132.5t118.5 -368.5v-106h-739v-44q0 -149 82 -238t221 -89
q103 0 174 41t94 112zM355 627h571q0 155 -75 243.5t-206 88.5q-136 0 -213 -88t-77 -244z" />
    <glyph glyph-name="Einvertedbreve" unicode="&#x206;" 
d="M449 1609h-138q0 137 96 223t249 86t249 -86t96 -223h-138q-1 83 -58.5 136.5t-148.5 53.5t-148.5 -53.5t-58.5 -136.5zM1082 162v-162h-852v1443h852v-162h-675v-468h638v-155h-638v-496h675z" />
    <glyph glyph-name="einvertedbreve" unicode="&#x207;" 
d="M997 1258h-151q0 89 -54 144.5t-151 55.5q-96 0 -150 -55.5t-53 -144.5h-153q0 146 96.5 238.5t259.5 92.5t259.5 -92.5t96.5 -238.5zM926 280h165q-25 -135 -143.5 -217.5t-289.5 -82.5q-224 0 -347.5 128t-123.5 360v163q0 214 126 344t333 130q211 0 329.5 -132.5
t118.5 -368.5v-106h-739v-44q0 -149 82 -238t221 -89q103 0 174 41t94 112zM355 627h571q0 155 -75 243.5t-206 88.5q-136 0 -213 -88t-77 -244z" />
    <glyph glyph-name="Idblgrave" unicode="&#x208;" 
d="M652 1916l294 -304h-177l-312 304h195zM273 1916l294 -304h-176l-313 304h195zM1013 0h-760v157h292v1129h-292v157h760v-157h-292v-1129h292v-157z" />
    <glyph glyph-name="idblgrave" unicode="&#x209;" 
d="M721 1627l227 -339h-170l-250 339h193zM331 1627l227 -339h-170l-249 339h192zM1107 0h-899v141h372v803h-369v141h537v-944h359v-141z" />
    <glyph glyph-name="Iinvertedbreve" unicode="&#x20a;" 
d="M426 1609h-138q0 137 96 223t249 86t249 -86t96 -223h-138q-1 83 -58.5 136.5t-148.5 53.5t-148.5 -53.5t-58.5 -136.5zM1013 0h-760v157h292v1129h-292v157h760v-157h-292v-1129h292v-157z" />
    <glyph glyph-name="iinvertedbreve" unicode="&#x20b;" 
d="M1011 1251h-151q0 88 -54.5 143.5t-150.5 55.5t-150 -55.5t-53 -143.5h-153q0 146 96.5 238t259.5 92t259.5 -92t96.5 -238zM1107 0h-899v141h372v803h-369v141h537v-944h359v-141z" />
    <glyph glyph-name="Odblgrave" unicode="&#x20c;" 
d="M652 1916l294 -304h-177l-312 304h195zM273 1916l294 -304h-176l-313 304h195zM282 837v-231q0 -224 93 -346.5t258 -122.5t258 122.5t93 346.5v231q0 224 -93 346.5t-258 122.5t-258 -122.5t-93 -346.5zM1162 838v-233q0 -298 -141 -466.5t-388 -168.5t-388 168.5
t-141 466.5v233q0 298 141 466.5t388 168.5t388 -168.5t141 -466.5z" />
    <glyph glyph-name="odblgrave" unicode="&#x20d;" 
d="M699 1635l226 -339h-170l-249 339h193zM309 1635l227 -339h-170l-250 339h193zM935 476v133q0 160 -81 252.5t-221 92.5t-221 -92.5t-81 -252.5v-133q0 -160 81 -252.5t221 -92.5t221 92.5t81 252.5zM1103 624v-164q0 -220 -127.5 -350t-342.5 -130t-342.5 130
t-127.5 350v164q0 220 127.5 350t342.5 130t342.5 -130t127.5 -350z" />
    <glyph glyph-name="Oinvertedbreve" unicode="&#x20e;" 
d="M426 1609h-138q0 137 96 223t249 86t249 -86t96 -223h-138q-1 83 -58.5 136.5t-148.5 53.5t-148.5 -53.5t-58.5 -136.5zM282 837v-231q0 -224 93 -346.5t258 -122.5t258 122.5t93 346.5v231q0 224 -93 346.5t-258 122.5t-258 -122.5t-93 -346.5zM1162 838v-233
q0 -298 -141 -466.5t-388 -168.5t-388 168.5t-141 466.5v233q0 298 141 466.5t388 168.5t388 -168.5t141 -466.5z" />
    <glyph glyph-name="oinvertedbreve" unicode="&#x20f;" 
d="M989 1258h-152q1 89 -53 144.5t-151 55.5q-96 0 -150 -55.5t-54 -144.5h-152q0 146 96.5 238.5t259.5 92.5t259.5 -92.5t96.5 -238.5zM935 476v133q0 160 -81 252.5t-221 92.5t-221 -92.5t-81 -252.5v-133q0 -160 81 -252.5t221 -92.5t221 92.5t81 252.5zM1103 624v-164
q0 -220 -127.5 -350t-342.5 -130t-342.5 130t-127.5 350v164q0 220 127.5 350t342.5 130t342.5 -130t127.5 -350z" />
    <glyph glyph-name="Rdblgrave" unicode="&#x210;" 
d="M621 1916l294 -304h-176l-313 304h195zM242 1916l295 -304h-177l-312 304h194zM688 575h-332v-575h-174v1443h484q215 0 340 -116.5t125 -317.5q0 -142 -73 -249.5t-196 -148.5l294 -611h-199zM356 1286v-562h286q149 0 230 73t81 208q0 134 -79 207.5t-224 73.5h-294z
" />
    <glyph glyph-name="rdblgrave" unicode="&#x211;" 
d="M948 1296h-169l-250 339h193zM559 1296h-170l-249 339h192zM588 808h22q30 150 128 227.5t256 77.5q99 0 157 -24v-191q-83 30 -179 30q-180 0 -281 -117.5t-101 -324.5v-350h336v-136h-721v136h219v813h-241v136h405v-277z" />
    <glyph glyph-name="Rinvertedbreve" unicode="&#x212;" 
d="M396 1609h-139q0 137 96 223t250 86q153 0 249 -86t96 -223h-139q0 83 -58 136.5t-148 53.5q-91 0 -149 -53.5t-58 -136.5zM688 575h-332v-575h-174v1443h484q215 0 340 -116.5t125 -317.5q0 -142 -73 -249.5t-196 -148.5l294 -611h-199zM356 1286v-562h286q149 0 230 73
t81 208q0 134 -79 207.5t-224 73.5h-294z" />
    <glyph glyph-name="rinvertedbreve" unicode="&#x213;" 
d="M1012 1258h-152q1 89 -53 144.5t-151 55.5q-96 0 -150 -55.5t-53 -144.5h-153q0 146 96.5 238.5t259.5 92.5t259.5 -92.5t96.5 -238.5zM588 808h22q30 150 128 227.5t256 77.5q99 0 157 -24v-191q-83 30 -179 30q-180 0 -281 -117.5t-101 -324.5v-350h336v-136h-721v136
h219v813h-241v136h405v-277z" />
    <glyph glyph-name="Udblgrave" unicode="&#x214;" 
d="M649 1916l294 -304h-176l-313 304h195zM270 1916l295 -304h-177l-312 304h194zM301 1443v-931q0 -178 87.5 -276.5t244.5 -98.5t244.5 98.5t87.5 276.5v931h176v-942q0 -249 -135 -390t-373 -141t-373 141t-135 390v942h176z" />
    <glyph glyph-name="udblgrave" unicode="&#x215;" 
d="M699 1635l226 -339h-170l-249 339h193zM309 1635l227 -339h-170l-250 339h193zM1077 1085v-1085h-163v191h-14q-44 -101 -133.5 -156t-213.5 -55q-177 0 -270.5 103t-93.5 298v704h170v-661q0 -147 61 -217.5t188 -70.5q134 0 216.5 85.5t82.5 224.5v639h170z" />
    <glyph glyph-name="Uinvertedbreve" unicode="&#x216;" 
d="M424 1609h-139q0 137 96 223t250 86q153 0 249 -86t96 -223h-139q0 83 -58 136.5t-148 53.5q-91 0 -149 -53.5t-58 -136.5zM301 1443v-931q0 -178 87.5 -276.5t244.5 -98.5t244.5 98.5t87.5 276.5v931h176v-942q0 -249 -135 -390t-373 -141t-373 141t-135 390v942h176z
" />
    <glyph glyph-name="uinvertedbreve" unicode="&#x217;" 
d="M989 1258h-152q1 89 -53 144.5t-151 55.5q-96 0 -150 -55.5t-54 -144.5h-152q0 146 96.5 238.5t259.5 92.5t259.5 -92.5t96.5 -238.5zM1077 1085v-1085h-163v191h-14q-44 -101 -133.5 -156t-213.5 -55q-177 0 -270.5 103t-93.5 298v704h170v-661q0 -147 61 -217.5
t188 -70.5q134 0 216.5 85.5t82.5 224.5v639h170z" />
    <glyph glyph-name="Scommaaccent" unicode="&#x218;" 
d="M139 384h172q14 -119 103.5 -186.5t233.5 -67.5t231 69.5t87 185.5q0 94 -66.5 153t-212.5 95l-124 31q-201 51 -295 149t-94 255q0 185 128.5 295t344.5 110q204 0 333 -108.5t138 -288.5h-172q-14 112 -92.5 174.5t-205.5 62.5q-139 0 -217.5 -62.5t-78.5 -172.5
q0 -94 63.5 -151.5t204.5 -92.5l126 -32q210 -52 304 -148.5t94 -259.5q0 -194 -135 -309t-362 -115q-224 0 -360.5 111t-147.5 303zM618 -503h-158l110 361h177z" />
    <glyph glyph-name="scommaaccent" unicode="&#x219;" 
d="M238 792q0 141 110 227.5t289 86.5q169 0 276.5 -79t122.5 -215h-164q-15 71 -79 112t-159 41q-103 0 -165 -44.5t-62 -118.5q0 -62 45 -100t147 -60l153 -35q158 -36 232.5 -107.5t74.5 -189.5q0 -150 -115.5 -240t-308.5 -90q-184 0 -299 80.5t-129 220.5h173
q19 -75 87.5 -116.5t173.5 -41.5q111 0 176.5 46.5t65.5 124.5q0 65 -44 102.5t-147 60.5l-161 37q-293 67 -293 298zM598 -503h-157l110 361h177z" />
    <glyph glyph-name="Tcommaaccent" unicode="&#x21a;" 
d="M721 0h-176v1281h-436v162h1048v-162h-436v-1281zM600 -503h-157l110 361h176z" />
    <glyph glyph-name="tcommaaccent" unicode="&#x21b;" 
d="M448 1376h168v-294h440v-145h-438v-612q0 -88 60.5 -135t175.5 -47q141 0 199 6v-144q-54 -10 -211 -10q-202 0 -298 79.5t-96 248.5v614h-289v145h289v294zM703 -503h-158l110 361h177z" />
    <glyph glyph-name="Hcaron" unicode="&#x21e;" 
d="M999 1919l-286 -309h-160l-286 309h179l180 -200h14l180 200h179zM1113 0h-175v656h-610v-656h-175v1443h175v-625h610v625h175v-1443z" />
    <glyph glyph-name="hcaron" unicode="&#x21f;" 
d="M638 1987l-287 -309h-160l-286 309h180l180 -199h13l180 199h180zM188 0v1511h164v-618h14q43 101 133.5 156t214.5 55q177 0 270.5 -103.5t93.5 -297.5v-703h-170v660q0 146 -61.5 217t-188.5 71q-134 0 -217 -85.5t-83 -224.5v-638h-170z" />
    <glyph glyph-name="Adotaccent" unicode="&#x226;" 
d="M633 1640q-51 0 -88.5 38.5t-37.5 90.5t37.5 90t88.5 38t88.5 -38t37.5 -90t-37.5 -90.5t-88.5 -38.5zM425 565h410l-202 666h-5zM1006 0l-125 414h-502l-126 -414h-179l465 1443h188l465 -1443h-186z" />
    <glyph glyph-name="adotaccent" unicode="&#x227;" 
d="M523 -19q-155 0 -250 89.5t-95 237.5q0 144 100 226.5t285 92.5l298 15v98q0 102 -60.5 156.5t-173.5 54.5q-94 0 -157 -38t-84 -108h-167q15 130 129 211.5t281 81.5q191 0 296 -93t105 -263v-743h-162v163h-17q-39 -87 -124 -134t-204 -47zM572 130q123 0 206 72.5
t83 181.5v128l-279 -13q-114 -5 -173 -52.5t-59 -132.5t59.5 -134.5t162.5 -49.5zM628 1299q-51 0 -88.5 38.5t-37.5 90.5t37.5 90t88.5 38t88.5 -38t37.5 -90t-37.5 -90.5t-88.5 -38.5z" />
    <glyph glyph-name="Ecedilla" unicode="&#x228;" 
d="M1082 1281h-675v-468h638v-155h-638v-496h675v-162h-349l-53 -132q97 -1 148 -43.5t51 -121.5q0 -87 -65 -138t-174 -51q-66 0 -131 17v110q46 -14 119 -14q114 0 114 72q0 35 -33.5 50t-110.5 15h-57v86l61 150h-372v1443h852v-162z" />
    <glyph glyph-name="ecedilla" unicode="&#x229;" 
d="M355 627h571q0 155 -75 243.5t-206 88.5q-136 0 -213 -88t-77 -244zM1094 498h-739v-44q0 -149 82 -238t221 -89q103 0 174 41t94 112h165q-22 -123 -125.5 -203.5t-254.5 -94.5l-45 -114q96 -1 147 -43.5t51 -121.5q0 -87 -65 -138t-174 -51q-66 0 -131 17v110
q46 -14 119 -14q114 0 114 72q0 35 -33.5 50t-110.5 15h-57v86l55 134q-189 22 -291.5 148t-102.5 336v163q0 214 126 344t333 130q211 0 329.5 -132.5t118.5 -368.5v-106z" />
    <glyph glyph-name="Odieresismacron" unicode="&#x22a;" 
d="M828 1787q44 0 75 -32.5t31 -78.5t-31 -78t-75 -32t-75.5 32t-31.5 78t31.5 78.5t75.5 32.5zM301 1931v120h663v-120h-663zM439 1787q44 0 75 -32.5t31 -78.5t-31 -78t-75 -32t-75 32t-31 78t31 78.5t75 32.5zM282 837v-231q0 -224 93 -346.5t258 -122.5t258 122.5
t93 346.5v231q0 224 -93 346.5t-258 122.5t-258 -122.5t-93 -346.5zM1162 838v-233q0 -298 -141 -466.5t-388 -168.5t-388 168.5t-141 466.5v233q0 298 141 466.5t388 168.5t388 -168.5t141 -466.5z" />
    <glyph glyph-name="odieresismacron" unicode="&#x22b;" 
d="M835 1554q47 0 82 -36t35 -85t-35 -85.5t-82 -36.5t-82 36.5t-35 85.5t35 85t82 36zM431 1554q47 0 82 -36t35 -85t-35 -85.5t-82 -36.5t-82 36.5t-35 85.5t35 85t82 36zM963 1729h-660v139h660v-139zM935 476v133q0 160 -81 252.5t-221 92.5t-221 -92.5t-81 -252.5v-133
q0 -160 81 -252.5t221 -92.5t221 92.5t81 252.5zM1103 624v-164q0 -220 -127.5 -350t-342.5 -130t-342.5 130t-127.5 350v164q0 220 127.5 350t342.5 130t342.5 -130t127.5 -350z" />
    <glyph glyph-name="Otildemacron" unicode="&#x22c;" 
d="M1162 605q0 -298 -141 -466.5t-388 -168.5t-388 168.5t-141 466.5v233q0 298 141 466.5t388 168.5t388 -168.5t141 -466.5v-233zM633 137q165 0 258 122.5t93 346.5v231q0 224 -93 346.5t-258 122.5t-258 -122.5t-93 -346.5v-231q0 -224 93 -346.5t258 -122.5zM965 1935
h-664v120h664v-120zM774 1554q-46 0 -82 13.5t-58.5 33t-41.5 39.5t-43 33.5t-52 13.5q-88 0 -93 -119h-124q0 109 58.5 174t153.5 65q46 0 82 -13.5t58.5 -32.5t41.5 -38.5t43 -33t52 -13.5q42 0 66.5 30t27.5 88h123q0 -108 -59 -174t-153 -66z" />
    <glyph glyph-name="otildemacron" unicode="&#x22d;" 
d="M633 -20q-215 0 -342.5 130t-127.5 350v164q0 220 127.5 350t342.5 130t342.5 -130t127.5 -350v-164q0 -220 -127.5 -350t-342.5 -130zM633 954q-140 0 -221 -92.5t-81 -252.5v-133q0 -160 81 -252.5t221 -92.5t221 92.5t81 252.5v133q0 160 -81 252.5t-221 92.5z
M491 1426q-46 0 -66.5 -37t-20.5 -120h-140q0 137 60.5 215t166.5 78q53 0 98 -24.5t71 -53.5t56.5 -53.5t58.5 -24.5q46 0 66.5 37t20.5 118h140q0 -136 -60.5 -214t-166.5 -78q-43 0 -80.5 16t-63 39.5t-47.5 46.5t-46 39t-47 16zM963 1730h-660v139h660v-139z" />
    <glyph glyph-name="Odotaccent" unicode="&#x22e;" 
d="M1162 605q0 -298 -141 -466.5t-388 -168.5t-388 168.5t-141 466.5v233q0 298 141 466.5t388 168.5t388 -168.5t141 -466.5v-233zM633 137q165 0 258 122.5t93 346.5v231q0 224 -93 346.5t-258 122.5t-258 -122.5t-93 -346.5v-231q0 -224 93 -346.5t258 -122.5zM633 1640
q-51 0 -88.5 38.5t-37.5 90.5t37.5 90t88.5 38t88.5 -38t37.5 -90t-37.5 -90.5t-88.5 -38.5z" />
    <glyph glyph-name="odotaccent" unicode="&#x22f;" 
d="M633 -20q-215 0 -342.5 130t-127.5 350v164q0 220 127.5 350t342.5 130t342.5 -130t127.5 -350v-164q0 -220 -127.5 -350t-342.5 -130zM633 954q-140 0 -221 -92.5t-81 -252.5v-133q0 -160 81 -252.5t221 -92.5t221 92.5t81 252.5v133q0 160 -81 252.5t-221 92.5z
M633 1299q-51 0 -88.5 38.5t-37.5 90.5t37.5 90t88.5 38t88.5 -38t37.5 -90t-37.5 -90.5t-88.5 -38.5z" />
    <glyph glyph-name="Odotaccentmacron" unicode="&#x230;" 
d="M633 1811q48 0 82 -34.5t34 -83.5t-34 -84t-82 -35t-81.5 34.5t-33.5 84.5q0 49 33.5 83.5t81.5 34.5zM302 1931v120h663v-120h-663zM282 837v-231q0 -224 93 -346.5t258 -122.5t258 122.5t93 346.5v231q0 224 -93 346.5t-258 122.5t-258 -122.5t-93 -346.5zM1162 838
v-233q0 -298 -141 -466.5t-388 -168.5t-388 168.5t-141 466.5v233q0 298 141 466.5t388 168.5t388 -168.5t141 -466.5z" />
    <glyph glyph-name="odotaccentmacron" unicode="&#x231;" 
d="M633 -20q-215 0 -342.5 130t-127.5 350v164q0 220 127.5 350t342.5 130t342.5 -130t127.5 -350v-164q0 -220 -127.5 -350t-342.5 -130zM633 954q-140 0 -221 -92.5t-81 -252.5v-133q0 -160 81 -252.5t221 -92.5t221 92.5t81 252.5v133q0 160 -81 252.5t-221 92.5z
M963 1730h-660v139h660v-139zM633 1292q-51 0 -88.5 38t-37.5 90t37.5 90.5t88.5 38.5t88.5 -38.5t37.5 -90.5t-37.5 -90t-88.5 -38z" />
    <glyph glyph-name="Ymacron" unicode="&#x232;" 
d="M721 0h-176v595l-481 848h197l365 -660h14l365 660h197l-481 -848v-595zM963 1696h-660v139h660v-139z" />
    <glyph glyph-name="ymacron" unicode="&#x233;" 
d="M329 -386q-51 0 -73 3v149q17 -4 60 -4q77 0 123 39t80 133l19 59l-399 1092h185l304 -908h13l303 908h181l-409 -1125q-71 -200 -153.5 -273t-233.5 -73zM962 1370h-660v139h660v-139z" />
    <glyph glyph-name="dotlessj" unicode="&#x237;" 
d="M874 1085v-1079q0 -180 -99 -257.5t-326 -77.5q-167 0 -263 8v152q83 -8 258 -8q151 0 207 43.5t56 159.5v918h-496v141h663z" />
    <glyph glyph-name="uni02BC" unicode="&#x2bc;" 
d="M622 811h-152l148 632h178z" />
    <glyph glyph-name="circumflex" unicode="&#x2c6;" 
d="M533 1623h200l274 -341h-194l-172 226h-16l-172 -226h-194z" />
    <glyph glyph-name="caron" unicode="&#x2c7;" 
d="M733 1296h-200l-274 342h194l172 -227h16l172 227h194z" />
    <glyph glyph-name="breve" unicode="&#x2d8;" 
d="M633 1380q97 0 151 55t53 144h152q0 -146 -96.5 -238t-259.5 -92t-259.5 92t-96.5 238h152q0 -89 54 -144t150 -55z" />
    <glyph glyph-name="dotaccent" unicode="&#x2d9;" 
d="M633 1299q-51 0 -88.5 38.5t-37.5 90.5t37.5 90t88.5 38t88.5 -38t37.5 -90t-37.5 -90.5t-88.5 -38.5z" />
    <glyph glyph-name="ring" unicode="&#x2da;" 
d="M633 1360q50 0 84 35t34 87t-34 87t-84 35t-84 -35t-34 -87t34 -87t84 -35zM633 1251q-93 0 -159.5 68t-66.5 163t66.5 163t159.5 68t159.5 -68t66.5 -163t-66.5 -163t-159.5 -68z" />
    <glyph glyph-name="ogonek" unicode="&#x2db;" 
d="M810 -287v-124q-38 -21 -116 -21q-109 0 -173.5 55.5t-64.5 148.5q0 126 115 228h145q-49 -40 -77 -87.5t-28 -92.5q0 -55 33 -85.5t93 -30.5q49 0 73 9z" />
    <glyph glyph-name="tilde" unicode="&#x2dc;" 
d="M491 1428q-46 0 -66.5 -37t-20.5 -120h-140q0 137 60.5 215t166.5 78q53 0 98 -24.5t71 -53.5t56.5 -53.5t58.5 -24.5q46 0 66.5 37t20.5 118h140q0 -136 -60.5 -214t-166.5 -78q-43 0 -80.5 16t-63 39.5t-47.5 46.5t-46 39t-47 16z" />
    <glyph glyph-name="hungarumlaut" unicode="&#x2dd;" 
d="M618 1296l227 339h192l-249 -339h-170zM229 1296l226 339h193l-250 -339h-169z" />
    <glyph glyph-name="gravecmb" unicode="&#x300;" 
d="M856 1296h-181l-265 339h207z" />
    <glyph glyph-name="acutecmb" unicode="&#x301;" horiz-adv-x="0" 
d="M86 1296h-181l239 339h206z" />
    <glyph glyph-name="circumflexcmb" unicode="&#x302;" 
d="M533 1623h200l274 -341h-194l-172 226h-16l-172 -226h-194z" />
    <glyph glyph-name="tildecmb" unicode="&#x303;" 
d="M491 1423q-46 0 -66.5 -37t-20.5 -120h-140q0 137 60.5 215t166.5 78q43 0 80.5 -16t63 -38.5t48 -45.5t46 -39t46.5 -16q46 0 66.5 36.5t20.5 118.5h140q0 -136 -60.5 -214.5t-166.5 -78.5q-43 0 -80.5 16t-63 39t-47.5 46.5t-46 39.5t-47 16z" />
    <glyph glyph-name="macroncmb" unicode="&#x304;" 
d="M963 1370h-660v139h660v-139z" />
    <glyph glyph-name="brevecmb" unicode="&#x306;" 
d="M633 1380q97 0 151 55t53 144h152q0 -146 -96.5 -238t-259.5 -92t-259.5 92t-96.5 238h152q0 -89 54 -144t150 -55z" />
    <glyph glyph-name="dotaccentcmb" unicode="&#x307;" 
d="M633 1299q-51 0 -88.5 38.5t-37.5 90.5t37.5 90t88.5 38t88.5 -38t37.5 -90t-37.5 -90.5t-88.5 -38.5z" />
    <glyph glyph-name="dieresiscmb" unicode="&#x308;" 
d="M431 1300q-47 0 -82 36t-35 85t35 85t82 36t82 -36t35 -85t-35 -85t-82 -36zM835 1300q-47 0 -82 36t-35 85t35 85t82 36t82 -36t35 -85t-35 -85t-82 -36z" />
    <glyph glyph-name="hookabovecmb" unicode="&#x309;" 
d="M464 1492v115q58 28 143 28q90 0 146.5 -50.5t56.5 -132.5q0 -70 -44 -125.5t-123 -85.5l-68 89q45 16 73 45t28 62q0 36 -28 58t-74 22q-62 0 -110 -25z" />
    <glyph glyph-name="ringcmb" unicode="&#x30a;" 
d="M633 1360q50 0 84 35t34 87t-34 87t-84 35t-84 -35t-34 -87t34 -87t84 -35zM633 1251q-93 0 -159.5 68t-66.5 163t66.5 163t159.5 68t159.5 -68t66.5 -163t-66.5 -163t-159.5 -68z" />
    <glyph glyph-name="hungarumlautcmb" unicode="&#x30b;" 
d="M618 1296l227 339h192l-249 -339h-170zM229 1296l226 339h193l-250 -339h-169z" />
    <glyph glyph-name="caroncmb" unicode="&#x30c;" 
d="M733 1296h-200l-274 342h194l172 -227h16l172 227h194z" />
    <glyph glyph-name="dblgravecmb" unicode="&#x30f;" 
d="M811 1635l226 -339h-169l-250 339h193zM421 1635l227 -339h-170l-249 339h192z" />
    <glyph glyph-name="invertedbrevecmb" unicode="&#x311;" 
d="M989 1258h-152q1 89 -53 144.5t-151 55.5q-96 0 -150 -55.5t-54 -144.5h-152q0 146 96.5 238.5t259.5 92.5t259.5 -92.5t96.5 -238.5z" />
    <glyph glyph-name="horncmb" unicode="&#x31b;" 
d="M633 971v137q26 -26 78 -26q63 1 93 38t30 117v146h147v-187q0 -117 -65 -185t-173 -68q-70 0 -110 28z" />
    <glyph glyph-name="dotbelowcmb" unicode="&#x323;" 
d="M633 -451q-51 0 -88.5 38t-37.5 90t37.5 90.5t88.5 38.5t88.5 -38.5t37.5 -90.5t-37.5 -90t-88.5 -38z" />
    <glyph glyph-name="dieresisbelowcmb" unicode="&#x324;" 
d="M431 -444q-47 0 -82 36t-35 85t35 85.5t82 36.5t82 -36.5t35 -85.5t-35 -85t-82 -36zM835 -444q-47 0 -82 36t-35 85t35 85.5t82 36.5t82 -36.5t35 -85.5t-35 -85t-82 -36z" />
    <glyph glyph-name="ringbelowcmb" unicode="&#x325;" 
d="M633 -469q50 0 84 35t34 87t-34 87t-84 35t-84 -35t-34 -87t34 -87t84 -35zM633 -578q-93 0 -159.5 68t-66.5 163t66.5 163t159.5 68t159.5 -68t66.5 -163t-66.5 -163t-159.5 -68z" />
    <glyph glyph-name="commabelowcmb" unicode="&#x326;" 
d="M646 -519h-158l110 361h177z" />
    <glyph glyph-name="cedillacmb" unicode="&#x327;" 
d="M518 -236v86l61 150h131l-52 -132q96 -1 147 -43.5t51 -121.5q0 -87 -65 -138t-174 -51q-66 0 -131 17v110q46 -14 119 -14q114 0 114 72q0 35 -33.5 50t-110.5 15h-57z" />
    <glyph glyph-name="ogonekcmb" unicode="&#x328;" 
d="M934 -287v-124q-38 -21 -116 -21q-109 0 -173.5 55.5t-64.5 148.5q0 126 115 228h145q-49 -40 -77 -87.5t-28 -92.5q0 -55 33 -85.5t93 -30.5q49 0 73 9z" />
    <glyph glyph-name="circumflexbelowcmb" unicode="&#x32d;" 
d="M533 -166h200l274 -342h-194l-172 227h-16l-172 -227h-194z" />
    <glyph glyph-name="brevebelowcmb" unicode="&#x32e;" 
d="M633 -346q97 0 151 55.5t53 143.5h152q0 -146 -96.5 -238t-259.5 -92t-259.5 92t-96.5 238h152q0 -88 54 -143.5t150 -55.5z" />
    <glyph glyph-name="tildebelowcmb" unicode="&#x330;" 
d="M491 -310q-46 0 -66.5 -37t-20.5 -120h-140q0 137 60.5 215t166.5 78q53 0 98 -24.5t71 -53.5t56.5 -53.5t58.5 -24.5q46 0 66.5 37t20.5 118h140q0 -136 -60.5 -214t-166.5 -78q-43 0 -80.5 16t-63 39.5t-47.5 46.5t-46 39t-47 16z" />
    <glyph glyph-name="macronbelowcmb" unicode="&#x331;" 
d="M963 -395h-660v139h660v-139z" />
    <glyph glyph-name="greekquestionmark" unicode="&#x37e;" 
d="M633 762q-74 0 -127.5 54.5t-53.5 130.5t53.5 130.5t127.5 54.5t127.5 -54.5t53.5 -130.5t-53.5 -130.5t-127.5 -54.5zM581 -332h-179l130 711h230z" />
    <glyph glyph-name="tonosgreek" unicode="&#x384;" 
d="M506 1290l81 346h207l-133 -346h-155z" />
    <glyph glyph-name="dieresistonosgreek" unicode="&#x385;" 
d="M521 1290l33 346h206l-84 -346h-155zM322 1316q-46 0 -80.5 35.5t-34.5 83.5q0 47 34.5 82.5t80.5 35.5t80.5 -35.5t34.5 -82.5q0 -48 -34.5 -83.5t-80.5 -35.5zM944 1316q-46 0 -80.5 35.5t-34.5 83.5q0 47 34.5 82.5t80.5 35.5t80.5 -35.5t34.5 -82.5
q0 -48 -34.5 -83.5t-80.5 -35.5z" />
    <glyph glyph-name="Alphatonosgreek" unicode="&#x386;" 
d="M376 1443l-129 -342h-136l85 342h180zM499 565h336l-165 648h-5zM979 0l-105 414h-414l-106 -414h-177l398 1443h189l400 -1443h-185z" />
    <glyph glyph-name="anoteleia" unicode="&#x387;" 
d="M634 786q-62 0 -105 43.5t-43 106.5q0 64 43 106.5t105 42.5t104.5 -42.5t42.5 -106.5q0 -63 -42.5 -106.5t-104.5 -43.5z" />
    <glyph glyph-name="Epsilontonosgreek" unicode="&#x388;" 
d="M1114 162v-162h-664v1443h664v-162h-490v-468h453v-155h-453v-496h490zM59 1101l84 342h180l-129 -342h-135z" />
    <glyph glyph-name="Etatonosgreek" unicode="&#x389;" 
d="M1170 0h-160v658h-427v-658h-160v1443h160v-626h427v626h160v-1443zM39 1101l85 342h179l-129 -342h-135z" />
    <glyph glyph-name="Iotatonosgreek" unicode="&#x38a;" 
d="M1184 0h-716v157h275v1129h-275v157h716v-157h-276v-1129h276v-157zM103 1101l85 342h179l-129 -342h-135z" />
    <glyph glyph-name="Omicrontonosgreek" unicode="&#x38c;" 
d="M1202 605q0 -307 -113 -471t-324 -164t-323.5 164t-112.5 471v233q0 307 112.5 471t323.5 164t324 -164t113 -471v-233zM765 137q132 0 201.5 118t69.5 342v249q0 224 -69.5 342t-201.5 118t-201.5 -118t-69.5 -342v-249q0 -224 69.5 -342t201.5 -118zM61 1101l85 342
h180l-129 -342h-136z" />
    <glyph glyph-name="Upsilontonosgreek" unicode="&#x38e;" 
d="M885 0h-169v591l-355 852h187l246 -660h13l245 660h187l-354 -852v-591zM47 1101l85 342h179l-128 -342h-136z" />
    <glyph glyph-name="Omegatonosgreek" unicode="&#x38f;" 
d="M732 1473q235 0 363 -176t128 -499q0 -222 -71.5 -385.5t-206.5 -246.5v-14h279v-152h-432v219q139 86 202.5 221t63.5 354q0 512 -326 512q-325 0 -325 -512q0 -219 63.5 -354t202.5 -221v-219h-432v152h279v14q-135 83 -206.5 246.5t-71.5 385.5q0 323 127.5 499
t362.5 176zM9 1101l85 342h179l-128 -342h-136z" />
    <glyph glyph-name="iotadieresistonosgreek" unicode="&#x390;" 
d="M895 -8q-180 0 -263.5 70.5t-83.5 224.5v653h-361v145h530v-778q0 -88 48 -127.5t155 -39.5q93 0 171 16v-143q-96 -21 -196 -21zM494 1290l33 346h206l-85 -346h-154zM295 1316q-46 0 -80.5 35.5t-34.5 83.5q0 47 34.5 82.5t80.5 35.5t80.5 -35.5t34.5 -82.5
q0 -48 -34.5 -83.5t-80.5 -35.5zM916 1316q-46 0 -80.5 35.5t-34.5 83.5q0 47 34.5 82.5t80.5 35.5t80.5 -35.5t34.5 -82.5q0 -48 -34.5 -83.5t-80.5 -35.5z" />
    <glyph glyph-name="Alphagreek" unicode="&#x391;" 
d="M425 565h410l-202 666h-5zM1006 0l-125 414h-502l-126 -414h-179l465 1443h188l465 -1443h-186z" />
    <glyph glyph-name="Betagreek" unicode="&#x392;" 
d="M660 0h-472v1443h467q200 0 313 -94.5t113 -262.5q0 -119 -69.5 -207.5t-178.5 -107.5v-15q145 -14 233 -111t88 -242q0 -190 -130.5 -296.5t-363.5 -106.5zM363 1291v-471h225q154 0 234.5 60.5t80.5 174.5q0 113 -75 174.5t-213 61.5h-252zM363 153h259
q172 0 260.5 66.5t88.5 195.5q0 128 -90 193t-265 65h-253v-520z" />
    <glyph glyph-name="Gammagreek" unicode="&#x393;" 
d="M257 0v1443h851v-162h-674v-1281h-177z" />
    <glyph glyph-name="Deltagreek" unicode="&#x394;" 
d="M90 0v119l449 1324h188l449 -1324v-119h-1086zM280 162h700v14l-347 1057h-5l-348 -1057v-14z" />
    <glyph glyph-name="Deltagreek" unicode="&#x2206;" 
d="M90 0v119l449 1324h188l449 -1324v-119h-1086zM280 162h700v14l-347 1057h-5l-348 -1057v-14z" />
    <glyph glyph-name="Epsilongreek" unicode="&#x395;" 
d="M1082 162v-162h-852v1443h852v-162h-675v-468h638v-155h-638v-496h675z" />
    <glyph glyph-name="Zetagreek" unicode="&#x396;" 
d="M137 0v129l757 1138v14h-732v162h956v-130l-755 -1137v-14h768v-162h-994z" />
    <glyph glyph-name="Etagreek" unicode="&#x397;" 
d="M1113 0h-175v656h-610v-656h-175v1443h175v-625h610v625h175v-1443z" />
    <glyph glyph-name="Thetagreek" unicode="&#x398;" 
d="M633 137q173 0 273 126t100 343v231q0 217 -100 343t-273 126t-273 -126t-100 -343v-231q0 -217 100 -343t273 -126zM1178 605q0 -294 -146.5 -464.5t-398.5 -170.5t-398.5 170.5t-146.5 464.5v233q0 294 146.5 464.5t398.5 170.5t398.5 -170.5t146.5 -464.5v-233z
M384 641v160h498v-160h-498z" />
    <glyph glyph-name="Iotagreek" unicode="&#x399;" 
d="M1013 0h-760v157h292v1129h-292v157h760v-157h-292v-1129h292v-157z" />
    <glyph glyph-name="Kappagreek" unicode="&#x39a;" 
d="M389 0h-173v1443h173v-718h13l584 718h206l-534 -638l586 -805h-219l-486 669l-150 -178v-491z" />
    <glyph glyph-name="Lambdagreek" unicode="&#x39b;" 
d="M91 0l448 1443h188l448 -1443h-185l-357 1227h-5l-358 -1227h-179z" />
    <glyph glyph-name="Mugreek" unicode="&#x39c;" 
d="M257 553v-553h-158v1443h195l333 -893h13l332 893h195v-1443h-158v553l10 585h-13l-304 -799h-138l-304 799h-13z" />
    <glyph glyph-name="Nugreek" unicode="&#x39d;" 
d="M312 0h-159v1443h169l618 -1123h14v1123h159v-1443h-167l-620 1126h-14v-1126z" />
    <glyph glyph-name="Xigreek" unicode="&#x39e;" 
d="M159 0v167h948v-167h-948zM239 651v165h789v-165h-789zM159 1276v167h948v-167h-948z" />
    <glyph glyph-name="Omicrongreek" unicode="&#x39f;" 
d="M1162 605q0 -298 -141 -466.5t-388 -168.5t-388 168.5t-141 466.5v233q0 298 141 466.5t388 168.5t388 -168.5t141 -466.5v-233zM633 137q165 0 258 122.5t93 346.5v231q0 224 -93 346.5t-258 122.5t-258 -122.5t-93 -346.5v-231q0 -224 93 -346.5t258 -122.5z" />
    <glyph glyph-name="Pigreek" unicode="&#x3a0;" 
d="M161 0v1443h944v-1443h-177v1281h-590v-1281h-177z" />
    <glyph glyph-name="Rhogreek" unicode="&#x3a1;" 
d="M198 1443h480q210 0 336.5 -126.5t126.5 -336.5q0 -209 -127.5 -335.5t-339.5 -126.5h-299v-518h-177v1443zM375 1286v-611h259q158 0 243 79t85 226q0 148 -85 227t-243 79h-259z" />
    <glyph glyph-name="Sigmagreek" unicode="&#x3a3;" 
d="M134 0v127l381 601l-362 568v147h909v-162h-686v-14l326 -518v-28l-347 -545v-14h725v-162h-946z" />
    <glyph glyph-name="Taugreek" unicode="&#x3a4;" 
d="M721 0h-176v1281h-436v162h1048v-162h-436v-1281z" />
    <glyph glyph-name="Upsilongreek" unicode="&#x3a5;" 
d="M721 0h-176v595l-481 848h197l365 -660h14l365 660h197l-481 -848v-595z" />
    <glyph glyph-name="Phigreek" unicode="&#x3a6;" 
d="M550 -74v147q-241 10 -367 175t-126 470t126 470.5t367 175.5v144h166v-144q241 -10 367 -175.5t126 -470.5t-126 -470t-367 -175v-147h-166zM555 221v995q-335 -16 -335 -498q0 -481 335 -497zM711 221q335 16 335 497t-335 498v-995z" />
    <glyph glyph-name="Chigreek" unicode="&#x3a7;" 
d="M71 0l458 725l-455 718h200l362 -580h8l365 580h186l-464 -723l457 -720h-196l-364 573h-7l-367 -573h-183z" />
    <glyph glyph-name="Psigreek" unicode="&#x3a8;" 
d="M547 0v331q-244 8 -353 138t-109 418v556h163v-546q0 -154 29 -241t93.5 -126.5t180.5 -42.5v956h164v-956q116 3 180.5 42.5t93.5 126.5t29 241v546h163v-556q0 -288 -109.5 -418.5t-352.5 -137.5v-331h-172z" />
    <glyph glyph-name="Omegagreek" unicode="&#x3a9;" 
d="M633 1473q277 0 428.5 -177.5t151.5 -500.5q0 -215 -84.5 -375t-244.5 -247v-14h338v-159h-521v205q173 89 255 229t82 351q0 521 -405 521q-201 0 -303.5 -131t-102.5 -390q0 -210 82.5 -350.5t255.5 -229.5v-205h-521v159h338v14q-160 87 -244.5 247t-84.5 375
q0 323 151.5 500.5t428.5 177.5z" />
    <glyph glyph-name="Omegagreek" unicode="&#x2126;" 
d="M633 1473q277 0 428.5 -177.5t151.5 -500.5q0 -215 -84.5 -375t-244.5 -247v-14h338v-159h-521v205q173 89 255 229t82 351q0 521 -405 521q-201 0 -303.5 -131t-102.5 -390q0 -210 82.5 -350.5t255.5 -229.5v-205h-521v159h338v14q-160 87 -244.5 247t-84.5 375
q0 323 151.5 500.5t428.5 177.5z" />
    <glyph glyph-name="Iotadieresisgreek" unicode="&#x3aa;" 
d="M1013 0h-760v157h292v1129h-292v157h760v-157h-292v-1129h292v-157zM431 1651q-47 0 -82 36t-35 85t35 85t82 36t82 -36t35 -85t-35 -85t-82 -36zM835 1651q-47 0 -82 36t-35 85t35 85t82 36t82 -36t35 -85t-35 -85t-82 -36z" />
    <glyph glyph-name="Upsilondieresisgreek" unicode="&#x3ab;" 
d="M721 0h-176v595l-481 848h197l365 -660h14l365 660h197l-481 -848v-595zM431 1651q-47 0 -82 36t-35 85t35 85t82 36t82 -36t35 -85t-35 -85t-82 -36zM835 1651q-47 0 -82 36t-35 85t35 85t82 36t82 -36t35 -85t-35 -85t-82 -36z" />
    <glyph glyph-name="alphatonosgreek" unicode="&#x3ac;" 
d="M501 1290l81 346h206l-132 -346h-155zM298 614v-141q0 -152 80 -244t211 -92t207.5 91.5t76.5 244.5v141q0 153 -76.5 244.5t-207.5 91.5t-211 -92t-80 -244zM1186 145v-143q-30 -12 -105 -12q-91 0 -144 45t-62 130h-19q-36 -87 -116.5 -135t-195.5 -48
q-185 0 -299 128.5t-114 339.5v186q0 211 113.5 339t298.5 128q113 0 194 -47.5t120 -130.5h19v160h162v-815q0 -71 21.5 -101.5t71.5 -30.5q25 0 55 7z" />
    <glyph glyph-name="epsilontonosgreek" unicode="&#x3ad;" 
d="M616 -21q-214 0 -329 81.5t-115 230.5q0 94 50.5 158t150.5 93v14q-179 56 -179 235q0 142 114 228t330 86q425 0 472 -348h-169q-20 105 -98 151t-211 46q-125 0 -198.5 -45t-73.5 -126q0 -78 64 -119.5t184 -41.5h155v-142h-156q-123 0 -191.5 -45.5t-68.5 -125.5
q0 -88 73.5 -132t199.5 -44q137 0 226 53.5t113 146.5h173q-27 -154 -170 -254t-346 -100zM570 1290l81 346h206l-132 -346h-155z" />
    <glyph glyph-name="etatonosgreek" unicode="&#x3ae;" 
d="M456 1290l81 346h206l-132 -346h-155zM407 0h-169v819q0 69 -23 99.5t-76 30.5q-19 0 -55 -6v141q34 13 97 13q103 0 155 -48t61 -151v-9h14q43 104 133 160t214 56q173 0 265 -103.5t92 -297.5v-1070h-169v1032q0 143 -60.5 213t-185.5 70q-132 0 -212.5 -83.5
t-80.5 -220.5v-645z" />
    <glyph glyph-name="iotatonosgreek" unicode="&#x3af;" 
d="M895 -8q-180 0 -263.5 70.5t-83.5 224.5v653h-361v145h530v-778q0 -88 48 -127.5t155 -39.5q93 0 171 16v-143q-96 -21 -196 -21zM542 1290l80 346h207l-132 -346h-155z" />
    <glyph glyph-name="upsilondieresistonosgreek" unicode="&#x3b0;" 
d="M916 1316q-46 0 -80.5 35.5t-34.5 83.5q0 47 34.5 82.5t80.5 35.5t80.5 -35.5t34.5 -82.5q0 -48 -34.5 -83.5t-80.5 -35.5zM295 1316q-46 0 -80.5 35.5t-34.5 83.5q0 47 34.5 82.5t80.5 35.5t80.5 -35.5t34.5 -82.5q0 -48 -34.5 -83.5t-80.5 -35.5zM493 1290l33 346h207
l-85 -346h-155zM831 1085h172q45 -92 72.5 -235.5t27.5 -284.5q0 -281 -118 -433.5t-347 -151.5q-444 2 -444 444v661h166v-644q0 -305 275 -305q143 0 221 100.5t78 309.5q0 315 -103 539z" />
    <glyph glyph-name="alphagreek" unicode="&#x3b1;" 
d="M298 614v-141q0 -152 80 -244t211 -92t207.5 91.5t76.5 244.5v141q0 153 -76.5 244.5t-207.5 91.5t-211 -92t-80 -244zM1186 145v-143q-30 -12 -105 -12q-91 0 -144 45t-62 130h-19q-36 -87 -116.5 -135t-195.5 -48q-185 0 -299 128.5t-114 339.5v186q0 211 113.5 339
t298.5 128q113 0 194 -47.5t120 -130.5h19v160h162v-815q0 -71 21.5 -101.5t71.5 -30.5q25 0 55 7z" />
    <glyph glyph-name="betagreek" unicode="&#x3b2;" 
d="M185 -366v1421q0 227 114 351.5t323 124.5q189 0 296 -103.5t107 -280.5q0 -111 -57.5 -194.5t-157.5 -118.5v-14q156 -32 236.5 -131.5t80.5 -257.5q0 -200 -113.5 -324.5t-301.5 -124.5q-262 0 -342 186h-19v-534h-166zM681 136q126 0 202 82.5t76 215.5
q0 145 -92 224.5t-260 79.5h-104v152h98q123 0 191.5 64.5t68.5 180.5q0 113 -63 179t-176 66q-274 0 -274 -342v-562q0 -170 88 -255t245 -85z" />
    <glyph glyph-name="gammagreek" unicode="&#x3b3;" 
d="M492 -345v313l-374 1117h182l290 -918h14q160 220 229.5 387t69.5 334q0 107 -21 197h168q21 -86 21 -197q0 -194 -96 -409t-315 -504v-320h-168z" />
    <glyph glyph-name="deltagreek" unicode="&#x3b4;" 
d="M1138 516v-27q0 -236 -134.5 -372.5t-365.5 -136.5q-241 0 -373.5 130t-132.5 369v33q0 192 108 320t297 153v17q-118 58 -168.5 120t-50.5 146q0 117 101 190t268 73q216 0 345 -75v-159q-166 87 -338 87q-96 0 -151.5 -33t-55.5 -92q0 -51 41.5 -90t159.5 -94
q120 -58 200 -111t138.5 -119.5t85 -146t26.5 -182.5zM640 874q-153 0 -245 -94.5t-92 -263.5v-34q0 -172 88 -262t251 -90q156 0 241 94.5t85 267.5v23q0 162 -90.5 260.5t-237.5 98.5z" />
    <glyph glyph-name="epsilongreek" unicode="&#x3b5;" 
d="M616 -20q-214 0 -329 81.5t-115 230.5q0 193 201 250v14q-179 57 -179 236q0 142 114 227.5t330 85.5q425 0 472 -347h-169q-20 104 -98.5 150t-210.5 46q-125 0 -198.5 -44.5t-73.5 -125.5q0 -78 64 -120t184 -42h155v-141h-156q-123 0 -191.5 -45.5t-68.5 -125.5
q0 -88 73 -132t200 -44q136 0 225.5 53.5t113.5 145.5h173q-26 -154 -169.5 -253.5t-346.5 -99.5z" />
    <glyph glyph-name="zetagreek" unicode="&#x3b6;" 
d="M947 -359l-132 51q81 118 81 188q0 56 -38.5 90t-167.5 84q-247 96 -359 211.5t-112 306.5q0 201 143.5 387t456.5 387v14h-533v151h794v-141q-181 -117 -302.5 -210.5t-213 -189t-133.5 -188.5t-42 -192q0 -137 83 -221.5t288 -163.5q178 -69 241 -126.5t63 -157.5
q0 -126 -117 -280z" />
    <glyph glyph-name="etagreek" unicode="&#x3b7;" 
d="M407 0h-169v819q0 69 -23 99.5t-76 30.5q-19 0 -55 -6v141q34 13 97 13q103 0 155 -48t61 -151v-9h14q43 104 133 160t214 56q173 0 265 -103.5t92 -297.5v-1070h-169v1032q0 143 -60.5 213t-185.5 70q-132 0 -212.5 -83.5t-80.5 -220.5v-645z" />
    <glyph glyph-name="thetagreek" unicode="&#x3b8;" 
d="M962 686h-658q5 -282 86.5 -418.5t242.5 -136.5t242.5 136.5t86.5 418.5zM305 839h656q-15 541 -328 541t-328 -541zM633 -20q-497 0 -497 775q0 776 497 776t497 -776q0 -775 -497 -775z" />
    <glyph glyph-name="iotagreek" unicode="&#x3b9;" 
d="M895 -8q-180 0 -263.5 70.5t-83.5 224.5v653h-361v145h530v-778q0 -88 48 -127.5t155 -39.5q93 0 171 16v-143q-96 -21 -196 -21z" />
    <glyph glyph-name="kappagreek" unicode="&#x3ba;" 
d="M366 0h-166v1085h166v-571h13l373 417q82 95 142 130.5t141 35.5q45 0 91 -13v-144q-36 9 -63 9q-53 0 -92.5 -24.5t-104.5 -96.5l-163 -180l458 -648h-194l-373 528l-228 -233v-295z" />
    <glyph glyph-name="lambdagreek" unicode="&#x3bb;" 
d="M294 0h-180l454 1031l-47 126q-53 138 -98.5 182t-138.5 44q-25 0 -58 -6v142q46 12 99 12q133 0 206 -73.5t146 -278.5l339 -932q20 -58 51.5 -83.5t81.5 -25.5q29 0 57 7v-143q-34 -12 -97 -12q-99 0 -150.5 42t-91.5 155l-222 618h-13z" />
    <glyph glyph-name="nugreek" unicode="&#x3bd;" 
d="M680 0h-196l-365 1085h182l290 -919h14q161 224 230 390.5t69 331.5q0 109 -20 197h168q21 -89 21 -195q0 -192 -92.5 -401t-300.5 -489z" />
    <glyph glyph-name="xigreek" unicode="&#x3be;" 
d="M992 -359l-131 51q81 118 81 190q0 54 -37.5 88t-155.5 80q-284 110 -392 199t-108 234q0 126 80 205t214 108v14q-117 42 -174 109t-57 172q0 94 59 162t173 93v14h-232v151h776v-136l-134 -12q-95 -9 -164 -20t-132 -30t-101.5 -45.5t-61 -66.5t-22.5 -92
q0 -108 100.5 -161.5t282.5 -53.5h155v-148h-162q-199 0 -313.5 -58.5t-114.5 -182.5q0 -30 7 -54.5t17.5 -45t37 -41t51.5 -37t75.5 -39.5t94 -41t121.5 -50q165 -66 225 -123t60 -153q0 -127 -118 -280z" />
    <glyph glyph-name="omicrongreek" unicode="&#x3bf;" 
d="M633 -20q-215 0 -342.5 130t-127.5 350v164q0 220 127.5 350t342.5 130t342.5 -130t127.5 -350v-164q0 -220 -127.5 -350t-342.5 -130zM633 954q-140 0 -221 -92.5t-81 -252.5v-133q0 -160 81 -252.5t221 -92.5t221 92.5t81 252.5v133q0 160 -81 252.5t-221 92.5z" />
    <glyph glyph-name="pigreek" unicode="&#x3c0;" 
d="M432 0h-164v931h-218v154h1155v-154h-208v-665q0 -71 23 -99.5t82 -28.5q26 0 55 7v-143q-33 -12 -99 -12q-117 0 -170.5 63.5t-53.5 200.5v677h-402v-931z" />
    <glyph glyph-name="rhogreek" unicode="&#x3c1;" 
d="M662 135q149 0 230.5 106.5t81.5 306.5q0 201 -81 303.5t-235 102.5q-313 0 -313 -416q0 -182 86 -292.5t231 -110.5zM347 -366h-170v916q0 268 124.5 411.5t356.5 143.5q230 0 357.5 -145.5t127.5 -409.5q0 -270 -118.5 -419t-333.5 -149q-243 0 -325 186h-19v-534z" />
    <glyph glyph-name="sigmafinalgreek" unicode="&#x3c2;" 
d="M1030 -79q0 -129 -117 -280l-132 51q81 118 81 188q0 57 -38.5 90.5t-167.5 83.5q-127 49 -209 96t-144.5 111t-90 148.5t-27.5 198.5q0 228 130 363t362 135q183 0 296.5 -97.5t135.5 -261.5h-168q-18 92 -90 149t-184 57q-79 0 -140.5 -27.5t-98 -74.5t-55 -105.5
t-18.5 -125.5q0 -164 80.5 -249t290.5 -166q178 -69 241 -126.5t63 -157.5z" />
    <glyph glyph-name="sigmagreek" unicode="&#x3c3;" 
d="M1076 460q0 -219 -127 -349.5t-341 -130.5t-341 130.5t-127 349.5v145q0 219 127 349.5t341 130.5h612v-154h-302v-14q158 -110 158 -314v-143zM608 931q-138 0 -218.5 -93t-80.5 -251v-113q0 -158 80.5 -250.5t218.5 -92.5q139 0 219.5 92.5t80.5 250.5v113
q0 158 -80.5 251t-219.5 93z" />
    <glyph glyph-name="taugreek" unicode="&#x3c4;" 
d="M961 148v-143q-57 -12 -136 -12q-178 0 -254.5 65.5t-76.5 216.5v656h-393v154h1010v-154h-448v-619q0 -94 41.5 -132.5t142.5 -38.5q55 0 114 7z" />
    <glyph glyph-name="upsilongreek" unicode="&#x3c5;" 
d="M831 1085h172q45 -92 72.5 -235.5t27.5 -284.5q0 -281 -118 -433.5t-347 -151.5q-444 2 -444 444v661h166v-644q0 -305 275 -305q143 0 221 100.5t78 309.5q0 315 -103 539z" />
    <glyph glyph-name="phigreek" unicode="&#x3c6;" 
d="M560 114v856q-343 -26 -343 -429q0 -400 343 -427zM706 970v-856q343 27 343 427q0 403 -343 429zM709 -366h-152v346q-243 16 -370 159.5t-127 401.5q0 260 127.5 405t369.5 159v254h152v-254q241 -14 369 -159t128 -405q0 -257 -127.5 -401t-369.5 -160v-346z" />
    <glyph glyph-name="chigreek" unicode="&#x3c7;" 
d="M158 -366l400 728l-241 469q-34 67 -64 92.5t-78 25.5q-20 0 -54 -6v141q39 13 92 13q90 0 139.5 -39t102.5 -146l198 -388h13l297 561h178l-404 -732l235 -458q34 -66 68.5 -94.5t80.5 -28.5q19 0 52 7v-142q-36 -13 -95 -13q-88 0 -137.5 38t-98.5 135l-201 391h-13
l-292 -554h-178z" />
    <glyph glyph-name="psigreek" unicode="&#x3c8;" 
d="M707 -366h-151v346q-211 5 -324 119t-113 326v660h158v-645q0 -158 68 -233t211 -79v1231h151v-1231q171 6 240 111.5t69 315.5q0 306 -103 530h163q43 -86 72 -227.5t29 -284.5q0 -287 -110.5 -436.5t-359.5 -156.5v-346z" />
    <glyph glyph-name="omegagreek" unicode="&#x3c9;" 
d="M894 -20q-182 0 -255 232h-12q-73 -232 -255 -232q-152 0 -230.5 134t-78.5 393q0 173 42.5 327.5t115.5 250.5h173q-170 -237 -170 -592q0 -181 41.5 -268t128.5 -87q78 0 120 76t42 208v340h154v-340q0 -132 42 -208t120 -76q87 0 128.5 87t41.5 268q0 355 -170 592
h173q73 -96 115.5 -250.5t42.5 -327.5q0 -259 -78.5 -393t-230.5 -134z" />
    <glyph glyph-name="iotadieresisgreek" unicode="&#x3ca;" 
d="M895 -8q-180 0 -263.5 70.5t-83.5 224.5v653h-361v145h530v-778q0 -88 48 -127.5t155 -39.5q93 0 171 16v-143q-96 -21 -196 -21zM355 1300q-47 0 -82 36t-35 85t35 85t82 36t82 -36t35 -85t-35 -85t-82 -36zM758 1300q-47 0 -82 36t-35 85t35 85t82 36t82 -36t35 -85
t-35 -85t-82 -36z" />
    <glyph glyph-name="upsilondieresisgreek" unicode="&#x3cb;" 
d="M802 1300q-47 0 -82 36t-35 85t35 85t82 36t82 -36t35 -85t-35 -85t-82 -36zM398 1300q-47 0 -82 36t-35 85t35 85t82 36t82.5 -36t35.5 -85t-35.5 -85t-82.5 -36zM831 1085h172q45 -92 72.5 -235.5t27.5 -284.5q0 -281 -118 -433.5t-347 -151.5q-444 2 -444 444v661h166
v-644q0 -305 275 -305q143 0 221 100.5t78 309.5q0 315 -103 539z" />
    <glyph glyph-name="omicrontonosgreek" unicode="&#x3cc;" 
d="M633 -20q-215 0 -342.5 130t-127.5 350v164q0 220 127.5 350t342.5 130t342.5 -130t127.5 -350v-164q0 -220 -127.5 -350t-342.5 -130zM633 954q-140 0 -221 -92.5t-81 -252.5v-133q0 -160 81 -252.5t221 -92.5t221 92.5t81 252.5v133q0 160 -81 252.5t-221 92.5z
M559 1290l81 346h206l-132 -346h-155z" />
    <glyph glyph-name="upsilontonosgreek" unicode="&#x3cd;" 
d="M507 1290l81 346h206l-132 -346h-155zM831 1085h172q45 -92 72.5 -235.5t27.5 -284.5q0 -281 -118 -433.5t-347 -151.5q-444 2 -444 444v661h166v-644q0 -305 275 -305q143 0 221 100.5t78 309.5q0 315 -103 539z" />
    <glyph glyph-name="omegatonosgreek" unicode="&#x3ce;" 
d="M894 -20q-182 0 -255 232h-12q-73 -232 -255 -232q-152 0 -230.5 134t-78.5 393q0 173 42.5 327.5t115.5 250.5h173q-170 -237 -170 -592q0 -181 41.5 -268t128.5 -87q78 0 120 76t42 208v340h154v-340q0 -132 42 -208t120 -76q87 0 128.5 87t41.5 268q0 355 -170 592
h173q73 -96 115.5 -250.5t42.5 -327.5q0 -259 -78.5 -393t-230.5 -134zM559 1290l81 346h206l-132 -346h-155z" />
    <glyph glyph-name="uni0400" unicode="&#x400;" 
d="M469 1916l301 -304h-186l-322 304h207zM1082 162v-162h-852v1443h852v-162h-675v-468h638v-155h-638v-496h675z" />
    <glyph glyph-name="Iocyrillic" unicode="&#x401;" 
d="M1082 162v-162h-852v1443h852v-162h-675v-468h638v-155h-638v-496h675zM454 1651q-47 0 -82 36t-35 85t35 85t82 36t82 -36t35 -85t-35 -85t-82 -36zM858 1651q-47 0 -82 36t-35 85t35 85t82 36t82 -36t35 -85t-35 -85t-82 -36z" />
    <glyph glyph-name="Djecyrillic" unicode="&#x402;" 
d="M768 -14v158q34 -12 97 -12q101 0 159.5 78.5t58.5 215.5q0 140 -69 222.5t-187 82.5q-91 0 -164 -36.5t-115 -87.5v-607h-169v1282h-379v161h933v-161h-385v-492h12q110 104 296 104q184 0 292 -125.5t108 -336.5q0 -214 -100.5 -338t-273.5 -124q-77 0 -114 16z" />
    <glyph glyph-name="Gjecyrillic" unicode="&#x403;" 
d="M1061 1916l-322 -304h-186l301 304h207zM1229 1443v-424h-162v267h-529v-1128h320v-158h-775v158h279v1128h-279v157h1146z" />
    <glyph glyph-name="Ecyrillic" unicode="&#x404;" 
d="M310 658v-65q0 -224 90.5 -340t265.5 -116q144 0 229.5 81t89.5 220h178q0 -209 -138 -338.5t-359 -129.5q-254 0 -395 163.5t-141 459.5v257q0 296 141 459.5t395 163.5q228 0 361 -131t137 -362h-179q-4 146 -92.5 236t-227.5 90q-175 0 -265 -116t-90 -340v-35h523
v-157h-523z" />
    <glyph glyph-name="Dzecyrillic" unicode="&#x405;" 
d="M139 384h172q14 -119 103.5 -186.5t233.5 -67.5t231 69.5t87 185.5q0 94 -66.5 153t-212.5 95l-124 31q-201 51 -295 149t-94 255q0 185 128.5 295t344.5 110q204 0 333 -108.5t138 -288.5h-172q-14 112 -92.5 174.5t-205.5 62.5q-139 0 -217.5 -62.5t-78.5 -172.5
q0 -94 63.5 -151.5t204.5 -92.5l126 -32q210 -52 304 -148.5t94 -259.5q0 -194 -135 -309t-362 -115q-224 0 -360.5 111t-147.5 303z" />
    <glyph glyph-name="Icyrillic" unicode="&#x406;" 
d="M1013 0h-760v157h292v1129h-292v157h760v-157h-292v-1129h292v-157z" />
    <glyph glyph-name="Yicyrillic" unicode="&#x407;" 
d="M1013 0h-760v157h292v1129h-292v157h760v-157h-292v-1129h292v-157zM431 1651q-47 0 -82 36t-35 85t35 85t82 36t82 -36t35 -85t-35 -85t-82 -36zM835 1651q-47 0 -82 36t-35 85t35 85t82 36t82 -36t35 -85t-35 -85t-82 -36z" />
    <glyph glyph-name="Jecyrillic" unicode="&#x408;" 
d="M591 -30q-188 0 -305.5 108t-118.5 283h173q4 -100 73 -161.5t176 -61.5q122 0 188.5 72.5t66.5 205.5v870h-496v157h673v-1032q0 -206 -115 -323.5t-315 -117.5z" />
    <glyph glyph-name="Ljecyrillic" unicode="&#x409;" 
d="M764 749v-590h108q108 0 168.5 77.5t60.5 217.5q0 139 -60.5 217t-168.5 78h-108zM377 1287l-32 -765q-11 -284 -74.5 -408t-197.5 -124q-45 0 -73 11v161q30 -7 52 -7q68 0 99 83.5t39 290.5l34 914h544v-536h138q163 0 261.5 -124t98.5 -330t-98.5 -329.5
t-261.5 -123.5h-303v1287h-226z" />
    <glyph glyph-name="Njecyrillic" unicode="&#x40a;" 
d="M751 665v-518h95q104 0 162.5 71t58.5 196q0 119 -58 185t-163 66h-95zM250 0h-157v1443h157v-626h340v626h163v-626h121q161 0 258 -109.5t97 -290.5q0 -190 -96.5 -303.5t-256.5 -113.5h-286v662h-340v-662z" />
    <glyph glyph-name="Tshecyrillic" unicode="&#x40b;" 
d="M1038 0v452q0 132 -62.5 204.5t-189.5 72.5q-88 0 -157 -36.5t-111 -88.5v-604h-173v1281h-345v162h874v-162h-356v-491h12q110 104 298 104q187 0 285 -109t98 -311v-474h-173z" />
    <glyph glyph-name="Kjecyrillic" unicode="&#x40c;" 
d="M523 1612l301 304h207l-322 -304h-186zM332 1443v-640h44l585 640h210l-646 -700l699 -743h-224l-624 657h-44v-657h-173v1443h173z" />
    <glyph glyph-name="uni040D" unicode="&#x40d;" 
d="M457 1916l301 -304h-185l-322 304h206zM152 1443h157v-1123h14l626 1123h165v-1443h-157v1122h-14l-628 -1122h-163v1443z" />
    <glyph glyph-name="Ushortcyrillic" unicode="&#x40e;" 
d="M1199 1443l-439 -1041q-98 -230 -193 -321.5t-243 -91.5q-60 0 -86 13v161q36 -9 76 -9q73 0 129 42t106 137l-483 1110h190l379 -914h15l364 914h185zM302 1924h143q1 -88 53 -143t134 -55t134 55t53 143h144q0 -139 -91.5 -225.5t-239.5 -86.5t-239 86t-91 226z" />
    <glyph glyph-name="Dzhecyrillic" unicode="&#x40f;" 
d="M550 -285v285h-436v1443h177v-1281h684v1281h177v-1443h-436v-285h-166z" />
    <glyph glyph-name="Acyrillic" unicode="&#x410;" 
d="M425 565h410l-202 666h-5zM1006 0l-125 414h-502l-126 -414h-179l465 1443h188l465 -1443h-186z" />
    <glyph glyph-name="Becyrillic" unicode="&#x411;" 
d="M355 711v-552h297q154 0 240 73t86 203t-86.5 203t-239.5 73h-297zM355 867h336q208 0 338 -120t130 -313q0 -194 -128.5 -314t-336.5 -120h-516v1443h850v-162h-673v-414z" />
    <glyph glyph-name="Vecyrillic" unicode="&#x412;" 
d="M660 0h-472v1443h467q200 0 313 -94.5t113 -262.5q0 -119 -69.5 -207.5t-178.5 -107.5v-15q145 -14 233 -111t88 -242q0 -190 -130.5 -296.5t-363.5 -106.5zM363 1291v-471h225q154 0 234.5 60.5t80.5 174.5q0 113 -75 174.5t-213 61.5h-252zM363 153h259
q172 0 260.5 66.5t88.5 195.5q0 128 -90 193t-265 65h-253v-520z" />
    <glyph glyph-name="Gecyrillic" unicode="&#x413;" 
d="M1229 1443v-424h-162v267h-529v-1128h320v-158h-775v158h279v1128h-279v157h1146z" />
    <glyph glyph-name="Decyrillic" unicode="&#x414;" 
d="M1084 0h-902v-285h-163v447h87q63 40 95 130t41 253l49 898h795v-1281h160v-447h-162v285zM448 1281l-42 -747q-7 -138 -29 -221.5t-63 -135.5v-15h596v1119h-462z" />
    <glyph glyph-name="Iecyrillic" unicode="&#x415;" 
d="M1082 162v-162h-852v1443h852v-162h-675v-468h638v-155h-638v-496h675z" />
    <glyph glyph-name="Zhecyrillic" unicode="&#x416;" 
d="M166 0h-172l377 738l-342 705h171l297 -637h59v637h152v-637h59l297 637h169l-340 -703l379 -740h-173l-332 662h-59v-662h-152v662h-58z" />
    <glyph glyph-name="Zecyrillic" unicode="&#x417;" 
d="M427 661v156h185q137 0 222 70t85 185q0 112 -82 178.5t-219 66.5q-136 0 -222 -68t-95 -181h-169q11 185 144.5 295t347.5 110q205 0 336.5 -107.5t131.5 -274.5q0 -124 -75 -215t-199 -118v-13q155 -14 247 -109t92 -242q0 -182 -151 -303t-379 -121q-224 0 -370.5 115
t-153.5 298h170q7 -112 106 -182.5t248 -70.5q155 0 252 75.5t97 196.5q0 122 -95 190.5t-264 68.5h-190z" />
    <glyph glyph-name="Iicyrillic" unicode="&#x418;" 
d="M152 1443h157v-1123h14l626 1123h165v-1443h-157v1122h-14l-628 -1122h-163v1443z" />
    <glyph glyph-name="Iishortcyrillic" unicode="&#x419;" 
d="M302 1924h144q1 -88 53 -143t134 -55t134 55t53 143h144q0 -139 -91.5 -225.5t-239.5 -86.5t-239.5 86.5t-91.5 225.5zM152 1443h157v-1123h14l626 1123h165v-1443h-157v1122h-14l-628 -1122h-163v1443z" />
    <glyph glyph-name="Kacyrillic" unicode="&#x41a;" 
d="M332 1443v-640h44l585 640h210l-646 -700l699 -743h-224l-624 657h-44v-657h-173v1443h173z" />
    <glyph glyph-name="Elcyrillic" unicode="&#x41b;" 
d="M1123 1443v-1443h-174v1281h-491l-42 -754q-15 -278 -96.5 -407.5t-239.5 -129.5q-43 0 -74 11v166q19 -7 54 -7q90 0 135 89t56 289l47 905h825z" />
    <glyph glyph-name="Emcyrillic" unicode="&#x41c;" 
d="M257 553v-553h-158v1443h195l333 -893h13l332 893h195v-1443h-158v553l10 585h-13l-304 -799h-138l-304 799h-13z" />
    <glyph glyph-name="Encyrillic" unicode="&#x41d;" 
d="M1113 0h-175v656h-610v-656h-175v1443h175v-625h610v625h175v-1443z" />
    <glyph glyph-name="Ocyrillic" unicode="&#x41e;" 
d="M1162 605q0 -298 -141 -466.5t-388 -168.5t-388 168.5t-141 466.5v233q0 298 141 466.5t388 168.5t388 -168.5t141 -466.5v-233zM633 137q165 0 258 122.5t93 346.5v231q0 224 -93 346.5t-258 122.5t-258 -122.5t-93 -346.5v-231q0 -224 93 -346.5t258 -122.5z" />
    <glyph glyph-name="Pecyrillic" unicode="&#x41f;" 
d="M1135 1443v-1443h-177v1280h-650v-1280h-177v1443h1004z" />
    <glyph glyph-name="Ercyrillic" unicode="&#x420;" 
d="M198 1443h480q210 0 336.5 -126.5t126.5 -336.5q0 -209 -127.5 -335.5t-339.5 -126.5h-299v-518h-177v1443zM375 1286v-611h259q158 0 243 79t85 226q0 148 -85 227t-243 79h-259z" />
    <glyph glyph-name="Escyrillic" unicode="&#x421;" 
d="M666 137q144 0 229.5 81t89.5 220h178q0 -209 -138 -338.5t-359 -129.5q-254 0 -395 163.5t-141 459.5v257q0 296 141 459.5t395 163.5q228 0 361 -131t137 -362h-179q-4 146 -92.5 236t-227.5 90q-175 0 -265 -116t-90 -340v-257q0 -224 90.5 -340t265.5 -116z" />
    <glyph glyph-name="Tecyrillic" unicode="&#x422;" 
d="M721 0h-176v1281h-436v162h1048v-162h-436v-1281z" />
    <glyph glyph-name="Ucyrillic" unicode="&#x423;" 
d="M1199 1443l-439 -1041q-98 -230 -193 -321.5t-243 -91.5q-60 0 -86 13v161q36 -9 76 -9q73 0 129 42t106 137l-483 1110h190l379 -914h15l364 914h185z" />
    <glyph glyph-name="Efcyrillic" unicode="&#x424;" 
d="M548 -21v159q-252 5 -395 161t-143 426q0 268 143 423.5t395 162.5v153h170v-153q252 -7 395 -162.5t143 -423.5q0 -270 -143 -426t-395 -161v-159h-170zM180 725q0 -199 99 -315.5t271 -121.5v873q-172 -6 -271 -122t-99 -314zM716 1161v-873q172 5 271 121.5t99 315.5
q0 198 -99 314t-271 122z" />
    <glyph glyph-name="Xacyrillic" unicode="&#x425;" 
d="M71 0l458 725l-455 718h200l362 -580h8l365 580h186l-464 -723l457 -720h-196l-364 573h-7l-367 -573h-183z" />
    <glyph glyph-name="Tsecyrillic" unicode="&#x426;" 
d="M1264 162v-447h-162v285h-997v1443h177v-1281h648v1281h177v-1281h157z" />
    <glyph glyph-name="Checyrillic" unicode="&#x427;" 
d="M1121 1443v-1443h-176v636h-13q-127 -97 -339 -97q-227 0 -361 136.5t-134 359.5v408h177v-396q0 -160 91 -250.5t244 -90.5q212 0 335 109v628h176z" />
    <glyph glyph-name="Shacyrillic" unicode="&#x428;" 
d="M1192 0h-1118v1443h159v-1285h321v1285h158v-1285h321v1285h159v-1443z" />
    <glyph glyph-name="Shchacyrillic" unicode="&#x429;" 
d="M1115 -285v285h-1067v1443h159v-1288h302v1288h159v-1288h303v1288h159v-1285h136v-443h-151z" />
    <glyph glyph-name="Hardsigncyrillic" unicode="&#x42a;" 
d="M498 749v-590h257q137 0 213.5 77.5t76.5 217.5q0 139 -77 217t-213 78h-257zM498 907h292q194 0 313.5 -125.5t119.5 -328.5q0 -202 -118 -327.5t-309 -125.5h-475v1281h-297v162h474v-536z" />
    <glyph glyph-name="Yericyrillic" unicode="&#x42b;" 
d="M269 749v-590h108q149 0 234 79t85 216q0 138 -84.5 216.5t-232.5 78.5h-110zM405 0h-299v1443h165v-536h137q207 0 331.5 -123.5t124.5 -330.5q0 -205 -126 -329t-333 -124zM1160 0h-164v1443h164v-1443z" />
    <glyph glyph-name="Softsigncyrillic" unicode="&#x42c;" 
d="M354 749v-590h298q155 0 241.5 78t86.5 217t-86.5 217t-241.5 78h-298zM696 0h-519v1443h177v-536h338q210 0 338.5 -125t128.5 -329t-127 -328.5t-336 -124.5z" />
    <glyph glyph-name="Ereversedcyrillic" unicode="&#x42d;" 
d="M250 983h-176q23 223 168.5 356.5t366.5 133.5q275 0 423.5 -195t148.5 -556t-148.5 -556t-423.5 -195q-227 0 -369 123.5t-166 340.5h175q26 -143 119 -220.5t241 -77.5q181 0 280.5 132.5t109.5 388.5h-566v157h565q-16 242 -114.5 366.5t-273.5 124.5
q-145 0 -239.5 -85t-120.5 -238z" />
    <glyph glyph-name="IUcyrillic" unicode="&#x42e;" 
d="M792 1311q-282 0 -282 -590t282 -590q281 0 281 590t-281 590zM209 804h141q21 339 130 504t311 165q220 0 334.5 -191.5t114.5 -560.5q0 -368 -114.5 -559.5t-334.5 -191.5q-207 0 -314 163t-127 509h-141v-642h-156v1443h156v-639z" />
    <glyph glyph-name="IAcyrillic" unicode="&#x42f;" 
d="M967 562h-255l-383 -562h-201l401 587q-156 35 -246.5 146.5t-90.5 267.5q0 200 129.5 321t342.5 121h477v-1443h-174v562zM697 716h270v570h-270q-153 0 -239 -75.5t-86 -209.5t86 -209.5t239 -75.5z" />
    <glyph glyph-name="acyrillic" unicode="&#x430;" 
d="M523 -19q-155 0 -250 89.5t-95 237.5q0 144 100 226.5t285 92.5l298 15v98q0 102 -60.5 156.5t-173.5 54.5q-94 0 -157 -38t-84 -108h-167q15 130 129 211.5t281 81.5q191 0 296 -93t105 -263v-743h-162v163h-17q-39 -87 -124 -134t-204 -47zM572 130q123 0 206 72.5
t83 181.5v128l-279 -13q-114 -5 -173 -52.5t-59 -132.5t59.5 -134.5t162.5 -49.5z" />
    <glyph glyph-name="becyrillic" unicode="&#x431;" 
d="M646 132q155 0 242 104.5t87 292.5q0 181 -87 282.5t-242 101.5q-154 0 -241.5 -102.5t-87.5 -281.5q0 -188 87 -292.5t242 -104.5zM288 831h16q51 110 148 171.5t226 61.5q217 0 344.5 -143t127.5 -387q0 -259 -134 -407t-369 -148q-248 0 -376 162.5t-128 478.5v21
q0 422 131 613.5t429 201.5q35 0 145 8q65 5 133.5 18.5t103.5 27.5v-151q-103 -43 -228 -49q-91 -7 -145 -7q-204 -5 -301.5 -114t-122.5 -358z" />
    <glyph glyph-name="vecyrillic" unicode="&#x432;" 
d="M718 0h-485v1085h479q155 0 243.5 -72.5t88.5 -200.5q0 -88 -54.5 -154.5t-138.5 -81.5v-14q108 -12 176 -82t68 -170q0 -146 -99.5 -228t-277.5 -82zM400 133h295q113 0 171 46.5t58 137.5q0 180 -251 180h-273v-364zM400 624h262q103 0 157.5 43t54.5 125
q0 77 -50.5 118.5t-143.5 41.5h-280v-328z" />
    <glyph glyph-name="gecyrillic" unicode="&#x433;" 
d="M1121 1085v-361h-155v214h-445v-793h262v-145h-634v145h202v795h-202v145h972z" />
    <glyph glyph-name="decyrillic" unicode="&#x434;" 
d="M214 0v-285h-158v430h85q106 65 127 348q2 34 17.5 256.5t23.5 335.5h708v-940h169v-430h-158v285h-814zM330 145h519v796h-390q-6 -144 -36 -479q-19 -216 -93 -302v-15z" />
    <glyph glyph-name="iecyrillic" unicode="&#x435;" 
d="M645 959q-136 0 -213 -88t-77 -244h571q0 155 -75 243.5t-206 88.5zM926 280h165q-25 -135 -143.5 -217.5t-289.5 -82.5q-224 0 -347.5 128t-123.5 360v163q0 214 126 344t333 130q211 0 329.5 -132.5t118.5 -368.5v-106h-739v-44q0 -149 82 -238t221 -89q103 0 174 41
t94 112z" />
    <glyph glyph-name="zhecyrillic" unicode="&#x436;" 
d="M177 0h-185l377 566l-361 519h179l304 -468h70v468h144v-468h70l305 468h178l-361 -519l377 -566h-185l-312 495h-72v-495h-144v495h-72z" />
    <glyph glyph-name="zecyrillic" unicode="&#x437;" 
d="M625 -21q-185 0 -302.5 85.5t-135.5 234.5h169q19 -83 89.5 -128t179.5 -45q121 0 194 51.5t73 135.5q0 87 -69.5 133t-200.5 46h-152v136h153q107 0 168.5 44t61.5 121t-61.5 121.5t-168.5 44.5q-104 0 -170.5 -44.5t-81.5 -124.5h-165q19 148 130 231.5t287 83.5
q182 0 289.5 -79.5t107.5 -215.5q0 -82 -56 -147.5t-143 -84.5v-13q112 -22 176 -89t64 -162q0 -151 -120 -243t-316 -92z" />
    <glyph glyph-name="iicyrillic" unicode="&#x438;" 
d="M907 825l-559 -825h-166v1085h163v-822h14l558 822h166v-1085h-162v825h-14z" />
    <glyph glyph-name="iishortcyrillic" unicode="&#x439;" 
d="M302 1574h144q1 -88 53 -142.5t134 -54.5t134 54.5t53 142.5h144q0 -139 -91.5 -225.5t-239.5 -86.5t-239.5 86.5t-91.5 225.5zM907 825l-559 -825h-166v1085h163v-822h14l558 822h166v-1085h-162v825h-14z" />
    <glyph glyph-name="kacyrillic" unicode="&#x43a;" 
d="M386 1085v-461h67l478 461h204l-540 -514l566 -571h-216l-491 488h-68v-488h-161v1085h161z" />
    <glyph glyph-name="elcyrillic" unicode="&#x43b;" 
d="M898 938h-408q-7 -162 -34 -455q-20 -256 -93.5 -374.5t-221.5 -118.5q-41 0 -70 11v159q35 -8 58 -8q76 0 115.5 83t53.5 258q39 544 41 592h727v-1085h-168v938z" />
    <glyph glyph-name="emcyrillic" unicode="&#x43c;" 
d="M256 815l4 -815h-143v1085h186l326 -842h13l326 842h181v-1085h-143l3 810h-14l-303 -777h-116l-306 782h-14z" />
    <glyph glyph-name="encyrillic" unicode="&#x43d;" 
d="M352 0h-168v1085h168v-450h562v450h168v-1085h-168v488h-562v-488z" />
    <glyph glyph-name="ocyrillic" unicode="&#x43e;" 
d="M633 -20q-215 0 -342.5 130t-127.5 350v164q0 220 127.5 350t342.5 130t342.5 -130t127.5 -350v-164q0 -220 -127.5 -350t-342.5 -130zM633 954q-140 0 -221 -92.5t-81 -252.5v-133q0 -160 81 -252.5t221 -92.5t221 92.5t81 252.5v133q0 160 -81 252.5t-221 92.5z" />
    <glyph glyph-name="pecyrillic" unicode="&#x43f;" 
d="M906 0v938h-546v-938h-170v1085h886v-1085h-170z" />
    <glyph glyph-name="ercyrillic" unicode="&#x440;" 
d="M697 1103q188 0 301.5 -125.5t113.5 -334.5v-202q0 -208 -113.5 -333.5t-301.5 -125.5q-118 0 -201 48.5t-119 137.5h-18v-534h-173v1451h167v-166h19q43 90 126 137t199 47zM648 947q-134 0 -213.5 -89t-79.5 -239v-156q0 -151 79.5 -240t213.5 -89t213.5 89.5
t79.5 239.5v156q0 150 -79.5 239t-213.5 89z" />
    <glyph glyph-name="escyrillic" unicode="&#x441;" 
d="M1085 747h-168q-16 95 -88.5 151t-178.5 56q-142 0 -218 -93.5t-76 -268.5v-98q0 -175 76 -268t218 -93q105 0 178 55t89 148h168q-20 -166 -136 -261t-296 -95q-221 0 -344 129.5t-123 362.5v142q0 233 123 362.5t344 129.5q180 0 295.5 -96t136.5 -263z" />
    <glyph glyph-name="tecyrillic" unicode="&#x442;" 
d="M158 1085h950v-147h-390v-938h-170v938h-390v147z" />
    <glyph glyph-name="ucyrillic" unicode="&#x443;" 
d="M329 -386q-51 0 -73 3v149q17 -4 60 -4q77 0 123 39t80 133l19 59l-399 1092h185l304 -908h13l303 908h181l-409 -1125q-71 -200 -153.5 -273t-233.5 -73z" />
    <glyph glyph-name="efcyrillic" unicode="&#x444;" 
d="M553 -359v344q-246 13 -377 156t-131 400t131.5 401t376.5 157v356h162v-356q245 -13 376 -157t131 -401t-130.5 -400t-376.5 -156v-344h-162zM208 541q0 -197 89 -303t258 -112v831q-170 -4 -258.5 -111t-88.5 -305zM713 957v-831q169 6 257.5 112t88.5 303
q0 199 -88 305.5t-258 110.5z" />
    <glyph glyph-name="hacyrillic" unicode="&#x445;" 
d="M637 418h-13l-274 -418h-188l372 543l-375 542h201l270 -411h14l269 411h191l-371 -535l374 -550h-197z" />
    <glyph glyph-name="tsecyrillic" unicode="&#x446;" 
d="M1212 147v-432h-158v285h-887v1085h168v-938h538v938h168v-938h171z" />
    <glyph glyph-name="checyrillic" unicode="&#x447;" 
d="M1046 1085v-1085h-170v487h-15q-118 -107 -304 -107q-182 0 -286 103.5t-104 284.5v317h170v-299q0 -121 64 -185.5t184 -64.5q91 0 170 35t121 94v420h170z" />
    <glyph glyph-name="shacyrillic" unicode="&#x448;" 
d="M1192 0h-1118v1085h154v-943h328v943h154v-943h328v943h154v-1085z" />
    <glyph glyph-name="shchacyrillic" unicode="&#x449;" 
d="M1162 -285v285h-1094v1085h155v-940h316v940h154v-940h316v940h155v-940h147v-430h-149z" />
    <glyph glyph-name="hardsigncyrillic" unicode="&#x44a;" 
d="M531 145h224q110 0 174.5 60.5t64.5 160.5q0 101 -65 161.5t-174 60.5h-224v-443zM531 732h236q183 0 289.5 -99t106.5 -267t-106.5 -267t-289.5 -99h-404v940h-289v145h457v-353z" />
    <glyph glyph-name="yericyrillic" unicode="&#x44b;" 
d="M480 0h-359v1085h159v-352h200q170 0 270 -99t100 -268t-100 -267.5t-270 -98.5zM280 145h196q98 0 156.5 60t58.5 161t-58.5 161.5t-156.5 60.5h-196v-443zM1145 0h-162v1085h162v-1085z" />
    <glyph glyph-name="softsigncyrillic" unicode="&#x44c;" 
d="M684 0h-446v1085h170v-354h276q206 0 314.5 -95t108.5 -270q0 -176 -108.5 -271t-314.5 -95zM408 145h265q132 0 199 57t67 164t-67 164.5t-199 57.5h-265v-443z" />
    <glyph glyph-name="ereversedcyrillic" unicode="&#x44d;" 
d="M321 749h-167q24 159 145.5 257.5t314.5 98.5q231 0 363.5 -149t132.5 -409q0 -266 -132.5 -417t-363.5 -151q-195 0 -315 94.5t-144 254.5h166q23 -91 98.5 -143t192.5 -52q145 0 232 95.5t95 262.5h-500v136h498q-12 152 -99 238.5t-226 86.5q-116 0 -192 -56t-99 -147
z" />
    <glyph glyph-name="iucyrillic" unicode="&#x44e;" 
d="M821 131q122 0 189 107.5t67 303.5q0 197 -67 304t-189 107t-189 -107t-67 -304q0 -196 67 -303.5t189 -107.5zM224 631h186q18 221 126.5 347.5t285.5 126.5q198 0 307.5 -148t109.5 -415t-109.5 -414.5t-307.5 -147.5q-184 0 -293.5 135t-121.5 371h-183v-486h-154
v1085h154v-454z" />
    <glyph glyph-name="iacyrillic" unicode="&#x44f;" 
d="M999 0h-168v393h-195l-282 -393h-198l306 422q-122 27 -192.5 109.5t-70.5 199.5q0 164 108 259t291 95h401v-1085zM831 941h-225q-109 0 -173.5 -56.5t-64.5 -152.5q0 -90 65 -145.5t173 -55.5h225v410z" />
    <glyph glyph-name="uni0450" unicode="&#x450;" 
d="M645 959q-136 0 -213 -88t-77 -244h571q0 155 -75 243.5t-206 88.5zM926 280h165q-25 -135 -143.5 -217.5t-289.5 -82.5q-224 0 -347.5 128t-123.5 360v163q0 214 126 344t333 130q211 0 329.5 -132.5t118.5 -368.5v-106h-739v-44q0 -149 82 -238t221 -89q103 0 174 41
t94 112zM761 1296h-181l-265 339h207z" />
    <glyph glyph-name="iocyrillic" unicode="&#x451;" 
d="M645 959q-136 0 -213 -88t-77 -244h571q0 155 -75 243.5t-206 88.5zM926 280h165q-25 -135 -143.5 -217.5t-289.5 -82.5q-224 0 -347.5 128t-123.5 360v163q0 214 126 344t333 130q211 0 329.5 -132.5t118.5 -368.5v-106h-739v-44q0 -149 82 -238t221 -89q103 0 174 41
t94 112zM439 1320q-47 0 -82.5 36t-35.5 85t35.5 85.5t82.5 36.5t82 -36.5t35 -85.5t-35 -85t-82 -36zM842 1320q-47 0 -82 36t-35 85t35 85.5t82 36.5t82 -36.5t35 -85.5t-35 -85t-82 -36z" />
    <glyph glyph-name="djecyrillic" unicode="&#x452;" 
d="M352 893h14q43 101 133.5 156t214.5 55q177 0 270.5 -103.5t93.5 -297.5v-764q0 -157 -80.5 -232.5t-247.5 -75.5q-38 0 -42 1v144l29 -1q92 0 131.5 38.5t39.5 127.5v719q0 146 -61.5 217t-188.5 71q-134 0 -217 -85.5t-83 -224.5v-638h-170v1272h-163v112h163v127h164
v-127h252v-112h-252v-379z" />
    <glyph glyph-name="gjecyrillic" unicode="&#x453;" 
d="M1027 1635l-265 -339h-181l239 339h207zM1121 1085v-361h-155v214h-445v-793h262v-145h-634v145h202v795h-202v145h972z" />
    <glyph glyph-name="ecyrillic" unicode="&#x454;" 
d="M650 -21q-231 0 -363.5 151t-132.5 417q0 260 132.5 409t363.5 149q193 0 315 -99t145 -257h-166q-23 91 -99 147t-193 56q-138 0 -225 -86.5t-100 -238.5h498v-136h-500q8 -167 95.5 -262.5t231.5 -95.5q117 0 192.5 52t98.5 143h166q-24 -160 -144 -254.5t-315 -94.5z
" />
    <glyph glyph-name="dzecyrillic" unicode="&#x455;" 
d="M238 792q0 141 110 227.5t289 86.5q169 0 276.5 -79t122.5 -215h-164q-15 71 -79 112t-159 41q-103 0 -165 -44.5t-62 -118.5q0 -62 45 -100t147 -60l153 -35q158 -36 232.5 -107.5t74.5 -189.5q0 -150 -115.5 -240t-308.5 -90q-184 0 -299 80.5t-129 220.5h173
q19 -75 87.5 -116.5t173.5 -41.5q111 0 176.5 46.5t65.5 124.5q0 65 -44 102.5t-147 60.5l-161 37q-293 67 -293 298z" />
    <glyph glyph-name="icyrillic" unicode="&#x456;" 
d="M652 1351q-60 0 -100.5 40t-40.5 100q0 59 40.5 99t100.5 40t100.5 -40t40.5 -99q0 -60 -40.5 -100t-100.5 -40zM1107 0h-899v141h372v803h-369v141h537v-944h359v-141z" />
    <glyph glyph-name="yicyrillic" unicode="&#x457;" 
d="M1107 0h-899v141h372v803h-369v141h537v-944h359v-141zM453 1313q-47 0 -82.5 36t-35.5 85t35.5 85t82.5 36t82 -36t35 -85t-35 -85t-82 -36zM856 1313q-47 0 -82 36t-35 85t35 85t82 36t82 -36t35 -85t-35 -85t-82 -36z" />
    <glyph glyph-name="jecyrillic" unicode="&#x458;" 
d="M874 1085v-1079q0 -180 -99 -257.5t-326 -77.5q-167 0 -263 8v152q83 -8 258 -8q151 0 207 43.5t56 159.5v918h-496v141h663zM776 1351q-60 0 -100.5 40t-40.5 100q0 59 40.5 99t100.5 40t100.5 -40t40.5 -99q0 -60 -40.5 -100t-100.5 -40z" />
    <glyph glyph-name="ljecyrillic" unicode="&#x459;" 
d="M347 945l-25 -471q-14 -258 -74.5 -371t-185.5 -113q-26 0 -62 10v159q24 -7 45 -7q58 0 88.5 79.5t39.5 252.5l30 601h564v-354h165q153 0 242.5 -98t89.5 -267t-89.5 -267.5t-242.5 -98.5h-324v945h-261zM765 145h159q84 0 134 59.5t50 161.5t-50 162t-134 60h-159
v-443z" />
    <glyph glyph-name="njecyrillic" unicode="&#x45a;" 
d="M932 0h-333v510h-361v-510h-156v1085h156v-433h361v433h156v-430h177q152 0 241.5 -88.5t89.5 -239.5q0 -150 -89.5 -238.5t-241.5 -88.5zM754 143h173q82 0 130.5 50t48.5 134q0 85 -48.5 134.5t-130.5 49.5h-173v-368z" />
    <glyph glyph-name="tshecyrillic" unicode="&#x45b;" 
d="M352 893h14q43 101 133.5 156t214.5 55q177 0 270.5 -103.5t93.5 -297.5v-703h-170v660q0 146 -61.5 217t-188.5 71q-134 0 -217 -85.5t-83 -224.5v-638h-170v1272h-163v112h163v127h164v-127h252v-112h-252v-379z" />
    <glyph glyph-name="kjecyrillic" unicode="&#x45c;" 
d="M704 1296h-181l239 339h207zM386 1085v-461h67l478 461h204l-540 -514l566 -571h-216l-491 488h-68v-488h-161v1085h161z" />
    <glyph glyph-name="uni045D" unicode="&#x45d;" 
d="M726 1296h-181l-265 339h207zM907 825l-559 -825h-166v1085h163v-822h14l558 822h166v-1085h-162v825h-14z" />
    <glyph glyph-name="ushortcyrillic" unicode="&#x45e;" 
d="M329 -386q-51 0 -73 3v149q17 -4 60 -4q77 0 123 39t80 133l19 59l-399 1092h185l304 -908h13l303 908h181l-409 -1125q-71 -200 -153.5 -273t-233.5 -73zM302 1575h144q1 -88 53 -143t134 -55t134 55t53 143h144q0 -139 -91.5 -225.5t-239.5 -86.5t-239.5 86.5
t-91.5 225.5z" />
    <glyph glyph-name="dzhecyrillic" unicode="&#x45f;" 
d="M1082 1085v-1085h-370v-285h-158v285h-370v1085h169v-940h560v940h169z" />
    <glyph glyph-name="uni0462" unicode="&#x462;" 
d="M484 159h223q155 0 241.5 71.5t86.5 198.5q0 128 -86.5 199.5t-241.5 71.5h-223v-541zM484 858h263q210 0 338.5 -118t128.5 -311t-127.5 -311t-335.5 -118h-444v1084h-307v154h307v205h177v-205h496v-154h-496v-226z" />
    <glyph glyph-name="uni0463" unicode="&#x463;" 
d="M471 145h235q132 0 199 56t67 161t-67 161t-199 56h-235v-434zM471 722h246q206 0 314.5 -93.5t108.5 -267.5t-108.5 -267.5t-314.5 -93.5h-416v955h-268v130h268v426h170v-426h466v-130h-466v-233z" />
    <glyph glyph-name="uni0472" unicode="&#x472;" 
d="M282 609v-2q0 -225 93 -347.5t258 -122.5t258 122.5t93 347.5v59q-75 -73 -177 -73q-62 0 -114.5 15.5t-82.5 33.5t-74.5 33.5t-93.5 15.5q-100 0 -160 -82zM984 832v6q0 224 -93 346.5t-258 122.5t-258 -122.5t-93 -346.5v-63q76 73 177 73q62 0 114.5 -15.5t82.5 -34
t74.5 -34t93.5 -15.5q101 0 160 83zM104 606v233q0 298 141 466.5t388 168.5t388 -168.5t141 -466.5v-233q0 -298 -141 -466.5t-388 -168.5t-388 168.5t-141 466.5z" />
    <glyph glyph-name="uni0473" unicode="&#x473;" 
d="M935 476v17q-60 -62 -146 -62q-55 0 -101 14t-73 30.5t-65.5 30.5t-80.5 14q-83 0 -138 -68q7 -150 87.5 -235.5t214.5 -85.5q140 0 221 92.5t81 252.5zM331 609v-10q62 62 145 62q55 0 101.5 -13.5t73.5 -30.5t66 -30.5t81 -13.5q82 0 136 67q-8 146 -88 230t-213 84
q-140 0 -221 -92.5t-81 -252.5zM163 460v164q0 220 127.5 350t342.5 130t342.5 -130t127.5 -350v-164q0 -220 -127.5 -350t-342.5 -130t-342.5 130t-127.5 350z" />
    <glyph glyph-name="uni0474" unicode="&#x474;" 
d="M830 1177q37 159 97.5 228t180.5 69q50 0 92 -13.5t55 -24.5l-49 -144q-36 18 -83 18q-50 0 -77.5 -28.5t-45.5 -93.5l-328 -1188h-182l-416 1443h181l326 -1217h4z" />
    <glyph glyph-name="uni0475" unicode="&#x475;" 
d="M838 828q22 76 43 123.5t52.5 85.5t74.5 55t104 17q50 0 92.5 -13.5t55.5 -23.5l-52 -148q-38 19 -84 19q-47 0 -71.5 -26.5t-45.5 -88.5l-290 -828h-187l-397 1085h182l303 -903h13z" />
    <glyph glyph-name="uni048A" unicode="&#x48a;" 
d="M795 1924h141q0 -139 -90 -225.5t-236 -86.5t-236 86.5t-90 225.5h141q1 -88 52.5 -143t132.5 -55q82 0 133.5 55t51.5 143zM1089 166h169v-48l-138 -404h-150l104 286h-139v1122h-14l-625 -1122h-161v1443h155v-1123h14l622 1123h163v-1277z" />
    <glyph glyph-name="uni048B" unicode="&#x48b;" 
d="M819 1574h144q0 -139 -91.5 -225.5t-239.5 -86.5t-239.5 86.5t-91.5 225.5h144q1 -88 53 -142.5t134 -54.5t134 54.5t53 142.5zM1082 157h157v-48l-138 -395h-154l106 286h-133v825h-14l-559 -825h-166v1085h163v-822h14l558 822h166v-928z" />
    <glyph glyph-name="uni048C" unicode="&#x48c;" 
d="M484 159h223q155 0 241.5 71.5t86.5 198.5q0 128 -86.5 199.5t-241.5 71.5h-223v-541zM484 858h263q210 0 338.5 -118t128.5 -311t-127.5 -311t-335.5 -118h-444v1084h-307v154h307v205h177v-205h496v-154h-496v-226z" />
    <glyph glyph-name="uni048D" unicode="&#x48d;" 
d="M471 145h235q132 0 199 56t67 161t-67 161t-199 56h-235v-434zM471 722h246q206 0 314.5 -93.5t108.5 -267.5t-108.5 -267.5t-314.5 -93.5h-416v955h-268v130h268v426h170v-426h466v-130h-466v-233z" />
    <glyph glyph-name="uni048E" unicode="&#x48e;" 
d="M375 675h259q48 0 84 7l-136 208l103 71l152 -237q125 77 125 256q0 148 -85 227t-243 79h-259v-611zM198 1443h480q210 0 336.5 -126.5t126.5 -336.5q0 -131 -52 -232t-147 -160l147 -228l-121 -89l-167 260q-65 -13 -127 -13h-299v-518h-177v1443z" />
    <glyph glyph-name="uni048F" unicode="&#x48f;" 
d="M359 619v-156q0 -151 79.5 -240t213.5 -89q65 0 120 23l-3 9l-167 257l103 71l168 -262q72 88 72 231v156q0 150 -79.5 239t-213.5 89t-213.5 -89t-79.5 -239zM1116 643v-202q0 -227 -133 -354l130 -202l-121 -89l-136 212q-72 -26 -155 -26q-118 0 -201 48.5t-118 137.5
h-19v-534h-173v1451h168v-166h18q43 90 126 137t199 47q188 0 301.5 -125.5t113.5 -334.5z" />
    <glyph glyph-name="Geupturncyrillic" unicode="&#x490;" 
d="M1070 1719h162v-700h-162v261h-561v-1118h273v-162h-700v162h248v1119h-248v162h988v276z" />
    <glyph glyph-name="geupturncyrillic" unicode="&#x491;" 
d="M966 1361h155v-637h-155v214h-445v-793h262v-145h-634v145h202v795h-202v145h817v276z" />
    <glyph glyph-name="uni0492" unicode="&#x492;" 
d="M1229 1443v-424h-162v267h-529v-473h311v-152h-311v-503h320v-158h-775v158h279v503h-295v152h295v473h-279v157h1146z" />
    <glyph glyph-name="uni0493" unicode="&#x493;" 
d="M1121 1085v-361h-155v214h-445v-357h336v-130h-336v-306h262v-145h-634v145h202v306h-211v130h211v359h-202v145h972z" />
    <glyph glyph-name="uni0494" unicode="&#x494;" 
d="M721 -14q-74 0 -110 15v161q30 -12 97 -12q100 0 158.5 75.5t58.5 205.5q0 134 -75 213t-202 79q-97 0 -176 -39t-125 -100v-584h-176v1443h784v-161h-608v-502h11q114 112 306 112q203 0 320.5 -124.5t117.5 -328.5q0 -205 -104 -329t-277 -124z" />
    <glyph glyph-name="uni0495" unicode="&#x495;" 
d="M404 499h8q45 46 121 80t180 34q192 0 300.5 -125t108.5 -333q0 -217 -109 -350.5t-286 -133.5q-73 0 -110 11v156q33 -10 96 -10q106 0 172.5 89.5t66.5 229.5q0 137 -67.5 220t-186.5 83q-184 0 -294 -135v-315h-170v1085h757v-147h-587v-439z" />
    <glyph glyph-name="uni0496" unicode="&#x496;" 
d="M1117 159h149v-445h-144v286h-91l-311 662h-55v-662h-144v662h-54l-312 -662h-161l353 738l-320 705h161l278 -637h55v637h144v-637h56l278 637h159l-319 -703z" />
    <glyph glyph-name="uni0497" unicode="&#x497;" 
d="M1131 147h135v-432h-142v285h-75l-302 495h-70v-495h-137v495h-69l-303 -495h-175l360 566l-344 519h169l294 -468h68v468h137v-468h68l295 468h169l-345 -519z" />
    <glyph glyph-name="uni0498" unicode="&#x498;" 
d="M818 758v-13q155 -14 247 -109t92 -242q0 -163 -123 -279t-317 -140v-261h-165v260q-195 20 -318.5 131.5t-130.5 277.5h170q7 -112 106 -182.5t248 -70.5q155 0 252 75.5t97 196.5q0 122 -95 190.5t-264 68.5h-190v156h185q137 0 222 70t85 185q0 112 -82 178.5
t-219 66.5q-136 0 -222 -68t-95 -181h-169q11 185 144.5 295t347.5 110q205 0 336.5 -107.5t131.5 -274.5q0 -124 -75 -215t-199 -118z" />
    <glyph glyph-name="uni0499" unicode="&#x499;" 
d="M813 578v-13q112 -22 176 -89t64 -162q0 -133 -95.5 -221.5t-256.5 -108.5v-269h-155v268q-156 16 -253.5 99t-113.5 217h169q19 -83 89.5 -128t179.5 -45q121 0 194 51.5t73 135.5q0 87 -69.5 133t-200.5 46h-152v136h153q107 0 168.5 44t61.5 121t-61.5 121.5
t-168.5 44.5q-104 0 -170.5 -44.5t-81.5 -124.5h-165q19 148 130 231.5t287 83.5q182 0 289.5 -79.5t107.5 -215.5q0 -82 -56 -147.5t-143 -84.5z" />
    <glyph glyph-name="uni049A" unicode="&#x49a;" 
d="M1064 166h185v-452h-157v286h-95l-622 657h-45v-657h-171v1443h171v-640h44l585 640h208l-644 -700z" />
    <glyph glyph-name="uni049B" unicode="&#x49b;" 
d="M1015 147h177v-432h-156v285h-91l-491 488h-68v-488h-161v1085h161v-461h67l478 461h204l-540 -514z" />
    <glyph glyph-name="uni049C" unicode="&#x49c;" 
d="M155 0v1443h168v-1443h-168zM805 749l421 -749h-198l-375 658h-13v-350h-136v852h136v-348h13l338 631h188z" />
    <glyph glyph-name="uni049D" unicode="&#x49d;" 
d="M176 0v1085h161v-1085h-161zM781 571l420 -571h-205l-357 488h-12v-288h-127v720h127v-296h11l345 461h192z" />
    <glyph glyph-name="uni049E" unicode="&#x49e;" 
d="M550 743l682 -743h-224l-607 657h-45v-657h-172v1181h-172v154h172v108h172v-108h253v-154h-253v-378h44l570 640h209z" />
    <glyph glyph-name="uni049F" unicode="&#x49f;" 
d="M1139 0h-202l-371 539l-149 -144v-395h-169v1272h-164v112h164v127h169v-127h247v-112h-247v-674h13l473 487h206l-421 -429z" />
    <glyph glyph-name="uni04A0" unicode="&#x4a0;" 
d="M569 0h-163v1281h-393v162h556v-640h43l412 640h183l-452 -700l504 -743h-196l-451 657h-43v-657z" />
    <glyph glyph-name="uni04A1" unicode="&#x4a1;" 
d="M771 571l487 -571h-210l-419 488h-31v-488h-156v934h-434v151h590v-461h30l406 461h198z" />
    <glyph glyph-name="uni04A2" unicode="&#x4a2;" 
d="M1103 166h160v-452h-166v286h-169v656h-606v-656h-175v1443h175v-625h606v625h175v-1277z" />
    <glyph glyph-name="uni04A3" unicode="&#x4a3;" 
d="M1068 147h166v-432h-156v285h-178v488h-562v-488h-168v1085h168v-450h562v450h168v-938z" />
    <glyph glyph-name="uni04A4" unicode="&#x4a4;" 
d="M1262 1443v-162h-438v-1281h-169v656h-424v-656h-169v1443h169v-625h424v625h607z" />
    <glyph glyph-name="uni04A5" unicode="&#x4a5;" 
d="M1243 1085v-151h-406v-934h-168v488h-452v-488h-168v1085h168v-450h452v450h574z" />
    <glyph glyph-name="uni04A6" unicode="&#x4a6;" 
d="M663 795h9q83 94 219 94q157 0 241 -121t84 -333q0 -206 -83.5 -327.5t-223.5 -121.5q-58 0 -84 15v157q22 -12 74 -12q75 0 118.5 77t43.5 208q0 145 -46.5 220.5t-135.5 75.5q-131 0 -216 -127v-600h-154v1283h-315v-1283h-155v1443h624v-648z" />
    <glyph glyph-name="uni04A7" unicode="&#x4a7;" 
d="M703 522h6q26 34 79.5 62.5t125.5 28.5q153 0 237.5 -124.5t84.5 -333.5q0 -220 -80 -352t-214 -132q-54 0 -82 11v156q25 -10 72 -10q69 0 112.5 88.5t43.5 230.5t-49 225t-139 83q-130 0 -197 -112v-343h-155v938h-319v-938h-155v1085h629v-563z" />
    <glyph glyph-name="uni04A8" unicode="&#x4a8;" 
d="M1060 -33q-127 0 -240 73h-7q-126 -72 -247 -72q-259 0 -397.5 186t-138.5 518v117q0 143 28.5 261.5t85.5 210t149 145t211 58.5v-158q-313 -21 -313 -523v-109q0 -257 95.5 -403.5t279.5 -146.5q68 0 130 18v6q-215 175 -215 548v76q0 229 96 369t268 140t267.5 -140
t95.5 -369v-76q0 -184 -69 -334.5t-184 -228.5v-7q39 -10 108 -10q45 0 94 18.5t87 49.5l52 -130q-103 -87 -236 -87zM642 693q0 -159 47.5 -290.5t137.5 -203.5q103 64 162 196.5t59 297.5v75q0 165 -50.5 260t-152.5 95t-152.5 -95t-50.5 -260v-75z" />
    <glyph glyph-name="uni04A9" unicode="&#x4a9;" 
d="M1028 -20q-119 0 -218 52h-8q-109 -52 -241 -52q-230 0 -363 140t-133 384v103q0 140 42 247t134 175.5t227 78.5v-143q-125 -13 -186 -108.5t-61 -255.5v-91q0 -182 92 -285t250 -103q62 0 103 8v7q-82 66 -125 167t-43 225v65q0 180 94.5 283.5t244.5 103.5
q151 0 246.5 -103t95.5 -284v-65q0 -124 -57 -229t-160 -172v-5q15 -2 68 -2q113 1 193 53l31 -133q-94 -61 -226 -61zM654 529q0 -119 40 -213.5t116 -140.5q98 49 155.5 142.5t57.5 211.5v55q0 120 -51.5 186.5t-133.5 66.5q-83 0 -133.5 -66.5t-50.5 -186.5v-55z" />
    <glyph glyph-name="uni04AA" unicode="&#x4aa;" 
d="M310 850v-257q0 -224 90.5 -340t265.5 -116q144 0 229.5 81t89.5 220h178q0 -194 -119.5 -320.5t-316.5 -144.5l-42 -105q96 -1 147 -43.5t51 -121.5q0 -87 -65 -138t-173 -51q-67 0 -132 17v110q46 -14 119 -14q114 0 114 72q0 35 -33.5 50t-110.5 15h-57v86l50 124
q-222 23 -343.5 184t-121.5 435v257q0 296 141 459.5t395 163.5q228 0 361 -131t137 -362h-179q-4 146 -92.5 236t-227.5 90q-175 0 -265 -116t-90 -340z" />
    <glyph glyph-name="uni04AB" unicode="&#x4ab;" 
d="M356 592v-98q0 -175 76 -268t218 -93q105 0 178 55t89 148h168q-19 -154 -121.5 -248t-263.5 -106l-45 -114q96 -1 147 -43.5t51 -121.5q0 -87 -65 -138t-174 -51q-66 0 -131 17v110q46 -14 119 -14q114 0 114 72q0 35 -33.5 50t-110.5 15h-57v86l55 135
q-184 24 -284 150.5t-100 336.5v142q0 233 123 362.5t344 129.5q180 0 295.5 -96t136.5 -263h-168q-16 95 -88.5 151t-178.5 56q-142 0 -218 -93.5t-76 -268.5z" />
    <glyph glyph-name="uni04AC" unicode="&#x4ac;" 
d="M1157 1281h-436v-1113h168v-454h-166v286h-178v1281h-436v162h1048v-162z" />
    <glyph glyph-name="uni04AD" unicode="&#x4ad;" 
d="M1108 938h-390v-791h178v-432h-156v285h-192v938h-390v147h950v-147z" />
    <glyph glyph-name="uni04AE" unicode="&#x4ae;" 
d="M721 0h-176v595l-481 848h197l365 -660h14l365 660h197l-481 -848v-595z" />
    <glyph glyph-name="uni04AF" unicode="&#x4af;" 
d="M942 1085h181l-402 -1085v-368h-176v368l-402 1085h182l303 -901h13z" />
    <glyph glyph-name="uni04B0" unicode="&#x4b0;" 
d="M1202 1443l-479 -845h355v-154h-357v-444h-176v444h-357v154h355l-479 845h197l365 -660h14l365 660h197z" />
    <glyph glyph-name="uni04B1" unicode="&#x4b1;" 
d="M1123 1085l-402 -1085h277v-130h-277v-238h-176v238h-277v130h277l-402 1085h182l303 -901h13l301 901h181z" />
    <glyph glyph-name="uni04B2" unicode="&#x4b2;" 
d="M1081 166h160v-452h-158v286h-92l-363 573h-7l-367 -573h-181l456 725l-453 718h199l361 -580h7l365 580h184l-462 -723z" />
    <glyph glyph-name="uni04B3" unicode="&#x4b3;" 
d="M1007 147h176v-432h-156v285h-117l-273 418h-13l-274 -418h-188l372 543l-375 542h201l270 -411h14l269 411h191l-371 -535z" />
    <glyph glyph-name="uni04B4" unicode="&#x4b4;" 
d="M1114 162h127v-447h-163v285h-778v1281h-292v162h717v-162h-248v-1119h460v1281h177v-1281z" />
    <glyph glyph-name="uni04B5" unicode="&#x4b5;" 
d="M1073 147h139v-432h-158v285h-771v938h-266v147h694v-147h-260v-791h454v938h168v-938z" />
    <glyph glyph-name="uni04B6" unicode="&#x4b6;" 
d="M1069 166h152v-452h-158v286h-166v636h-13q-127 -97 -321 -97q-214 0 -339.5 136.5t-125.5 359.5v408h174v-396q0 -160 83.5 -250.5t224.5 -90.5q194 0 317 109v628h172v-1277z" />
    <glyph glyph-name="uni04B7" unicode="&#x4b7;" 
d="M1046 147h167v-432h-152v285h-185v487h-15q-118 -107 -304 -107q-182 0 -286 103.5t-104 284.5v317h170v-299q0 -121 64 -185.5t184 -64.5q91 0 170 35t121 94v420h170v-938z" />
    <glyph glyph-name="uni04B8" unicode="&#x4b8;" 
d="M946 1443h175v-1443h-175v638h-13q-98 -74 -249 -92v-317h-136v313q-208 14 -329 148t-121 345v408h176v-403q0 -142 73 -228.5t201 -103.5v354h136v-355q161 16 262 106v630z" />
    <glyph glyph-name="uni04B9" unicode="&#x4b9;" 
d="M880 1085h167v-1085h-167v488h-15q-80 -71 -197 -95v-251h-127v241q-179 5 -279 108t-100 282v312h167v-303q0 -110 54 -173t158 -73v313h127v-307q145 27 212 119v424z" />
    <glyph glyph-name="uni04BA" unicode="&#x4ba;" 
d="M145 0v1443h176v-636h13q127 97 339 97q227 0 361 -136.5t134 -359.5v-408h-177v396q0 160 -91 250.5t-244 90.5q-212 0 -335 -109v-628h-176z" />
    <glyph glyph-name="uni04BB" unicode="&#x4bb;" 
d="M188 0v1511h164v-618h14q43 101 133.5 156t214.5 55q177 0 270.5 -103.5t93.5 -297.5v-703h-170v660q0 146 -61.5 217t-188.5 71q-134 0 -217 -85.5t-83 -224.5v-638h-170z" />
    <glyph glyph-name="uni04BC" unicode="&#x4bc;" 
d="M453 873v-3h634v21q0 202 -82.5 309t-230.5 107q-151 0 -232.5 -113.5t-88.5 -320.5zM451 709v-73q0 -245 86 -371.5t244 -126.5q122 0 199 82t103 230h168q-26 -214 -149.5 -346.5t-318.5 -132.5q-242 0 -370.5 180.5t-128.5 504.5v54q-142 1 -208.5 72.5t-66.5 196.5
q0 36 7.5 71t14.5 52l7 16h145q-23 -51 -23 -123q0 -126 128 -126q19 291 140.5 447.5t345.5 156.5q230 0 354 -163t124 -438l-2 -163h-799z" />
    <glyph glyph-name="uni04BD" unicode="&#x4bd;" 
d="M454 627h551q0 155 -72.5 243.5t-199.5 88.5q-131 0 -205 -88t-74 -244zM1170 498h-716v-44q0 -149 79.5 -238t213.5 -89q99 0 167 41t91 112h161q-24 -135 -139 -217.5t-280 -82.5q-217 0 -337 128t-120 360v31h-8q-135 0 -204.5 68t-69.5 187q0 31 7 63t13 48t10 22
h136q-24 -54 -24 -126q0 -62 35.5 -97t100.5 -35h4v2q0 214 122 344t323 130q205 0 320 -132.5t115 -368.5v-106z" />
    <glyph glyph-name="uni04BE" unicode="&#x4be;" 
d="M453 873v-3h634v21q0 202 -82.5 309t-230.5 107q-151 0 -232.5 -113.5t-88.5 -320.5zM451 709v-73q0 -245 86 -371.5t244 -126.5q122 0 199 82t103 230h168q-22 -189 -123 -316.5t-262 -155.5v-264h-158v262q-206 27 -315 205t-109 475v54q-142 1 -208.5 72.5
t-66.5 196.5q0 36 7.5 71t14.5 52l7 16h145q-23 -51 -23 -123q0 -126 128 -126q19 291 140.5 447.5t345.5 156.5q230 0 354 -163t124 -438l-2 -163h-799z" />
    <glyph glyph-name="uni04BF" unicode="&#x4bf;" 
d="M454 627h551q0 155 -72.5 243.5t-199.5 88.5q-131 0 -205 -88t-74 -244zM1170 498h-716v-44q0 -149 79.5 -238t213.5 -89q99 0 167 41t91 112h161q-21 -117 -112.5 -196t-226.5 -98v-271h-154v269q-183 22 -283 147.5t-100 336.5v31h-8q-135 0 -204.5 68t-69.5 187
q0 31 7 63t13 48t10 22h136q-24 -54 -24 -126q0 -62 35.5 -97t100.5 -35h4v2q0 214 122 344t323 130q205 0 320 -132.5t115 -368.5v-106z" />
    <glyph glyph-name="uni04C0" unicode="&#x4c0;" 
d="M1013 0h-760v157h292v1129h-292v157h760v-157h-292v-1129h292v-157z" />
    <glyph glyph-name="uni04C1" unicode="&#x4c1;" 
d="M166 0h-172l377 738l-342 705h171l297 -637h59v637h152v-637h59l297 637h169l-340 -703l379 -740h-173l-332 662h-59v-662h-152v662h-58zM302 1924h144q1 -88 53 -143t134 -55t134 55t53 143h144q0 -139 -91.5 -225.5t-239.5 -86.5t-239.5 86.5t-91.5 225.5z" />
    <glyph glyph-name="uni04C2" unicode="&#x4c2;" 
d="M300 1570h144q1 -87 53 -142t134 -55t134 55t53 142h144q0 -139 -91.5 -225t-239.5 -86t-239.5 86t-91.5 225zM177 0h-185l377 566l-361 519h179l304 -468h70v468h144v-468h70l305 468h178l-361 -519l377 -566h-185l-312 495h-72v-495h-144v495h-72z" />
    <glyph glyph-name="uni04C3" unicode="&#x4c3;" 
d="M1173 1443l-605 -656q249 -39 392.5 -193.5t143.5 -399.5q0 -156 -60.5 -281t-174 -197t-259.5 -72q-53 0 -83 8v152q29 -4 74 -4q149 0 239 109t90 282q0 217 -143.5 342t-387.5 125h-67v-658h-173v1443h173v-631h47l579 631h215z" />
    <glyph glyph-name="uni04C4" unicode="&#x4c4;" 
d="M1109 1085l-489 -490q192 -35 306.5 -162t114.5 -320q0 -223 -115.5 -353t-322.5 -130q-58 0 -96 7v144q30 -6 85 -6q135 0 211.5 87.5t76.5 248.5q0 173 -112.5 272t-312.5 99h-69v-482h-161v1085h161v-466h66l455 466h202z" />
    <glyph glyph-name="uni04C5" unicode="&#x4c5;" 
d="M1104 166h157v-48l-139 -404h-154l105 286h-139v166h1v1115h-487l-41 -754q-15 -278 -94.5 -407.5t-235.5 -129.5q-41 0 -71 11v166q18 -7 53 -7q89 0 133.5 89t55.5 289l46 905h810v-1277z" />
    <glyph glyph-name="uni04C6" unicode="&#x4c6;" 
d="M1058 157h159v-48l-138 -395h-154l105 286h-141v938h-407q-13 -228 -34 -455q-20 -256 -93.5 -374.5t-221.5 -118.5q-41 0 -70 11v159q35 -8 58 -8q76 0 115.5 83t53.5 258q39 544 41 592h727v-928z" />
    <glyph glyph-name="uni04C7" unicode="&#x4c7;" 
d="M938 1443h175v-1443q0 -90 -24 -156.5t-67 -104.5t-96 -56t-116 -18q-69 0 -117 6v155q27 -3 94 -3q151 0 151 177v656h-610v-656h-175v1443h175v-625h610v625z" />
    <glyph glyph-name="uni04C8" unicode="&#x4c8;" 
d="M914 1085h168v-1094q0 -162 -77.5 -238t-243.5 -76q-27 0 -134 10v146q80 -8 118 -8q96 0 132.5 38t36.5 137v488h-562v-488h-168v1085h168v-450h562v450z" />
    <glyph glyph-name="uni04C9" unicode="&#x4c9;" 
d="M1114 166h146v-48l-137 -404h-150l103 286h-138v656h-609v-656h-176v1443h176v-625h609v625h176v-1277z" />
    <glyph glyph-name="uni04CA" unicode="&#x4ca;" 
d="M1086 157h157v-48l-138 -395h-154l105 286h-138v488h-562v-488h-168v1085h168v-450h562v450h168v-928z" />
    <glyph glyph-name="uni04CB" unicode="&#x4cb;" 
d="M945 1443h176v-1443h-175v-286h-159v452h158v470h-13q-127 -97 -339 -97q-227 0 -361 136.5t-134 359.5v408h177v-396q0 -160 91 -250.5t244 -90.5q212 0 335 109v628z" />
    <glyph glyph-name="uni04CC" unicode="&#x4cc;" 
d="M876 1085h170v-1085h-188v-285h-154v430h172v346h-15q-120 -107 -304 -107q-182 0 -286 103.5t-104 284.5v313h170v-295q0 -121 64 -185.5t184 -64.5q90 0 169.5 35.5t121.5 93.5v416z" />
    <glyph glyph-name="uni04CD" unicode="&#x4cd;" 
d="M1109 166h157v-48l-138 -404h-148l105 286h-131v554l9 584h-13l-277 -799h-137l-277 799h-13l9 -584v-554h-156v1443h192l308 -893h12l306 893h192v-1277z" />
    <glyph glyph-name="uni04CE" unicode="&#x4ce;" 
d="M1106 157h139v-48l-137 -395h-140l105 286h-111l4 810h-14l-279 -777h-115l-281 782h-14l3 -815h-143v1085h186l302 -842h12l302 842h181v-928z" />
    <glyph glyph-name="uni04CF" unicode="&#x4cf;" 
d="M1107 0h-899v141h371v1229h-368v141h538v-1370h358v-141z" />
    <glyph glyph-name="uni04D0" unicode="&#x4d0;" 
d="M810 1924h144q0 -139 -91.5 -225.5t-239.5 -86.5t-239.5 86.5t-91.5 225.5h144q1 -88 53 -143t134 -55t134 55t53 143zM425 565h410l-202 666h-5zM1006 0l-125 414h-502l-126 -414h-179l465 1443h188l465 -1443h-186z" />
    <glyph glyph-name="uni04D1" unicode="&#x4d1;" 
d="M523 -19q-155 0 -250 89.5t-95 237.5q0 144 100 226.5t285 92.5l298 15v98q0 102 -60.5 156.5t-173.5 54.5q-94 0 -157 -38t-84 -108h-167q15 130 129 211.5t281 81.5q191 0 296 -93t105 -263v-743h-162v163h-17q-39 -87 -124 -134t-204 -47zM572 130q123 0 206 72.5
t83 181.5v128l-279 -13q-114 -5 -173 -52.5t-59 -132.5t59.5 -134.5t162.5 -49.5zM303 1570h144q1 -87 53 -142t134 -55t134 55t53 142h144q0 -139 -91.5 -225t-239.5 -86t-239.5 86t-91.5 225z" />
    <glyph glyph-name="uni04D2" unicode="&#x4d2;" 
d="M835 1651q-47 0 -82 36t-35 85t35 85t82 36t82 -36t35 -85t-35 -85t-82 -36zM431 1651q-47 0 -82 36t-35 85t35 85t82 36t82 -36t35 -85t-35 -85t-82 -36zM425 565h410l-202 666h-5zM1006 0l-125 414h-502l-126 -414h-179l465 1443h188l465 -1443h-186z" />
    <glyph glyph-name="uni04D3" unicode="&#x4d3;" 
d="M523 -19q-155 0 -250 89.5t-95 237.5q0 144 100 226.5t285 92.5l298 15v98q0 102 -60.5 156.5t-173.5 54.5q-94 0 -157 -38t-84 -108h-167q15 130 129 211.5t281 81.5q191 0 296 -93t105 -263v-743h-162v163h-17q-39 -87 -124 -134t-204 -47zM572 130q123 0 206 72.5
t83 181.5v128l-279 -13q-114 -5 -173 -52.5t-59 -132.5t59.5 -134.5t162.5 -49.5zM430 1300q-47 0 -82 36t-35 85t35 85t82 36t82 -36t35 -85t-35 -85t-82 -36zM834 1300q-47 0 -82 36t-35 85t35 85t82 36t82 -36t35 -85t-35 -85t-82 -36z" />
    <glyph glyph-name="uni04D4" unicode="&#x4d4;" 
d="M363 589h289v687h-92zM1243 1282h-430v-476h394v-157h-394v-487h430v-162h-591v435h-333l-124 -435h-181l432 1443h797v-161z" />
    <glyph glyph-name="uni04D5" unicode="&#x4d5;" 
d="M1210 289q-61 -308 -314 -308q-89 0 -160 60.5t-106 166.5h-4q-39 -107 -116 -167t-177 -60q-121 0 -197.5 87.5t-76.5 226.5q0 290 302 320l191 18v97q0 105 -45.5 163t-125.5 58q-60 0 -102 -40.5t-49 -107.5h-143q13 132 97 214t208 82q86 0 152 -47.5t97 -132.5h5
q84 180 249 180q155 0 239 -139.5t84 -396.5v-65h-516v-18q0 -165 51 -256t144 -91q67 0 109.5 37t70.5 119h133zM1063 634q-3 317 -175 317q-80 0 -127 -82t-55 -235h357zM358 133q86 0 141 70t55 179v116l-171 -15q-83 -7 -128 -54t-45 -126q0 -170 148 -170z" />
    <glyph glyph-name="uni04D6" unicode="&#x4d6;" 
d="M1082 162v-162h-852v1443h852v-162h-675v-468h638v-155h-638v-496h675zM321 1924h143q1 -88 53 -143t134 -55q83 0 135 55t52 143h144q0 -139 -91.5 -225.5t-239.5 -86.5t-239 86t-91 226z" />
    <glyph glyph-name="uni04D7" unicode="&#x4d7;" 
d="M645 959q-136 0 -213 -88t-77 -244h571q0 155 -75 243.5t-206 88.5zM926 280h165q-25 -135 -143.5 -217.5t-289.5 -82.5q-224 0 -347.5 128t-123.5 360v163q0 214 126 344t333 130q211 0 329.5 -132.5t118.5 -368.5v-106h-739v-44q0 -149 82 -238t221 -89q103 0 174 41
t94 112zM302 1570h144q1 -87 53 -142t134 -55t134 55t53 142h144q0 -139 -91.5 -225t-239.5 -86t-239.5 86t-91.5 225z" />
    <glyph glyph-name="uni04D8" unicode="&#x4d8;" 
d="M631 -29q-129 0 -232.5 51t-169.5 139.5t-101 205t-35 251.5l2 161h900v29q0 245 -96.5 371.5t-274.5 126.5q-143 0 -233.5 -82.5t-117.5 -229.5h-179q26 214 166 346.5t362 132.5q267 0 409 -180.5t142 -504.5v-96q0 -346 -135 -533.5t-407 -187.5zM630 137
q179 0 271.5 123t92.5 347v15h-724v-23q0 -207 97 -334.5t263 -127.5z" />
    <glyph glyph-name="uni04D9" unicode="&#x4d9;" 
d="M636 126q136 0 212.5 88t76.5 243h-570q0 -155 74.5 -243t206.5 -88zM355 805h-165q25 135 143.5 217.5t288.5 82.5q224 0 347.5 -128t123.5 -360v-163q0 -214 -125.5 -344t-332.5 -130q-211 0 -330 132t-119 368v106h739v45q0 149 -82 238t-220 89q-103 0 -174.5 -41
t-93.5 -112z" />
    <glyph glyph-name="uni04DA" unicode="&#x4da;" 
d="M631 -29q-129 0 -232.5 51t-169.5 139.5t-101 205t-35 251.5l2 161h900v29q0 245 -96.5 371.5t-274.5 126.5q-143 0 -233.5 -82.5t-117.5 -229.5h-179q26 214 166 346.5t362 132.5q267 0 409 -180.5t142 -504.5v-96q0 -346 -135 -533.5t-407 -187.5zM630 137
q179 0 271.5 123t92.5 347v15h-724v-23q0 -207 97 -334.5t263 -127.5zM410 1651q-47 0 -82 36t-35 85t35 85t82 36t82.5 -36t35.5 -85t-35.5 -85t-82.5 -36zM814 1651q-47 0 -82 36t-35 85t35 85t82 36t82 -36t35 -85t-35 -85t-82 -36z" />
    <glyph glyph-name="uni04DB" unicode="&#x4db;" 
d="M636 126q136 0 212.5 88t76.5 243h-570q0 -155 74.5 -243t206.5 -88zM355 805h-165q25 135 143.5 217.5t288.5 82.5q224 0 347.5 -128t123.5 -360v-163q0 -214 -125.5 -344t-332.5 -130q-211 0 -330 132t-119 368v106h739v45q0 149 -82 238t-220 89q-103 0 -174.5 -41
t-93.5 -112zM410 1319q-47 0 -82 36t-35 85t35 85.5t82 36.5t82.5 -36.5t35.5 -85.5t-35.5 -85t-82.5 -36zM814 1319q-47 0 -82 36t-35 85t35 85.5t82 36.5t82 -36.5t35 -85.5t-35 -85t-82 -36z" />
    <glyph glyph-name="uni04DC" unicode="&#x4dc;" 
d="M166 0h-172l377 738l-342 705h171l297 -637h59v637h152v-637h59l297 637h169l-340 -703l379 -740h-173l-332 662h-59v-662h-152v662h-58zM431 1651q-47 0 -82 36t-35 85t35 85t82 36t82 -36t35 -85t-35 -85t-82 -36zM835 1651q-47 0 -82 36t-35 85t35 85t82 36t82 -36
t35 -85t-35 -85t-82 -36z" />
    <glyph glyph-name="uni04DD" unicode="&#x4dd;" 
d="M834 1320q-47 0 -82 36t-35 85t35 85.5t82 36.5t82 -36.5t35 -85.5t-35 -85t-82 -36zM430 1320q-47 0 -82 36t-35 85t35 85.5t82 36.5t82 -36.5t35 -85.5t-35 -85t-82 -36zM177 0h-185l377 566l-361 519h179l304 -468h70v468h144v-468h70l305 468h178l-361 -519l377 -566
h-185l-312 495h-72v-495h-144v495h-72z" />
    <glyph glyph-name="uni04DE" unicode="&#x4de;" 
d="M427 661v156h185q137 0 222 70t85 185q0 112 -82 178.5t-219 66.5q-136 0 -222 -68t-95 -181h-169q11 185 144.5 295t347.5 110q205 0 336.5 -107.5t131.5 -274.5q0 -124 -75 -215t-199 -118v-13q155 -14 247 -109t92 -242q0 -182 -151 -303t-379 -121q-224 0 -370.5 115
t-153.5 298h170q7 -112 106 -182.5t248 -70.5q155 0 252 75.5t97 196.5q0 122 -95 190.5t-264 68.5h-190zM411 1651q-47 0 -82.5 36t-35.5 85t35.5 85t82.5 36t82 -36t35 -85t-35 -85t-82 -36zM814 1651q-47 0 -82 36t-35 85t35 85t82 36t82 -36t35 -85t-35 -85t-82 -36z
" />
    <glyph glyph-name="uni04DF" unicode="&#x4df;" 
d="M625 -21q-185 0 -302.5 85.5t-135.5 234.5h169q19 -83 89.5 -128t179.5 -45q121 0 194 51.5t73 135.5q0 87 -69.5 133t-200.5 46h-152v136h153q107 0 168.5 44t61.5 121t-61.5 121.5t-168.5 44.5q-104 0 -170.5 -44.5t-81.5 -124.5h-165q19 148 130 231.5t287 83.5
q182 0 289.5 -79.5t107.5 -215.5q0 -82 -56 -147.5t-143 -84.5v-13q112 -22 176 -89t64 -162q0 -151 -120 -243t-316 -92zM414 1320q-47 0 -82.5 36t-35.5 85t35.5 85.5t82.5 36.5t82 -36.5t35 -85.5t-35 -85t-82 -36zM817 1320q-47 0 -82 36t-35 85t35 85.5t82 36.5
t82 -36.5t35 -85.5t-35 -85t-82 -36z" />
    <glyph glyph-name="uni04E0" unicode="&#x4e0;" 
d="M1118 434q0 -213 -132 -338.5t-355 -125.5q-208 0 -343 109.5t-147 287.5h166q9 -106 97.5 -173t228.5 -67q145 0 227.5 79.5t82.5 223.5q0 141 -97.5 214t-287.5 73h-117v147l381 409v10h-632v160h859v-139l-406 -436v-10q220 -15 347.5 -125.5t127.5 -298.5z" />
    <glyph glyph-name="uni04E1" unicode="&#x4e1;" 
d="M602 497q107 -4 195.5 -31.5t156 -79.5t105 -133.5t37.5 -185.5q0 -198 -129.5 -323t-343.5 -125q-208 0 -337 112t-141 297h164q8 -119 95 -194.5t220 -75.5q137 0 219.5 87t82.5 222q0 155 -100.5 227t-295.5 72h-122v131l395 427v8h-619v153h843v-116l-425 -463v-9z
" />
    <glyph glyph-name="uni04E2" unicode="&#x4e2;" 
d="M955 1693h-660v139h660v-139zM152 1443h157v-1123h14l626 1123h165v-1443h-157v1122h-14l-628 -1122h-163v1443z" />
    <glyph glyph-name="uni04E3" unicode="&#x4e3;" 
d="M978 1370h-660v139h660v-139zM907 825l-559 -825h-166v1085h163v-822h14l558 822h166v-1085h-162v825h-14z" />
    <glyph glyph-name="uni04E4" unicode="&#x4e4;" 
d="M827 1651q-47 0 -82 36t-35 85t35 85t82 36t82 -36t35 -85t-35 -85t-82 -36zM423 1651q-47 0 -82 36t-35 85t35 85t82 36t82 -36t35 -85t-35 -85t-82 -36zM152 1443h157v-1123h14l626 1123h165v-1443h-157v1122h-14l-628 -1122h-163v1443z" />
    <glyph glyph-name="uni04E5" unicode="&#x4e5;" 
d="M829 1300q-47 0 -82 36t-35 85t35 85t82 36t82 -36t35 -85t-35 -85t-82 -36zM425 1300q-47 0 -82 36t-35 85t35 85t82 36t82 -36t35 -85t-35 -85t-82 -36zM907 825l-559 -825h-166v1085h163v-822h14l558 822h166v-1085h-162v825h-14z" />
    <glyph glyph-name="uni04E6" unicode="&#x4e6;" 
d="M1162 605q0 -298 -141 -466.5t-388 -168.5t-388 168.5t-141 466.5v233q0 298 141 466.5t388 168.5t388 -168.5t141 -466.5v-233zM633 137q165 0 258 122.5t93 346.5v231q0 224 -93 346.5t-258 122.5t-258 -122.5t-93 -346.5v-231q0 -224 93 -346.5t258 -122.5zM431 1651
q-47 0 -82 36t-35 85t35 85t82 36t82 -36t35 -85t-35 -85t-82 -36zM835 1651q-47 0 -82 36t-35 85t35 85t82 36t82 -36t35 -85t-35 -85t-82 -36z" />
    <glyph glyph-name="uni04E7" unicode="&#x4e7;" 
d="M633 -20q-215 0 -342.5 130t-127.5 350v164q0 220 127.5 350t342.5 130t342.5 -130t127.5 -350v-164q0 -220 -127.5 -350t-342.5 -130zM633 954q-140 0 -221 -92.5t-81 -252.5v-133q0 -160 81 -252.5t221 -92.5t221 92.5t81 252.5v133q0 160 -81 252.5t-221 92.5z
M430 1320q-47 0 -82 36t-35 85t35 85.5t82 36.5t82.5 -36.5t35.5 -85.5t-35.5 -85t-82.5 -36zM834 1320q-47 0 -82 36t-35 85t35 85.5t82 36.5t82 -36.5t35 -85.5t-35 -85t-82 -36z" />
    <glyph glyph-name="uni04E8" unicode="&#x4e8;" 
d="M282 654v-48q0 -224 93 -346.5t258 -122.5t258 122.5t93 346.5v48h-702zM984 811v26q0 224 -93 346.5t-258 122.5t-258 -122.5t-93 -346.5v-26h702zM104 605v233q0 298 141 466.5t388 168.5t388 -168.5t141 -466.5v-233q0 -298 -141 -466.5t-388 -168.5t-388 168.5
t-141 466.5z" />
    <glyph glyph-name="uni04E9" unicode="&#x4e9;" 
d="M331 481v-5q0 -160 81 -252.5t221 -92.5t221 92.5t81 252.5v5h-604zM331 619h604q-3 155 -84 245t-218 90t-218 -90t-84 -245zM163 460v164q0 220 127.5 350t342.5 130t342.5 -130t127.5 -350v-164q0 -220 -127.5 -350t-342.5 -130t-342.5 130t-127.5 350z" />
    <glyph glyph-name="uni04EA" unicode="&#x4ea;" 
d="M820 1651q-47 0 -82 36t-35 85t35 85t82 36t82 -36t35 -85t-35 -85t-82 -36zM416 1651q-47 0 -82 36t-35 85t35 85t82 36t82 -36t35 -85t-35 -85t-82 -36zM282 654v-48q0 -224 93 -346.5t258 -122.5t258 122.5t93 346.5v48h-702zM984 811v26q0 224 -93 346.5t-258 122.5
t-258 -122.5t-93 -346.5v-26h702zM104 605v233q0 298 141 466.5t388 168.5t388 -168.5t141 -466.5v-233q0 -298 -141 -466.5t-388 -168.5t-388 168.5t-141 466.5z" />
    <glyph glyph-name="uni04EB" unicode="&#x4eb;" 
d="M833 1320q-47 0 -82 36t-35 85t35 85.5t82 36.5t82 -36.5t35 -85.5t-35 -85t-82 -36zM429 1320q-47 0 -82 36t-35 85t35 85.5t82 36.5t82 -36.5t35 -85.5t-35 -85t-82 -36zM331 481v-5q0 -160 81 -252.5t221 -92.5t221 92.5t81 252.5v5h-604zM331 619h604q-3 155 -84 245
t-218 90t-218 -90t-84 -245zM163 460v164q0 220 127.5 350t342.5 130t342.5 -130t127.5 -350v-164q0 -220 -127.5 -350t-342.5 -130t-342.5 130t-127.5 350z" />
    <glyph glyph-name="uni04EC" unicode="&#x4ec;" 
d="M811 1653q-47 0 -82.5 36t-35.5 85t35.5 85t82.5 36t82 -36t35 -85t-35 -85t-82 -36zM407 1653q-47 0 -82 36t-35 85t35 85t82 36t82 -36t35 -85t-35 -85t-82 -36zM250 983h-176q23 223 168.5 356.5t366.5 133.5q275 0 423.5 -195t148.5 -556t-148.5 -556t-423.5 -195
q-227 0 -369 123.5t-166 340.5h175q26 -143 119 -220.5t241 -77.5q181 0 280.5 132.5t109.5 388.5h-566v157h565q-16 242 -114.5 366.5t-273.5 124.5q-145 0 -239.5 -85t-120.5 -238z" />
    </font>
</defs>
</svg>
