<?xml version="1.0" standalone="no"?>
<!DOCTYPE svg PUBLIC "-//W3C//DTD SVG 20010904//EN"
 "http://www.w3.org/TR/2001/REC-SVG-20010904/DTD/svg10.dtd">
<svg version="1.0" xmlns="http://www.w3.org/2000/svg"
 width="704.000000pt" height="704.000000pt" viewBox="0 0 704.000000 704.000000"
 preserveAspectRatio="xMidYMid meet">
<metadata>
Created by potrace 1.11, written by Peter Selinger 2001-2013
</metadata>
<g transform="translate(0.000000,704.000000) scale(0.100000,-0.100000)"
fill="#000000" stroke="none">
<path d="M3335 6784 c-179 -31 -277 -73 -520 -221 -11 -7 -26 -15 -34 -19 -8
-4 -75 -43 -149 -86 -74 -43 -138 -78 -142 -78 -5 0 -10 -3 -12 -7 -1 -5 -19
-16 -38 -27 -109 -58 -147 -80 -161 -92 -8 -8 -18 -14 -21 -14 -6 0 -168 -92
-681 -389 -88 -50 -163 -91 -168 -91 -5 0 -9 -4 -9 -10 0 -5 -4 -10 -10 -10
-5 0 -44 -20 -86 -45 -41 -25 -78 -45 -81 -45 -3 0 -17 -8 -31 -19 -15 -10
-48 -30 -73 -43 -85 -48 -94 -53 -101 -63 -4 -5 -8 -7 -8 -2 0 4 -39 -19 -87
-51 -232 -157 -379 -379 -431 -652 -4 -19 -7 -210 -7 -423 l0 -388 50 -28 c28
-16 79 -45 115 -66 36 -21 81 -46 100 -57 19 -11 67 -39 105 -62 39 -22 81
-46 95 -53 14 -7 32 -17 40 -23 16 -10 158 -93 221 -128 76 -42 84 -47 89 -52
3 -3 19 -12 35 -20 17 -8 47 -25 68 -39 20 -13 41 -21 45 -17 4 4 8 245 8 534
1 290 4 538 7 551 17 67 106 191 137 191 5 0 10 5 10 10 0 6 5 10 11 10 6 0
52 24 103 54 168 99 548 316 554 316 3 0 13 6 21 14 9 8 39 26 66 41 28 14 64
34 80 44 41 24 113 65 155 87 19 11 37 22 40 25 3 3 12 9 20 13 8 4 24 12 35
19 11 7 68 39 125 72 58 33 114 65 125 72 11 7 27 15 35 19 8 4 43 25 78 46
34 21 67 38 72 38 6 0 10 3 10 8 0 4 15 13 33 21 17 8 34 17 37 20 3 3 19 13
35 22 17 8 125 70 240 136 116 66 226 130 245 141 65 36 265 152 280 162 8 5
31 18 50 28 72 38 105 57 110 62 8 8 240 140 246 140 3 0 12 6 20 14 15 15 7
22 -86 73 -19 11 -111 64 -205 118 -216 125 -319 176 -387 191 -5 1 -9 2 -10
4 -2 1 -10 3 -18 5 -129 31 -286 38 -395 19z"/>
<path d="M5325 5764 c-49 -30 -97 -57 -105 -61 -8 -4 -59 -33 -113 -65 -54
-32 -100 -58 -102 -58 -5 0 -279 -161 -292 -172 -7 -6 -13 -8 -13 -4 0 3 -25
-10 -55 -29 -30 -19 -59 -35 -65 -35 -5 0 -10 -4 -10 -9 0 -5 -10 -13 -22 -17
-13 -4 -38 -17 -56 -29 l-32 -22 82 -48 c45 -26 98 -56 117 -67 20 -11 56 -32
81 -47 25 -14 57 -33 71 -41 370 -209 560 -323 595 -356 24 -22 56 -67 71
-100 l28 -59 2 -1650 c0 -907 2 -1658 2 -1667 1 -13 27 -2 119 50 64 36 119
69 122 72 3 3 18 12 35 20 16 8 58 32 92 53 35 20 67 37 73 37 5 0 10 5 10 10
0 6 5 10 12 10 24 0 164 104 229 170 61 63 178 224 183 252 1 7 4 18 8 23 12
19 58 147 63 174 3 14 7 37 10 51 3 14 8 45 11 70 3 25 8 48 10 52 2 4 0 9 -5
12 -5 4 -6 19 -3 34 9 34 7 2390 -2 2457 -5 40 -19 108 -31 155 -16 59 -75
186 -120 255 -106 162 -206 249 -435 377 -25 14 -120 69 -212 122 -92 53 -172
96 -178 96 -5 0 -10 4 -10 8 0 10 -45 32 -63 31 -7 0 -52 -25 -102 -55z"/>
<path d="M483 2538 c2 -194 7 -369 11 -388 29 -137 126 -343 204 -432 77 -88
180 -176 252 -217 14 -8 79 -46 145 -84 115 -67 139 -81 223 -128 121 -69 392
-225 422 -244 31 -19 71 -42 239 -138 20 -11 56 -31 81 -45 25 -14 47 -29 48
-34 2 -4 12 -8 22 -8 10 0 21 -4 25 -9 3 -6 18 -16 33 -24 15 -7 130 -73 255
-145 126 -73 233 -132 238 -132 5 0 9 -4 9 -10 0 -5 4 -10 8 -10 5 0 62 -31
128 -69 212 -123 331 -180 417 -197 10 -2 26 -5 35 -8 86 -25 283 -26 401 -1
81 16 279 92 301 115 3 3 16 11 29 18 13 8 39 22 57 33 19 10 49 28 68 38 18
11 44 25 57 33 13 7 26 15 29 18 3 3 20 13 38 23 17 9 47 25 64 35 18 9 35 19
38 22 3 3 19 12 35 20 17 8 36 21 43 27 7 7 18 13 23 13 6 0 24 10 42 22 l32
23 -2 530 c-1 292 -2 543 -3 559 0 28 0 28 -26 12 -23 -16 -437 -254 -544
-314 -25 -14 -57 -33 -72 -43 -14 -11 -28 -19 -31 -19 -2 0 -44 -23 -93 -52
-175 -101 -194 -108 -293 -109 -54 0 -76 5 -140 37 -42 20 -79 42 -83 48 -4 6
-8 7 -8 2 0 -5 -8 -2 -17 6 -10 8 -43 29 -73 45 -88 49 -114 64 -320 183 -107
62 -215 124 -240 138 -25 14 -78 45 -118 69 -41 24 -77 43 -82 43 -5 0 -10 3
-12 8 -1 4 -19 15 -38 26 -98 53 -147 81 -172 98 -14 10 -31 18 -36 18 -6 0
-17 6 -24 13 -13 12 -40 28 -108 64 -19 10 -37 20 -40 24 -3 3 -32 20 -65 39
-33 18 -76 42 -95 53 -19 10 -91 52 -160 92 -69 39 -145 83 -170 97 -25 14
-147 85 -273 157 -125 72 -232 131 -237 131 -6 0 -10 4 -10 9 0 5 -8 11 -17
14 -18 6 -94 48 -103 57 -3 3 -30 18 -60 34 -30 16 -62 35 -71 42 -8 8 -18 14
-22 14 -4 0 -41 21 -84 46 -43 25 -86 50 -96 56 -18 9 -18 -3 -14 -344z"/>
</g>
</svg>
