<?xml version="1.0" standalone="no"?>
<!DOCTYPE svg PUBLIC "-//W3C//DTD SVG 20010904//EN"
 "http://www.w3.org/TR/2001/REC-SVG-20010904/DTD/svg10.dtd">
<svg version="1.0" xmlns="http://www.w3.org/2000/svg"
 width="64.000000pt" height="64.000000pt" viewBox="0 0 64.000000 64.000000"
 preserveAspectRatio="xMidYMid meet">
<metadata>
Created by potrace 1.11, written by Peter Selinger 2001-2013
</metadata>
<g transform="translate(0.000000,64.000000) scale(0.100000,-0.100000)"
fill="#000000" stroke="none">
<path d="M11 616 c-15 -18 -14 -508 1 -540 23 -52 47 -56 307 -56 158 0 249 4
265 11 51 23 56 55 56 326 0 225 -4 271 -23 276 -4 1 -72 -63 -152 -143 l-145
-145 -143 143 c-78 78 -145 142 -148 142 -4 0 -12 -6 -18 -14z"/>
</g>
</svg>
