<svg xmlns="http://www.w3.org/2000/svg" width="7" height="11" viewBox="0 0 7 11">
    <path fill="#3C4252" fill-rule="nonzero" d="M4.5 5.009V6.65c0 .47-.38.85-.85.85h-.3a.85.85 0 0 1-.85-.85V5.009H.378A.385.385 0 0 1 .071 4.4L3.19.66a.38.38 0 0 1 .62 0L6.927 4.4a.385.385 0 0 1-.307.609H4.5zM3.46 9h.08c.223 0 .387.04.525.114a.772.772 0 0 1 .321.32c.075.14.114.303.114.526v.08c0 .223-.04.387-.114.525a.772.772 0 0 1-.32.321A1.073 1.073 0 0 1 3.54 11h-.08c-.223 0-.387-.04-.525-.114a.772.772 0 0 1-.321-.32 1.073 1.073 0 0 1-.114-.526v-.08c0-.223.04-.387.114-.525a.772.772 0 0 1 .32-.321c.14-.075.303-.114.526-.114z" opacity=".8"/>
</svg>
