<?xml version="1.0" encoding="UTF-8"?>
<svg width="198px" height="23px" viewBox="0 0 198 23" version="1.1" xmlns="http://www.w3.org/2000/svg" xmlns:xlink="http://www.w3.org/1999/xlink">
    <!-- Generator: Sketch 49.3 (51167) - http://www.bohemiancoding.com/sketch -->
    <title>balance-manager-logo</title>
    <desc>Created with Sketch.</desc>
    <defs></defs>
    <g id="Page-1" stroke="none" stroke-width="1" fill="none" fill-rule="evenodd">
        <g id="managerTransactions-Copy" transform="translate(-228.000000, -24.000000)">
            <g id="balance-manager-logo" transform="translate(228.000000, 24.000000)">
                <path d="M128.942383,18.5009766 L127.567383,18.5009766 L127.567383,5.85742188 L127.459961,5.85742188 L122.110352,18.4257812 L120.832031,18.4257812 L115.482422,5.85742188 L115.385742,5.85742188 L115.385742,18.5009766 L114,18.5009766 L114,3 L115.686523,3 L121.412109,16.4921875 L121.541016,16.4921875 L127.245117,3 L128.942383,3 L128.942383,18.5009766 Z M135.534102,17.4482422 C137.607344,17.4482422 139.186445,16.0302734 139.186445,14.1933594 L139.186445,12.8398438 L135.759687,13.0869141 C133.793867,13.2265625 132.848555,13.9570312 132.848555,15.2783203 C132.848555,16.6103516 133.976484,17.4482422 135.534102,17.4482422 Z M135.297773,18.6943359 C133.031172,18.6943359 131.398359,17.3730469 131.398359,15.2998047 C131.398359,13.2802734 132.891523,12.109375 135.566328,11.9267578 L139.186445,11.6904297 L139.186445,10.5732422 C139.186445,8.91894531 138.187422,7.99511719 136.307539,7.99511719 C134.717695,7.99511719 133.568281,8.671875 133.288984,9.7890625 L131.860273,9.7890625 C132.128828,7.95214844 133.922773,6.73828125 136.350508,6.73828125 C139.068281,6.73828125 140.604414,8.15625 140.604414,10.5625 L140.604414,18.5009766 L139.250898,18.5009766 L139.250898,16.5136719 L139.121992,16.5136719 C138.413008,17.8886719 136.995039,18.6943359 135.297773,18.6943359 Z M143.490078,18.5009766 L143.490078,6.93164062 L144.832852,6.93164062 L144.832852,9.015625 L144.9725,9.015625 C145.584805,7.58691406 146.863125,6.73828125 148.710781,6.73828125 C151.288906,6.73828125 152.760586,8.28515625 152.760586,10.9814453 L152.760586,18.5009766 L151.353359,18.5009766 L151.353359,11.3359375 C151.353359,9.13378906 150.343594,8.00585938 148.334805,8.00585938 C146.293789,8.00585938 144.897305,9.4453125 144.897305,11.6259766 L144.897305,18.5009766 L143.490078,18.5009766 Z M159.08375,17.4482422 C161.156992,17.4482422 162.736094,16.0302734 162.736094,14.1933594 L162.736094,12.8398438 L159.309336,13.0869141 C157.343516,13.2265625 156.398203,13.9570312 156.398203,15.2783203 C156.398203,16.6103516 157.526133,17.4482422 159.08375,17.4482422 Z M158.847422,18.6943359 C156.58082,18.6943359 154.948008,17.3730469 154.948008,15.2998047 C154.948008,13.2802734 156.441172,12.109375 159.115977,11.9267578 L162.736094,11.6904297 L162.736094,10.5732422 C162.736094,8.91894531 161.73707,7.99511719 159.857187,7.99511719 C158.267344,7.99511719 157.11793,8.671875 156.838633,9.7890625 L155.409922,9.7890625 C155.678477,7.95214844 157.472422,6.73828125 159.900156,6.73828125 C162.61793,6.73828125 164.154062,8.15625 164.154062,10.5625 L164.154062,18.5009766 L162.800547,18.5009766 L162.800547,16.5136719 L162.671641,16.5136719 C161.962656,17.8886719 160.544687,18.6943359 158.847422,18.6943359 Z M171.615898,17.1259766 C173.936211,17.1259766 175.375664,15.3320312 175.375664,12.5927734 C175.375664,9.84277344 173.903984,8.00585938 171.615898,8.00585938 C169.306328,8.00585938 167.909844,9.82128906 167.909844,12.5712891 C167.909844,15.3105469 169.306328,17.1259766 171.615898,17.1259766 Z M171.734062,22.8408203 C169.080742,22.8408203 167.319023,21.6591797 167.018242,19.8544922 L168.511406,19.8544922 C168.769219,20.9179688 169.972344,21.6054688 171.734062,21.6054688 C173.968437,21.6054688 175.35418,20.4345703 175.35418,18.5654297 L175.35418,15.9658203 L175.214531,15.9658203 C174.527031,17.4912109 173.109062,18.3828125 171.336601,18.3828125 C168.361016,18.3828125 166.459648,16.0410156 166.459648,12.5712891 C166.459648,9.1015625 168.371758,6.73828125 171.336601,6.73828125 C173.109062,6.73828125 174.645195,7.71582031 175.278984,9.21972656 L175.407891,9.21972656 L175.407891,6.93164062 L176.761406,6.93164062 L176.761406,18.6728516 C176.761406,21.1865234 174.774101,22.8408203 171.734062,22.8408203 Z M184.287695,7.984375 C182.182226,7.984375 180.721289,9.54199219 180.592383,11.9267578 L187.800391,11.9267578 C187.768164,9.54199219 186.382422,7.984375 184.287695,7.984375 Z M187.660742,15.6435547 L189.089453,15.6435547 C188.520117,17.5234375 186.736914,18.6943359 184.30918,18.6943359 C181.129492,18.6943359 179.131445,16.3740234 179.131445,12.7216797 C179.131445,9.09082031 181.150976,6.73828125 184.298437,6.73828125 C187.381445,6.73828125 189.27207,8.9296875 189.27207,12.4638672 L189.27207,13.0869141 L180.581641,13.0869141 L180.581641,13.1513672 C180.656836,15.7617188 182.107031,17.4375 184.341406,17.4375 C185.984961,17.4375 187.166601,16.7822266 187.660742,15.6435547 Z M191.652851,18.5009766 L191.652851,6.93164062 L192.995625,6.93164062 L192.995625,8.83300781 L193.135273,8.83300781 C193.521992,7.57617188 194.821797,6.73828125 196.35793,6.73828125 C196.744648,6.73828125 197.131367,6.75976562 197.442891,6.83496094 L197.442891,8.2421875 C197.185078,8.16699219 196.605,8.10253906 196.186055,8.10253906 C194.392109,8.10253906 193.060078,9.45605469 193.060078,11.2822266 L193.060078,18.5009766 L191.652851,18.5009766 Z" id="Manager" fill="#888D99"></path>
                <path d="M27.1493476,18.4366925 L27.1493476,3.00408239 L33.1521008,3.00408239 C35.8554683,3.00408239 38.7716995,3.85553673 38.7716995,7.02720418 C38.7716995,8.47467657 37.8138133,9.77314448 37.0262181,10.2840171 C38.2182542,10.8587488 39.3251448,11.7527758 39.3251448,13.8814117 C39.3251448,17.2020837 36.5792045,18.4366925 33.4075371,18.4366925 L27.1493476,18.4366925 Z M30.1932969,11.6676304 L30.1932969,16.0526203 L33.5565416,16.0526203 C35.3445957,16.0526203 36.2173364,15.3075977 36.2173364,13.8814117 C36.2173364,12.4339393 35.3233094,11.6676304 33.4288235,11.6676304 L30.1932969,11.6676304 Z M30.1932969,5.38815456 L30.1932969,9.36870364 L33.343678,9.36870364 C34.7911504,9.36870364 35.6426048,8.68754016 35.6426048,7.3252132 C35.6426048,6.11189076 34.7698641,5.38815456 33.343678,5.38815456 L30.1932969,5.38815456 Z M48.3718473,14.0517026 L48.3718473,13.2002482 C45.0724617,13.54083 43.7739938,13.9239844 43.7739938,15.2011659 C43.7739938,16.0313339 44.4125845,16.7124974 45.7536251,16.7124974 C47.6055383,16.7124974 48.3718473,15.7333249 48.3718473,14.0517026 Z M48.6272836,17.0105064 C47.7971156,18.2025425 46.6050795,18.7134151 44.8808844,18.7134151 C42.6883895,18.7134151 40.7513308,17.4362336 40.7513308,15.3501705 C40.7513308,12.6468029 43.7739938,11.8379213 48.2867018,11.3270487 L48.2867018,11.1354714 C48.2867018,9.36870364 47.3288157,8.75139924 46.1367796,8.75139924 C45.0086026,8.75139924 44.0720028,9.32613092 44.0081437,10.6033125 L41.2622035,10.6033125 C41.4963534,8.34695842 43.3269803,6.68662244 46.2857841,6.68662244 C48.9891517,6.68662244 51.2242193,7.87865853 51.2242193,11.7314895 C51.2242193,12.0720712 51.1816466,13.6259754 51.1816466,14.6477206 C51.1816466,16.4570611 51.2880784,17.4788063 51.5222284,18.4366925 L48.8188608,18.4366925 C48.7337154,18.0748244 48.6911426,17.5852381 48.6272836,17.0105064 Z M56.6948168,3.00408239 L56.6948168,18.4366925 L53.7572993,18.4366925 L53.7572993,3.00408239 L56.6948168,3.00408239 Z M66.4013931,14.0517026 L66.4013931,13.2002482 C63.1020075,13.54083 61.8035396,13.9239844 61.8035396,15.2011659 C61.8035396,16.0313339 62.4421304,16.7124974 63.783171,16.7124974 C65.6350842,16.7124974 66.4013931,15.7333249 66.4013931,14.0517026 Z M66.6568294,17.0105064 C65.8266614,18.2025425 64.6346253,18.7134151 62.9104303,18.7134151 C60.7179353,18.7134151 58.7808767,17.4362336 58.7808767,15.3501705 C58.7808767,12.6468029 61.8035396,11.8379213 66.3162476,11.3270487 L66.3162476,11.1354714 C66.3162476,9.36870364 65.3583615,8.75139924 64.1663254,8.75139924 C63.0381484,8.75139924 62.1015486,9.32613092 62.0376895,10.6033125 L59.2917493,10.6033125 C59.5258992,8.34695842 61.3565261,6.68662244 64.3153299,6.68662244 C67.0186975,6.68662244 69.2537651,7.87865853 69.2537651,11.7314895 C69.2537651,12.0720712 69.2111924,13.6259754 69.2111924,14.6477206 C69.2111924,16.4570611 69.3176242,17.4788063 69.5517742,18.4366925 L66.8484066,18.4366925 C66.7632612,18.0748244 66.7206885,17.5852381 66.6568294,17.0105064 Z M74.6392139,6.98463146 L74.6392139,8.49596293 C75.299091,7.3252132 76.5336998,6.72919516 77.9598859,6.72919516 C80.7058261,6.72919516 81.9191486,8.38953114 81.9191486,11.2206169 L81.9191486,18.4366925 L78.9816311,18.4366925 L78.9816311,11.8592076 C78.9816311,10.3904489 78.6623357,9.09198098 77.0019997,9.09198098 C75.0649411,9.09198098 74.6392139,10.6671715 74.6392139,12.476512 L74.6392139,18.4366925 L71.7016964,18.4366925 L71.7016964,6.98463146 L74.6392139,6.98463146 Z M89.3906605,6.72919516 C91.796019,6.72919516 94.1800912,8.07023576 94.584532,10.9013215 L91.7747327,10.9013215 C91.5405827,9.79443078 90.5188375,9.00683554 89.3906605,9.00683554 C87.8580427,9.00683554 86.6447202,10.3053034 86.6447202,12.6893756 C86.6447202,15.0947341 87.7941836,16.4357747 89.4119468,16.4357747 C90.4336921,16.4357747 91.4767236,15.9036158 91.8811644,14.5412888 L94.6909638,14.5412888 C94.0098003,17.6703836 91.6470145,18.7134151 89.2629423,18.7134151 C85.8358386,18.7134151 83.6433436,16.2016248 83.6433436,12.7319483 C83.6433436,9.24098549 85.9635567,6.72919516 89.3906605,6.72919516 Z M107.16477,13.5195436 L98.7140856,13.5195436 C98.8843765,15.4778886 100.204131,16.4357747 101.60903,16.4357747 C102.524344,16.4357747 103.418371,16.1164794 104.014389,15.1160205 L107.037052,15.1160205 C106.419747,16.8189292 104.759411,18.7134151 101.630317,18.7134151 C97.9477767,18.7134151 95.7978545,15.9674749 95.7978545,12.6680893 C95.7978545,9.26227184 98.1606403,6.72919516 101.545171,6.72919516 C105.078707,6.72919516 107.271202,9.47513543 107.16477,13.5195436 Z M101.523885,8.87911739 C100.416994,8.87911739 98.9908083,9.56028087 98.7566583,11.4973395 L104.18468,11.4973395 C104.120821,9.56028087 102.758494,8.87911739 101.523885,8.87911739 Z" id="Shape" fill="#F7F8FC" fill-rule="nonzero"></path>
                <path d="M10.8965785,0.875208934 L12.425756,1.75438172 L3.55334478,6.85546252 C3.24020609,7.03550588 3.04730295,7.36821925 3.04730295,7.72830597 L3.04730295,10.9222414 L0,9.17026545 L0,7.14004069 C0,6.05982082 0.57870944,5.06168074 1.5181255,4.52155065 L7.86032754,0.875208934 C8.79978408,0.335119162 9.95716248,0.335119162 10.8965785,0.875208934 Z M9.88449487,17.7754997 L12.6621382,16.178532 L12.6621382,19.6825645 L10.8965785,20.6975962 C9.95716248,21.2377263 8.7997436,21.2377263 7.86032754,20.6975962 L1.5181255,17.0512545 C0.57870944,16.5111647 0,15.5129843 0,14.4327645 L0,12.6744189 L8.87241121,17.7754997 C9.18554989,17.9555027 9.57139667,17.9555027 9.88449487,17.7754997 Z M15.4732209,3.50647858 L17.2387401,4.52155065 C18.1781562,5.06164042 18.7568656,6.05982082 18.7568656,7.14004069 L18.7568656,14.4327645 C18.7568656,15.5129843 18.1781966,16.5111647 17.2387806,17.0512545 L15.7096031,17.9304676 L15.7096031,7.72826566 C15.7096031,7.36821925 15.5167,7.03550588 15.2035613,6.85546252 L12.4258774,5.25849482 L15.4732209,3.50647858 Z" id="Combined-Shape" fill="#F7F8FC" fill-rule="nonzero"></path>
            </g>
        </g>
    </g>
</svg>