<?xml version="1.0" encoding="UTF-8"?>
<svg width="19px" height="22px" viewBox="0 0 19 22" version="1.1" xmlns="http://www.w3.org/2000/svg" xmlns:xlink="http://www.w3.org/1999/xlink">
    <!-- Generator: Sketch 49.3 (51167) - http://www.bohemiancoding.com/sketch -->
    <title>balance-logo</title>
    <desc>Created with Sketch.</desc>
    <defs></defs>
    <g id="Page-1" stroke="none" stroke-width="1" fill="none" fill-rule="evenodd">
        <g id="balance-logo" fill="#FFFFFF" fill-rule="nonzero">
            <path d="M10.8965785,1.16520985 L12.425756,2.04438264 L3.55334478,7.14546344 C3.24020609,7.3255068 3.04730295,7.65822017 3.04730295,8.01830689 L3.04730295,11.2122423 L0,9.46026637 L0,7.43004161 C0,6.34982174 0.57870944,5.35168166 1.5181255,4.81155157 L7.86032754,1.16520985 C8.79978408,0.625120078 9.95716248,0.625120078 10.8965785,1.16520985 Z M9.88449487,18.0655006 L12.6621382,16.4685329 L12.6621382,19.9725654 L10.8965785,20.9875971 C9.95716248,21.5277272 8.7997436,21.5277272 7.86032754,20.9875971 L1.5181255,17.3412554 C0.57870944,16.8011656 0,15.8029852 0,14.7227654 L0,12.9644198 L8.87241121,18.0655006 C9.18554989,18.2455036 9.57139667,18.2455036 9.88449487,18.0655006 Z M15.4732209,3.7964795 L17.2387401,4.81155157 C18.1781562,5.35164134 18.7568656,6.34982174 18.7568656,7.43004161 L18.7568656,14.7227654 C18.7568656,15.8029852 18.1781966,16.8011656 17.2387806,17.3412554 L15.7096031,18.2204685 L15.7096031,8.01826658 C15.7096031,7.65822017 15.5167,7.3255068 15.2035613,7.14546344 L12.4258774,5.54849574 L15.4732209,3.7964795 Z" id="Combined-Shape"></path>
        </g>
    </g>
</svg>