<?xml version="1.0" encoding="UTF-8"?>
<svg width="113px" height="23px" viewBox="0 0 113 23" version="1.1" xmlns="http://www.w3.org/2000/svg" xmlns:xlink="http://www.w3.org/1999/xlink">
    <!-- Generator: Sketch 49.3 (51167) - http://www.bohemiancoding.com/sketch -->
    <title>balance-logo-mobile</title>
    <desc>Created with Sketch.</desc>
    <defs></defs>
    <g id="Page-1" stroke="none" stroke-width="1" fill="none" fill-rule="evenodd">
        <g id="balance-logo-mobile" fill="#FFFFFF" fill-rule="nonzero">
            <path d="M28.5,19.4903676 L28.5,3.29000092 L34.801384,3.29000092 C37.6392413,3.29000092 40.700552,4.18381425 40.700552,7.51326892 C40.700552,9.03275158 39.695012,10.3958169 38.8682347,10.9321049 C40.1195733,11.5354289 41.2815307,12.4739329 41.2815307,14.7084663 C41.2815307,18.1943383 38.3989827,19.4903676 35.069528,19.4903676 L28.5,19.4903676 Z M31.6953827,12.3845516 L31.6953827,16.9876903 L35.2259453,16.9876903 C37.1029533,16.9876903 38.019112,16.2056036 38.019112,14.7084663 C38.019112,13.1889836 37.080608,12.3845516 35.0918733,12.3845516 L31.6953827,12.3845516 Z M31.6953827,5.79267825 L31.6953827,9.97125559 L35.002492,9.97125559 C36.5219747,9.97125559 37.415788,9.25620492 37.415788,7.82610358 C37.415788,6.55241958 36.4996293,5.79267825 35.002492,5.79267825 L31.6953827,5.79267825 Z M50.7782973,14.8872289 L50.7782973,13.9934156 C47.3147707,14.3509409 45.9517053,14.7531569 45.9517053,16.0938769 C45.9517053,16.9653449 46.6220653,17.6803956 48.0298213,17.6803956 C49.9738653,17.6803956 50.7782973,16.6525103 50.7782973,14.8872289 Z M51.0464413,17.9932303 C50.1749733,19.2445689 48.9236347,19.7808569 47.1136627,19.7808569 C44.8120933,19.7808569 42.778668,18.4401369 42.778668,16.2502943 C42.778668,13.4124369 45.9517053,12.5633143 50.688916,12.0270263 L50.688916,11.8259183 C50.688916,9.97125559 49.683376,9.32324092 48.4320373,9.32324092 C47.2477347,9.32324092 46.26454,9.92656492 46.197504,11.2672849 L43.314956,11.2672849 C43.5607547,8.89867958 45.4824533,7.15574358 48.5884547,7.15574358 C51.426312,7.15574358 53.772572,8.40708225 53.772572,12.4515876 C53.772572,12.8091129 53.7278813,14.4403223 53.7278813,15.5128983 C53.7278813,17.4122516 53.839608,18.4848276 54.0854067,19.4903676 L51.2475493,19.4903676 C51.158168,19.1104969 51.1134773,18.5965543 51.0464413,17.9932303 Z M59.5153261,3.29000092 L59.5153261,19.4903676 L56.4316701,19.4903676 L56.4316701,3.29000092 L59.5153261,3.29000092 Z M69.7047947,14.8872289 L69.7047947,13.9934156 C66.241268,14.3509409 64.8782027,14.7531569 64.8782027,16.0938769 C64.8782027,16.9653449 65.5485627,17.6803956 66.9563187,17.6803956 C68.9003627,17.6803956 69.7047947,16.6525103 69.7047947,14.8872289 Z M69.9729387,17.9932303 C69.1014707,19.2445689 67.850132,19.7808569 66.04016,19.7808569 C63.7385907,19.7808569 61.7051653,18.4401369 61.7051653,16.2502943 C61.7051653,13.4124369 64.8782027,12.5633143 69.6154134,12.0270263 L69.6154134,11.8259183 C69.6154134,9.97125559 68.6098734,9.32324092 67.3585347,9.32324092 C66.174232,9.32324092 65.1910374,9.92656492 65.1240014,11.2672849 L62.2414533,11.2672849 C62.487252,8.89867958 64.4089507,7.15574358 67.514952,7.15574358 C70.3528094,7.15574358 72.6990694,8.40708225 72.6990694,12.4515876 C72.6990694,12.8091129 72.6543787,14.4403223 72.6543787,15.5128983 C72.6543787,17.4122516 72.7661054,18.4848276 73.011904,19.4903676 L70.1740467,19.4903676 C70.0846654,19.1104969 70.0399747,18.5965543 69.9729387,17.9932303 Z M78.3524387,7.46857825 L78.3524387,9.05509692 C79.045144,7.82610358 80.3411734,7.20043425 81.8383107,7.20043425 C84.7208587,7.20043425 85.9945427,8.94337025 85.9945427,11.9152996 L85.9945427,19.4903676 L82.9108867,19.4903676 L82.9108867,12.5856596 C82.9108867,11.0438316 82.5757067,9.68076625 80.8327707,9.68076625 C78.7993454,9.68076625 78.3524387,11.3343209 78.3524387,13.2336743 L78.3524387,19.4903676 L75.2687827,19.4903676 L75.2687827,7.46857825 L78.3524387,7.46857825 Z M93.8377547,7.20043425 C96.3627774,7.20043425 98.8654547,8.60819025 99.290016,11.5801196 L96.340432,11.5801196 C96.0946334,10.4181623 95.0220574,9.59138492 93.8377547,9.59138492 C92.2288907,9.59138492 90.9552067,10.9544503 90.9552067,13.4571276 C90.9552067,15.9821503 92.1618547,17.3899063 93.8601,17.3899063 C94.932676,17.3899063 96.0275974,16.8312729 96.4521587,15.4011716 L99.4017427,15.4011716 C98.686692,18.6859356 96.20636,19.7808569 93.7036827,19.7808569 C90.106084,19.7808569 87.8045147,17.1441076 87.8045147,13.5018183 C87.8045147,9.83718359 90.240156,7.20043425 93.8377547,7.20043425 Z M112.496108,14.3285956 L103.625011,14.3285956 C103.803773,16.3843663 105.189184,17.3899063 106.663976,17.3899063 C107.624825,17.3899063 108.563329,17.0547263 109.188999,16.0044956 L112.362036,16.0044956 C111.714021,17.7921223 109.971085,19.7808569 106.686321,19.7808569 C102.820579,19.7808569 100.5637,16.8983089 100.5637,13.4347823 C100.5637,9.85952892 103.044032,7.20043425 106.59694,7.20043425 C110.306265,7.20043425 112.607835,10.0829823 112.496108,14.3285956 Z M106.574595,9.45731292 C105.412637,9.45731292 103.9155,10.1723636 103.669701,12.2057889 L109.367761,12.2057889 C109.300725,10.1723636 107.870624,9.45731292 106.574595,9.45731292 Z" id="balance-logo"></path>
            <path d="M11.4386722,1.05521818 L13.0439247,1.97812891 L3.73012006,7.33298328 C3.40140304,7.52198362 3.19890316,7.87124913 3.19890316,8.24924981 L3.19890316,11.6020802 L0,9.76294529 L0,7.63171893 C0,6.49775923 0.607499644,5.44996269 1.59365069,4.88296168 L8.25137082,1.05521818 C9.23756437,0.488259488 10.4525212,0.488259488 11.4386722,1.05521818 Z M10.3762384,18.7962811 L13.2920667,17.1198659 L13.2920667,20.7982204 L11.4386722,21.863749 C10.4525212,22.43075 9.23752187,22.43075 8.25137082,21.863749 L1.59365069,18.0360055 C0.607499644,17.4690468 0,16.4212079 0,15.2872482 L0,13.4414268 L9.31380462,18.7962811 C9.64252163,18.9852392 10.0475639,18.9852392 10.3762384,18.7962811 Z M16.2429978,3.81739081 L18.0963498,4.88296168 C19.0825009,5.44992037 19.6900005,6.49775923 19.6900005,7.63171893 L19.6900005,15.2872482 C19.6900005,16.4212079 19.0825434,17.4690468 18.0963923,18.0360055 L16.4911399,18.9589585 L16.4911399,8.24920749 C16.4911399,7.87124913 16.28864,7.52198362 15.959923,7.33298328 L13.0440522,5.65656807 L16.2429978,3.81739081 Z" id="Combined-Shape"></path>
        </g>
    </g>
</svg>