<svg id="Layer_1" data-name="Layer 1" xmlns="http://www.w3.org/2000/svg" viewBox="0 0 309.44 79.82"><defs><style>.cls-1{fill:#76777a}</style></defs><path class="cls-1" d="M0 48.1V0h4.6a6.78 6.78 0 0 1 6.78 6.78v21.39C18.76 21.59 25 19 33.4 18.79c16-.33 30 11.58 31.28 27.56 1.58 19.1-12.31 33.47-30.4 33.47C14.41 79.82 0 67.5 0 48.1zm11.2 3.78C12.32 61.83 21.82 70 31.82 70.19c13 .2 21.93-8.3 21.93-20.89s-8.68-20.89-21.36-20.89c-13.55 0-22.73 9.84-21.2 23.48zM83.68 20v8.57c7.16-8 11.42-10.09 19.8-10.09a46.18 46.18 0 0 1 7.29.59v11.37a29.47 29.47 0 0 0-7.9-1.06c-6.07 0-11.17 2-14.94 5.75-3.28 3.29-4.25 5.87-4.25 11v31.72H71.9V20zM113.57 39.12c.61-5.63 1.7-8.68 4.13-11.62 4.86-6 13.61-9 26-9 9.84 0 17 1.53 22 4.81C169.8 26 171.5 30 171.5 37v25.7c0 5.63 1.46 7.63 5.47 7.51a25 25 0 0 0 2.67-.24v7.75a17.54 17.54 0 0 1-6.2.94c-7.41 0-10.81-2.23-13.11-8.68-7.29 6.69-14.82 9.51-25.63 9.51-14.45 0-23.32-6.57-23.32-17.25a15.19 15.19 0 0 1 9.11-14.08c4.37-1.88 7-2.46 19.56-3.76 10.69-1.06 12.51-1.29 15.55-2.23 3.28-1.06 4.74-2.81 4.74-5.75 0-6.22-5.22-9-16.16-9-10.34 0-15.66 2-17.8 7.28a7 7 0 0 1-6.51 4.46zM160.33 49a115.67 115.67 0 0 1-23 4.23c-10.57 1.06-13.85 3-13.85 8.33 0 5.87 4.86 8.92 14.45 8.92 7.9 0 13.85-2 18.1-5.87 3.4-3.17 4.25-5.4 4.25-10.92zM208.16 77.85h-3a7 7 0 0 1-6.3-3.91L173.34 20h7.08a10.41 10.41 0 0 1 9.58 6.12l17 38.82L224.55 26a10.41 10.41 0 0 1 9.53-6h6.43l-26.07 54a7 7 0 0 1-6.28 3.85zM248.49 52.26c1.21 11.15 10 18.07 23 18.07 7.38 0 12.88-2.19 16.35-6.58a10.53 10.53 0 0 1 8.25-4h6.85c-6 13.15-16.64 19.6-32.55 19.6-19.92 0-33.28-12.09-33.28-30.16s13.73-30.75 33.53-30.75c14.33 0 25.87 6.46 30.49 17.25 2.06 4.93 2.92 9.39 2.92 16.54zM292 43.35c-2.67-10.21-10.57-16-21.5-16s-18.83 5.75-21.62 16zM309.44 20.72a4.91 4.91 0 1 1-5-4.78h.15a4.8 4.8 0 0 1 4.89 4.71zm-8.59 0a3.7 3.7 0 0 0 3.59 3.82h.14a3.66 3.66 0 0 0 3.64-3.67v-.12a3.69 3.69 0 1 0-7.37-.32q-.01.15-.01.29zm2.94 2.51h-1.11v-4.78a9.64 9.64 0 0 1 1.84-.15 3 3 0 0 1 1.66.35 1.33 1.33 0 0 1 .46 1 1.23 1.23 0 0 1-1 1.11v.06a1.41 1.41 0 0 1 .87 1.16 3.61 3.61 0 0 0 .35 1.19h-1.2a4.15 4.15 0 0 1-.38-1.16c-.09-.52-.38-.76-1-.76h-.52zm0-2.71h.52c.61 0 1.11-.2 1.11-.7s-.32-.73-1-.73a2.6 2.6 0 0 0-.61.06z"/></svg>