<svg data-name="Layer 1" xmlns="http://www.w3.org/2000/svg" viewBox="0 0 121.592 142.697"><g data-name="Layer 2"><path data-name="white fill" fill="#fff" d="M91.132 114.449h-57.5L11.799 56.65V19.782h98V56.65l-18.667 57.799z"/><path d="M117.19 34.208l3.058-6.864a2.348 2.348 0 0 0-.475-2.607l-8.318-8.413a13.43 13.43 0 0 0-13.95-3.247l-2.326.806L82.465.116 60.907 0h-.14L39.07.174 26.373 14.052l-2.262-.796a13.466 13.466 0 0 0-14.086 3.276L1.56 25.105a1.87 1.87 0 0 0-.376 2.078l3.194 7.124L0 46.25l2.834 10.766 12.906 49.077a25 25 0 0 0 9.675 14.006s15.669 11.053 31.133 21.092a6.902 6.902 0 0 0 8.612-.006c17.367-11.385 31.108-21.13 31.108-21.13a25.006 25.006 0 0 0 9.658-14.02l12.845-49.096 2.82-10.783zM79.826 98.141l-6.153 4.401a60.276 60.276 0 0 0-3.768 2.981l-1.74 1.518-3.623 3.164-1.72 1.502a2.82 2.82 0 0 1-3.614-.01l-1.64-1.45a500.8 500.8 0 0 0-3.622-3.165l-1.729-1.493a59.896 59.896 0 0 0-3.784-2.96l-6.147-4.344a1.35 1.35 0 0 1 .169-2.499l7.084-3.691a67.283 67.283 0 0 1 4.354-2.034l3.853-1.6a18.424 18.424 0 0 1 2.536-.924h1.53a18.413 18.413 0 0 1 2.537.92l3.854 1.596a75.315 75.315 0 0 1 4.367 2.01l7.068 3.59a1.342 1.342 0 0 1 .188 2.488zm28.127-49.314a9.498 9.498 0 0 1-.367 1.208 73.96 73.96 0 0 1-3.15 3.63L90.44 68.56a4.018 4.018 0 0 0-.709 3.967l2.3 5.426a7.055 7.055 0 0 1 .113 4.473l-.462 1.264a12.143 12.143 0 0 1-3.726 5.236l-2.201 1.796a4.16 4.16 0 0 1-4.036.489l-7.824-3.718a19.878 19.878 0 0 1-3.96-2.641l-6.272-5.645a2.507 2.507 0 0 1-.186-3.54l.055-.06 14.119-9.536a2.736 2.736 0 0 0 .861-3.468l-5.493-10.3a5.356 5.356 0 0 1-.27-4.093 6.25 6.25 0 0 1 3.11-2.824l17.169-6.51c1.237-.468 1.171-.953-.146-1.076l-10.087-.945a15.562 15.562 0 0 0-4.71.425l-8.781 2.459a2.693 2.693 0 0 0-1.88 3.014l3.468 18.835a9.735 9.735 0 0 1 .176 3.18c-.143.447-1.315 1.052-2.605 1.345l-4.811 1.092a13.043 13.043 0 0 1-4.698.03l-5.348-1.14c-1.293-.275-2.47-.867-2.612-1.315a9.744 9.744 0 0 1 .172-3.18l3.45-18.838a2.692 2.692 0 0 0-1.883-3.012l-8.785-2.448a15.567 15.567 0 0 0-4.711-.42l-10.086.957c-1.317.124-1.382.609-.145 1.076l17.178 6.488a6.25 6.25 0 0 1 3.113 2.82 5.354 5.354 0 0 1-.266 4.094l-5.48 10.303a2.736 2.736 0 0 0 .864 3.468l14.131 9.523a2.506 2.506 0 0 1-.067 3.544l-.06.055-6.265 5.653a19.878 19.878 0 0 1-3.956 2.646l-7.82 3.727a4.16 4.16 0 0 1-4.036-.483L34.14 88.96a12.15 12.15 0 0 1-3.734-5.232l-.464-1.264a7.052 7.052 0 0 1 .107-4.473l2.294-5.428a4.018 4.018 0 0 0-.713-3.967L17.62 53.718a74.04 74.04 0 0 1-3.156-3.626 9.48 9.48 0 0 1-.368-1.207l-.201-.639a14.32 14.32 0 0 1 .542-3.718 31.46 31.46 0 0 1 1.89-3.146l3.968-5.87a74.075 74.075 0 0 1 2.846-3.874l5.351-6.715a18.737 18.737 0 0 1 1.592-1.863.182.182 0 0 0 .107 0c.007-.01 1.077.186 2.376.436l8.195 1.573c1.299.25 2.912.557 3.586.684a9.332 9.332 0 0 0 3.511-.51l6.47-2.098a68.13 68.13 0 0 1 4.631-1.285 9.864 9.864 0 0 1 2.047-.11 9.863 9.863 0 0 1 2.047.107c1.29.297 3.374.873 4.633 1.28l6.472 2.09a9.333 9.333 0 0 0 3.512.506c.674-.128 2.287-.438 3.586-.69l8.193-1.582c1.299-.251 2.368-.449 2.375-.44a.182.182 0 0 0 .107 0 18.735 18.735 0 0 1 1.594 1.862l5.36 6.708a74.117 74.117 0 0 1 2.85 3.87l3.975 5.866a21.576 21.576 0 0 1 2.278 4.296 16.845 16.845 0 0 1 .164 2.565z" fill="#fb542b"/></g></svg>