<svg data-name="Layer 1" xmlns="http://www.w3.org/2000/svg" viewBox="0 0 1751.9 403.55"><path d="M212.69 387.87c-12.87 6.16-41.42 15.67-77.8 15.67C53.18 403.54 0 348.13 0 265.3c0-83.4 57.09-144.4 145.52-144.4 29.1 0 54.85 7.28 68.28 14.55L202.61 173c-11.75-6.16-30.22-12.87-57.09-12.87-62.13 0-95.71 46.45-95.71 102.43 0 62.69 40.3 101.3 94 101.3a141.09 141.09 0 0 0 60.45-12.87zM270.34 0h49.25v169.59h1.12A92.7 92.7 0 0 1 356 134.33a101 101 0 0 1 50.37-13.43c36.38 0 94.59 22.39 94.59 115.3v161.19h-49.28V241.8c0-43.65-16.24-80-62.69-80-31.9 0-56.53 22.39-66 48.69-2.8 7.28-3.36 14.55-3.36 23.51v163.39h-49.29zM581 211c0-31.9-.56-59.33-2.24-84.52h43.1l2.24 53.73h1.68c12.31-36.38 42.53-59.33 75.56-59.33a100.8 100.8 0 0 1 13.4 1.12v46.46c-5-1.12-10.08-1.12-16.79-1.12-34.7 0-59.33 25.74-66 62.68a147.36 147.36 0 0 0-1.72 22.98v144.4H581zm422.58 48.69c0 100.18-70 143.85-134.89 143.85-72.76 0-129.85-53.73-129.85-139.36 0-90.11 59.89-143.28 134.33-143.28 77.77 0 130.39 56.52 130.39 138.8zM789.2 262.5c0 59.33 33.59 104.1 81.71 104.1 47 0 82.28-44.22 82.28-105.22 0-45.9-22.94-103.55-81.16-103.55-57.66 0-82.83 53.74-82.83 104.67zm276.49-62.69c0-28.55-1.12-50.93-2.24-73.32h43.1l2.24 44.22h1.68c15.12-25.75 40.3-49.81 85.64-49.81 36.37 0 64.37 22.39 76.12 54.29h1.12a106.91 106.91 0 0 1 30.78-35.26c16.23-12.31 33.59-19 59.33-19 36.38 0 89.55 23.51 89.55 117.54v159h-48.14V244.59c0-52.61-19.59-83.39-58.77-83.39-28.55 0-49.81 20.71-58.76 44.21a84 84 0 0 0-3.93 24.63v167.35h-48.14V235.07c0-43.1-19-73.88-56.53-73.88-30.22 0-53.18 24.62-61 49.25-2.8 6.72-3.92 15.67-3.92 24.06v162.88h-48.14zm494.22 71.08c1.12 66.61 43.1 94 92.9 94 35.26 0 57.09-6.16 75-14l9 35.26c-17.35 7.84-47.57 17.35-90.67 17.35-83.39 0-133.21-55.41-133.21-137.12S1561 120.89 1640 120.89c89 0 111.95 77.24 111.95 127.05 0 10.07-.57 17.35-1.69 22.94zm144.4-35.26c.57-30.78-12.87-79.48-68.28-79.48-50.37 0-71.65 45.34-75.55 79.48z" fill="#77787a"/></svg>