<svg id="Layer_1" data-name="Layer 1" xmlns="http://www.w3.org/2000/svg" xmlns:xlink="http://www.w3.org/1999/xlink" viewBox="0 0 661.62 661.84"><defs><style>.cls-2{fill-opacity:.1}</style><linearGradient id="linear-gradient" x1="939.44" y1="435.85" x2="939.44" y2="373.45" gradientTransform="matrix(3.89 0 0 -3.89 -3319.9 1905.22)" gradientUnits="userSpaceOnUse"><stop offset="0" stop-color="#81b4e0"/><stop offset="1" stop-color="#0c5a94"/></linearGradient><linearGradient id="linear-gradient-2" x1="942.11" y1="490.04" x2="942.11" y2="420.7" gradientTransform="matrix(3.89 0 0 -3.89 -3319.9 1905.22)" gradientUnits="userSpaceOnUse"><stop offset="0" stop-color="#f06b59"/><stop offset="1" stop-color="#df2227"/></linearGradient><linearGradient id="linear-gradient-3" x1="874.89" y1="344.05" x2="909.94" y2="401.95" gradientTransform="matrix(3.89 0 0 -3.89 -3319.9 1905.22)" gradientUnits="userSpaceOnUse"><stop offset="0" stop-color="#388b41"/><stop offset="1" stop-color="#4cb749"/></linearGradient><linearGradient id="linear-gradient-4" x1="992.29" y1="337.9" x2="954.96" y2="427.79" gradientTransform="matrix(3.89 0 0 -3.89 -3319.9 1905.22)" gradientUnits="userSpaceOnUse"><stop offset="0" stop-color="#e4b022"/><stop offset=".3" stop-color="#fcd209"/></linearGradient><linearGradient id="linear-gradient-5" x1="886.5" y1="395.56" x2="886.5" y2="456.51" gradientTransform="matrix(3.89 0 0 -3.89 -3319.9 1905.22)" gradientUnits="userSpaceOnUse"><stop offset="0" stop-opacity=".15"/><stop offset=".3" stop-opacity=".06"/><stop offset="1" stop-opacity=".03"/></linearGradient><linearGradient id="linear-gradient-6" x1="970.62" y1="375.88" x2="928.72" y2="333.22" xlink:href="#linear-gradient-5"/><linearGradient id="linear-gradient-7" x1="970.01" y1="363.61" x2="976.11" y2="423.79" xlink:href="#linear-gradient-5"/></defs><circle cx="331.6" cy="332.18" r="325.74" fill="#fff"/><path class="cls-2" d="M538.89 391.41c0-114.48-92.81-207.29-207.29-207.29s-207.29 92.8-207.29 207.29h59.22a148.06 148.06 0 1 1 296.13 0"/><circle class="cls-2" cx="346.41" cy="373.64" r="112.53"/><circle cx="331.6" cy="332.18" r="121.41" fill="url(#linear-gradient)"/><path d="M627.73 184.12C546.2 20.09 347.14-46.79 183.11 34.73a331.61 331.61 0 0 0-126.9 110.89l133.26 231a148.06 148.06 0 0 1 139.17-192.5" fill="url(#linear-gradient-2)"/><path d="M56.21 145.63C-45.79 297.78-5.13 503.79 147 605.79a331.67 331.67 0 0 0 158 55.1L444.14 424a148.08 148.08 0 0 1-254.67-47.38" fill="url(#linear-gradient-3)"/><path d="M305 660.89c182.6 13.8 341.86-123.07 355.67-305.72a331.6 331.6 0 0 0-32.95-171H328.64A148.07 148.07 0 0 1 444.13 424" fill="url(#linear-gradient-4)"/><path d="M56.21 145.63l133.26 231a148.06 148.06 0 0 1 5.92-100.69L62.13 136.74" fill="url(#linear-gradient-5)"/><path d="M305 660.89L444.14 424a148.11 148.11 0 0 1-85.88 50.34L299 660.89" fill="url(#linear-gradient-6)"/><path d="M627.73 184.12H328.64a148.07 148.07 0 0 1 115.49 56.27L633.65 193" fill="url(#linear-gradient-7)"/></svg>