<?xml version="1.0" encoding="UTF-8"?>
<svg width="17px" height="17px" viewBox="0 0 17 17" version="1.1" xmlns="http://www.w3.org/2000/svg" xmlns:xlink="http://www.w3.org/1999/xlink">
    <!-- Generator: Sketch 50.2 (55047) - http://www.bohemiancoding.com/sketch -->
    <title>sendSymbol Copy 5</title>
    <desc>Created with Sketch.</desc>
    <defs></defs>
    <g id="Page-1" stroke="none" stroke-width="1" fill="none" fill-rule="evenodd">
        <g id="loan-options" transform="translate(-752.000000, -311.000000)" fill="#FFFFFF" fill-rule="nonzero">
            <g id="send-copy" transform="translate(743.000000, 304.000000)">
                <g id="Group-10-Copy-3" transform="translate(9.000000, 7.000000)">
                    <path d="M1.12553086,9.44444444 C0.411170112,9.44444444 -0.151188131,10.0599389 0.0364901621,10.7385222 C1.03435677,14.3468667 4.38598541,17 8.36696947,17 C13.1348133,17 17,13.1944556 17,8.5 C17,3.80558222 13.1348133,0 8.36696947,0 C4.38598541,0 1.03435677,2.65308611 0.0364901621,6.26144 C-0.151188131,6.94008944 0.411170112,7.55555556 1.12553086,7.55555556 L9.888325,7.55555556 L7.20866044,4.92386111 C6.83736463,4.55395056 6.83933103,3.95820444 7.21306327,3.59068333 C7.5868051,3.22316222 8.19187301,3.22196278 8.56711123,3.58799167 L12.8945281,7.84002222 C13.07467,8.01703944 13.1759639,8.25736278 13.1759639,8.50798056 C13.1759639,8.75859833 13.07467,8.99892167 12.8945281,9.17593889 L8.56711123,13.4281111 C8.19241977,13.7973889 7.58457971,13.7977667 7.2094566,13.4288667 C6.83432389,13.0599667 6.83396898,12.4614722 7.20866044,12.0921 L9.90463178,9.44444444 L1.12553086,9.44444444 Z" id="sendSymbol-Copy-5" transform="translate(8.500000, 8.500000) scale(1, -1) rotate(-90.000000) translate(-8.500000, -8.500000) "></path>
                </g>
            </g>
        </g>
    </g>
</svg>