<?xml version="1.0" encoding="UTF-8"?>
<svg width="22px" height="20px" viewBox="0 0 22 20" version="1.1" xmlns="http://www.w3.org/2000/svg" xmlns:xlink="http://www.w3.org/1999/xlink">
    <!-- Generator: Sketch 50.2 (55047) - http://www.bohemiancoding.com/sketch -->
    <title>Shape</title>
    <desc>Created with Sketch.</desc>
    <defs></defs>
    <g id="Page-1" stroke="none" stroke-width="1" fill="none" fill-rule="evenodd">
        <g id="loan-overview" transform="translate(-84.000000, -220.000000)" fill="#2d2d31" fill-rule="nonzero">
            <path d="M84.1458922,232.089705 L86.9615498,226.099734 C86.9862197,226.045432 86.9843631,225.983617 86.9564736,225.930726 C86.928584,225.877835 86.8774882,225.839229 86.8167731,225.825173 C86.1679469,225.679164 85.5681893,225.381696 85.0723448,224.959972 L84.9570988,224.846492 C84.8784582,224.770825 84.8348985,224.668681 84.8360336,224.562604 C84.8371687,224.456527 84.8829052,224.355237 84.9631488,224.28109 L85.5681479,223.721089 C85.7354101,223.566475 86.0034568,223.568962 86.1674779,223.726649 L86.2751508,223.83293 C86.8304513,224.236628 87.5208686,224.437906 88.2202019,224.399971 C88.8830528,224.355524 89.5361403,224.224104 90.1606839,224.00949 C91.2634181,223.672044 92.3975831,223.434468 93.5478753,223.299969 C93.6942532,223.285007 93.810279,223.176405 93.8275711,223.038168 C93.934305,222.134108 94.1406162,221.243059 94.4431471,220.379523 C94.5230246,220.15288 94.747346,220 95.0000214,220 C95.2526968,220 95.4770182,220.15288 95.5568956,220.379523 C95.8594622,221.243046 96.0657465,222.134101 96.1723871,223.038168 C96.189724,223.176384 96.3057264,223.284965 96.4520828,223.299969 C97.6023806,223.43452 98.7365457,223.672149 99.8392743,224.00965 C100.463829,224.224201 101.116915,224.355567 101.779756,224.399971 C102.479039,224.437921 103.169412,224.236671 103.72468,223.83301 L103.832438,223.726729 C103.99642,223.569029 104.264459,223.566542 104.431683,223.721169 L105.036682,224.28117 C105.116926,224.355317 105.162663,224.456607 105.163798,224.562684 C105.164933,224.668761 105.121373,224.770905 105.042732,224.846572 L104.927613,224.960052 C104.431652,225.381742 103.831819,225.67919 103.182931,225.825213 C103.122231,225.839288 103.071157,225.877902 103.043285,225.93079 C103.015413,225.983679 103.013568,226.045483 103.038239,226.099774 L105.853939,232.089745 C105.950185,232.294295 105.99994,232.515669 105.999985,232.739546 L105.999985,233.287547 C106.001762,233.568543 105.846042,233.829422 105.590701,233.973229 C103.475048,235.075366 100.909548,235.075366 98.793895,233.973229 C98.5386059,233.829451 98.3828945,233.568646 98.3846109,233.287707 L98.3846109,232.739706 C98.3845912,232.515823 98.4343038,232.294431 98.5305299,232.089865 L101.287211,226.225534 C101.314081,226.167438 101.310222,226.100737 101.276809,226.045759 C101.243396,225.990781 101.184388,225.95404 101.117769,225.946734 C100.518871,225.855214 99.9284191,225.719751 99.3517634,225.541573 C98.4251045,225.260692 97.4750716,225.054095 96.5117366,224.923972 C96.4507456,224.91665 96.3893524,224.93432 96.3430215,224.97253 C96.2966906,225.01074 96.2698385,225.065848 96.2692292,225.123972 L96.2692292,235.199991 C96.2692292,236.967305 97.7845711,238.399997 99.6538399,238.399997 C99.8874985,238.399997 100.076916,238.579083 100.076916,238.799998 L100.076916,239.599999 C100.076916,239.820914 99.8874985,240 99.6538399,240 L90.3461605,240 C90.1125019,240 89.9230842,239.820914 89.9230842,239.599999 L89.9230842,238.799998 C89.9230842,238.579083 90.1125019,238.399997 90.3461605,238.399997 C92.2154294,238.399997 93.7307712,236.967305 93.7307712,235.199991 L93.7307712,225.123972 C93.7300781,225.065897 93.7031899,225.010864 93.6568694,224.972716 C93.6105489,224.934569 93.5492041,224.916935 93.4882639,224.924252 C92.5249644,225.05426 91.5749589,225.26075 90.6483216,225.541533 C90.071659,225.719659 89.4812077,225.855082 88.8823164,225.946574 C88.8156743,225.953846 88.7566307,225.990573 88.7231895,226.045556 C88.6897482,226.100539 88.6858737,226.16726 88.7127474,226.225374 L91.4695551,232.089705 C91.5657365,232.294281 91.6154195,232.51567 91.6153895,232.739546 L91.6153895,233.287547 C91.6172002,233.568561 91.4614525,233.829462 91.2060632,233.973229 C90.1709362,234.529031 88.9980144,234.814382 87.8077025,234.79999 C86.6173819,234.814411 85.4444393,234.529116 84.4092572,233.973389 C84.1539194,233.829584 83.9982129,233.568699 84.0000155,233.287707 L84.0000155,232.739706 C83.9999751,232.515773 84.0496731,232.294328 84.1458922,232.089705 Z M87.7019334,228.464658 L86.1577048,231.749304 C86.0904458,231.892457 86.1043401,232.05806 86.194629,232.189397 C86.2849179,232.320733 86.4393461,232.399976 86.6050234,232.399986 L89.0103816,232.399986 C89.1760852,232.400039 89.3305617,232.320809 89.4208649,232.189451 C89.5111681,232.058094 89.5250303,231.892454 89.4577002,231.749304 L87.9134716,228.464658 C87.8948347,228.425205 87.8534045,228.399799 87.8077025,228.399799 C87.7620005,228.399799 87.7205703,228.425205 87.7019334,228.464658 Z M100.989577,232.399986 L103.395019,232.399986 C103.560698,232.399984 103.715129,232.320739 103.805413,232.189398 C103.895696,232.058057 103.909575,231.89245 103.842296,231.749304 L102.298067,228.464658 C102.279457,228.425175 102.238018,228.399741 102.192298,228.399741 C102.146578,228.399741 102.105139,228.425175 102.086529,228.464658 L100.5423,231.749304 C100.475021,231.89245 100.4889,232.058057 100.579183,232.189398 C100.669467,232.320739 100.823898,232.399984 100.989577,232.399986 Z" id="Shape"></path>
        </g>
    </g>
</svg>