<?xml version="1.0" encoding="UTF-8"?>
<svg width="15px" height="15px" viewBox="0 0 15 15" version="1.1" xmlns="http://www.w3.org/2000/svg" xmlns:xlink="http://www.w3.org/1999/xlink">
    <!-- Generator: Sketch 49.3 (51167) - http://www.bohemiancoding.com/sketch -->
    <title>Group</title>
    <desc>Created with Sketch.</desc>
    <defs></defs>
    <g id="Page-1" stroke="none" stroke-width="1" fill="none" fill-rule="evenodd">
        <g id="Group" fill="#E8E9ED">
            <path d="M4.46149554,3.38169643 C3.17243304,3.38169643 2.46930804,4.26897321 2.36886161,6.02678571 L0.00837053571,6.02678571 C-0.00837053571,2.87946429 1.69921875,0.9375 4.51171875,0.9375 C5.76729911,0.9375 6.87220982,1.48995536 8.16127232,2.77901786 C9.16573661,3.83370536 9.83537946,4.25223214 10.5217634,4.25223214 C11.8108259,4.25223214 12.530692,3.36495536 12.6311384,1.60714286 L14.9916295,1.60714286 C14.9916295,4.77120536 13.2840402,6.69642857 10.4882813,6.69642857 C9.21595982,6.69642857 8.11104911,6.14397321 6.82198661,4.87165179 C5.78404018,3.78348214 5.14787946,3.38169643 4.46149554,3.38169643 Z M4.46149554,10.7142857 C3.17243304,10.7142857 2.46930804,11.6015625 2.36886161,13.359375 L0.00837053571,13.359375 C-0.00837053571,10.2120536 1.69921875,8.27008929 4.51171875,8.27008929 C5.76729911,8.27008929 6.87220982,8.82254464 8.16127232,10.1116071 C9.16573661,11.1662946 9.83537946,11.5848214 10.5217634,11.5848214 C11.8108259,11.5848214 12.530692,10.6975446 12.6311384,8.93973214 L14.9916295,8.93973214 C14.9916295,12.1037946 13.2840402,14.0290179 10.4882813,14.0290179 C9.21595982,14.0290179 8.11104911,13.4765625 6.82198661,12.2042411 C5.78404018,11.1160714 5.14787946,10.7142857 4.46149554,10.7142857 Z" id="≈"></path>
        </g>
    </g>
</svg>