<?xml version="1.0" encoding="UTF-8"?>
<svg width="18px" height="18px" viewBox="0 0 18 18" version="1.1" xmlns="http://www.w3.org/2000/svg" xmlns:xlink="http://www.w3.org/1999/xlink">
    <!-- Generator: Sketch 50.2 (55047) - http://www.bohemiancoding.com/sketch -->
    <title>circlecheckmark</title>
    <desc>Created with Sketch.</desc>
    <defs></defs>
    <g id="Page-1" stroke="none" stroke-width="1" fill="none" fill-rule="evenodd" opacity="0.600000024">
        <g id="loan-overview" transform="translate(-309.000000, -223.000000)" fill="#6B6B6B" fill-rule="nonzero">
            <g id="circlecheckmark" transform="translate(309.000000, 223.000000)">
                <path d="M8.82,17.6402939 C3.95087731,17.6402939 0.00367346939,13.69309 0.00367346939,8.82396735 C0.00367346939,3.95484465 3.95087731,0.00764081633 8.82,0.00764081633 C13.6891227,0.00764081633 17.6363265,3.95484465 17.6363265,8.82396735 C17.6363265,13.69309 13.6891227,17.6402939 8.82,17.6402939 Z M13.742449,4.62937959 C13.5882987,4.47684526 13.3746649,4.40015545 13.158697,4.41982559 C12.9427292,4.43949574 12.7464652,4.55351864 12.6224082,4.73139184 L7.90427755,11.4869388 L5.74633469,8.3971102 C5.62227763,8.21923701 5.42601371,8.1052141 5.21004585,8.08554396 C4.994078,8.06587381 4.78044415,8.14256362 4.62629388,8.29509796 C4.37071809,8.56372945 4.34422938,8.97684186 4.56340408,9.27591429 L6.99685714,12.7602 C7.20400391,13.0565265 7.54278159,13.2330505 7.90433265,13.2330505 C8.26588371,13.2330505 8.6046614,13.0565265 8.81180816,12.7602 L13.8054122,5.61001224 C14.0244485,5.31095397 13.9979322,4.89797049 13.742449,4.62937959 Z" id="Shape"></path>
            </g>
        </g>
    </g>
</svg>