<?xml version="1.0" encoding="UTF-8"?>
<svg width="17px" height="18px" viewBox="0 0 17 18" version="1.1" xmlns="http://www.w3.org/2000/svg" xmlns:xlink="http://www.w3.org/1999/xlink">
    <!-- Generator: Sketch 50.2 (55047) - http://www.bohemiancoding.com/sketch -->
    <title>database</title>
    <desc>Created with Sketch.</desc>
    <defs></defs>
    <g id="Page-1" stroke="none" stroke-width="1" fill="none" fill-rule="evenodd" opacity="0.600000024">
        <g id="loan-options" transform="translate(-510.000000, -223.000000)" fill="#6B6B6B" fill-rule="nonzero">
            <g id="database" transform="translate(510.000000, 223.000000)">
                <path d="M8.5,18 C3.80562,18 7.30369405e-16,16.3516091 7.30369405e-16,14.3181818 L7.30369405e-16,13.6935818 C-0.0011337059,13.4641541 0.134858571,13.2545351 0.349524156,13.154824 C0.564189741,13.0551129 0.819286362,13.083073 1.0051675,13.2266864 C2.465935,14.3649 5.28904,15.1363636 8.5,15.1363636 C11.71096,15.1363636 14.5340225,14.3649 15.994875,13.2266864 C16.1807568,13.0830985 16.4358355,13.0551534 16.6504849,13.1548612 C16.8651343,13.2545691 17.0011204,13.4641695 17,13.6935818 L17,14.3181818 C17,16.3516091 13.1944225,18 8.5,18 Z M8.5,13.5 C3.80562,13.5 7.30445638e-16,11.8516091 7.30445638e-16,9.81818182 L7.30445638e-16,9.19358182 C-0.0011337059,8.96415413 0.134858571,8.75453514 0.349524156,8.65482401 C0.564189741,8.55511288 0.819286362,8.58307297 1.0051675,8.72668636 C2.465935,9.8649 5.28904,10.6363636 8.5,10.6363636 C11.71096,10.6363636 14.5340225,9.8649 15.994875,8.72668636 C16.1807568,8.58309848 16.4358355,8.55515342 16.6504849,8.65486125 C16.8651343,8.75456907 17.0011204,8.96416953 17,9.19358182 L17,9.81818182 C17,11.8516091 13.1944225,13.5 8.5,13.5 Z M8.5,9 C3.80562,9 1.06581563e-15,7.35160909 1.06581563e-15,5.31818182 L1.06581563e-15,3.68181818 C1.06581563e-15,1.64839091 3.80562,0 8.5,0 C13.19438,0 17,1.64839091 17,3.68181818 L17,5.31818182 C17,7.35160909 13.1944225,9 8.5,9 Z" id="Shape"></path>
            </g>
        </g>
    </g>
</svg>