
		<svg xmlns="http://www.w3.org/2000/svg" xmlns:xlink="http://www.w3.org/1999/xlink" version="1.1" width="3270.2702702702704" height="1507.8006435084988">
			
			<g transform="scale(13.513513513513514) translate(10, 10)">
				<defs id="SvgjsDefs2162"></defs><g id="SvgjsG2163" featureKey="root" fill="#ffffff" transform="matrix(1,0,0,1,0,0)"></g><g id="SvgjsG2164" featureKey="symbol1" fill="#418ce4" transform="matrix(0.9234583317663954,0,0,0.9234583317663954,-1.7833285247020427,-10.61053778199003)"><title xmlns="http://www.w3.org/2000/svg">wing_25Icon2</title><path xmlns="http://www.w3.org/2000/svg" d="M60.67,77.45l.55.23a102.26,102.26,0,0,1-16.44,3.84C36.57,83,28.11,84.46,20.67,89c0-.19,0-.39.08-.58a1,1,0,0,0,.36-.44c3-6.82,13.47-10.16,24.59-12.59a21,21,0,0,1,11.58.71C58.65,76.59,59.74,77.05,60.67,77.45Z"></path><path xmlns="http://www.w3.org/2000/svg" d="M78,64.13c-4.24,3.62-13.77,5.47-23.83,7.42C40.34,74.23,28,76.79,21.86,83.22a35.51,35.51,0,0,1,3.56-8,0,0,0,0,1,0,0c4.43-6.6,13-10,22.66-12.9a26.72,26.72,0,0,1,7.64-1.13A81.68,81.68,0,0,1,78,64.13Z"></path><path xmlns="http://www.w3.org/2000/svg" d="M76.83,44.92c3.22-.42,6.3-.83,9-1.32C78,51.62,65.82,55.06,54,58.39c-7.89,2.23-15.6,4.42-21.65,7.89,5.47-5.59,12.24-10.43,19.13-15.1a13,13,0,0,1,2-1.17C59.94,47.14,68.8,46,76.83,44.92Z"></path><path xmlns="http://www.w3.org/2000/svg" d="M45.12,39.06c13.35-7,28.39-14.9,40.81-27.57-3.62,20.82-33.43,36.2-38.57,40-13.84,9.58-26.57,20.21-28.7,36.82-.21-.36-.41-.72-.63-1.09-2.59-4.45-5.27-9-5.27-16.15C12.76,56,27,48.54,45.12,39.06Z"></path></g><g id="SvgjsG2165" featureKey="text1" fill="#418ce4" transform="matrix(3.344481861368277,0,0,3.344481861368277,88.98662160688075,-16.976590004854494)"><path d="M3.4 21.96 l6.34 0 l0 2.04 l-6.74 0 l-1.8 0 l0 -14 l2.2 0 l6.16 0 l0 2.04 l-6.16 0 l0 3.92 l4.74 0 l0 2 l-4.74 0 l0 4 z M13.9 9.86 l0 14.14 l-2.16 0 l0 -14.14 l2.16 0 z M21.64 13.42 c2.36 0 5.18 1.8 5.18 5.38 c0 3.64 -2.82 5.4 -5.18 5.4 c-1.88 0 -3.12 -1.08 -3.38 -1.92 l0 5.52 l-2.16 0 l0 -6.34 l0 -7.86 l2.16 0 l0 1.62 c0.26 -0.68 1.5 -1.8 3.38 -1.8 z M21.36 22.28 c1.62 0 3.36 -1.16 3.36 -3.48 c0 -2.3 -1.74 -3.46 -3.36 -3.46 s-3.2 1.14 -3.2 3.46 c0 2.34 1.58 3.48 3.2 3.48 z M34.34 13.44 c2 0 3.96 1.3 3.96 4.54 l0 6.02 l-2.16 0 l0 -5.9 c0 -1.98 -0.94 -2.76 -2.28 -2.76 c-1.72 0 -2.84 1.6 -3.08 2.62 l0 6.04 l-2.16 0 l0 -14.14 l2.16 0 l0 5.94 c0.2 -0.64 1.4 -2.36 3.56 -2.36 z"></path></g>
			</g>
		</svg>
	