<svg xmlns="http://www.w3.org/2000/svg" width="12" height="13" viewBox="0 0 12 13">
    <g fill="none" fill-rule="nonzero">
        <path fill="#97A6BE" d="M1.367 9.628l-.161-.01a5.885 5.885 0 0 0 10.601-4.581 12.674 12.674 0 0 1-10.44 4.59z"/>
        <path fill="#025C90" d="M0 5.885a5.856 5.856 0 0 0 1.033 3.328l.161.01c.487.026.974.023 1.46-.007V5.822c0-.411.334-.745.745-.745h.354a.745.745 0 0 1 .747.745v3.141c.155-.033.31-.068.462-.106V4.493a.8.8 0 0 1 .8-.8h.244a.8.8 0 0 1 .802.8v3.74c.195-.082.386-.171.577-.263V3.532c0-.485.393-.878.878-.878h.09c.485 0 .878.393.878.878v3.34a12.753 12.753 0 0 0 2.403-2.238A5.885 5.885 0 0 0 0 5.884"/>
    </g>
</svg>
