<?xml version="1.0" encoding="UTF-8"?>
<svg width="17px" height="23px" viewBox="0 0 17 23" version="1.1" xmlns="http://www.w3.org/2000/svg" xmlns:xlink="http://www.w3.org/1999/xlink" xmlns:sketch="http://www.bohemiancoding.com/sketch/ns">
    <!-- Generator: Sketch 3.5.1 (25234) - http://www.bohemiancoding.com/sketch -->
    <title>eur</title>
    <desc>Created with Sketch.</desc>
    <defs></defs>
    <g id="Page-1" stroke="none" stroke-width="1" fill="none" fill-rule="evenodd" sketch:type="MSPage">
        <g id="eur" sketch:type="MSLayerGroup" fill="#000000">
            <path d="M16.4375,0.625 C15.65625,0.4375 14.515625,0.296875 13.203125,0.296875 C7.515625,0.296875 3.4375,3.171875 2.25,7.734375 L0.421875,7.734375 L0.421875,10.171875 L1.90625,10.171875 C1.890625,10.328125 1.890625,10.46875 1.890625,10.625 L1.890625,12.0625 L1.890625,12.328125 L0.421875,12.328125 L0.421875,14.765625 L2.203125,14.765625 C3.328125,19.4375 7.4375,22.390625 13.203125,22.390625 C14.515625,22.390625 15.65625,22.25 16.4375,22.0625 L16.4375,18.03125 C15.703125,18.21875 14.6875,18.328125 13.234375,18.328125 C10.34375,18.328125 8.28125,16.96875 7.359375,14.765625 L13.796875,14.765625 L13.796875,12.328125 L6.84375,12.328125 L6.84375,11.96875 L6.84375,10.703125 C6.84375,10.515625 6.84375,10.34375 6.859375,10.171875 L13.796875,10.171875 L13.796875,7.734375 L7.4375,7.734375 C8.390625,5.640625 10.421875,4.359375 13.234375,4.359375 C14.6875,4.359375 15.703125,4.453125 16.4375,4.65625 L16.4375,0.625 Z" id="€" sketch:type="MSShapeGroup"></path>
        </g>
    </g>
</svg>