<?xml version="1.0" encoding="UTF-8"?>
<svg width="15px" height="11px" viewBox="0 0 15 11" version="1.1" xmlns="http://www.w3.org/2000/svg" xmlns:xlink="http://www.w3.org/1999/xlink">
    <!-- Generator: Sketch 49.3 (51167) - http://www.bohemiancoding.com/sketch -->
    <title>exchange-icon</title>
    <desc>Created with Sketch.</desc>
    <defs></defs>
    <g id="Page-1" stroke="none" stroke-width="1" fill="none" fill-rule="evenodd">
        <g id="exchange-icon" fill="#E8E9ED" fill-rule="nonzero">
            <path d="M14.85,3.225 L10.2,0.075 C9.975,-0.075 9.75,0.075 9.75,0.3 L9.75,2.25 L0.3,2.25 C0.15,2.25 0,2.4 0,2.55 L0,3.45 C0,3.6 0.15,3.75 0.3,3.75 L14.7,3.75 C15,3.75 15.075,3.375 14.85,3.225 Z M5.25,10.2 L5.25,8.25 L14.7,8.25 C14.85,8.25 15,8.1 15,7.95 L15,7.05 C15,6.9 14.85,6.75 14.7,6.75 L0.3,6.75 C-2.91433544e-16,6.75 -0.075,7.125 0.15,7.275 L4.8,10.425 C5.025,10.575 5.25,10.425 5.25,10.2 Z" id="Shape"></path>
        </g>
    </g>
</svg>