<svg data-name="Layer 1" xmlns="http://www.w3.org/2000/svg" viewBox="0 0 430.43 444.27"><defs><radialGradient id="a" cx="-14619.39" cy="-6252.85" fx="-14632.376" r="203.56" gradientTransform="matrix(.76 .03 -.05 1.12 11239.15 7614.29)" gradientUnits="userSpaceOnUse"><stop offset=".1" stop-color="#ffea00"/><stop offset=".17" stop-color="#ffde00"/><stop offset=".28" stop-color="#ffbf00"/><stop offset=".43" stop-color="#ff8e00"/><stop offset=".77" stop-color="#ff272d"/><stop offset=".87" stop-color="#e0255a"/><stop offset=".95" stop-color="#cc2477"/><stop offset="1" stop-color="#c42482"/></radialGradient><radialGradient id="b" cx="-8144.97" cy="-5882.9" r="357.23" gradientTransform="matrix(1.23 0 0 1.23 10280.53 7281.94)" gradientUnits="userSpaceOnUse"><stop offset="0" stop-color="#00ccda"/><stop offset=".22" stop-color="#0083ff"/><stop offset=".26" stop-color="#007af9"/><stop offset=".33" stop-color="#0060e8"/><stop offset=".33" stop-color="#005fe7"/><stop offset=".44" stop-color="#2639ad"/><stop offset=".52" stop-color="#401e84"/><stop offset=".57" stop-color="#4a1475"/></radialGradient><linearGradient id="c" x1="244.11" y1="2705.21" x2="157.69" y2="2422.47" gradientTransform="translate(0 -2376)" gradientUnits="userSpaceOnUse"><stop offset="0" stop-color="#000f43" stop-opacity=".4"/><stop offset=".48" stop-color="#001962" stop-opacity=".17"/><stop offset="1" stop-color="#002079" stop-opacity="0"/></linearGradient><radialGradient id="d" cx="-8944.63" cy="-4755.55" r="120.49" gradientTransform="rotate(5.62 -67738.723 113236.578) scale(1.23)" gradientUnits="userSpaceOnUse"><stop offset="0" stop-color="#ffea00"/><stop offset=".5" stop-color="#ff272d"/><stop offset="1" stop-color="#c42482"/></radialGradient><radialGradient id="e" cx="-8955.53" cy="-4871.09" r="201.22" gradientTransform="rotate(5.62 -67738.723 113236.578) scale(1.23)" gradientUnits="userSpaceOnUse"><stop offset="0" stop-color="#ffe900"/><stop offset=".16" stop-color="#ffaf0e"/><stop offset=".32" stop-color="#ff7a1b"/><stop offset=".47" stop-color="#ff4e26"/><stop offset=".62" stop-color="#ff2c2e"/><stop offset=".76" stop-color="#ff1434"/><stop offset=".89" stop-color="#ff0538"/><stop offset="1" stop-color="#ff0039"/></radialGradient><radialGradient id="f" cx="-8927.07" cy="-4684.56" r="184.64" gradientTransform="rotate(5.62 -67738.723 113236.578) scale(1.23)" gradientUnits="userSpaceOnUse"><stop offset="0" stop-color="#ff272d"/><stop offset=".5" stop-color="#c42482"/><stop offset=".99" stop-color="#620700"/></radialGradient><radialGradient id="g" cx="322.9" cy="2553.9" fx="335.529" r="353.14" gradientTransform="translate(0 -2376)" gradientUnits="userSpaceOnUse"><stop offset=".16" stop-color="#ffea00"/><stop offset=".23" stop-color="#ffde00"/><stop offset=".37" stop-color="#ffbf00"/><stop offset=".54" stop-color="#ff8e00"/><stop offset=".76" stop-color="#ff272d"/><stop offset=".8" stop-color="#f92433"/><stop offset=".84" stop-color="#e91c45"/><stop offset=".89" stop-color="#cf0e62"/><stop offset=".94" stop-color="#b5007f"/></radialGradient><radialGradient id="h" cx="302.65" cy="2390.13" r="402.47" gradientTransform="translate(0 -2376)" gradientUnits="userSpaceOnUse"><stop offset=".28" stop-color="#ffea00"/><stop offset=".4" stop-color="#fd0"/><stop offset=".63" stop-color="#ffba00"/><stop offset=".86" stop-color="#ff9100"/><stop offset=".93" stop-color="#ff6711"/><stop offset=".99" stop-color="#ff4a1d"/></radialGradient><linearGradient id="i" x1="-9255.33" y1="-4836.22" x2="-9116.71" y2="-4871.55" gradientTransform="rotate(5.62 -67738.723 113236.578) scale(1.23)" gradientUnits="userSpaceOnUse"><stop offset="0" stop-color="#c42482" stop-opacity=".5"/><stop offset=".47" stop-color="#ff272d" stop-opacity=".5"/><stop offset=".49" stop-color="#ff2c2c" stop-opacity=".51"/><stop offset=".68" stop-color="#ff7a1a" stop-opacity=".72"/><stop offset=".83" stop-color="#ffb20d" stop-opacity=".87"/><stop offset=".94" stop-color="#ffd605" stop-opacity=".96"/><stop offset="1" stop-color="#ffe302"/></linearGradient><linearGradient id="j" x1="254.4" y1="1002.18" x2="229.77" y2="939.04" gradientTransform="rotate(5.77 8836.052 -1293.654)" gradientUnits="userSpaceOnUse"><stop offset="0" stop-color="#891551" stop-opacity=".6"/><stop offset="1" stop-color="#c42482" stop-opacity="0"/></linearGradient><linearGradient id="k" x1="-25.92" y1="2695.31" x2="16.56" y2="2743.57" gradientTransform="rotate(5.77 24557.304 2679.854)" gradientUnits="userSpaceOnUse"><stop offset=".01" stop-color="#891551" stop-opacity=".5"/><stop offset=".48" stop-color="#ff272d" stop-opacity=".5"/><stop offset="1" stop-color="#ff272d" stop-opacity="0"/></linearGradient><linearGradient id="l" x1="55.88" y1="2777.89" x2="55.91" y2="2744.13" gradientTransform="rotate(5.77 24557.304 2679.854)" gradientUnits="userSpaceOnUse"><stop offset="0" stop-color="#c42482"/><stop offset=".08" stop-color="#c42482" stop-opacity=".81"/><stop offset=".21" stop-color="#c42482" stop-opacity=".57"/><stop offset=".33" stop-color="#c42482" stop-opacity=".36"/><stop offset=".45" stop-color="#c42482" stop-opacity=".2"/><stop offset=".56" stop-color="#c42482" stop-opacity=".09"/><stop offset=".67" stop-color="#c42482" stop-opacity=".02"/><stop offset=".77" stop-color="#c42482" stop-opacity="0"/></linearGradient><linearGradient id="m" x1="280.16" y1="2392.31" x2="418.16" y2="2700.89" gradientTransform="translate(0 -2376)" gradientUnits="userSpaceOnUse"><stop offset="0" stop-color="#fff14f"/><stop offset=".27" stop-color="#ffee4c"/><stop offset=".45" stop-color="#ffe643"/><stop offset=".61" stop-color="#ffd834"/><stop offset=".76" stop-color="#ffc41e"/><stop offset=".89" stop-color="#ffab02"/><stop offset=".9" stop-color="#ffa900"/><stop offset=".95" stop-color="#ffa000"/><stop offset="1" stop-color="#ff9100"/></linearGradient><linearGradient id="n" x1="307.42" y1="2569.78" x2="242.05" y2="2745.29" gradientTransform="translate(0 -2376)" gradientUnits="userSpaceOnUse"><stop offset="0" stop-color="#ff8e00"/><stop offset=".04" stop-color="#ff8e00" stop-opacity=".86"/><stop offset=".08" stop-color="#ff8e00" stop-opacity=".73"/><stop offset=".13" stop-color="#ff8e00" stop-opacity=".63"/><stop offset=".18" stop-color="#ff8e00" stop-opacity=".56"/><stop offset=".23" stop-color="#ff8e00" stop-opacity=".51"/><stop offset=".28" stop-color="#ff8e00" stop-opacity=".5"/><stop offset=".39" stop-color="#ff8e00" stop-opacity=".48"/><stop offset=".52" stop-color="#ff8e00" stop-opacity=".42"/><stop offset=".68" stop-color="#ff8e00" stop-opacity=".31"/><stop offset=".84" stop-color="#ff8e00" stop-opacity=".17"/><stop offset="1" stop-color="#ff8e00" stop-opacity="0"/></linearGradient></defs><path d="M347.77 41.34C337 53.93 331.93 82.26 342.89 111s27.76 22.48 38.24 51.77c13.83 38.65 7.39 90.56 7.39 90.56s16.62 48.13 28.2-3C442.36 154.29 347.77 65 347.77 41.34z" fill="url(#a)"/><path d="M215.84 440c110.72 0 200.41-90.18 200.41-201.37S326.56 37.28 215.95 37.28s-200.3 90.18-200.3 201.38C15.46 350 105.23 440 215.84 440z" fill="url(#b)"/><path d="M366 362.83a111.13 111.13 0 0 1-13.54 8.17 316.7 316.7 0 0 0 17.29-28.43 111.06 111.06 0 0 0 11.37-14.29c1.55-2.44 3.3-5.45 5.15-9 11.25-20.27 23.66-53.08 24-86.78V230a116.33 116.33 0 0 0-2.58-25.17c.09.65.17 1.29.25 1.94-.1-.5-.18-1-.29-1.5.17.92.3 1.8.44 2.7 2.3 19.51.66 38.54-7.53 52.58l-.39.6c4.25-21.33 5.67-44.87.94-68.45 0 0-1.89-11.46-16-46.25-8.1-20-22.5-36.44-35.22-48.4C338.74 84.26 328.62 75 323 69.13c-11.66-12.26-16.58-21.46-18.58-27.46-1.74-.87-24-22.49-25.76-23.31C269 33.42 238.46 80.52 253 124.52c6.58 19.94 23.24 40.64 40.66 52.25.77.87 10.37 11.31 14.94 34.84 4.72 24.31 2.24 43.28-7.47 71.33-11.42 24.61-40.66 48.94-68 51.42-58.54 5.32-80-29.39-80-29.39 20.92 8.36 44 6.61 58.12-2.06S234 287.64 241 290.2s12.32-4.86 7.42-12.54A35.44 35.44 0 0 0 212.54 262c-14.19 2.31-27.19 13.55-45.79 2.66a38.09 38.09 0 0 1-3.49-2.29c-1.23-.81 4 1.23 2.77.31a91.14 91.14 0 0 1-11.71-7.68c-.28-.25 2.81 1 2.53.73-17.39-14.32-15.22-24-14.67-30.06.44-4.85 3.6-11.07 8.92-13.59 2.57 1.4 4.17 2.47 4.17 2.47s-1.1-2.24-1.69-3.42c.21-.09.41-.07.61-.15a104 104 0 0 1 9.21 5.27 13.59 13.59 0 0 1 4.21 4.26s.84-.46.22-2.43a12.63 12.63 0 0 0-4.37-6h.2a36.61 36.61 0 0 1 5.34 3.72c.89-3.24 2.5-6.63 2.14-12.68-.22-4.26-.12-5.36-.87-7-.67-1.41.38-2 1.54-.5a15 15 0 0 0-1-3.34v-.11c1.46-5.07 30.81-18.27 32.95-19.81a30.39 30.39 0 0 0 8.68-9.36c1.63-2.6 2.86-6.25 3.16-11.79.16-4-1.7-6.65-31.38-9.76-8.12-.8-12.88-6.68-15.59-12.11-.49-1.17-1-2.23-1.5-3.29a26.57 26.57 0 0 1-1.16-3.81c4.85-13.94 13-25.72 25-34.63.65-.6-2.61.15-2-.44s5.74-2.7 6.68-3.15c1.15-.54-4.91-3.11-10.26-2.49A25.41 25.41 0 0 0 175.9 84c1.21-1.2 5-2.78 4.14-2.77-5.87.9-13.17 4.32-19.42 8.18a4.72 4.72 0 0 1 .38-2c-2.91 1.23-10 6.23-12.13 10.45a19.84 19.84 0 0 0 .12-2.44 38.51 38.51 0 0 0-6 6.24l-.11.1C126 95 111.17 94.56 98.61 97.6c-2.75-2.76-4.09-.74-10.34-14.48-.42-.83.33.82 0 0-1-2.66.63 3.55 0 0-10.51 8.29-24.34 17.69-31 24.33-.08.26 7.75-2.21 0 0-2.71.77-2.53 2.38-2.94 16.93-.1 1.1 0 2.34-.1 3.33-5.3 6.76-8.92 12.48-10.28 15.45-6.76 11.84-14.32 30.31-21.64 59.45a150.6 150.6 0 0 1 11.64-22.76c-6.09 15.47-12 39.77-13.15 77.18a216.88 216.88 0 0 1 5.66-22.87 213.55 213.55 0 0 0 15.68 90.78 221.89 221.89 0 0 0 23 43.07c77.56 81.76 206.72 85.16 288.48 7.6q6.45-6.12 12.35-12.78z" fill="url(#c)"/><path d="M321 391.3c73.53-8.51 106.08-84.29 64.28-85.78-37.71-1.21-99.06 89.8-64.28 85.78z" fill="url(#d)"/><path d="M390.63 290c50.59-29.44 37.4-93 37.4-93s-19.57 22.68-32.79 58.84c-13.11 35.8-35.03 51.99-4.61 34.16z" fill="url(#e)"/><path d="M230 428.94c70.53 22.51 131.16-33.06 93.79-51.61-33.96-16.74-127.25 40.96-93.79 51.61z" fill="url(#f)"/><path d="M395.88 317c1.72-2.42 4-10.17 6.09-13.64 12.45-20.1 12.54-36.13 12.54-36.5 7.52-37.57 6.84-52.91 2.21-81.29-3.73-22.85-20-55.57-34.12-71.33-14.54-16.24-4.3-10.95-18.37-22.81-12.33-13.62-24.3-27.17-30.77-32.61-47.08-39.36-46-47.72-45.11-49.15l-.66.74c-.56-2.22-1-4.09-1-4.09S261 32.06 255.54 75c-3.54 28 7 57.19 22.12 75.85A172.34 172.34 0 0 0 304.3 177c11.47 16.47 17.78 36.79 17.78 58.65a99.26 99.26 0 0 1-121.35 96.62c-25.84-4.92-40.76-18-48.21-26.81a48.67 48.67 0 0 1-6.08-8.77c23.15 8.29 48.75 6.56 64.32-2s25.18-15.15 32.88-12.6 13.64-4.82 8.22-12.43-19.14-18.5-39.68-15.48c-15.71 2.29-30.09 13.44-50.67 2.64a33 33 0 0 1-3.86-2.27c-1.36-.8 4.41 1.22 3.06.31a102.82 102.82 0 0 1-12.93-7.71c-.31-.25 3.11 1 2.8.72-19.24-14.26-16.83-23.87-16.23-29.87a17.27 17.27 0 0 1 9.87-13.48c2.84 1.39 4.62 2.45 4.62 2.45s-1.21-2.22-1.87-3.39c.23-.09.45-.07.68-.15 2.33 1 7.48 3.63 10.2 5.22a14.2 14.2 0 0 1 4.66 4.23s.93-.46.24-2.41c-.25-.8-1.32-3.34-4.82-5.9h.22a40.76 40.76 0 0 1 5.93 3.69c1-3.22 2.76-6.57 2.37-12.58-.24-4.22-.13-5.32-1-7-.74-1.4.42-1.95 1.71-.49a13.35 13.35 0 0 0-1.1-3.32v-.11c1.61-5 34.1-18.12 36.47-19.65a31.67 31.67 0 0 0 9.56-9.31c1.81-2.58 3.17-6.2 3.5-11.69.11-2.47-.65-4.43-9.25-6.31-5.16-1.12-13.15-2.22-25.48-3.37-9-.79-14.26-6.63-17.25-12a75.82 75.82 0 0 0-1.66-3.26 23.91 23.91 0 0 1-1.28-3.77 71.59 71.59 0 0 1 27.67-34.34c.72-.59-2.89.15-2.17-.44s6.35-2.68 7.39-3.12c1.27-.54-5.44-3.09-11.36-2.47a30.87 30.87 0 0 0-10.53 2.48c1.34-1.19 5.58-2.75 4.59-2.74-6.5.89-14.58 4.28-21.49 8.11a4.39 4.39 0 0 1 .42-2C152 82.1 144.07 87 141.77 91.24a17.76 17.76 0 0 0 .13-2.42 40.23 40.23 0 0 0-6.59 6.18l-.12.1c-18.67-6.74-35.09-7.17-49-4.15-3-2.74-7.93-6.87-14.85-20.5-.47-.82-.72 1.7-1.08.89C67.57 65.21 66 55 66.26 48c0 0-5.56 2.53-10.16 13.12a36.42 36.42 0 0 1-2 4c-.25.31.57-3.48.44-3.27-.8 1.36-2.87 3.25-3.78 5.7-.63 1.82-1.5 2.83-2.06 5.1l-.13.21c0-.67.17-2.75 0-2.32A106.33 106.33 0 0 0 43.05 84a125.9 125.9 0 0 0-5.82 33.67c-.11 1.09 0 2.32-.11 3.3-5.87 6.7-9.87 12.38-11.38 15.32-7.59 11.72-16 30-24.06 58.9a143.37 143.37 0 0 1 12.88-22.6C7.82 187.93 1.3 212 0 249.13a197.88 197.88 0 0 1 6.26-22.69 192.15 192.15 0 0 0 17.36 90c9.29 20.36 30.67 61.69 82.9 94s17.77 13.23 48.32 23.14c2.26.82 4.54 1.63 6.88 2.41q-1.09-.45-2.13-.93a219.11 219.11 0 0 0 62.67 9.21c79.09.07 102.42-31.69 102.42-31.69l-.23.17c1.11-1 2.19-2.15 3.23-3.28-12.48 11.78-41 12.57-51.6 11.72 18.16-5.33 30.11-9.85 53.35-18.75q4.08-1.51 8.34-3.45l.93-.42c.56-.26 1.12-.51 1.69-.79a157.8 157.8 0 0 0 31.72-19.86c23.34-18.64 28.42-36.82 31.08-48.8-.37 1.15-1.52 3.83-2.33 5.56-6 12.86-19.34 20.75-33.82 27.52a310.84 310.84 0 0 0 19.11-28.2c4.73-4.69 6.21-12 9.73-17z" fill="url(#g)"/><path d="M367.46 361.63a149.59 149.59 0 0 0 24.54-36.1c16.66-35 42.42-93.27 22.13-154.09-16-48.08-38-74.36-66-100C302.75 29.69 290.07 11.07 290.07 0c0 0-52.41 58.43-29.68 119.36s69.29 58.7 100.08 122.3c36.24 74.83-29.32 156.49-83.54 179.35 3.32-.74 120.53-27.26 126.69-94.31-.16 1.23-2.78 19.77-36.16 34.93z" fill="url(#h)"/><path d="M215.63 144.19c.18-4-1.88-6.62-34.62-9.69-13.47-1.24-18.63-13.7-20.2-18.94-4.79 12.45-6.77 25.5-5.7 41.3.73 10.35 7.68 21.45 11 28a14.17 14.17 0 0 1 1.08-1.31c6.26-6.52 32.48-16.44 34.94-17.85 2.71-1.7 13-9.29 13.5-21.51z" fill="url(#i)"/><path d="M71.46 70.64c-.47-.82-.72 1.7-1.08.89-2.67-6.24-4.31-16.35-3.92-23.53 0 0-5.56 2.53-10.16 13.12a36.42 36.42 0 0 1-2 4c-.25.31.57-3.48.44-3.27-.8 1.36-2.87 3.25-3.77 5.59a32.67 32.67 0 0 0-2.08 5.31c-.18.65.18-2.85 0-2.43C38.18 91 36.14 122.32 37.27 121c22.85-24.29 49-30.06 49-30.06-2.81-2.08-8.81-7.94-14.81-20.3z" fill="url(#j)"/><path d="M157.95 325.11c-31.48-13.44-67.27-32.4-65.92-75.46 1.84-56.71 52.89-45.51 52.89-45.51-1.93.47-7.08 4.14-8.9 8-1.93 4.89-5.45 15.93 5.22 27.49 16.75 18.15-34.4 43 44.54 90.1 2 1.08-18.51-.65-27.83-4.68z" fill="url(#k)"/><path d="M146.77 296.85c22.32 7.77 48.33 6.41 63.9-2.19 10.42-5.8 23.79-15.09 32-12.8-7.12-2.82-12.52-4.13-19-4.45a32.26 32.26 0 0 1-3.63-.14 60.27 60.27 0 0 0-7.11.39c-4 .37-8.47 2.9-12.52 2.5-.22 0 3.93-1.7 3.59-1.63-2.15.45-4.48.54-6.94.85-1.57.17-2.91.37-4.47.43-46.49 3.94-85.79-25.2-85.79-25.2-3.34 11.26 15 33.55 40 42.25z" fill="url(#l)"/><path d="M367.39 361.93c47-46.17 70.82-102.3 60.76-165.25 0 0 4 32.28-11.22 65.3 7.32-32.23 8.17-72.29-11.28-113.77-26-55.37-68.65-84.5-85-96.65-24.69-18.41-34.93-37.17-35.11-41-7.38 15.11-29.69 66.91-2.4 111.52 25.57 41.79 65.86 54.2 94.06 92.53 52 70.58-9.86 147.32-9.86 147.32z" fill="url(#m)"/><path d="M360.65 241.79c-16.43-34-37-48.76-56.35-64.81 2.26 3.16 2.81 4.28 4.06 6.32 17.08 18.2 42.26 62.6 24 118.34-34.42 104.91-172.08 55.51-186.51 41.63C151.67 404 253.3 433 319.46 393.67c37.66-35.67 68.13-96.24 41.19-151.88z" fill="url(#n)"/></svg>