<svg data-name="Layer 1" xmlns="http://www.w3.org/2000/svg" viewBox="0 0 463.57 122.43"><path d="M442.18 33h-17.25l-18.41 32-18.24-32h-17.9l27 41.29-30.51 46.1h17.25l21.72-37 21.39 37h18.41l-30.35-46.76zM73.82 120.41h15.25V33H73.82zm49.83-69L122.16 33h-13.1v87.39h15.26v-45c0-13.59 10-28.69 20.89-28.69a27.29 27.29 0 0 1 7.63 1l2.82-14.92a37.33 37.33 0 0 0-8.62-1c-10.62 0-18.75 6.63-23.39 19.73zM0 120.41h15.75V70.17h37.31V57.73H15.75v-39h43.12l1.82-12.6H0zM81.28.55C75 .55 70.67 5 70.67 11c0 5.8 4.31 10.28 10.61 10.28 6.47 0 10.78-4.48 10.78-10.28C92.06 5 87.75.55 81.28.55zm247.18 31.17c-24.87 0-39.13 18-39.13 45.08 0 27.69 14.1 45.6 39 45.6 24.71 0 39-18.74 39-45.77-.07-27.69-14-44.9-38.87-44.9zm-.17 78.41c-14.59 0-22.55-10.61-22.55-33.33 0-22.88 8.13-32.81 22.72-32.81 14.43 0 22.39 9.92 22.39 32.64 0 22.89-8 33.5-22.56 33.5zM266.5 27c0-8.46 3.32-14.68 12.93-14.68a37.39 37.39 0 0 1 15.26 3.32l4.81-11.11A48.19 48.19 0 0 0 278.6 0c-17.74 0-27.36 11.14-27.36 25.73V33h-15.59v11.8h15.59v75.62h15.26V44.8h19.57l1.65-11.8H266.5zm-72.77 4.75c-22.55 0-36.32 18.71-36.32 45.91 0 27.69 14.26 44.77 38.64 44.77 12.1 0 21.89-4.15 30.51-10.94l-6.63-9.12c-7.63 5.31-14.1 7.63-22.72 7.63-12.6 0-22.05-7.79-23.55-28h55.72c.17-2 .33-4.81.33-7.79 0-26.76-12.43-42.48-36-42.48zm20.89 38.94h-41c1.16-19.4 8.79-26.84 20.4-26.84 13.76 0 20.56 8.76 20.56 25.84zm245.14-32.57c0-1.47-1-2.21-3.11-2.21h-1.88v7.42h1.15v-3h1l1.77 3H460l-2-3.22a2 2 0 0 0 1.76-2zm-3.85 1.23v-2.48h.9c1.15 0 1.77.3 1.77 1.26s-.63 1.23-1.61 1.23zm1.12-6.2a6.54 6.54 0 0 0-6.52 6.56 6.41 6.41 0 0 0 6.32 6.5h.2a6.55 6.55 0 0 0 0-13.1zm0 12.12a5.38 5.38 0 0 1-5.43-5.33v-.18a5.47 5.47 0 0 1 5.35-5.59h.05a5.4 5.4 0 0 1 5.49 5.31v.23a5.45 5.45 0 0 1-5.37 5.53H457z" fill="#363959"/></svg>