<?xml version="1.0" encoding="UTF-8"?>
<svg width="17px" height="22px" viewBox="0 0 17 22" version="1.1" xmlns="http://www.w3.org/2000/svg" xmlns:xlink="http://www.w3.org/1999/xlink" xmlns:sketch="http://www.bohemiancoding.com/sketch/ns">
    <!-- Generator: Sketch 3.5.1 (25234) - http://www.bohemiancoding.com/sketch -->
    <title>gbp</title>
    <desc>Created with Sketch.</desc>
    <defs></defs>
    <g id="Page-1" stroke="none" stroke-width="1" fill="none" fill-rule="evenodd" sketch:type="MSPage">
        <g id="gbp" sketch:type="MSLayerGroup" fill="#000000">
            <path d="M7.765625,18.15625 L7.765625,17.90625 C8.9375,17.265625 9.78125,15.703125 9.78125,14.015625 C9.78125,13.53125 9.71875,13.078125 9.625,12.625 L14.546875,12.625 L14.546875,9.78125 L8.78125,9.78125 C8.515625,8.921875 8.296875,8.03125 8.296875,7.046875 C8.296875,5.15625 9.734375,4.046875 12.265625,4.046875 C13.546875,4.046875 14.625,4.25 15.59375,4.59375 L15.59375,0.875 C14.734375,0.5625 13.484375,0.296875 11.890625,0.296875 C6.6875,0.296875 3.34375,2.359375 3.34375,6.203125 C3.34375,7.40625 3.640625,8.609375 3.96875,9.78125 L0.9375,9.78125 L0.9375,12.625 L4.75,12.625 C4.875,13.1875 4.953125,13.734375 4.953125,14.25 C4.953125,16.34375 3.34375,18.1875 1,18.46875 L1,22 L16.671875,22 L16.671875,18.15625 L7.765625,18.15625 Z" id="£" sketch:type="MSShapeGroup"></path>
        </g>
    </g>
</svg>