<svg width="48" height="49" xmlns="http://www.w3.org/2000/svg">
    <path d="M24.02 48.02c-13.254 0-24-10.744-24-24 0-13.254 10.746-24 24-24 13.256 0 24 10.746 24 24a24 24 0 0 1-24 24zm0-44c-11.045 0-20 8.955-20 20 0 11.046 8.955 20 20 20 11.047 0 20-8.954 20-20 0-11.045-8.953-20-20-20zm2.25 24a1 1 0 0 1-1 1h-2.25a1 1 0 0 1-1-1c0-6.644 5.626-6.018 5.626-11 0-1.656-1.88-3-3.813-3-1.932 0-3.843 1.344-3.843 3-.007.57.08 1.136.26 1.676a.996.996 0 0 1-.94 1.325h-2.031a1.004 1.004 0 0 1-.97-.733 8.367 8.367 0 0 1-.288-2.267c0-3.866 3.581-7 8-7 4.418 0 8 3.134 8 7 0 6.417-5.75 6.167-5.75 11zm-2.25 4a3 3 0 1 1 0 6 3 3 0 0 1 0-6z" fill="#FFF"/>
</svg>
