<?xml version="1.0" encoding="UTF-8"?>
<svg width="14px" height="12px" viewBox="0 0 14 12" version="1.1" xmlns="http://www.w3.org/2000/svg" xmlns:xlink="http://www.w3.org/1999/xlink">
    <!-- Generator: Sketch 49.3 (51167) - http://www.bohemiancoding.com/sketch -->
    <title>interactions-tab</title>
    <desc>Created with Sketch.</desc>
    <defs></defs>
    <g id="Page-1" stroke="none" stroke-width="1" fill="none" fill-rule="evenodd">
        <g id="interactions-tab" fill="#5B5B7E" fill-rule="nonzero">
            <path d="M10.1789956,9.5089974 L3.89096507,9.5089974 L3.89096507,11.0617021 C3.88913254,11.1799993 3.82108717,11.2875427 3.71426433,11.3409716 C3.6074415,11.3944005 3.47944966,11.3849078 3.38189418,11.3163209 L0.252475017,9.14387086 C0.168036908,9.085951 0.117674988,8.99082426 0.117674988,8.88925217 C0.117674988,8.78768006 0.168036908,8.69255331 0.252475017,8.63463346 L3.38189418,6.46218346 C3.47944966,6.39359654 3.6074415,6.38410383 3.71426433,6.43753271 C3.82108717,6.49096163 3.88913254,6.59850497 3.89096507,6.71680217 L3.89096507,8.2655902 L10.1789956,8.2655902 C11.5688595,8.2655902 12.6955668,7.15220546 12.6955668,5.77877577 C12.6955668,5.43541834 12.9772436,5.15707217 13.3247096,5.15707217 C13.6721756,5.15707217 13.9538524,5.43541834 13.9538524,5.77877577 C13.9538524,6.76809205 13.5561454,7.71688853 12.8482224,8.41644079 C12.1402995,9.11599301 11.1801499,9.5089974 10.1789956,9.5089974 Z M10.6846377,5.09533699 C10.5870877,5.16392982 10.4590957,5.17342521 10.3522752,5.11999414 C10.2454546,5.06656308 10.1774168,4.95901469 10.1755983,4.84071827 L10.1755983,3.29193027 L3.88759915,3.29193027 C2.49773528,3.29193027 1.37102799,4.40531501 1.37102799,5.77874467 C1.37102799,6.1221021 1.08935116,6.40044827 0.741885197,6.40044827 C0.394419226,6.40044827 0.112742403,6.1221021 0.112742403,5.77874467 C0.112742403,3.71860017 1.80280334,2.04852304 3.88759915,2.04852304 L10.1755983,2.04852304 L10.1755983,0.495787216 C10.1774282,0.377496423 10.2454705,0.269958448 10.3522888,0.216535024 C10.4591072,0.1631116 10.5870923,0.172609744 10.6846377,0.241199593 L13.8140883,2.41364959 C13.8985396,2.47155362 13.9489131,2.566679 13.9489131,2.66825274 C13.9489131,2.76982652 13.8985396,2.86495189 13.8140883,2.92285593 L10.6846377,5.09533699 Z" id="Shape"></path>
        </g>
    </g>
</svg>