<?xml version="1.0" encoding="UTF-8"?>
<svg width="100px" height="28px" viewBox="0 0 100 28" version="1.1" xmlns="http://www.w3.org/2000/svg" xmlns:xlink="http://www.w3.org/1999/xlink">
    <!-- Generator: Sketch 49.3 (51167) - http://www.bohemiancoding.com/sketch -->
    <title>logoLedger</title>
    <desc>Created with Sketch.</desc>
    <defs></defs>
    <g id="Page-1" stroke="none" stroke-width="1" fill="none" fill-rule="evenodd">
        <g id="dashboard-copy-25" transform="translate(-256.000000, -219.000000)" fill="#2F3137" fill-rule="nonzero">
            <g id="Group" transform="translate(228.000000, 192.000000)">
                <path d="M58.1727287,47.5941178 L58.1727287,28.2743495 L59.5086364,28.2743495 L59.5086364,46.3197682 L68.6564734,46.3197682 L68.6564734,47.5941178 L58.1727287,47.5941178 Z M75.2629547,47.8615738 C73.191254,47.8615738 71.5892084,47.1903115 70.3889788,45.915962 C69.2565882,44.6416125 68.651255,42.8323508 68.651255,40.4829327 C68.651255,38.2016897 69.1835308,36.324253 70.3211397,34.9817283 C71.4535302,33.5710287 72.9251161,32.8997664 74.8611387,32.8997664 C76.5310233,32.8997664 77.8669311,33.5028536 78.8688619,34.6460972 C79.8707927,35.8522717 80.3352293,37.4622523 80.3352293,39.4760393 L80.3352293,40.5511078 L69.9871628,40.5511078 C69.9871628,42.4967196 70.4568178,44.0385252 71.3909096,45.0454187 C72.2571622,46.1204872 73.59307,46.5872243 75.2629547,46.5872243 C76.0613683,46.5872243 76.7971612,46.5190492 77.397276,46.3879433 C77.9973908,46.2515931 78.8010228,46.0523121 79.7351145,45.6485059 L79.7351145,46.9228555 C78.9367009,47.2584866 78.200908,47.5259427 77.5329541,47.6622928 C76.7867244,47.798643 76.0248395,47.8668181 75.2629547,47.8615738 Z M74.8611387,34.111185 C73.4573918,34.111185 72.3928404,34.5831664 71.5213693,35.4537097 C70.7229557,36.392428 70.1854616,37.6667776 70.0550018,39.4131084 L78.8688619,39.4131084 C78.8688619,37.7349526 78.5348849,36.4606031 77.799092,35.5218847 C77.1311381,34.5779221 76.1292073,34.111185 74.8611387,34.111185 Z M87.2809059,32.9679414 C88.2828367,32.9679414 89.2169285,33.1672224 89.9527214,33.5028536 C90.6885143,33.9066598 91.3564682,34.509747 91.956583,35.4484654 L92.0244221,35.4484654 C91.956583,34.310466 91.956583,33.2353975 91.956583,32.160329 L91.956583,27 L93.2246517,27 L93.2246517,47.5941178 L92.358399,47.5941178 L92.0244221,45.3810498 C90.9546522,46.9910305 89.3526066,47.8615738 87.348745,47.8615738 C85.3448834,47.8615738 83.8785159,47.2584866 82.808746,45.9841371 C81.7389762,44.7779626 81.2745395,42.9634567 81.2745395,40.6192829 C81.2745395,38.1387589 81.8068152,36.2560779 82.808746,34.9187975 C83.8106768,33.5762729 85.3448834,32.9679414 87.2809059,32.9679414 Z M87.2809059,34.111185 C85.7466994,34.111185 84.5464698,34.6460972 83.7428378,35.7893408 C82.9444242,36.8644093 82.5426082,38.47439 82.5426082,40.6192829 C82.5426082,44.7097875 84.1446538,46.7235745 87.2809059,46.7235745 C88.8829515,46.7235745 90.0831811,46.2515931 90.8189741,45.3128748 C91.554767,44.3741564 91.9513646,42.8323508 91.9513646,40.6140386 L91.9513646,40.4147576 C91.9513646,38.2016897 91.5495486,36.591709 90.8189741,35.6529907 C90.1510202,34.5779221 88.9507906,34.111185 87.2809059,34.111185 Z M107.105568,33.2406417 L107.105568,34.1793601 L104.167615,34.3786411 C104.966028,35.3855346 105.367844,36.4606031 105.367844,37.5986025 C105.367844,39.0093022 104.898189,40.0791265 103.964097,40.954914 C103.030006,41.8254573 101.829776,42.2292636 100.290351,42.2292636 C99.6223973,42.2292636 99.1579607,42.2292636 98.9544435,42.1610885 C98.4221677,42.4285445 98.0203517,42.7641757 97.7542138,43.0998069 C97.488076,43.5036131 97.3523979,43.8392442 97.3523979,44.3059813 C97.3523979,44.7727184 97.5506967,45.1083495 97.8846736,45.3128748 C98.2186505,45.5121558 98.8187653,45.6485059 99.6223973,45.6485059 L102.090696,45.6485059 C103.624902,45.6485059 104.825132,45.9841371 105.628764,46.5872243 C106.432396,47.1903115 106.896832,48.1290299 106.896832,49.4033794 C106.896832,50.945185 106.296718,52.0884287 105.096488,52.8907969 C103.896258,53.6931651 102.158535,54.0969713 99.8885352,54.0969713 C98.0881908,54.0969713 96.684444,53.7613402 95.6825132,53.0219028 C94.6805824,52.3506405 94.2161457,51.343747 94.2161457,50.1375726 C94.2161457,49.1306791 94.5501226,48.3283109 95.1502374,47.6570486 C95.7503522,46.9857863 96.6166049,46.5819801 97.6185357,46.314524 C97.2167197,46.115243 96.8201221,45.8425427 96.6166049,45.5121558 C96.3556854,45.1870131 96.2147889,44.7884511 96.2147889,44.3741564 C96.2147889,43.435438 96.8149037,42.5648947 98.0151333,41.8254573 C97.2167197,41.4898262 96.5487659,40.954914 96.0791108,40.2154766 C95.6094557,39.4760393 95.4111569,38.6054959 95.4111569,37.6667776 C95.4111569,36.2560779 95.880812,35.0499034 96.7470647,34.1793601 C97.6811564,33.3088168 98.881386,32.9050106 100.420811,32.9050106 C101.354903,32.9050106 102.090696,32.9731857 102.622971,33.1724667 L107.095131,33.1724667 L107.095131,33.2406417 L107.105568,33.2406417 Z M95.4894328,50.0117109 C95.4894328,51.9573227 96.9558002,52.9642162 99.8937536,52.9642162 C103.630121,52.9642162 105.503522,51.7580417 105.503522,49.3404486 C105.503522,48.4699053 105.237385,47.8668181 104.63727,47.4630118 C104.037155,47.0592056 103.103063,46.8599246 101.767155,46.8599246 L99.4293169,46.8599246 C96.8253405,46.9228555 95.4894328,47.9297489 95.4894328,50.0117109 Z M96.6270417,37.6667776 C96.6270417,38.8047769 96.9610186,39.6123894 97.6289725,40.2836517 C98.2969264,40.8867389 99.163179,41.2223701 100.300788,41.2223701 C101.501018,41.2223701 102.435109,40.8867389 103.035224,40.2836517 C103.703178,39.6805645 103.969316,38.8100212 103.969316,37.6667776 C103.969316,36.4606031 103.635339,35.5218847 102.967385,34.9187975 C102.299431,34.3157103 101.433179,33.9800791 100.232949,33.9800791 C99.1005584,33.9800791 98.1612482,34.3157103 97.5611334,34.9869726 C96.8931796,35.5848156 96.6270417,36.523534 96.6270417,37.6667776 Z M113.58159,47.8615738 C111.509889,47.8615738 109.907843,47.1903115 108.707614,45.915962 C107.575223,44.6416125 106.96989,42.8323508 106.96989,40.4829327 C106.96989,38.2016897 107.502166,36.324253 108.639775,34.9817283 C109.772165,33.5710287 111.243751,32.8997664 113.179774,32.8997664 C114.849658,32.8997664 116.185566,33.5028536 117.187497,34.6460972 C118.189428,35.8522717 118.653864,37.4622523 118.653864,39.4760393 L118.653864,40.5511078 L108.373637,40.5511078 C108.373637,42.4967196 108.843292,44.0385252 109.777383,45.0454187 C110.643636,46.1204872 111.979544,46.5872243 113.649429,46.5872243 C114.447842,46.5872243 115.183635,46.5190492 115.78375,46.3879433 C116.383865,46.2515931 117.187497,46.0523121 118.121588,45.6485059 L118.121588,46.9228555 C117.323175,47.2584866 116.587382,47.5259427 115.919428,47.6622928 C115.183635,47.798643 114.447842,47.8615738 113.58159,47.8615738 Z M113.247613,34.111185 C111.843866,34.111185 110.779314,34.5831664 109.907843,35.4537097 C109.10943,36.392428 108.571936,37.6667776 108.441476,39.4131084 L117.255336,39.4131084 C117.255336,37.7349526 116.921359,36.4606031 116.185566,35.5218847 C115.517612,34.5779221 114.515681,34.111185 113.247613,34.111185 Z M126.063977,32.9679414 C126.664092,32.9679414 127.332046,33.0361165 128,33.1672224 L127.733862,34.441572 C127.118092,34.3052218 126.491885,34.2370467 125.865679,34.242291 C124.665449,34.242291 123.663518,34.7772031 122.859886,35.7840966 C122.061473,36.8591651 121.659657,38.1335146 121.659657,39.7434953 L121.659657,47.5941178 L120.323749,47.5941178 L120.323749,33.2406417 L121.456139,33.2406417 L121.591818,35.8575159 L121.659657,35.8575159 C122.259771,34.7824474 122.859886,34.0482542 123.52784,33.644448 C124.331472,33.1724667 125.129886,32.9679414 126.063977,32.9679414 Z M45.4242029,27.6712623 C47.2245473,27.6712623 48.6961332,29.2130679 48.6909148,31.0223296 L48.6909286,40.5511078 L35.8745499,40.5511078 L35.8745499,27.6712623 L45.4242029,27.6712623 Z M32.941815,27.6712623 L32.941815,32.6375545 L28,32.6375545 L28,31.0275738 C28,29.1448928 29.5394249,27.6712623 31.3397693,27.6712623 L32.941815,27.6712623 Z M28,35.6529907 L32.941815,35.6529907 L32.941815,40.6192829 L28,40.6192829 L28,35.6529907 Z M43.7543182,48.5328361 L43.7543182,43.5717882 L48.6961332,43.5717882 L48.6961332,45.1765246 C48.6961332,47.0592056 47.1567082,48.5328361 45.3563638,48.5328361 L43.7543182,48.5328361 Z M35.8745499,43.5717882 L40.8163649,43.5717882 L40.8163649,48.5380804 L35.8745499,48.5380804 L35.8745499,43.5717882 Z M28,43.5717882 L32.941815,43.5717882 L32.941815,48.5380804 L31.3397693,48.5380804 C29.4663675,48.5380804 28,46.9910305 28,45.1817688 L28,43.5717882 Z" id="logoLedger"></path>
            </g>
        </g>
    </g>
</svg>