<?xml version="1.0" encoding="UTF-8"?>
<svg width="13px" height="13px" viewBox="0 0 13 13" version="1.1" xmlns="http://www.w3.org/2000/svg" xmlns:xlink="http://www.w3.org/1999/xlink">
    <!-- Generator: Sketch 50.2 (55047) - http://www.bohemiancoding.com/sketch -->
    <title>library</title>
    <desc>Created with Sketch.</desc>
    <defs></defs>
    <g id="Page-1" stroke="none" stroke-width="1" fill="none" fill-rule="evenodd">
        <g id="loan-overview" transform="translate(-488.000000, -155.000000)" fill="#59597D" fill-rule="nonzero">
            <g id="library" transform="translate(488.000000, 155.000000)">
                <path d="M6.2184864,0.082672952 C6.39140397,-0.0275576507 6.60889394,-0.0275576507 6.78181152,0.082672952 L12.8044612,3.91957272 C12.9259105,3.99693251 12.9999977,4.13469478 13,4.28316963 L13,4.8056459 C12.9999928,4.88083409 12.97136,4.95293939 12.9204013,5.00609752 C12.8694425,5.05925566 12.8003327,5.08911161 12.7282769,5.08909662 L11.9166825,5.08909662 C11.7671075,5.08909662 11.6458531,5.21562225 11.6458531,5.37169953 L11.6458531,10.5100422 C11.6458773,10.6085188 11.6950268,10.699881 11.7755804,10.7511873 L12.8044612,11.4065717 C12.9259102,11.4839183 12.9999989,11.6216727 13,11.7701404 L13,12.7164362 C12.9999928,12.7916495 12.9713523,12.8637793 12.9203791,12.9169578 C12.8694059,12.9701363 12.8002754,13.0000075 12.7281956,13 L0.27088355,13 C0.121308611,13 5.41658767e-05,12.8734744 5.41658767e-05,12.7173971 L5.41658767e-05,11.7695469 C6.08498659e-05,11.6214723 0.0739396982,11.4840798 0.195051322,11.4069109 L1.22450089,10.7510743 C1.30503044,10.6997815 1.35415288,10.6084339 1.35414692,10.5099857 L1.35414692,5.37167127 C1.35414692,5.21559399 1.23289247,5.08906836 1.08331753,5.08906836 L0.270829384,5.08906836 C0.121254445,5.08906836 0,4.96254272 0,4.80646544 L0,4.28246312 C8.51989544e-06,4.13441145 0.0738905205,3.99704528 0.194997156,3.91991184 L6.2184864,0.082672952 Z M8.66678403,10.4549347 C8.66678403,10.611012 8.78803847,10.7375376 8.93761341,10.7375376 L10.0209309,10.7375376 C10.1705059,10.7375376 10.2917603,10.611012 10.2917603,10.4549347 L10.2917603,5.37167127 C10.2917603,5.21559399 10.1705059,5.08906836 10.0209309,5.08906836 L8.93761341,5.08906836 C8.78803847,5.08906836 8.66678403,5.21559399 8.66678403,5.37167127 L8.66678403,10.4549347 Z M5.6876608,10.4549347 C5.6876608,10.611012 5.80891525,10.7375376 5.95849019,10.7375376 L7.04180772,10.7375376 C7.19138266,10.7375376 7.31263711,10.611012 7.31263711,10.4549347 L7.31263711,5.37167127 C7.31263711,5.21559399 7.19138266,5.08906836 7.04180772,5.08906836 L5.95849019,5.08906836 C5.80891525,5.08906836 5.6876608,5.21559399 5.6876608,5.37167127 L5.6876608,10.4549347 Z M6.50014896,3.67421687 C6.94874438,3.67410762 7.31232773,3.29457092 7.31225794,2.8264741 C7.31218814,2.35837727 6.94849163,1.97895865 6.4998962,1.97899505 C6.05130077,1.97903146 5.68766082,2.35850912 5.6876608,2.82660595 C5.68773559,3.29473768 6.05146591,3.67417892 6.50009479,3.67413209 L6.50014896,3.67421687 Z M2.70853758,10.4549347 C2.70853758,10.611012 2.82979203,10.7375376 2.97936697,10.7375376 L4.0626845,10.7375376 C4.21225944,10.7375376 4.33351389,10.611012 4.33351389,10.4549347 L4.33351389,5.37167127 C4.33351389,5.21559399 4.21225944,5.08906836 4.0626845,5.08906836 L2.97936697,5.08906836 C2.82979203,5.08906836 2.70853758,5.21559399 2.70853758,5.37167127 L2.70853758,10.4549347 Z" id="Shape"></path>
            </g>
        </g>
    </g>
</svg>