<?xml version="1.0" encoding="UTF-8"?>
<svg width="22px" height="15px" viewBox="0 0 22 15" version="1.1" xmlns="http://www.w3.org/2000/svg" xmlns:xlink="http://www.w3.org/1999/xlink">
    <!-- Generator: Sketch 44.1 (41455) - http://www.bohemiancoding.com/sketch -->
    <title>Shape@2x</title>
    <desc>Created with Sketch.</desc>
    <defs></defs>
    <g id="Page-1" stroke="none" stroke-width="1" fill="none" fill-rule="evenodd">
        <g id="Final-Copy-34" transform="translate(-935.000000, -34.000000)" fill-rule="nonzero" fill="#93A0B2">
            <g id="Group-24">
                <g id="Group-38">
                    <g id="Nav" transform="translate(140.000000, 26.000000)">
                        <g id="Group-20" transform="translate(795.000000, 3.000000)">
                            <path d="M11.8321233,14.7480776 C11.3282639,15.0839983 10.6718361,15.0839983 10.1679767,14.7480776 L0.667998608,7.74809219 C0.250694123,7.46988934 4.18542119e-05,7.00153228 4.99998951e-05,6.49999479 C4.99998951e-05,5.67157148 0.671621475,5 1.50004687,5 L20.5000031,5 C21.3284285,5 22,5.67157148 22,6.49999687 C22.0000819,7.00153851 21.7494346,7.46992129 21.3321014,7.74809219 L11.8321233,14.7480776 Z M21.99995,18.4999698 C21.99995,19.3283952 21.3283785,19.9999667 20.4999531,19.9999667 L1.49999687,19.9999667 C0.671571476,19.9999667 1.75553634e-15,19.3283952 0,18.4999698 L0,9.60998831 C-1.82660136e-05,9.38767931 0.122413085,9.18343317 0.318488977,9.07866898 C0.514564868,8.97390478 0.752404771,8.98565644 0.937198047,9.10923935 L9.61332788,15.5801259 C10.4530515,16.1399122 11.5469985,16.1399122 12.3867221,15.5801259 L21.0627519,9.10908935 C21.2475079,8.98553136 21.4852927,8.97375768 21.6813508,9.07846006 C21.8774088,9.18316243 21.999876,9.38732417 21.99995,9.60958831 L21.99995,18.4999698 Z" id="Shape"></path>
                        </g>
                    </g>
                </g>
            </g>
        </g>
    </g>
</svg>