<svg width="384" height="116" fill="none" xmlns="http://www.w3.org/2000/svg"><path d="M135.119 53.202c0-3.203.527-6.106 1.58-8.706 1.054-2.638 2.503-4.88 4.347-6.728 1.882-1.846 4.102-3.26 6.66-4.24 2.597-1.017 5.439-1.526 8.524-1.526 3.124-.038 5.984.434 8.58 1.413 2.597.943 4.836 2.337 6.718 4.184 1.881 1.847 3.349 4.07 4.403 6.67 1.053 2.601 1.58 5.503 1.58 8.707 0 3.128-.527 5.974-1.58 8.536-1.054 2.563-2.522 4.768-4.403 6.615-1.882 1.847-4.121 3.298-6.718 4.353-2.596 1.018-5.456 1.545-8.58 1.583-3.085 0-5.927-.49-8.523-1.47-2.56-1.018-4.78-2.431-6.661-4.24-1.844-1.847-3.293-4.052-4.346-6.614-1.054-2.563-1.581-5.409-1.581-8.537zm7.451-.452c0 2.148.32 4.127.96 5.936.677 1.809 1.618 3.373 2.822 4.692a13.081 13.081 0 0 0 4.29 3.11c1.694.753 3.575 1.13 5.645 1.13 2.07 0 3.951-.377 5.645-1.13 1.693-.754 3.142-1.79 4.346-3.11 1.204-1.319 2.126-2.883 2.766-4.692.677-1.81 1.016-3.788 1.016-5.936 0-1.998-.339-3.863-1.016-5.597-.64-1.734-1.562-3.241-2.766-4.523a12.284 12.284 0 0 0-4.346-3.052c-1.694-.754-3.575-1.131-5.645-1.131-2.07 0-3.951.377-5.645 1.13a12.411 12.411 0 0 0-4.29 3.053c-1.204 1.282-2.145 2.79-2.822 4.523-.64 1.734-.96 3.6-.96 5.597zM185.68 45.91h6.435v4.07h.113c.979-1.659 2.296-2.865 3.952-3.618 1.656-.754 3.443-1.131 5.362-1.131 2.07 0 3.933.377 5.589 1.13 1.655.717 3.067 1.715 4.233 2.997 1.167 1.281 2.051 2.789 2.653 4.522.602 1.734.903 3.6.903 5.597 0 1.998-.32 3.863-.96 5.597-.639 1.734-1.542 3.241-2.709 4.523-1.129 1.281-2.502 2.299-4.12 3.053-1.619.716-3.387 1.074-5.307 1.074-1.279 0-2.408-.132-3.386-.396-.979-.264-1.844-.603-2.597-1.018a11.339 11.339 0 0 1-1.92-1.3c-.526-.49-.959-.961-1.297-1.413h-.17v16.338h-6.774V45.909zm22.467 13.567a8.447 8.447 0 0 0-.565-3.053 7.116 7.116 0 0 0-1.58-2.6 7.555 7.555 0 0 0-2.484-1.81c-.979-.451-2.089-.677-3.33-.677-1.242 0-2.352.226-3.331.678a8.212 8.212 0 0 0-2.54 1.809 8.31 8.31 0 0 0-1.58 2.6 9.282 9.282 0 0 0-.509 3.053c0 1.056.17 2.073.508 3.053.377.98.904 1.847 1.581 2.6a8.209 8.209 0 0 0 2.54 1.81c.979.452 2.089.678 3.33.678 1.242 0 2.352-.226 3.331-.678a7.552 7.552 0 0 0 2.484-1.81 7.115 7.115 0 0 0 1.58-2.6c.376-.98.565-1.997.565-3.053zM228.67 61.852c.227 2.035 1.017 3.618 2.372 4.748 1.354 1.131 2.991 1.696 4.91 1.696 1.694 0 3.105-.339 4.234-1.017a12.1 12.1 0 0 0 3.048-2.657l4.855 3.674c-1.58 1.96-3.35 3.355-5.306 4.184a15.61 15.61 0 0 1-6.153 1.244c-2.032 0-3.951-.34-5.758-1.018-1.806-.678-3.368-1.64-4.685-2.883-1.317-1.244-2.37-2.733-3.161-4.466-.753-1.772-1.129-3.731-1.129-5.88 0-2.148.376-4.089 1.129-5.823.79-1.771 1.844-3.279 3.161-4.522 1.317-1.244 2.879-2.205 4.685-2.883 1.807-.679 3.726-1.018 5.758-1.018 1.882 0 3.594.34 5.137 1.018 1.58.64 2.916 1.582 4.007 2.826 1.13 1.244 1.995 2.79 2.597 4.636.64 1.809.96 3.9.96 6.275v1.866h-20.66zm13.887-5.088c-.038-1.998-.659-3.562-1.863-4.693-1.204-1.168-2.879-1.752-5.024-1.752-2.032 0-3.65.584-4.854 1.752-1.167 1.169-1.882 2.733-2.145 4.693h13.886zM257.681 45.91h6.435v4.352h.113c.64-1.356 1.618-2.525 2.935-3.505 1.317-1.017 3.105-1.526 5.363-1.526 1.806 0 3.33.301 4.572.904 1.28.603 2.315 1.395 3.105 2.375s1.355 2.11 1.693 3.392c.339 1.281.508 2.62.508 4.014v17.13h-6.773V59.307c0-.754-.038-1.583-.113-2.488a8.234 8.234 0 0 0-.621-2.6 4.45 4.45 0 0 0-1.468-2.036c-.677-.565-1.6-.848-2.766-.848-1.129 0-2.088.189-2.879.566a5.844 5.844 0 0 0-1.919 1.526 6.334 6.334 0 0 0-1.072 2.205 9.854 9.854 0 0 0-.34 2.6v14.812h-6.773V45.91zM312.319 41.613c-.753-1.093-1.769-1.885-3.048-2.375a10 10 0 0 0-3.952-.791c-.828 0-1.637.094-2.427.283a6.89 6.89 0 0 0-2.089.904 4.754 4.754 0 0 0-1.467 1.64c-.377.64-.565 1.413-.565 2.317 0 1.357.47 2.394 1.412 3.11.94.716 2.107 1.338 3.5 1.865a64.942 64.942 0 0 0 4.572 1.527c1.655.49 3.18 1.168 4.572 2.035 1.392.867 2.559 2.016 3.5 3.448.94 1.433 1.41 3.336 1.41 5.71 0 2.149-.394 4.033-1.185 5.654a11.392 11.392 0 0 1-3.217 3.957c-1.317 1.055-2.86 1.847-4.629 2.374-1.769.528-3.631.792-5.588.792-2.484 0-4.874-.415-7.169-1.244-2.296-.829-4.271-2.223-5.927-4.183l5.362-5.201a9.265 9.265 0 0 0 3.387 3.109 9.958 9.958 0 0 0 4.516 1.074c.828 0 1.656-.113 2.484-.34a7.67 7.67 0 0 0 2.258-1.017 5.408 5.408 0 0 0 1.637-1.696c.414-.716.62-1.526.62-2.43 0-1.47-.47-2.601-1.41-3.393-.941-.791-2.108-1.45-3.5-1.978a49.58 49.58 0 0 0-4.573-1.583 19.965 19.965 0 0 1-4.572-1.979 11.551 11.551 0 0 1-3.5-3.392c-.94-1.432-1.41-3.335-1.41-5.71 0-2.073.413-3.863 1.241-5.37.866-1.508 1.976-2.752 3.33-3.732 1.393-1.017 2.973-1.771 4.742-2.261a20.206 20.206 0 0 1 5.419-.735c2.107 0 4.14.32 6.096.961 1.995.64 3.782 1.696 5.363 3.166l-5.193 5.484zM331.959 61.852c.226 2.035 1.016 3.618 2.37 4.748 1.356 1.131 2.992 1.696 4.912 1.696 1.692 0 3.104-.339 4.234-1.017a12.117 12.117 0 0 0 3.048-2.657l4.854 3.674c-1.58 1.96-3.35 3.355-5.306 4.184a15.617 15.617 0 0 1-6.154 1.244c-2.032 0-3.95-.34-5.757-1.018-1.806-.678-3.368-1.64-4.685-2.883-1.317-1.244-2.37-2.733-3.161-4.466-.753-1.772-1.129-3.731-1.129-5.88 0-2.148.376-4.089 1.129-5.823.79-1.771 1.844-3.279 3.161-4.522 1.317-1.244 2.879-2.205 4.685-2.883 1.807-.679 3.725-1.018 5.757-1.018 1.882 0 3.594.34 5.138 1.018 1.58.64 2.916 1.582 4.008 2.826 1.128 1.244 1.994 2.79 2.596 4.636.64 1.809.96 3.9.96 6.275v1.866h-20.66zm13.886-5.088c-.038-1.998-.658-3.562-1.862-4.693-1.206-1.168-2.88-1.752-5.024-1.752-2.032 0-3.652.584-4.855 1.752-1.167 1.169-1.882 2.733-2.145 4.693h13.886zM377.903 69.314h-.168c-.98 1.545-2.222 2.676-3.726 3.392-1.506.678-3.162 1.018-4.968 1.018a13.46 13.46 0 0 1-3.668-.51 10.231 10.231 0 0 1-3.162-1.526 7.966 7.966 0 0 1-2.202-2.544c-.564-1.017-.846-2.204-.846-3.561 0-1.47.264-2.714.79-3.731.526-1.056 1.224-1.922 2.088-2.6a10.74 10.74 0 0 1 3.106-1.697 19.472 19.472 0 0 1 3.612-.904 26.514 26.514 0 0 1 3.838-.396 61.775 61.775 0 0 1 3.612-.113h1.694v-.735c0-1.696-.582-2.959-1.75-3.788-1.166-.867-2.652-1.3-4.458-1.3-1.43 0-2.766.264-4.008.791-1.242.49-2.314 1.169-3.218 2.036l-3.556-3.562c1.504-1.545 3.254-2.657 5.25-3.336a19.653 19.653 0 0 1 6.264-1.017c1.92 0 3.538.226 4.856.678 1.316.415 2.408.961 3.274 1.64.864.678 1.524 1.47 1.976 2.374a9.237 9.237 0 0 1 1.016 2.657c.224.905.356 1.79.394 2.657.038.83.056 1.564.056 2.205v15.603h-6.096v-3.731zm-.394-8.423h-1.412c-.94 0-1.994.037-3.16.113a15.781 15.781 0 0 0-3.332.565c-1.016.264-1.882.678-2.596 1.244-.716.527-1.072 1.281-1.072 2.261 0 .64.132 1.187.394 1.64.302.414.678.772 1.13 1.074.452.301.96.527 1.524.678.564.113 1.128.17 1.694.17 2.332 0 4.044-.547 5.136-1.64 1.128-1.13 1.694-2.657 1.694-4.579v-1.526z" fill="#3291E9"/><rect width="58" height="58" rx="29" transform="matrix(-2 0 0 2 116 0)" fill="#3291E9"/><rect width="58" height="58" rx="29" transform="matrix(-2 0 0 2 116 0)" fill="url(#paint0_linear)"/><g opacity=".5" fill-rule="evenodd" clip-rule="evenodd"><path d="M95.638 14.104c-2.25 2.361-5.024 4.67-8.356 6.89-11.163 7.437-20.071 18.062-20.32 39.29-.275 23.511 10.363 35.218 22.969 45.972C80.748 112.411 69.709 116 57.835 116 25.893 116 0 90.032 0 58S25.893 0 57.835 0C72.286 0 85.5 5.316 95.638 14.104z" fill="#3291E9"/><path d="M47.819 7.052c-1.125 1.18-2.512 2.335-4.178 3.445-5.582 3.719-10.035 9.031-10.16 19.645-.137 11.756 5.182 17.609 11.484 22.986A28.724 28.724 0 0 1 28.917 58C12.947 58 0 45.016 0 29S12.947 0 28.917 0A28.757 28.757 0 0 1 47.82 7.052z" fill="url(#paint1_linear)" transform="scale(2)"/></g><g opacity=".5" fill-rule="evenodd" clip-rule="evenodd"><path d="M72.303 1.83c-1.548 4.205-4.233 8.651-8.207 13.24-8.789 10.147-14.558 22.765-9.178 43.292C61.72 84.313 78.152 91.65 95.669 99.47l1.775.793C87.094 110.021 73.16 116 57.834 116 25.895 116 0 90.032 0 58S25.893 0 57.835 0c4.996 0 9.844.635 14.468 1.83z" fill="#3291E9"/><path d="M36.151.915c-.773 2.103-2.116 4.326-4.103 6.62-4.394 5.073-7.28 11.383-4.589 21.646 3.401 12.976 11.617 16.644 20.375 20.554l.888.397C43.547 55.01 36.58 58 28.917 58 12.947 58 0 45.016 0 29S12.947 0 28.917 0c2.498 0 4.922.318 7.234.915z" fill="url(#paint2_linear)" transform="scale(2)"/></g><g opacity=".3" fill-rule="evenodd" clip-rule="evenodd"><path d="M4.093 36.527c.185.757.39 1.526.614 2.304 7.441 25.773 28.19 31.897 50.307 38.425 15.464 4.565 31.598 9.327 44.321 21.14C88.825 109.255 74.115 116 57.835 116 25.893 116 0 90.032 0 58a57.99 57.99 0 0 1 4.093-21.473z" fill="#3291E9"/><path d="M2.047 0c.092.379.194.763.306 1.152C6.074 14.038 16.448 17.1 27.507 20.365c7.732 2.282 15.8 4.663 22.16 10.57-5.255 5.428-12.61 8.802-20.75 8.802-15.97 0-28.917-12.984-28.917-29C0 6.944.726 3.32 2.047 0z" fill="url(#paint3_linear)" transform="matrix(2 0 0 2 0 36.527)"/></g><path d="M57.75 100.213c23.059 0 41.751-18.746 41.751-41.87s-18.692-41.87-41.75-41.87C34.692 16.473 16 35.22 16 58.343s18.692 41.87 41.75 41.87z" fill="#fff"/><path d="M60.003 37.547v2.62l-2.825-.38v-2.24c.422.246.89.38 1.401.38.512 0 1.001-.134 1.424-.38zM59.91 65.21v6.496h-2.824v-6.518a23.97 23.97 0 0 1 2.825.022z" fill="#24D7D0"/><path d="M61.312 35.105a2.837 2.837 0 0 1-1.402 2.464 2.74 2.74 0 0 1-1.4.38c-.513 0-1.002-.134-1.402-.38a2.837 2.837 0 0 1-1.402-2.464c0-1.568 1.268-2.845 2.825-2.845 1.557 0 2.78 1.277 2.78 2.845z" fill="#14869F"/><path d="M51.394 50.695v12.32c0 .18-.133.314-.311.314H39.717a.32.32 0 0 1-.29-.448l5.784-14.919a.317.317 0 0 1 .422-.179l5.583 2.62c.112.046.178.18.178.292z" fill="#1EB6D1"/><path d="M62.96 54.458c-.733 1.725-1.779 3.338-2.957 4.816a27.71 27.71 0 0 1-2.825 3.002 38.68 38.68 0 0 1-3.533 2.939c-.15.11-.388.043-.293-.117.556-1.187 1.646-4.435 1.446-11.446-.223-7.594-2.87-12.522-3.893-14.134-.156-.224.044-.515.311-.493l5.962.784 2.825.38 4.092.538c.048 0 .074.042.088.088.215.695 1.832 6.447-1.222 13.643z" fill="#6BD9FC"/><path d="M71.925 56.474c0 10.035-3.537 10.998-4.426 11.715-.134.09-.312.09-.423-.022-.6-.583-2.18-2.307-5.672-2.8a29.777 29.777 0 0 0-1.401-.157 30.173 30.173 0 0 0-2.825-.045 32.245 32.245 0 0 0-3.492.359c-.194.032-.181-.229-.023-.345.37-.274.742-.563 1.112-.865.134-.112.267-.202.4-.314a34.937 34.937 0 0 0 2.003-1.747c.133-.112.267-.246.378-.358.111-.112.222-.224.356-.336.049-.05.098-.092.143-.135.073-.07.134-.141.202-.215.067-.074.135-.156.205-.227.099-.1.197-.204.295-.32.111-.111.2-.223.311-.335.112-.112.223-.246.312-.358.2-.224.4-.47.6-.717.09-.135.2-.247.29-.381.089-.134.2-.246.289-.38.089-.135.178-.247.267-.382.089-.134.178-.246.267-.38.044-.068.11-.157.155-.224.067-.09.111-.18.178-.27.134-.2.267-.402.378-.604.045-.09.112-.18.156-.269.092-.185.213-.356.303-.542l.008-.018c.178-.313.334-.65.49-.963.067-.134.133-.269.178-.403 3.093-7.29 1.394-13.097 1.194-13.688-.007-.022.007-.043.023-.027a.049.049 0 0 0 .01.008c.731.377 7.76 6.576 7.76 15.745z" fill="#1EB6D1"/><path d="M84.648 66.15a.762.762 0 0 1-.422.673c-3.134 1.515-5.088 4.623-6.238 7.909a22.912 22.912 0 0 1-1.984 4.225c-.52.865-1.516 1.412-2.433.992l-1.424-.627a4.016 4.016 0 0 0-3.292 0l-1.423.627a4.016 4.016 0 0 1-3.292 0l-1.424-.627a4.016 4.016 0 0 0-3.292 0l-1.423.627a4.016 4.016 0 0 1-3.292 0l-1.424-.627a4.016 4.016 0 0 0-3.292 0l-1.424.627a4.016 4.016 0 0 1-3.292 0l-1.423-.627a4.016 4.016 0 0 0-3.292 0l-1.313.582c-.622.275-1.326-.036-1.695-.608C35.277 75.766 34 71.602 34 67.136c0-.313 0-.627.022-.94a.32.32 0 0 1 .312-.314H46.39c.178 0 .311.135.311.314v1.545c0 2.173 1.757 3.943 3.915 3.943h17.127c1.891 0 3.448-1.344 3.826-3.114.022-.134.156-.246.311-.246 3.807 0 7.564-.86 10.992-2.514l.686-.331a.727.727 0 0 1 .746.064c.196.14.344.368.344.608z" fill="#14869F"/><defs><linearGradient id="paint0_linear" x2="1" gradientUnits="userSpaceOnUse" gradientTransform="matrix(58 58 -545.75 88.5729 272.875 -44.286)"><stop offset=".048" stop-color="#1F66A9"/><stop offset=".685" stop-color="#3291E9"/></linearGradient><linearGradient id="paint1_linear" x2="1" gradientUnits="userSpaceOnUse" gradientTransform="matrix(-71.836 -7.39043 -1.87601 160.271 46.343 -3.102)"><stop stop-color="#E9A332" stop-opacity="0"/><stop offset="0" stop-color="#23DC7D" stop-opacity="0"/><stop offset="1" stop-color="#23DC7D"/></linearGradient><linearGradient id="paint2_linear" x2="1" gradientUnits="userSpaceOnUse" gradientTransform="matrix(-71.1866 12.0393 40.6313 155.011 24.39 -29.46)"><stop stop-color="#E9A332" stop-opacity="0"/><stop offset="0" stop-color="#23DC7D" stop-opacity="0"/><stop offset="1" stop-color="#23DC7D"/></linearGradient><linearGradient id="paint3_linear" x2="1" gradientUnits="userSpaceOnUse" gradientTransform="matrix(88.4485 40.5135 17.9137 -131.803 -26.388 98.367)"><stop stop-color="#23DC7D"/><stop offset="1" stop-color="#23DC7D" stop-opacity="0"/></linearGradient></defs></svg>