<svg data-name="Layer 1" xmlns="http://www.w3.org/2000/svg" viewBox="0 0 100.49 100.5"><defs><linearGradient id="a" x1="38.26" y1="150.76" x2="39.26" y2="150.76" gradientTransform="matrix(0 97.4 97.4 0 -14641.37 -3724.8)" gradientUnits="userSpaceOnUse"><stop offset="0" stop-color="#ff1b2d"/><stop offset=".3" stop-color="#ff1b2d"/><stop offset=".61" stop-color="#ff1b2d"/><stop offset="1" stop-color="#a70014"/></linearGradient><linearGradient id="b" x1="38.31" y1="150.69" x2="39.31" y2="150.69" gradientTransform="matrix(0 86.14 86.14 0 -12913.96 -3292.98)" gradientUnits="userSpaceOnUse"><stop offset="0" stop-color="#9c0000"/><stop offset=".7" stop-color="#ff4b4b"/><stop offset="1" stop-color="#ff4b4b"/></linearGradient></defs><path d="M50.24 0a50.25 50.25 0 0 0-2.38 100.44c.8 0 1.59.06 2.39.06a50.07 50.07 0 0 0 33.49-12.79 36.24 36.24 0 0 1-20.14 6.15c-12 0-22.68-5.94-29.89-15.3-5.56-6.55-9.16-16.25-9.4-27.13v-2.37c.24-10.87 3.84-20.57 9.39-27.13 7.21-9.36 17.93-15.29 29.9-15.29a36.24 36.24 0 0 1 20.14 6.16A50.07 50.07 0 0 0 50.43 0z" fill="url(#a)"/><path d="M33.7 21.93c4.62-5.44 10.57-8.72 17.08-8.72 14.63 0 26.49 16.59 26.49 37s-11.86 37-26.49 37c-6.51 0-12.46-3.28-17.07-8.72 7.21 9.36 17.92 15.3 29.89 15.3a36.32 36.32 0 0 0 20.14-6.15 50.26 50.26 0 0 0 0-74.93A36.2 36.2 0 0 0 63.6 6.64c-12 0-22.68 5.94-29.89 15.3" fill="url(#b)"/></svg>