<svg data-name="Layer 1" xmlns="http://www.w3.org/2000/svg" viewBox="0 0 157.34 53.35"><path d="M21.47 0C9.63 0 0 10.1 0 22.51S9.63 45 21.47 45s21.47-10.1 21.47-22.51S33.31 0 21.47 0zm0 3.38c10 0 18.09 8.58 18.09 19.13s-8.11 19.13-18.09 19.13S3.38 33.06 3.38 22.51 11.49 3.38 21.47 3.38zm39.46 8.51a13.68 13.68 0 0 0-10.88 5.42v-4.68h-3.54v40.72h3.54v-14.6a13.68 13.68 0 0 0 10.88 5.42c8.27 0 15-7.24 15-16.14s-6.74-16.14-15-16.14zm82 0c-8.27 0-15 7.24-15 16.14s6.73 16.14 15 16.14a13.68 13.68 0 0 0 10.88-5.42v4.58h3.54v-30.7h-3.55v4.68a13.67 13.67 0 0 0-10.88-5.42zm-48.83 0c-8.27 0-15 7.24-15 16.14s6.73 16.13 15 16.13a15 15 0 0 0 13.48-9.07l-3.05-1.78A11.49 11.49 0 0 1 94.1 40.7c-6 0-10.92-5.06-11.44-11.5h26.4v-1.13c0-9.5-6.17-16.14-15-16.14zm31.4.08A7.89 7.89 0 0 0 122 13a10.59 10.59 0 0 0-4.84 5.4c0 .06-.05.11-.07.16v-5.7h-3.54v30.48h3.54v-16a14.69 14.69 0 0 1 1.09-5.86 11.13 11.13 0 0 1 3-4.29 6.58 6.58 0 0 1 5.56-1.63l1 .2c.2-1 .68-2.3.89-3.32a11.16 11.16 0 0 0-3.19-.4zM60.92 15.4c6.34 0 11.49 5.67 11.49 12.63s-5.16 12.63-11.49 12.63S49.43 35 49.43 28s5.16-12.6 11.49-12.6zm82 0c6.34 0 11.49 5.67 11.49 12.63s-5.16 12.63-11.49 12.63S131.42 35 131.42 28s5.16-12.6 11.49-12.6zm-48.83 0c6.26 0 10.64 4.22 11.37 10.68H82.74c.86-6 5.61-10.68 11.34-10.68z"/></svg>