<?xml version="1.0" encoding="UTF-8"?>
<svg width="120px" height="38px" viewBox="0 0 120 38" version="1.1" xmlns="http://www.w3.org/2000/svg" xmlns:xlink="http://www.w3.org/1999/xlink">
    <!-- Generator: Sketch 50.2 (55047) - http://www.bohemiancoding.com/sketch -->
    <title>Group 2</title>
    <desc>Created with Sketch.</desc>
    <defs></defs>
    <g id="Page-1" stroke="none" stroke-width="1" fill="none" fill-rule="evenodd">
        <g id="loan-options" transform="translate(-773.000000, -522.000000)">
            <g id="Group-2" transform="translate(773.000000, 522.000000)">
                <g id="logo" transform="translate(48.000000, 1.000000)">
                    <g id="Group">
                        <g fill="#3C4252" font-family=".AppleSystemUIFont" font-size="13.2" font-weight="normal" id="Powered-by" opacity="0.5">
                            <text>
                                <tspan x="0" y="13">Powered by</tspan>
                            </text>
                        </g>
                        <g transform="translate(63.106830, 31.200000)" fill="#FFFFFF" fill-rule="nonzero" id="Shape">
                            <g transform="translate(1.129756, 0.105882)">
                                <polygon points="0.644048806 1.01647078 0.644048806 0.896470776 0.584048806 0.896470776"></polygon>
                            </g>
                        </g>
                    </g>
                </g>
                <text id="Dharma" font-family=".AppleSystemUIFont" font-size="17.184" font-weight="normal" letter-spacing="1.13054109" fill="#232220">
                    <tspan x="48" y="36">Dharma</tspan>
                </text>
                <path d="M11.4381263,21.5910479 L18.5551839,17.2338182 L18.5551839,1.48980417 C16.0110457,1.55322009 13.6015881,2.15911253 11.4381263,3.19616637 L11.4381263,21.5910479 Z M9.91304348,22.5247399 L9.91304348,4.02275907 C4.85959568,7.09534814 1.48426618,12.6534988 1.48426618,19 C1.48426618,21.731019 2.10929042,24.3160556 3.22409836,26.6198694 L9.91304348,22.5247399 Z M20.0802676,27.9974321 L27.1973244,23.5885891 L27.1973244,3.51687002 C25.0511248,2.37823295 22.6399264,1.67277493 20.0802676,1.51703434 L20.0802676,27.9974321 Z M18.5551839,28.9421842 L18.5551839,18.9638814 L3.92353443,27.9217214 C5.44418767,30.4858811 7.60037594,32.628798 10.1750815,34.1334546 L18.5551839,28.9421842 Z M28.722408,22.6438372 L36.4779008,17.8394987 C36.300151,15.1220091 35.5026665,12.5736377 34.2254104,10.3343478 L28.722408,13.5525541 L28.722408,22.6438372 Z M28.722408,4.42809352 L28.722408,11.8410486 L33.4395304,9.08243205 C32.1772346,7.24809356 30.5744552,5.66624217 28.722408,4.42809352 Z M28.7162953,2.66889632 L28.722408,2.66889632 L28.722408,2.67254252 C34.2786449,5.98821044 38,12.0595207 38,19 C38,29.4934102 29.4934102,38 19,38 C8.50658976,38 0,29.4934102 0,19 C0,8.50658976 8.50658976,0 19,0 C22.550386,0 25.8733271,0.973808003 28.7162953,2.66889632 Z M11.7052392,34.9291057 C13.9260896,35.9478121 16.3967222,36.5157338 19,36.5157338 C28.4845755,36.5157338 36.2084468,28.9772634 36.5067891,19.5651472 L11.7052357,34.929104 L11.7052392,34.9291057 Z" id="Shape" fill="#F3764A" fill-rule="nonzero"></path>
            </g>
        </g>
    </g>
</svg>