<svg xmlns="http://www.w3.org/2000/svg" xmlns:xlink="http://www.w3.org/1999/xlink" width="15" height="15" viewBox="0 0 15 15">
    <defs>
        <path id="a" d="M12.064 7.5h8.872c.892 0 1.215.093 1.54.267.327.174.583.43.757.756.174.326.267.65.267 1.54v8.873c0 .892-.093 1.215-.267 1.54-.174.327-.43.583-.756.757-.326.174-.65.267-1.54.267h-8.873c-.892 0-1.215-.093-1.54-.267a1.817 1.817 0 0 1-.757-.756c-.174-.326-.267-.65-.267-1.54v-8.873c0-.892.093-1.215.267-1.54.174-.327.43-.583.756-.757.326-.174.65-.267 1.54-.267zM12 9a1 1 0 0 0-1 1v3a1 1 0 0 0 1 1h3a1 1 0 0 0 1-1v-3a1 1 0 0 0-1-1h-3zm5 0v1h1V9h-1zm2 0v1h1V9h-1zm-1 1v1h1v-1h-1zm1 1v1h1v-1h-1zm-2 1v1h1v-1h-1zm1 1v1h1v-1h-1zm3 0v1h1v-1h-1zm0-2v1h1v-1h-1zm-1 0v1h1v-1h-1zm1-2v1h1V9h-1zm-1 4v1h1v-1h-1zm-3-2v1h1v-1h-1zm3-1v1h1v-1h-1zm-2 5a1 1 0 0 0-1 1v3a1 1 0 0 0 1 1h3a1 1 0 0 0 1-1v-3a1 1 0 0 0-1-1h-3zm-6 0a1 1 0 0 0-1 1v3a1 1 0 0 0 1 1h3a1 1 0 0 0 1-1v-3a1 1 0 0 0-1-1h-3zm0 1h3v3h-3v-3zm0-6h3v3h-3v-3zm6 6h3v3h-3v-3zm-5-5v1h1v-1h-1zm6 6v1h1v-1h-1zm-6 0v1h1v-1h-1z"/>
    </defs>
    <use fill="#FFF" fill-rule="evenodd" transform="translate(-9 -7)" xlink:href="#a"/>
</svg>
