<?xml version="1.0" encoding="UTF-8"?>
<svg width="15px" height="15px" viewBox="0 0 15 15" version="1.1" xmlns="http://www.w3.org/2000/svg" xmlns:xlink="http://www.w3.org/1999/xlink">
    <!-- Generator: Sketch 50.2 (55047) - http://www.bohemiancoding.com/sketch -->
    <title>refresh-arrow</title>
    <desc>Created with Sketch.</desc>
    <defs></defs>
    <g id="refresh-arrow" stroke="none" stroke-width="1" fill="none" fill-rule="evenodd">
        <g fill="#000000" fill-rule="nonzero" id="Shape">
            <path d="M14.6191032,0.673627707 C14.3522087,0.563146469 14.1244094,0.608570334 13.9355002,0.810412372 L12.6659811,2.07030894 C11.9693805,1.41272324 11.1735196,0.903312385 10.2783301,0.541973749 C9.38314057,0.180669318 8.45699633,0 7.4999658,0 C6.48437785,0 5.51434976,0.198660999 4.58988152,0.595743565 C3.66534487,0.992860335 2.86780802,1.52662495 2.19727097,2.19720844 C1.52669972,2.86786034 0.992808019,3.66530912 0.595698493,4.58979422 C0.198623171,5.51434774 0,6.48425671 0,7.5 C0,8.51543545 0.198623171,9.48558385 0.595732697,10.4101032 C0.992944836,11.3346909 1.52669972,12.1322081 2.19730517,12.8027916 C2.86784222,13.4731698 3.66537907,14.0070371 4.58991572,14.404188 C5.51438396,14.801339 6.48441205,15 7.5,15 C8.61970521,15 9.68444443,14.7640217 10.6933968,14.2919623 C11.7024175,13.8201083 12.5617954,13.1543134 13.2715987,12.2948857 C13.323589,12.2297941 13.3480107,12.1565276 13.3446587,12.0751546 C13.3416145,11.9938158 13.3104888,11.9270824 13.2519314,11.8749886 L11.9142777,10.5273569 C11.8424149,10.4688327 11.7612828,10.4395876 11.6700947,10.4395876 C11.5659432,10.4525854 11.4911389,10.491784 11.4455106,10.5568756 C10.9702447,11.1755021 10.387578,11.6538893 9.69744199,11.992687 C9.00744281,12.3311085 8.27503056,12.5002508 7.50027363,12.5002508 C6.82330621,12.5002508 6.17712248,12.3684259 5.56189345,12.1047075 C4.94659601,11.8411259 4.4143119,11.4846786 3.96517795,11.0354338 C3.5160782,10.5861548 3.15963735,10.0540663 2.89592378,9.43868918 C2.63227863,8.82344893 2.50042185,8.17742443 2.50042185,7.50027364 C2.50042185,6.82319125 2.63238124,6.17685891 2.89592378,5.56175548 C3.15953473,4.94658363 3.51594139,4.41428982 3.96517795,3.96514767 C4.41444872,3.51590291 4.94659601,3.15945555 5.56189345,2.89573718 C6.17698566,2.63212142 6.82330621,2.50022803 7.50027363,2.50022803 C8.80888805,2.50022803 9.94501122,2.94622334 10.9085747,3.83817976 L9.56062562,5.1856404 C9.35871885,5.38098355 9.31329582,5.60564013 9.42377504,5.85950754 C9.5346305,6.11994226 9.72668649,6.25012542 10.0002508,6.25012542 L14.3751596,6.25012542 C14.5444357,6.25012542 14.6908634,6.18831749 14.8146138,6.06459903 C14.9381932,5.94091477 15,5.79445017 15,5.62517102 L15,1.25007981 C14.9999316,0.976715709 14.873308,0.78465622 14.6191032,0.673627707 Z"></path>
        </g>
    </g>
</svg>