<?xml version="1.0" encoding="UTF-8"?>
<svg width="19px" height="19px" viewBox="0 0 19 19" version="1.1" xmlns="http://www.w3.org/2000/svg" xmlns:xlink="http://www.w3.org/1999/xlink">
    <!-- Generator: Sketch 50.2 (55047) - http://www.bohemiancoding.com/sketch -->
    <title>star</title>
    <desc>Created with Sketch.</desc>
    <defs></defs>
    <g id="Page-1" stroke="none" stroke-width="1" fill="none" fill-rule="evenodd" opacity="0.600000024">
        <g id="loan-options" transform="translate(-728.000000, -222.000000)" fill="#6B6B6B" fill-rule="nonzero">
            <g id="star" transform="translate(728.000000, 222.000000)">
                <path d="M13.6698572,11.8305063 L15.5343987,18.0117448 C15.6347985,18.3204855 15.5317386,18.6613988 15.2796199,18.854531 C15.0275012,19.0476632 14.6843477,19.0485659 14.4312956,18.8567625 L9.48990896,14.9776382 L4.55848073,18.8546643 C4.3048058,19.0449731 3.96208731,19.0425553 3.71091076,18.8486849 C3.45973421,18.6548144 3.35777616,18.314009 3.45876041,18.0058461 L5.30980867,11.8394929 L0.30327425,8.09477176 C0.048232826,7.90423577 -0.0605868386,7.56471771 0.0334178145,7.25281795 C0.127422468,6.94091819 0.403017611,6.72708882 0.716852406,6.72255322 L6.884454,6.72255322 L8.80897406,0.522074719 C8.90172937,0.211557657 9.17764572,0 9.48987095,0 C9.80209618,0 10.0780125,0.211557657 10.1707678,0.522074719 L12.0952879,6.72255322 L18.2831864,6.72255322 C18.5971341,6.72710799 18.8727898,6.94110263 18.9666857,7.25316147 C19.0605815,7.5652203 18.9514922,7.90480193 18.6961944,8.09516765 L13.6698572,11.8305063 Z" id="Shape"></path>
            </g>
        </g>
    </g>
</svg>