<?xml version="1.0" encoding="UTF-8"?>
<svg width="109px" height="31px" viewBox="0 0 109 31" version="1.1" xmlns="http://www.w3.org/2000/svg" xmlns:xlink="http://www.w3.org/1999/xlink">
    <!-- Generator: Sketch 49.3 (51167) - http://www.bohemiancoding.com/sketch -->
    <title>logoTrezor</title>
    <desc>Created with Sketch.</desc>
    <defs></defs>
    <g id="Page-1" stroke="none" stroke-width="1" fill="none" fill-rule="evenodd" opacity="0.800000012">
        <g id="dashboard-copy-25" transform="translate(-256.000000, -334.000000)" fill="#000000" fill-rule="nonzero">
            <g id="Group-Copy" transform="translate(228.000000, 312.000000)">
                <g id="trezor" transform="translate(28.000000, 7.000000)">
                    <g id="Group-3" transform="translate(0.000000, 15.000000)">
                        <path d="M10.5712942,0 C6.36400402,0 2.95911328,3.40489074 2.95911328,7.61218093 L2.95911328,10.4651567 C1.48167939,10.7326232 0,11.0892452 0,11.5520046 L0,26.440972 C0,26.440972 0,26.8527855 0.462759465,27.0480785 C2.13973184,27.7273584 8.73723834,30.0623832 10.2528817,30.5973162 C10.4481747,30.6694897 10.5033662,30.6694897 10.5543122,30.6694897 C10.6264857,30.6694897 10.6604497,30.6694897 10.8557427,30.5973162 C12.3713861,30.0623832 18.9858746,27.7273584 20.6628469,27.0480785 C21.0916424,26.8697675 21.1086244,26.457954 21.1086244,26.457954 L21.1086244,11.5520046 C21.1086244,11.0892452 19.6481725,10.7156412 18.1664931,10.4651567 L18.1664931,7.61218093 C18.1877206,3.40489074 14.7616024,0 10.5712942,0 Z M10.5712942,3.63839323 C13.050666,3.63839323 14.5493274,5.13705461 14.5493274,7.61642643 L14.5493274,10.0957982 C11.7685251,9.90050525 9.39529079,9.90050525 6.5975065,10.0957982 L6.5975065,7.61642643 C6.5975065,5.13280911 8.09616789,3.63839323 10.5712942,3.63839323 Z M10.5543122,13.746928 C14.0143944,13.746928 16.9183162,14.0143944 16.9183162,14.4941359 L16.9183162,23.7832892 C16.9183162,23.9276362 16.9013342,23.9446182 16.7739692,23.9955642 C16.6508497,24.0507557 10.8727247,26.135296 10.8727247,26.135296 C10.8727247,26.135296 10.6392222,26.2074695 10.5712942,26.2074695 C10.4991207,26.2074695 10.2698637,26.118314 10.2698637,26.118314 C10.2698637,26.118314 4.49173866,24.0337737 4.36861917,23.9785822 C4.24549968,23.9233907 4.22427218,23.9064087 4.22427218,23.7663072 L4.22427218,14.4771539 C4.19030818,13.9974124 7.09422997,13.746928 10.5543122,13.746928 Z M30.9270196,23.9099537 L30.9270196,13.7374594 L27.2102247,13.7374594 L27.2102247,10.0896444 L38.798834,10.0896444 L38.798834,13.7374594 L35.1185579,13.7374594 L35.1185579,23.9099537 L30.9270196,23.9099537 Z M48.1882045,23.9099537 L46.2811154,19.5642252 L44.7635594,19.5642252 L44.7635594,23.9099537 L40.5720211,23.9099537 L40.5720211,10.0896444 L47.9488039,10.0896444 C51.1867977,10.0896444 52.9234661,12.236134 52.9234661,14.824906 C52.9234661,17.2107961 51.5438697,18.472721 50.436135,19.0164443 L52.9396966,23.9058961 L48.1882045,23.9058961 L48.1882045,23.9099537 Z M48.6832361,14.824906 C48.6832361,14.0742433 48.0177838,13.7496323 47.3198703,13.7496323 L44.7635594,13.7496323 L44.7635594,15.9326407 L47.3198703,15.9326407 C48.0177838,15.9164101 48.6832361,15.5917992 48.6832361,14.824906 Z M55.122705,23.9099537 L55.122705,10.0896444 L65.6035796,10.0896444 L65.6035796,13.7374594 L59.2980127,13.7374594 L59.2980127,15.1008252 L65.4493894,15.1008252 L65.4493894,18.7486403 L59.2980127,18.7486403 L59.2980127,20.2661963 L65.6035796,20.2661963 L65.6035796,23.9099537 L55.122705,23.9099537 Z M67.7825303,23.9261842 L67.7825303,20.6029801 L73.0493422,13.75369 L67.7825303,13.75369 L67.7825303,10.1058749 L78.5677276,10.1058749 L78.5677276,13.396618 L73.2846851,20.2824268 L78.7219178,20.2824268 L78.7219178,23.9302419 L67.7825303,23.9261842 Z M79.7444421,17.0241449 C79.7444421,12.7798573 83.0351852,9.86647439 87.3119339,9.86647439 C91.572452,9.86647439 94.8794256,12.7636267 94.8794256,17.0241449 C94.8794256,21.2684324 91.5886826,24.1655848 87.3119339,24.1655848 C83.0351852,24.1655848 79.7444421,21.2684324 79.7444421,17.0241449 Z M90.6189075,17.0241449 C90.6189075,15.0967676 89.3082909,13.5629811 87.2957033,13.5629811 C85.2831157,13.5629811 83.9724992,15.0967676 83.9724992,17.0241449 C83.9724992,18.9515221 85.2831157,20.4853086 87.2957033,20.4853086 C89.3245215,20.4853086 90.6189075,18.9515221 90.6189075,17.0241449 Z M104.248508,23.9261842 L102.341419,19.5804557 L100.823863,19.5804557 L100.823863,23.9261842 L96.6323245,23.9261842 L96.6323245,10.1058749 L104.009107,10.1058749 C107.247101,10.1058749 108.983769,12.2523645 108.983769,14.8411365 C108.983769,17.2270267 107.604173,18.4889516 106.496438,19.0326748 L109,23.9221266 L104.248508,23.9221266 L104.248508,23.9261842 Z M104.75977,14.824906 C104.75977,14.0742433 104.094318,13.7496323 103.396404,13.7496323 L100.840093,13.7496323 L100.840093,15.9326407 L103.396404,15.9326407 C104.098375,15.9164101 104.75977,15.5917992 104.75977,14.824906 Z" id="logoTrezor"></path>
                    </g>
                </g>
            </g>
        </g>
    </g>
</svg>