<svg width="288" height="288" xmlns="http://www.w3.org/2000/svg" xmlns:xlink="http://www.w3.org/1999/xlink"><use xlink:href="#path0_fill" fill="#3375BB"/><use xlink:href="#path1_stroke" transform="translate(71.2 59.3)" fill="#FFF"/><defs><path id="path0_fill" d="M288 0H0v288h288V0z"/><path id="path1_stroke" d="M72.4 0l4.235-5.467a6.916 6.916 0 0 0-8.47 0L72.4 0zm72.5 21.3l6.915.113a6.916 6.916 0 0 0-6.915-7.029V21.3zM72.4 169.4l-3.831 5.757a6.913 6.913 0 0 0 7.662 0L72.4 169.4zM0 21.3v-6.916a6.916 6.916 0 0 0-6.915 7.029L0 21.3zM68.165 5.467C99.55 29.783 135.462 28.216 144.9 28.216V14.384c-9.762 0-41.05 1.233-68.265-19.85l-8.47 10.933zm69.82 15.72c-.521 32.124-1.88 54.782-4.484 71.57-2.568 16.61-6.241 26.565-10.968 33.557-4.79 7.264-10.798 11.575-19.701 16.894-8.98 5.379-20.325 11.173-34.263 20.435l7.662 11.514c13.262-8.838 24.318-14.469 33.703-20.081 9.462-5.671 17.785-11.917 24.058-21.015 6.335-9.371 10.456-21.585 13.178-39.19 2.688-17.428 4.116-41.032 4.645-73.459l-13.83-.224zM76.231 163.643c-13.938-9.262-25.274-15.055-34.244-20.433-8.893-5.318-14.888-9.627-19.666-16.89-4.716-6.991-8.378-16.947-10.938-33.56C8.79 75.973 7.436 53.313 6.915 21.188l-13.83.226c.53 32.425 1.95 56.028 4.628 73.454 2.713 17.603 6.82 29.817 13.141 39.188 6.26 9.099 14.571 15.347 24.025 21.02 9.377 5.612 20.428 11.244 33.69 20.082l7.662-11.514zM0 28.216c9.34 0 45.25 1.566 76.635-22.75l-8.47-10.933C40.949 15.618 9.66 14.384 0 14.384v13.832z"/></defs></svg>