<?xml version="1.0" encoding="UTF-8"?>
<svg width="17px" height="27px" viewBox="0 0 17 27" version="1.1" xmlns="http://www.w3.org/2000/svg" xmlns:xlink="http://www.w3.org/1999/xlink" xmlns:sketch="http://www.bohemiancoding.com/sketch/ns">
    <!-- Generator: Sketch 3.5.1 (25234) - http://www.bohemiancoding.com/sketch -->
    <title>usd</title>
    <desc>Created with Sketch.</desc>
    <defs></defs>
    <g id="Page-1" stroke="none" stroke-width="1" fill="none" fill-rule="evenodd" sketch:type="MSPage">
        <g id="usd" sketch:type="MSLayerGroup" fill="#000000">
            <path d="M4.859375,8.21875 C4.859375,6.78125 5.953125,5.890625 7.421875,5.71875 L7.421875,10.765625 C7.265625,10.71875 7.125,10.671875 6.984375,10.625 C5.578125,10.171875 4.859375,9.34375 4.859375,8.21875 L4.859375,8.21875 Z M12.65625,17.96875 C12.65625,19.515625 11.484375,20.53125 9.84375,20.671875 L9.84375,15.25 C9.9375,15.28125 10.046875,15.3125 10.15625,15.328125 C11.875,15.828125 12.65625,16.6875 12.65625,17.96875 L12.65625,17.96875 Z M9.875,26.015625 L9.859375,24.03125 C14.140625,23.625 16.875,21.28125 16.875,17.546875 C16.875,13.78125 14.296875,12.1875 11.171875,11.515625 L9.84375,11.234375 L9.84375,5.734375 C11.484375,6.015625 12.40625,7.265625 12.453125,8.53125 L16.46875,8.53125 C16.40625,5.265625 13.859375,2.8125 9.90625,2.390625 L9.90625,0.359375 L7.359375,0.359375 L7.359375,2.375 C3.578125,2.71875 0.609375,4.796875 0.609375,8.53125 C0.609375,12.078125 3.171875,13.890625 6.078125,14.53125 L7.421875,14.828125 L7.421875,20.671875 C5.4375,20.40625 4.40625,19.203125 4.3125,17.75 L0.203125,17.75 C0.234375,20.640625 2.15625,23.6875 7.34375,24.0625 L7.328125,26.015625 L9.875,26.015625 Z" id="$" sketch:type="MSShapeGroup"></path>
        </g>
    </g>
</svg>