<?xml version="1.0" encoding="UTF-8"?>
<svg width="1069px" height="166px" viewBox="0 0 1069 166" version="1.1" xmlns="http://www.w3.org/2000/svg" xmlns:xlink="http://www.w3.org/1999/xlink">
    <!-- Generator: Sketch 51.1 (57501) - http://www.bohemiancoding.com/sketch -->
    <title>walletconnect</title>
    <desc>Created with Sketch.</desc>
    <defs>
        <path d="M374.193848,71.6713867 L358.049805,127 L346.973633,127 L326.649902,51.6088867 L338.823242,51.6088867 L352.668457,109.34082 L353.399902,109.34082 L369.125977,51.6088867 L379.993164,51.6088867 L395.82373,109.34082 L396.555176,109.34082 L410.348145,51.6088867 L422.521484,51.6088867 L402.145508,127 L391.121582,127 L374.925293,71.6713867 L374.193848,71.6713867 Z M448.026562,118.483887 C456.49043,118.483887 462.759961,113.102539 462.759961,106.049316 L462.759961,101.294922 L448.8625,102.183105 C441.025586,102.705566 437.472852,105.370117 437.472852,110.385742 C437.472852,115.505859 441.91377,118.483887 448.026562,118.483887 Z M445.153027,127.94043 C434.181348,127.94043 426.187695,121.305176 426.187695,110.908203 C426.187695,100.667969 433.815625,94.7641602 447.347363,93.9282227 L462.759961,93.0400391 L462.759961,88.1289062 C462.759961,82.1206055 458.789258,78.7246094 451.109082,78.7246094 C444.839551,78.7246094 440.503125,81.0234375 439.249219,85.0463867 L428.382031,85.0463867 C429.531445,75.2763672 438.726758,69.0068359 451.631543,69.0068359 C465.894727,69.0068359 473.940625,76.1123047 473.940625,88.1289062 L473.940625,127 L463.125684,127 L463.125684,119.006348 L462.2375,119.006348 C458.841504,124.701172 452.624219,127.94043 445.153027,127.94043 Z M490.250391,127 L490.250391,47.8994141 L501.483301,47.8994141 L501.483301,127 L490.250391,127 Z M518.629004,127 L518.629004,47.8994141 L529.861914,47.8994141 L529.861914,127 L518.629004,127 Z M569.83916,78.5678711 C561.532031,78.5678711 555.732715,84.4194336 555.105762,93.3012695 L583.841113,93.3012695 C583.579883,84.3671875 578.146289,78.5678711 569.83916,78.5678711 Z M583.788867,111.639648 L594.603809,111.639648 C592.148242,121.775391 582.95293,128.097168 569.943652,128.097168 C553.642871,128.097168 543.663867,116.916504 543.663867,98.7348633 C543.663867,80.5532227 553.851855,69.0068359 569.891406,69.0068359 C585.721973,69.0068359 595.283008,79.8217773 595.283008,97.6899414 L595.283008,101.608398 L555.105762,101.608398 L555.105762,102.235352 C555.471484,112.214355 561.270801,118.536133 570.257129,118.536133 C577.049121,118.536133 581.699023,116.080566 583.788867,111.639648 Z M612.533203,55.9453125 L623.766113,55.9453125 L623.766113,70.3652344 L636.096191,70.3652344 L636.096191,79.8217773 L623.766113,79.8217773 L623.766113,109.07959 C623.766113,115.035645 626.22168,117.647949 631.812012,117.647949 C633.536133,117.647949 634.528809,117.543457 636.096191,117.386719 L636.096191,126.73877 C634.267578,127.052246 632.177734,127.313477 629.983398,127.313477 C617.496582,127.313477 612.533203,122.924805 612.533203,111.953125 L612.533203,79.8217773 L603.494629,79.8217773 L603.494629,70.3652344 L612.533203,70.3652344 L612.533203,55.9453125 Z M681.350293,128.828613 C660.399609,128.828613 647.338086,113.729492 647.338086,89.3305664 C647.338086,64.8793945 660.347363,49.7802734 681.298047,49.7802734 C697.912305,49.7802734 710.764844,60.5429688 712.645703,75.9033203 L700.994824,75.9033203 C698.800488,66.6557617 691.224805,60.699707 681.298047,60.699707 C667.766309,60.699707 659.302441,71.7236328 659.302441,89.3305664 C659.302441,106.885254 667.766309,117.90918 681.350293,117.90918 C691.329297,117.90918 698.90498,112.527832 700.994824,104.011719 L712.645703,104.011719 C710.555859,118.901855 698.173535,128.828613 681.350293,128.828613 Z M750.533105,128.097168 C733.866602,128.097168 723.678613,116.96875 723.678613,98.5258789 C723.678613,80.1875 733.918848,69.0068359 750.533105,69.0068359 C767.095117,69.0068359 777.335352,80.1875 777.335352,98.5258789 C777.335352,116.96875 767.147363,128.097168 750.533105,128.097168 Z M750.533105,118.118164 C760.250879,118.118164 765.788965,110.908203 765.788965,98.5258789 C765.788965,86.1958008 760.250879,78.9858398 750.533105,78.9858398 C740.763086,78.9858398 735.277246,86.1958008 735.277246,98.5258789 C735.277246,110.960449 740.763086,118.118164 750.533105,118.118164 Z M790.614844,127 L790.614844,70.1040039 L801.429785,70.1040039 L801.429785,79.1425781 L802.265723,79.1425781 C805.034766,72.8208008 810.677344,69.0068359 819.245703,69.0068359 C831.941504,69.0068359 838.94248,76.6347656 838.94248,90.1665039 L838.94248,127 L827.70957,127 L827.70957,92.987793 C827.70957,83.8447266 823.738867,79.2993164 815.431738,79.2993164 C807.124609,79.2993164 801.847754,84.8374023 801.847754,93.7192383 L801.847754,127 L790.614844,127 Z M854.520801,127 L854.520801,70.1040039 L865.335742,70.1040039 L865.335742,79.1425781 L866.17168,79.1425781 C868.940723,72.8208008 874.583301,69.0068359 883.15166,69.0068359 C895.847461,69.0068359 902.848437,76.6347656 902.848437,90.1665039 L902.848437,127 L891.615527,127 L891.615527,92.987793 C891.615527,83.8447266 887.644824,79.2993164 879.337695,79.2993164 C871.030566,79.2993164 865.753711,84.8374023 865.753711,93.7192383 L865.753711,127 L854.520801,127 Z M941.780762,78.5678711 C933.473633,78.5678711 927.674316,84.4194336 927.047363,93.3012695 L955.782715,93.3012695 C955.521484,84.3671875 950.087891,78.5678711 941.780762,78.5678711 Z M955.730469,111.639648 L966.54541,111.639648 C964.089844,121.775391 954.894531,128.097168 941.885254,128.097168 C925.584473,128.097168 915.605469,116.916504 915.605469,98.7348633 C915.605469,80.5532227 925.793457,69.0068359 941.833008,69.0068359 C957.663574,69.0068359 967.224609,79.8217773 967.224609,97.6899414 L967.224609,101.608398 L927.047363,101.608398 L927.047363,102.235352 C927.413086,112.214355 933.212402,118.536133 942.19873,118.536133 C948.990723,118.536133 953.640625,116.080566 955.730469,111.639648 Z M1028.675,88.7036133 L1017.75557,88.7036133 C1016.44941,83.1655273 1011.85176,79.0380859 1004.32832,79.0380859 C994.924023,79.0380859 989.176953,86.2480469 989.176953,98.3691406 C989.176953,110.699219 994.976269,118.065918 1004.32832,118.065918 C1011.43379,118.065918 1016.29268,114.82666 1017.75557,108.713867 L1028.675,108.713867 C1027.21211,120.155762 1018.43477,128.097168 1004.38057,128.097168 C987.818555,128.097168 977.682812,116.916504 977.682812,98.3691406 C977.682812,80.1352539 987.766309,69.0068359 1004.32832,69.0068359 C1018.5915,69.0068359 1027.21211,77.3139648 1028.675,88.7036133 Z M1045.246,55.9453125 L1056.47891,55.9453125 L1056.47891,70.3652344 L1068.80898,70.3652344 L1068.80898,79.8217773 L1056.47891,79.8217773 L1056.47891,109.07959 C1056.47891,115.035645 1058.93447,117.647949 1064.5248,117.647949 C1066.24893,117.647949 1067.2416,117.543457 1068.80898,117.386719 L1068.80898,126.73877 C1066.98037,127.052246 1064.89053,127.313477 1062.69619,127.313477 C1050.20937,127.313477 1045.246,122.924805 1045.246,111.953125 L1045.246,79.8217773 L1036.20742,79.8217773 L1036.20742,70.3652344 L1045.246,70.3652344 L1045.246,55.9453125 Z" id="path-1"></path>
    </defs>
    <g id="Page-1" stroke="none" stroke-width="1" fill="none" fill-rule="evenodd">
        <g id="walletconnect">
            <path d="M54.630166,32.3769662 C97.9126949,-10.7923221 168.087539,-10.7923221 211.370068,32.3769662 L218.531839,39.5199996 C219.614707,40.600034 219.617003,42.3534124 218.536969,43.43628 C218.535261,43.4379921 218.533551,43.4397021 218.531839,43.4414098 L198.756149,63.1653607 C197.675287,64.243395 195.92586,64.243395 194.844998,63.1653607 L187.672954,56.0120811 C157.47798,25.8961064 108.522254,25.8961064 78.32728,56.0120811 L70.6468732,63.6723935 C69.5660111,64.7504278 67.8165848,64.7504278 66.7357227,63.6723935 L46.9600324,43.9484425 C45.8771648,42.8684081 45.8748681,41.1150297 46.9549025,40.0321622 C46.9566102,40.03045 46.9583202,40.0287401 46.9600324,40.0270324 L54.630166,32.3769662 Z M246.259281,67.1750972 L264.068331,84.9375533 C266.234066,87.0976221 266.238659,90.604379 264.078591,92.770114 C264.075184,92.7735292 264.071774,92.7769399 264.068359,92.7803461 L192.563604,164.099027 C190.401884,166.255122 186.903011,166.255134 184.741275,164.099055 L133.978253,113.468844 C133.437818,112.929823 132.563097,112.929827 132.022668,113.468854 L81.2607262,164.099004 C79.0990082,166.255109 75.6001253,166.255127 73.4383857,164.099043 L1.93169672,92.7794379 C-0.23403832,90.6193692 -0.23863171,87.1126123 1.92143708,84.9468772 C1.92485248,84.9434529 1.92827236,84.940033 1.93169672,84.9366176 L19.7407192,67.1741891 C20.8215813,66.0961549 22.5710076,66.0961549 23.6518697,67.1741891 L76.371206,119.755595 C76.9116459,120.294621 77.7863764,120.294611 78.3268039,119.755573 L129.088022,69.1248281 C131.249732,66.9686746 134.748654,66.9686342 136.910413,69.1247379 L187.674107,119.755618 C188.214538,120.294635 189.089251,120.294635 189.629682,119.755618 L242.34813,67.1750972 C243.428992,66.097063 245.178419,66.097063 246.259281,67.1750972 Z" id="walletconnect-logo" fill="#3B99FC" fill-rule="nonzero"></path>
            <g id="WalletConnect">
                <use fill="#000000" xlink:href="#path-1"></use>
                <use fill="#3B99FC" xlink:href="#path-1"></use>
            </g>
        </g>
    </g>
</svg>