<?xml version="1.0" encoding="UTF-8"?>
<svg width="1065px" height="166px" viewBox="0 0 1065 166" version="1.1" xmlns="http://www.w3.org/2000/svg" xmlns:xlink="http://www.w3.org/1999/xlink">
    <!-- Generator: Sketch 51 (57462) - http://www.bohemiancoding.com/sketch -->
    <title>walletconnect-logo-and-type</title>
    <desc>Created with Sketch.</desc>
    <defs></defs>
    <g id="Page-1" stroke="none" stroke-width="1" fill="none" fill-rule="evenodd">
        <g id="Artboard-Copy-10" transform="translate(-47.000000, -68.000000)" fill="#3B99FC">
            <g id="walletconnect-logo-and-type" transform="translate(45.000000, 68.000000)">
                <g id="Group">
                    <path d="M56.630166,32.3769662 C99.9126949,-10.7923221 170.087539,-10.7923221 213.370068,32.3769662 L220.531839,39.5199996 C221.614707,40.600034 221.617003,42.3534124 220.536969,43.43628 C220.535261,43.4379921 220.533551,43.4397021 220.531839,43.4414098 L200.756149,63.1653607 C199.675287,64.243395 197.92586,64.243395 196.844998,63.1653607 L189.672954,56.0120811 C159.47798,25.8961064 110.522254,25.8961064 80.32728,56.0120811 L72.6468732,63.6723935 C71.5660111,64.7504278 69.8165848,64.7504278 68.7357227,63.6723935 L48.9600324,43.9484425 C47.8771648,42.8684081 47.8748681,41.1150297 48.9549025,40.0321622 C48.9566102,40.03045 48.9583202,40.0287401 48.9600324,40.0270324 L56.630166,32.3769662 Z M248.259281,67.1750972 L266.068331,84.9375533 C268.234066,87.0976221 268.238659,90.604379 266.078591,92.770114 C266.075184,92.7735292 266.071774,92.7769399 266.068359,92.7803461 L194.563604,164.099027 C192.401884,166.255122 188.903011,166.255134 186.741275,164.099055 L135.978253,113.468844 C135.437818,112.929823 134.563097,112.929827 134.022668,113.468854 L83.2607262,164.099004 C81.0990082,166.255109 77.6001253,166.255127 75.4383857,164.099043 L3.93169672,92.7794379 C1.76596168,90.6193692 1.76136829,87.1126123 3.92143708,84.9468772 C3.92485248,84.9434529 3.92827236,84.940033 3.93169672,84.9366176 L21.7407192,67.1741891 C22.8215813,66.0961549 24.5710076,66.0961549 25.6518697,67.1741891 L78.371206,119.755595 C78.9116459,120.294621 79.7863764,120.294611 80.3268039,119.755573 L131.088022,69.1248281 C133.249732,66.9686746 136.748654,66.9686342 138.910413,69.1247379 L189.674107,119.755618 C190.214538,120.294635 191.089251,120.294635 191.629682,119.755618 L244.34813,67.1750972 C245.428992,66.097063 247.178419,66.097063 248.259281,67.1750972 Z" id="walletconnect-logo" fill-rule="nonzero"></path>
                    <text id="WalletConnect" font-family="SFProText-Regular, SF Pro Text" font-size="107" font-weight="normal">
                        <tspan x="335" y="128">WalletConnect</tspan>
                    </text>
                </g>
            </g>
        </g>
    </g>
</svg>